<?xml version="1.0" encoding="utf-8"?>
<!-- Generator: Adobe Illustrator 29.5.1, SVG Export Plug-In . SVG Version: 9.03 Build 0)  -->
<!DOCTYPE svg PUBLIC "-//W3C//DTD SVG 1.1//EN" "http://www.w3.org/Graphics/SVG/1.1/DTD/svg11.dtd" [
	<!ENTITY st0 "fill:#BCBBBB;">
	<!ENTITY st1 "fill:#2B2B2B;">
	<!ENTITY st2 "fill:#5A5A58;">
	<!ENTITY st3 "fill:#FFFFFD;">
	<!ENTITY st4 "fill:#E7E7E8;">
	<!ENTITY st5 "fill:#CAC8C8;">
	<!ENTITY st6 "fill:#EF847D;">
	<!ENTITY st7 "fill:#EA5B3A;">
	<!ENTITY st8 "fill:#C0422D;">
	<!ENTITY st9 "fill:#FFDB4B;">
	<!ENTITY st10 "fill:#FCC008;">
	<!ENTITY st11 "fill:#F6A52E;">
	<!ENTITY st12 "fill:#63A5CC;">
	<!ENTITY st13 "fill:#387BBE;">
	<!ENTITY st14 "fill:#1E4E9D;">
]>
<svg version="1.1" id="Laag_1" xmlns="http://www.w3.org/2000/svg" xmlns:xlink="http://www.w3.org/1999/xlink" x="0px" y="0px"
	 viewBox="0 0 440 269.66" style="enable-background:new 0 0 440 269.66;" xml:space="preserve">
<g>
	<g>
		<rect x="368.18" y="197.75" style="&st0;" width="44.94" height="44.94"/>
		<rect x="396.27" y="211.23" style="&st1;" width="3.37" height="6.74"/>
		<rect x="381.66" y="211.23" style="&st1;" width="3.37" height="6.74"/>
		<rect x="397.11" y="214.04" style="&st0;" width="1.69" height="3.37"/>
		<rect x="382.51" y="214.04" style="&st0;" width="1.69" height="3.37"/>
	</g>
	<path style="&st2;" d="M422.11,206.74v-8.99v-8.99h-8.99h-8.99v-8.99h-8.99h-8.99h-8.99v8.99h-8.99h-8.99v8.99h-8.99v8.99v8.99
		h8.99v8.99v8.99v8.99v8.99h8.99h8.99v8.99h-8.99v8.99h8.99h8.99v-8.99v-8.99h8.99v8.99v8.99h8.99h8.99v-8.99h-8.99v-8.99h8.99h8.99
		v-8.99v-8.99v-8.99h8.99v-8.99v-8.99H422.11z M413.12,233.7v8.99h-8.99h-8.99h-8.99h-8.99h-8.99v-8.99v-8.99v-8.99v-8.99v-8.99
		h8.99h8.99h8.99h8.99h8.99v8.99v8.99v8.99V233.7z"/>
	<g>
		<polygon style="&st1;" points="431.1,188.76 422.11,188.76 422.11,197.75 422.11,206.74 431.1,206.74 431.1,197.75 		"/>
		<polygon style="&st1;" points="431.1,206.74 431.1,215.73 431.1,224.71 440.09,224.71 440.09,215.73 440.09,206.74 		"/>
		<rect x="404.13" y="251.68" style="&st1;" width="8.99" height="8.99"/>
		<polygon style="&st1;" points="386.16,260.67 386.16,269.66 395.15,269.66 395.15,260.67 395.15,251.68 386.16,251.68 		"/>
		<rect x="413.12" y="260.67" style="&st1;" width="8.99" height="8.99"/>
		<polygon style="&st1;" points="422.11,233.7 422.11,242.69 422.11,251.68 431.1,251.68 431.1,242.69 431.1,233.7 431.1,224.71 
			422.11,224.71 		"/>
		<rect x="404.13" y="179.77" style="&st1;" width="8.99" height="8.99"/>
	</g>
</g>
<g>
	<rect x="296.27" y="215.72" style="&st3;" width="44.94" height="44.94"/>
	<rect x="324.36" y="229.2" style="&st1;" width="3.37" height="6.74"/>
	<rect x="309.76" y="229.2" style="&st1;" width="3.37" height="6.74"/>
	<rect x="325.21" y="232.01" style="&st3;" width="1.69" height="3.37"/>
	<rect x="310.6" y="232.01" style="&st3;" width="1.69" height="3.37"/>
	<g>
		<polygon style="&st4;" points="350.2,224.71 350.2,215.72 350.2,206.73 341.22,206.73 332.23,206.73 323.24,206.73 314.25,206.73 
			314.25,206.73 323.24,206.73 323.24,197.74 314.25,197.74 314.25,197.74 305.26,197.74 305.26,206.73 296.27,206.73 
			287.29,206.73 287.29,215.72 278.3,215.72 278.3,224.71 278.3,233.7 287.29,233.7 287.29,242.68 287.29,251.67 296.27,251.67 
			296.27,242.68 296.27,233.7 296.27,224.71 296.27,215.72 305.26,215.72 314.25,215.72 323.24,215.72 332.23,215.72 341.22,215.72 
			341.22,224.71 341.22,233.7 341.22,242.68 341.22,251.67 341.22,260.66 332.23,260.66 332.23,269.65 341.22,269.65 350.2,269.65 
			350.2,260.66 350.2,251.67 350.2,242.68 359.19,242.68 359.19,233.7 359.19,224.71 		"/>
		<polygon style="&st4;" points="278.3,260.66 278.3,269.65 287.29,269.65 287.29,260.66 287.29,251.67 278.3,251.67 		"/>
		<polygon style="&st4;" points="305.26,260.66 305.26,269.65 314.25,269.65 314.25,260.66 314.25,251.67 305.26,251.67 		"/>
		<rect x="323.24" y="197.74" style="&st4;" width="8.99" height="8.99"/>
	</g>
	<g>
		<polygon style="&st5;" points="359.19,206.73 350.2,206.73 350.2,215.72 350.2,224.71 359.19,224.71 359.19,215.72 		"/>
		<polygon style="&st5;" points="359.19,224.71 359.19,233.7 359.19,242.68 368.18,242.68 368.18,233.7 368.18,224.71 		"/>
		<polygon style="&st5;" points="350.2,251.67 350.2,260.66 350.2,269.65 359.19,269.65 359.19,260.66 359.19,251.67 359.19,242.68 
			350.2,242.68 		"/>
		<polygon style="&st5;" points="296.27,251.67 287.29,251.67 287.29,260.66 287.29,269.65 296.27,269.65 305.26,269.65 
			305.26,260.66 296.27,260.66 		"/>
		<polygon style="&st5;" points="323.24,251.67 314.25,251.67 314.25,260.66 314.25,269.65 323.24,269.65 332.23,269.65 
			332.23,260.66 323.24,260.66 		"/>
		<rect x="332.23" y="197.74" style="&st5;" width="8.99" height="8.99"/>
	</g>
</g>
<g>
	<rect x="283.63" y="116.85" style="&st6;" width="44.94" height="44.94"/>
	<rect x="311.72" y="130.33" style="&st1;" width="3.37" height="6.74"/>
	<rect x="297.12" y="130.33" style="&st1;" width="3.37" height="6.74"/>
	<rect x="312.57" y="133.14" style="&st6;" width="1.69" height="3.37"/>
	<rect x="297.96" y="133.14" style="&st6;" width="1.69" height="3.37"/>
	<g>
		<polygon style="&st7;" points="337.56,125.84 337.56,116.85 337.56,107.86 328.58,107.86 319.59,107.86 310.6,107.86 
			301.61,107.86 301.61,107.86 310.6,107.86 310.6,98.87 301.61,98.87 292.62,98.87 292.62,107.86 283.63,107.86 274.65,107.86 
			274.65,116.85 265.66,116.85 265.66,125.84 265.66,134.82 274.65,134.82 274.65,143.81 274.65,152.8 283.63,152.8 283.63,143.81 
			283.63,134.82 283.63,125.84 283.63,116.85 292.62,116.85 301.61,116.85 310.6,116.85 319.59,116.85 328.58,116.85 328.58,125.84 
			328.58,134.82 328.58,143.81 328.58,152.8 328.58,161.79 319.59,161.79 310.6,161.79 301.61,161.79 292.62,161.79 292.62,170.78 
			301.61,170.78 310.6,170.78 310.6,179.77 310.6,188.75 319.59,188.75 328.58,188.75 328.58,179.77 319.59,179.77 319.59,170.78 
			328.58,170.78 337.56,170.78 337.56,161.79 337.56,152.8 337.56,143.81 346.55,143.81 346.55,134.82 346.55,125.84 		"/>
		<polygon style="&st7;" points="265.66,161.79 265.66,170.78 274.65,170.78 274.65,161.79 274.65,152.8 265.66,152.8 		"/>
		<rect x="310.6" y="98.87" style="&st7;" width="8.99" height="8.99"/>
	</g>
	<g>
		<polygon style="&st8;" points="346.55,107.86 337.56,107.86 337.56,116.85 337.56,125.84 346.55,125.84 346.55,116.85 		"/>
		<polygon style="&st8;" points="346.55,125.84 346.55,134.82 346.55,143.81 355.54,143.81 355.54,134.82 355.54,125.84 		"/>
		<rect x="319.59" y="170.78" style="&st8;" width="8.99" height="8.99"/>
		<rect x="328.58" y="179.77" style="&st8;" width="8.99" height="8.99"/>
		<polygon style="&st8;" points="337.56,152.8 337.56,161.79 337.56,170.78 346.55,170.78 346.55,161.79 346.55,152.8 
			346.55,143.81 337.56,143.81 		"/>
		<polygon style="&st8;" points="283.63,152.8 274.65,152.8 274.65,161.79 274.65,170.78 283.63,170.78 292.62,170.78 
			292.62,161.79 283.63,161.79 		"/>
		<rect x="319.59" y="98.87" style="&st8;" width="8.99" height="8.99"/>
	</g>
</g>
<g>
	<rect x="53.93" y="197.75" style="&st6;" width="44.94" height="44.94"/>
	<rect x="82.02" y="211.23" style="&st1;" width="3.37" height="6.74"/>
	<rect x="67.41" y="211.23" style="&st1;" width="3.37" height="6.74"/>
	<rect x="82.86" y="214.04" style="&st6;" width="1.69" height="3.37"/>
	<rect x="68.26" y="214.04" style="&st6;" width="1.69" height="3.37"/>
	<g>
		<path style="&st7;" d="M107.86,206.74v-8.99v-8.99h-8.99h-8.99H80.9h-8.99h-8.99h-8.99h-8.99v8.99h-8.99v8.99v8.99h8.99v8.99v8.99
			v8.99v8.99h8.99h8.99v8.99h-8.99v8.99h8.99h8.99v-8.99v-8.99h8.99v8.99v8.99h8.99h8.99v-8.99h-8.99v-8.99h8.99h8.99v-8.99v-8.99
			v-8.99h8.99v-8.99v-8.99H107.86z M98.87,233.7v8.99h-8.99H80.9h-8.99h-8.99h-8.99v-8.99v-8.99v-8.99v-8.99v-8.99h8.99h8.99h8.99
			h8.99h8.99v8.99v8.99v8.99V233.7z"/>
		<polygon style="&st7;" points="71.91,188.76 80.9,188.76 89.88,188.76 89.88,179.77 80.9,179.77 80.9,179.77 71.91,179.77 		"/>
		<rect x="62.92" y="179.77" style="&st7;" width="8.99" height="8.99"/>
	</g>
	<g>
		<rect x="35.95" y="188.76" style="&st8;" width="8.99" height="8.99"/>
		<polygon style="&st8;" points="71.91,251.68 71.91,260.67 71.91,269.66 80.9,269.66 80.9,260.67 80.9,251.68 		"/>
		<rect x="53.93" y="251.68" style="&st8;" width="8.99" height="8.99"/>
		<rect x="44.94" y="260.67" style="&st8;" width="8.99" height="8.99"/>
		<polygon style="&st8;" points="35.95,197.75 26.97,197.75 26.97,206.74 26.97,215.73 35.95,215.73 35.95,206.74 		"/>
		<polygon style="&st8;" points="35.95,233.7 35.95,242.69 35.95,251.68 44.94,251.68 44.94,242.69 44.94,233.7 44.94,224.71 
			44.94,215.73 35.95,215.73 35.95,224.71 		"/>
		<rect x="53.93" y="179.77" style="&st8;" width="8.99" height="8.99"/>
	</g>
</g>
<g>
	<rect x="125.84" y="215.73" style="&st9;" width="44.94" height="44.94"/>
	<rect x="153.93" y="229.21" style="&st1;" width="3.37" height="6.74"/>
	<rect x="139.32" y="229.21" style="&st1;" width="3.37" height="6.74"/>
	<rect x="154.77" y="232.02" style="&st9;" width="1.69" height="3.37"/>
	<rect x="140.16" y="232.02" style="&st9;" width="1.69" height="3.37"/>
	<g>
		<polygon style="&st10;" points="179.77,224.71 179.77,215.73 179.77,206.74 170.78,206.74 161.79,206.74 161.79,197.75 
			152.8,197.75 143.81,197.75 134.83,197.75 134.83,206.74 125.84,206.74 116.85,206.74 116.85,215.73 107.86,215.73 107.86,224.71 
			107.86,233.7 116.85,233.7 116.85,242.69 116.85,251.68 116.85,260.67 116.85,269.66 125.84,269.66 134.83,269.66 134.83,260.67 
			125.84,260.67 125.84,251.68 125.84,242.69 125.84,233.7 125.84,224.71 125.84,215.73 134.83,215.73 143.81,215.73 152.8,215.73 
			161.79,215.73 170.78,215.73 170.78,224.71 170.78,233.7 170.78,242.69 170.78,251.68 179.77,251.68 179.77,242.69 188.76,242.69 
			188.76,233.7 188.76,224.71 		"/>
		<polygon style="&st10;" points="152.8,260.67 152.8,269.66 161.79,269.66 161.79,260.67 161.79,251.68 152.8,251.68 		"/>
		<polygon style="&st10;" points="179.77,269.66 188.76,269.66 188.76,260.67 188.76,251.68 179.77,251.68 179.77,260.67 		"/>
	</g>
	<g>
		<rect x="107.86" y="206.74" style="&st11;" width="8.99" height="8.99"/>
		<polygon style="&st11;" points="98.87,224.71 98.87,233.7 107.86,233.7 107.86,224.71 107.86,215.73 98.87,215.73 		"/>
		<polygon style="&st11;" points="107.86,251.68 107.86,260.67 107.86,269.66 116.85,269.66 116.85,260.67 116.85,251.68 
			116.85,242.69 116.85,233.7 107.86,233.7 107.86,242.69 		"/>
		<polygon style="&st11;" points="143.81,260.67 134.83,260.67 134.83,269.66 143.81,269.66 152.8,269.66 152.8,260.67 
			152.8,251.68 143.81,251.68 		"/>
		<polygon style="&st11;" points="170.78,251.68 170.78,260.67 161.79,260.67 161.79,269.66 170.78,269.66 179.77,269.66 
			179.77,260.67 179.77,251.68 		"/>
		<rect x="125.84" y="197.75" style="&st11;" width="8.99" height="8.99"/>
	</g>
</g>
<g>
	<rect x="8.99" y="143.81" style="&st3;" width="44.94" height="44.94"/>
	<rect x="37.08" y="157.3" style="&st1;" width="3.37" height="6.74"/>
	<rect x="22.47" y="157.3" style="&st1;" width="3.37" height="6.74"/>
	<rect x="37.92" y="160.1" style="&st3;" width="1.69" height="3.37"/>
	<rect x="23.31" y="160.1" style="&st3;" width="1.69" height="3.37"/>
	<g>
		<polygon style="&st4;" points="62.92,152.8 62.92,143.81 62.92,134.83 53.93,134.83 44.94,134.83 35.95,134.83 26.97,134.83 
			17.98,134.83 8.99,134.83 0,134.83 0,143.81 -8.99,143.81 -8.99,152.8 -8.99,161.79 0,161.79 0,170.78 0,179.77 0,188.75 
			0,197.74 8.99,197.74 17.98,197.74 17.98,206.73 8.99,206.73 8.99,215.72 17.98,215.72 26.97,215.72 26.97,206.73 26.97,197.74 
			35.95,197.74 44.94,197.74 44.94,188.75 35.95,188.75 26.97,188.75 17.98,188.75 8.99,188.75 8.99,179.77 8.99,170.78 
			8.99,161.79 8.99,152.8 8.99,143.81 17.98,143.81 26.97,143.81 35.95,143.81 44.94,143.81 53.93,143.81 53.93,152.8 53.93,161.79 
			53.93,170.78 53.93,179.77 62.92,179.77 62.92,170.78 71.91,170.78 71.91,161.79 71.91,152.8 		"/>
		<polygon style="&st4;" points="62.92,188.78 62.92,197.77 71.91,197.77 71.91,188.78 71.91,179.79 62.92,179.79 		"/>
		<polygon style="&st4;" points="35.95,134.82 35.95,134.82 44.94,134.82 44.94,125.84 35.95,125.84 26.97,125.84 26.97,134.82 		
			"/>
		<rect x="17.98" y="125.84" style="&st4;" width="8.99" height="8.99"/>
	</g>
	<g>
		<rect x="-8.99" y="134.83" style="&st5;" width="8.99" height="8.99"/>
		<rect x="8.99" y="197.74" style="&st5;" width="8.99" height="8.99"/>
		<rect x="0" y="206.73" style="&st5;" width="8.99" height="8.99"/>
		<polygon style="&st5;" points="-8.99,143.81 -17.98,143.81 -17.98,152.8 -17.98,161.79 -8.99,161.79 -8.99,152.8 		"/>
		<polygon style="&st5;" points="-8.99,179.77 -8.99,188.75 -8.99,197.74 0,197.74 0,188.75 0,179.77 0,170.78 0,161.79 
			-8.99,161.79 -8.99,170.78 		"/>
		<polygon style="&st5;" points="53.93,179.79 53.93,188.78 44.94,188.78 44.94,197.77 53.93,197.77 62.92,197.77 62.92,188.78 
			62.92,179.79 		"/>
		<rect x="8.99" y="125.84" style="&st5;" width="8.99" height="8.99"/>
	</g>
</g>
<g>
	<rect x="235.77" y="17.98" style="&st12;" width="44.94" height="44.94"/>
	<rect x="263.86" y="31.46" style="&st1;" width="3.37" height="6.74"/>
	<rect x="249.26" y="31.46" style="&st1;" width="3.37" height="6.74"/>
	<rect x="264.7" y="34.27" style="&st12;" width="1.69" height="3.37"/>
	<rect x="250.1" y="34.27" style="&st12;" width="1.69" height="3.37"/>
	<g>
		<polygon style="&st13;" points="289.7,26.97 289.7,17.98 289.7,8.99 280.71,8.99 271.73,8.99 262.74,8.99 253.75,8.99 
			253.75,8.99 262.74,8.99 262.74,0 253.75,0 244.76,0 244.76,8.99 235.77,8.99 226.78,8.99 226.78,17.98 217.8,17.98 217.8,26.97 
			217.8,35.95 226.78,35.95 226.78,44.94 226.78,53.93 235.77,53.93 235.77,44.94 235.77,35.95 235.77,26.97 235.77,17.98 
			244.76,17.98 253.75,17.98 262.74,17.98 271.73,17.98 280.71,17.98 280.71,26.97 280.71,35.95 280.71,44.94 280.71,53.93 
			280.71,62.92 271.73,62.92 262.74,62.92 253.75,62.92 244.76,62.92 244.76,71.91 253.75,71.91 262.74,71.91 262.74,80.89 
			262.74,89.88 271.73,89.88 280.71,89.88 280.71,80.89 271.73,80.89 271.73,71.91 280.71,71.91 289.7,71.91 289.7,62.92 
			289.7,53.93 289.7,44.94 298.69,44.94 298.69,35.95 298.69,26.97 		"/>
		<polygon style="&st13;" points="217.8,62.92 217.8,71.91 226.78,71.91 226.78,62.92 226.78,53.93 217.8,53.93 		"/>
		<rect x="262.74" style="&st13;" width="8.99" height="8.99"/>
	</g>
	<g>
		<polygon style="&st14;" points="298.69,8.99 289.7,8.99 289.7,17.98 289.7,26.97 298.69,26.97 298.69,17.98 		"/>
		<polygon style="&st14;" points="298.69,26.97 298.69,35.95 298.69,44.94 307.68,44.94 307.68,35.95 307.68,26.97 		"/>
		<rect x="271.73" y="71.91" style="&st14;" width="8.99" height="8.99"/>
		<rect x="280.71" y="80.89" style="&st14;" width="8.99" height="8.99"/>
		<polygon style="&st14;" points="289.7,53.93 289.7,62.92 289.7,71.91 298.69,71.91 298.69,62.92 298.69,53.93 298.69,44.94 
			289.7,44.94 		"/>
		<polygon style="&st14;" points="235.77,53.93 226.78,53.93 226.78,62.92 226.78,71.91 235.77,71.91 244.76,71.91 244.76,62.92 
			235.77,62.92 		"/>
		<rect x="271.73" style="&st14;" width="8.99" height="8.99"/>
	</g>
</g>
<g>
	<g>
		<rect x="112.35" y="68.07" style="&st0;" width="44.94" height="44.94"/>
		<rect x="140.44" y="81.55" style="&st1;" width="3.37" height="6.74"/>
		<rect x="125.84" y="81.55" style="&st1;" width="3.37" height="6.74"/>
		<rect x="141.29" y="84.36" style="&st0;" width="1.69" height="3.37"/>
		<rect x="126.68" y="84.36" style="&st0;" width="1.69" height="3.37"/>
	</g>
	<g>
		<polygon style="&st2;" points="166.28,77.06 166.28,68.07 166.28,59.08 157.3,59.08 148.31,59.08 148.31,50.09 139.32,50.09 
			139.32,50.09 130.33,50.09 130.33,59.08 130.33,59.08 130.33,50.09 121.34,50.09 121.34,59.08 112.35,59.08 103.37,59.08 
			103.37,68.07 94.38,68.07 94.38,77.06 94.38,86.05 103.37,86.05 103.37,95.03 103.37,104.02 103.37,113.01 103.37,122 112.35,122 
			121.34,122 121.34,130.99 112.35,130.99 112.35,139.98 121.34,139.98 130.33,139.98 130.33,130.99 130.33,122 139.32,122 
			148.31,122 148.31,113.01 139.32,113.01 130.33,113.01 121.34,113.01 112.35,113.01 112.35,104.02 112.35,95.03 112.35,86.05 
			112.35,77.06 112.35,68.07 121.34,68.07 130.33,68.07 139.32,68.07 148.31,68.07 157.3,68.07 157.3,77.06 157.3,86.05 
			157.3,95.03 157.3,104.02 166.28,104.02 166.28,95.03 175.27,95.03 175.27,86.05 175.27,77.06 		"/>
		<polygon style="&st2;" points="166.28,113.04 166.28,122.03 175.27,122.03 175.27,113.04 175.27,104.05 166.28,104.05 		"/>
	</g>
	<g>
		<rect x="94.38" y="59.08" style="&st1;" width="8.99" height="8.99"/>
		<rect x="112.35" y="122" style="&st1;" width="8.99" height="8.99"/>
		<rect x="103.37" y="130.99" style="&st1;" width="8.99" height="8.99"/>
		<polygon style="&st1;" points="94.38,68.07 85.39,68.07 85.39,77.06 85.39,86.05 94.38,86.05 94.38,77.06 		"/>
		<polygon style="&st1;" points="94.38,104.02 94.38,113.01 94.38,122 103.37,122 103.37,113.01 103.37,104.02 103.37,95.03 
			103.37,86.05 94.38,86.05 94.38,95.03 		"/>
		<polygon style="&st1;" points="157.3,104.05 157.3,113.04 148.31,113.04 148.31,122.03 157.3,122.03 166.28,122.03 166.28,113.04 
			166.28,104.05 		"/>
		<rect x="112.35" y="50.09" style="&st1;" width="8.99" height="8.99"/>
	</g>
</g>
</svg>
