<svg version="1.1" xmlns="http://www.w3.org/2000/svg" xmlns:xlink="http://www.w3.org/1999/xlink" width="500" height="500" viewBox="0 0 500 500"><defs/><g><rect fill="rgb(230,230,230)" stroke="none" x="0" y="0" width="500" height="500" transform="matrix(1 0 0 1 0 0)" fill-opacity="1"/><path fill="rgb(255,105,180)" stroke="#000000" paint-order="fill stroke markers" d=" M 100 250 L 250 360 L 400 250" fill-opacity="1" stroke-linecap="round" stroke-miterlimit="10" stroke-width="3" stroke-dasharray=""/><path fill="rgb(255,105,180)" stroke="none" paint-order="stroke fill markers" d=" M 100 250 A 150 85 0 0 1 400 250 L 250 250 Z" fill-opacity="1"/><path fill="none" stroke="#000000" paint-order="fill stroke markers" d=" M 100 250 A 150 85 0 0 1 400 250" stroke-linecap="round" stroke-miterlimit="10" stroke-width="3" stroke-dasharray=""/><path fill="rgb(255,182,193)" stroke="#000000" paint-order="fill stroke markers" d=" M 200 370 L 180 280 L 320 280 L 300 370" fill-opacity="1" stroke-linecap="round" stroke-miterlimit="10" stroke-width="3" stroke-dasharray=""/><path fill="rgb(255,182,193)" stroke="none" paint-order="stroke fill markers" d=" M 300 370 A 50 15 0 0 1 200 370 L 250 370 Z" fill-opacity="1"/><path fill="none" stroke="#000000" paint-order="fill stroke markers" d=" M 300 370 A 50 15 0 0 1 200 370" stroke-linecap="round" stroke-miterlimit="10" stroke-width="3" stroke-dasharray=""/><path fill="rgb(255,0,0)" stroke="#000000" paint-order="fill stroke markers" d=" M 280 320 A 30 17.5 0 1 1 279.99998500000123 319.98250000291665 Z" fill-opacity="1" stroke-linecap="round" stroke-miterlimit="10" stroke-width="3" stroke-dasharray=""/><path fill="rgb(255,182,193)" stroke="#000000" paint-order="fill stroke markers" d=" M 160 340 L 250 320 L 250 250 L 160 270" fill-opacity="1" stroke-linecap="round" stroke-miterlimit="10" stroke-width="3" stroke-dasharray=""/><path fill="rgb(255,182,193)" stroke="none" paint-order="stroke fill markers" d=" M 160 340 A 15 35 0 0 1 160 270 L 160 305 Z" fill-opacity="1"/><path fill="none" stroke="#000000" paint-order="fill stroke markers" d=" M 160 340 A 15 35 0 0 1 160 270" stroke-linecap="round" stroke-miterlimit="10" stroke-width="3" stroke-dasharray=""/><path fill="rgb(255,182,193)" stroke="#000000" paint-order="fill stroke markers" d=" M 340 340 L 250 320 L 250 250 L 340 270" fill-opacity="1" stroke-linecap="round" stroke-miterlimit="10" stroke-width="3" stroke-dasharray=""/><path fill="rgb(255,182,193)" stroke="none" paint-order="stroke fill markers" d=" M 340 270 A 15 35 0 0 1 340 340 L 340 305 Z" fill-opacity="1"/><path fill="none" stroke="#000000" paint-order="fill stroke markers" d=" M 340 270 A 15 35 0 0 1 340 340" stroke-linecap="round" stroke-miterlimit="10" stroke-width="3" stroke-dasharray=""/><path fill="rgb(255,105,180)" stroke="#000000" paint-order="fill stroke markers" d=" M 200 250 L 250 210 L 300 250" fill-opacity="1" stroke-linecap="round" stroke-miterlimit="10" stroke-width="3" stroke-dasharray=""/><path fill="rgb(0,0,0)" stroke="#000000" paint-order="fill stroke markers" d=" M 200 250 L 250 300 L 300 250" fill-opacity="1" stroke-linecap="round" stroke-miterlimit="10" stroke-width="3" stroke-dasharray=""/><path fill="rgb(0,0,0)" stroke="none" paint-order="stroke fill markers" d=" M 200 250 A 50 10 0 1 1 300 250 L 250 250 Z" fill-opacity="1"/><path fill="none" stroke="#000000" paint-order="fill stroke markers" d=" M 200 250 A 50 10 0 1 1 300 250" stroke-linecap="round" stroke-miterlimit="10" stroke-width="3" stroke-dasharray=""/><path fill="none" stroke="#000000" paint-order="fill stroke markers" d=" M 80 295 A 40 5 0 1 1 160 295" stroke-linecap="round" stroke-miterlimit="10" stroke-width="3" stroke-dasharray=""/><path fill="none" stroke="#000000" paint-order="fill stroke markers" d=" M 80 320 A 40 5 0 1 1 160 320" stroke-linecap="round" stroke-miterlimit="10" stroke-width="3" stroke-dasharray=""/><path fill="none" stroke="#000000" paint-order="fill stroke markers" d=" M 340 295 A 40 5 0 1 1 420 295" stroke-linecap="round" stroke-miterlimit="10" stroke-width="3" stroke-dasharray=""/><path fill="none" stroke="#000000" paint-order="fill stroke markers" d=" M 340 320 A 40 5 0 1 1 420 320" stroke-linecap="round" stroke-miterlimit="10" stroke-width="3" stroke-dasharray=""/><path fill="rgb(255,255,0)" stroke="#000000" paint-order="fill stroke markers" d=" M 237.5 170 A 27.5 40 0 1 1 237.49998625000114 169.96000000666663 Z" fill-opacity="1" stroke-linecap="round" stroke-miterlimit="10" stroke-width="3" stroke-dasharray=""/><path fill="rgb(255,255,0)" stroke="#000000" paint-order="fill stroke markers" d=" M 317.5 170 A 27.5 40 0 1 1 317.49998625000114 169.96000000666663 Z" fill-opacity="1" stroke-linecap="round" stroke-miterlimit="10" stroke-width="3" stroke-dasharray=""/><path fill="rgb(0,0,0)" stroke="#000000" paint-order="fill stroke markers" d=" M 300 185 A 10 12.5 0 1 1 299.9999950000004 184.98750000208332 Z" fill-opacity="1" stroke-linecap="round" stroke-miterlimit="10" stroke-width="3" stroke-dasharray=""/><path fill="rgb(0,0,0)" stroke="#000000" paint-order="fill stroke markers" d=" M 220 185 A 10 12.5 0 1 1 219.9999950000004 184.98750000208332 Z" fill-opacity="1" stroke-linecap="round" stroke-miterlimit="10" stroke-width="3" stroke-dasharray=""/><path fill="rgb(255,255,255)" stroke="#000000" paint-order="fill stroke markers" d=" M 292 182 A 5 6 0 1 1 291.99999750000023 181.994000001 Z" fill-opacity="1" stroke-linecap="round" stroke-miterlimit="10" stroke-width="3" stroke-dasharray=""/><path fill="rgb(255,255,255)" stroke="#000000" paint-order="fill stroke markers" d=" M 212 182 A 5 6 0 1 1 211.9999975000002 181.994000001 Z" fill-opacity="1" stroke-linecap="round" stroke-miterlimit="10" stroke-width="3" stroke-dasharray=""/><path fill="rgb(255,105,180)" stroke="#000000" paint-order="fill stroke markers" d=" M 150 170 L 130 200 L 110 185 L 120 155 L 150 170 L 150 170 Z" fill-opacity="1" stroke-linecap="round" stroke-miterlimit="10" stroke-width="3" stroke-dasharray=""/><path fill="rgb(255,105,180)" stroke="#000000" paint-order="fill stroke markers" d=" M 350 170 L 370 200 L 390 185 L 380 155 L 350 170 L 350 170 Z" fill-opacity="1" stroke-linecap="round" stroke-miterlimit="10" stroke-width="3" stroke-dasharray=""/><path fill="rgb(255,182,193)" stroke="#000000" paint-order="fill stroke markers" d=" M 140 175 L 130 190 L 120 180 L 125 165 L 140 175 L 140 175 Z" fill-opacity="1" stroke-linecap="round" stroke-miterlimit="10" stroke-width="3" stroke-dasharray=""/><path fill="rgb(255,182,193)" stroke="#000000" paint-order="fill stroke markers" d=" M 360 175 L 370 190 L 380 180 L 375 165 L 360 175 L 360 175 Z" fill-opacity="1" stroke-linecap="round" stroke-miterlimit="10" stroke-width="3" stroke-dasharray=""/></g></svg>