<svg version="1.1" xmlns="http://www.w3.org/2000/svg" xmlns:xlink="http://www.w3.org/1999/xlink" width="500" height="500" viewBox="0 0 500 500"><defs/><g><rect fill="rgb(230,230,230)" stroke="none" x="0" y="0" width="500" height="500" transform="matrix(1 0 0 1 0 0)" fill-opacity="1"/><path fill="none" stroke="rgb(212,175,55)" paint-order="fill stroke markers" d=" M 275 150 C 275 163.8071175 263.8071175 175 250 175 C 236.1928825 175 225 163.8071175 225 150" stroke-opacity="1" stroke-linecap="round" stroke-miterlimit="10" stroke-width="3" stroke-dasharray=""/><path fill="rgb(215,215,215)" stroke="rgb(0,0,0)" paint-order="fill stroke markers" d=" M 210 140 L 290 140 L 290 260 L 210 260 L 210 140 Z" fill-opacity="1" stroke-opacity="1" stroke-linecap="round" stroke-miterlimit="10" stroke-dasharray=""/><path fill="none" stroke="rgb(212,175,55)" paint-order="fill stroke markers" d=" M 265 145 C 265 158.8071175 258.2842705 170 250 170 C 241.7157295 170 235 158.8071175 235 145" stroke-opacity="1" stroke-linecap="round" stroke-miterlimit="10" stroke-width="3" stroke-dasharray=""/><path fill="none" stroke="rgb(212,175,55)" paint-order="fill stroke markers" d=" M 265 145 C 265 164.3299645 258.2842705 180 250 180 C 241.7157295 180 235 164.3299645 235 145" stroke-opacity="1" stroke-linecap="round" stroke-miterlimit="10" stroke-width="3" stroke-dasharray=""/><path fill="rgb(0,0,0)" stroke="rgb(0,0,0)" paint-order="fill stroke markers" d=" M 230 140.5 L 270 140.5 L 270 145.5 L 230 145.5 L 230 140.5 Z" fill-opacity="1" stroke-opacity="1" stroke-linecap="round" stroke-miterlimit="10" stroke-dasharray=""/><path fill="rgb(220,170,145)" stroke="rgb(0,0,0)" paint-order="fill stroke markers" d=" M 240 130 L 260 130 L 260 150 L 240 150 L 240 130 Z" fill-opacity="1" stroke-opacity="1" stroke-linecap="round" stroke-miterlimit="10" stroke-dasharray=""/><path fill="rgb(220,170,145)" stroke="rgb(0,0,0)" paint-order="fill stroke markers" d=" M 275 100 A 25 35 0 1 1 274.99998750000105 99.96500000583332" fill-opacity="1" stroke-opacity="1" stroke-linecap="round" stroke-miterlimit="10" stroke-dasharray=""/><path fill="rgb(220,170,145)" stroke="rgb(0,0,0)" paint-order="fill stroke markers" d=" M 210 220 A 10 10 0 1 1 209.9999950000004 219.99000000166666" fill-opacity="1" stroke-opacity="1" stroke-linecap="round" stroke-miterlimit="10" stroke-dasharray=""/><path fill="rgb(220,170,145)" stroke="rgb(0,0,0)" paint-order="fill stroke markers" d=" M 310 220 A 10 10 0 1 1 309.9999950000004 219.99000000166666" fill-opacity="1" stroke-opacity="1" stroke-linecap="round" stroke-miterlimit="10" stroke-dasharray=""/><path fill="rgb(220,170,145)" stroke="rgb(0,0,0)" paint-order="fill stroke markers" d=" M 190 140 L 210 140 L 210 220 L 190 220 L 190 140 Z" fill-opacity="1" stroke-opacity="1" stroke-linecap="round" stroke-miterlimit="10" stroke-dasharray=""/><path fill="rgb(220,170,145)" stroke="rgb(0,0,0)" paint-order="fill stroke markers" d=" M 290 140 L 310 140 L 310 220 L 290 220 L 290 140 Z" fill-opacity="1" stroke-opacity="1" stroke-linecap="round" stroke-miterlimit="10" stroke-dasharray=""/><path fill="rgb(215,215,215)" stroke="rgb(0,0,0)" paint-order="fill stroke markers" d=" M 190 140 L 210 140 L 210 170 L 190 170 L 190 140 Z" fill-opacity="1" stroke-opacity="1" stroke-linecap="round" stroke-miterlimit="10" stroke-dasharray=""/><path fill="rgb(215,215,215)" stroke="rgb(0,0,0)" paint-order="fill stroke markers" d=" M 290 140 L 310 140 L 310 170 L 290 170 L 290 140 Z" fill-opacity="1" stroke-opacity="1" stroke-linecap="round" stroke-miterlimit="10" stroke-dasharray=""/><path fill="rgb(212,175,55)" stroke="rgb(0,0,0)" paint-order="fill stroke markers" d=" M 190 218.5 L 210 218.5 L 210 221.5 L 190 221.5 L 190 218.5 Z" fill-opacity="1" stroke-opacity="1" stroke-linecap="round" stroke-miterlimit="10" stroke-dasharray=""/><path fill="rgb(212,175,55)" stroke="rgb(0,0,0)" paint-order="fill stroke markers" d=" M 204.5 220 A 4.5 4.5 0 1 1 204.49999775000018 219.99550000074998" fill-opacity="1" stroke-opacity="1" stroke-linecap="round" stroke-miterlimit="10" stroke-dasharray=""/><path fill="rgb(0,0,0)" stroke="rgb(0,0,0)" paint-order="fill stroke markers" d=" M 207.5 140 L 232.5 140 L 232.5 240 L 207.5 240 L 207.5 140 Z" fill-opacity="1" stroke-opacity="1" stroke-linecap="round" stroke-miterlimit="10" stroke-dasharray=""/><path fill="rgb(0,0,0)" stroke="rgb(0,0,0)" paint-order="fill stroke markers" d=" M 267.5 140 L 292.5 140 L 292.5 240 L 267.5 240 L 267.5 140 Z" fill-opacity="1" stroke-opacity="1" stroke-linecap="round" stroke-miterlimit="10" stroke-dasharray=""/><path fill="rgb(45,90,122)" stroke="rgb(0,0,0)" paint-order="fill stroke markers" d=" M 210 260 L 290 260 L 290 360 L 210 360 L 210 260 Z" fill-opacity="1" stroke-opacity="1" stroke-linecap="round" stroke-miterlimit="10" stroke-dasharray=""/><path fill="rgb(45,90,122)" stroke="rgb(0,0,0)" paint-order="fill stroke markers" d=" M 249.5 290 L 250.5 290 L 250.5 360 L 249.5 360 L 249.5 290 Z" fill-opacity="1" stroke-opacity="1" stroke-linecap="round" stroke-miterlimit="10" stroke-dasharray=""/><path fill="rgb(138,102,66)" stroke="rgb(0,0,0)" paint-order="fill stroke markers" d=" M 200 360 L 250 360 L 250 390 L 200 390 L 200 360 Z" fill-opacity="1" stroke-opacity="1" stroke-linecap="round" stroke-miterlimit="10" stroke-dasharray=""/><path fill="rgb(138,102,66)" stroke="rgb(0,0,0)" paint-order="fill stroke markers" d=" M 240 360 L 290 360 L 290 390 L 240 390 L 240 360 Z" fill-opacity="1" stroke-opacity="1" stroke-linecap="round" stroke-miterlimit="10" stroke-dasharray=""/><path fill="rgb(248,35,77)" stroke="rgb(0,0,0)" paint-order="fill stroke markers" d=" M 243 100 A 5 1.5 0 1 1 242.9999975000002 99.99850000025" fill-opacity="0.5098039215686274" stroke-opacity="1" stroke-linecap="round" stroke-miterlimit="10" stroke-dasharray=""/><path fill="rgb(248,35,77)" stroke="rgb(0,0,0)" paint-order="fill stroke markers" d=" M 264 100 A 5 1.5 0 1 1 263.99999750000023 99.99850000025" fill-opacity="0.5098039215686274" stroke-opacity="1" stroke-linecap="round" stroke-miterlimit="10" stroke-dasharray=""/><path fill="rgb(0,0,0)" stroke="rgb(0,0,0)" paint-order="fill stroke markers" d=" M 239.5 100 A 1.5 1.5 0 1 1 239.49999925000006 99.99850000025" fill-opacity="1" stroke-opacity="1" stroke-linecap="round" stroke-miterlimit="10" stroke-dasharray=""/><path fill="rgb(0,0,0)" stroke="rgb(0,0,0)" paint-order="fill stroke markers" d=" M 260.5 100 A 1.5 1.5 0 1 1 260.4999992500001 99.99850000025" fill-opacity="1" stroke-opacity="1" stroke-linecap="round" stroke-miterlimit="10" stroke-dasharray=""/><path fill="rgb(0,0,0)" stroke="rgb(0,0,0)" paint-order="fill stroke markers" d=" M 236 118 L 256 119" fill-opacity="1" stroke-opacity="1" stroke-linecap="round" stroke-miterlimit="10" stroke-dasharray=""/><path fill="rgb(93,155,155)" stroke="rgb(0,0,0)" paint-order="fill stroke markers" d=" M 230.5 96 L 245.5 96 L 245.5 104 L 230.5 104 L 230.5 96 Z" fill-opacity="0.3137254901960784" stroke-opacity="1" stroke-linecap="round" stroke-miterlimit="10" stroke-dasharray=""/><path fill="rgb(93,155,155)" stroke="rgb(0,0,0)" paint-order="fill stroke markers" d=" M 252.5 96 L 267.5 96 L 267.5 104 L 252.5 104 L 252.5 96 Z" fill-opacity="0.3137254901960784" stroke-opacity="1" stroke-linecap="round" stroke-miterlimit="10" stroke-dasharray=""/><path fill="rgb(93,155,155)" stroke="rgb(0,0,0)" paint-order="fill stroke markers" d=" M 225.5 99.5 L 230.5 99.5 L 230.5 100.5 L 225.5 100.5 L 225.5 99.5 Z" fill-opacity="0.3137254901960784" stroke-opacity="1" stroke-linecap="round" stroke-miterlimit="10" stroke-dasharray=""/><path fill="rgb(93,155,155)" stroke="rgb(0,0,0)" paint-order="fill stroke markers" d=" M 267.5 99.5 L 274.5 99.5 L 274.5 100.5 L 267.5 100.5 L 267.5 99.5 Z" fill-opacity="0.3137254901960784" stroke-opacity="1" stroke-linecap="round" stroke-miterlimit="10" stroke-dasharray=""/><path fill="none" stroke="rgb(0,0,0)" paint-order="fill stroke markers" d=" M 246 101 C 246 100.17157295 247.3431459 99.5 249 99.5 C 250.6568541 99.5 252 100.17157295 252 101" stroke-opacity="1" stroke-linecap="round" stroke-miterlimit="10" stroke-dasharray=""/><path fill="rgb(0,0,0)" stroke="rgb(0,0,0)" paint-order="fill stroke markers" d=" M 227 81 L 234 77 L 237 79 L 243 77 L 247 78 L 253 77 L 258 79 L 265 77 L 272 81 L 274 84 L 276 79 L 272 71 L 268 71 L 265 61 L 255 56 L 245 59 L 233 60 L 230 65 L 223 71 L 227 81" fill-opacity="1" stroke-opacity="1" stroke-linecap="round" stroke-miterlimit="10" stroke-dasharray=""/></g></svg>