<svg version="1.1" xmlns="http://www.w3.org/2000/svg" xmlns:xlink="http://www.w3.org/1999/xlink" width="500" height="500" viewBox="0 0 500 500"><defs><clipPath id="btGwmygwzEAs"><path fill="none" stroke="none" d=" M 155 392 L 205 292 L 255 392 Z"/></clipPath></defs><g><rect fill="rgb(230,230,230)" stroke="none" x="0" y="0" width="500" height="500" transform="matrix(1 0 0 1 0 0)" fill-opacity="1"/><path fill="rgb(255,255,255)" stroke="rgb(0,0,0)" paint-order="fill stroke markers" d=" M 292.5 130 A 32.5 27.5 0 1 1 292.4999837500014 129.9725000045833 Z" fill-opacity="1" stroke-opacity="1" stroke-linecap="round" stroke-miterlimit="10" stroke-dasharray=""/><path fill="rgb(24,28,97)" stroke="rgb(0,0,0)" paint-order="fill stroke markers" d=" M 292.5 130 A 7.5 15 0 1 1 292.4999962500003 129.9850000025 Z" fill-opacity="1" stroke-opacity="1" stroke-linecap="round" stroke-miterlimit="10" stroke-dasharray=""/><path fill="rgb(255,255,255)" stroke="rgb(0,0,0)" paint-order="fill stroke markers" d=" M 286 122 A 3 3 0 1 1 285.9999985000001 121.9970000005 Z" fill-opacity="1" stroke-opacity="1" stroke-linecap="round" stroke-miterlimit="10" stroke-dasharray=""/><path fill="rgb(246,180,154)" stroke="rgb(164,92,69)" paint-order="fill stroke markers" d=" M 200 300 L 90 70 L 369 169 Z" fill-opacity="1" stroke-opacity="1" stroke-linecap="round" stroke-miterlimit="10" stroke-dasharray=""/><path fill="rgb(255,255,255)" stroke="rgb(0,0,0)" paint-order="fill stroke markers" d=" M 255 130 A 35 32.5 0 1 1 254.99998250000147 129.96750000541664 Z" fill-opacity="1" stroke-opacity="1" stroke-linecap="round" stroke-miterlimit="10" stroke-dasharray=""/><path fill="rgb(24,28,97)" stroke="rgb(0,0,0)" paint-order="fill stroke markers" d=" M 255 130 A 10 15 0 1 1 254.9999950000004 129.9850000025 Z" fill-opacity="1" stroke-opacity="1" stroke-linecap="round" stroke-miterlimit="10" stroke-dasharray=""/><path fill="rgb(255,255,255)" stroke="rgb(0,0,0)" paint-order="fill stroke markers" d=" M 245.5 125 A 3.5 3.5 0 1 1 245.49999825000015 124.99650000058332 Z" fill-opacity="1" stroke-opacity="1" stroke-linecap="round" stroke-miterlimit="10" stroke-dasharray=""/><path fill="rgb(164,92,69)" stroke="none" paint-order="stroke fill markers" d=" M 130.5 105 A 2.5 2.5 0 1 1 130.49999875000012 104.99750000041666 Z" fill-opacity="1"/><path fill="rgb(164,92,69)" stroke="none" paint-order="stroke fill markers" d=" M 137.5 126 A 2.5 2.5 0 1 1 137.49999875000012 125.99750000041666 Z" fill-opacity="1"/><path fill="rgb(164,92,69)" stroke="none" paint-order="stroke fill markers" d=" M 142.5 112 A 2.5 2.5 0 1 1 142.49999875000012 111.99750000041666 Z" fill-opacity="1"/><path fill="rgb(211,32,29)" stroke="none" paint-order="stroke fill markers" d=" M 103 118 L 91 92 L 55 116 L 75 86 L 46 76 L 77 67 L 75 27 L 87 56 L 105 19 L 100 57 L 148 29 L 109 65 L 136 64 L 105 82 L 103 118 L 103 118 Z" fill-opacity="1"/><path fill="rgb(246,180,154)" stroke="none" paint-order="stroke fill markers" d=" M 160.09538931178864 205.13030214988504 A 15 15 0 1 1 149.8822856765378 185.51111260566398 Z" fill-opacity="1"/><path fill="rgb(246,180,154)" stroke="none" paint-order="stroke fill markers" d=" M 159.59461680554975 206.33927392611048 A 15 15 0 1 1 149.8822856765378 185.51111260566398 L 146 200 Z" fill-opacity="1"/><path fill="none" stroke="rgb(164,92,69)" paint-order="fill stroke markers" d=" M 159.59461680554975 206.33927392611048 A 15 15 0 1 1 149.8822856765378 185.51111260566398" stroke-opacity="1" stroke-linecap="round" stroke-miterlimit="10" stroke-dasharray=""/><path fill="rgb(246,180,154)" stroke="none" paint-order="stroke fill markers" d=" M 155.39692620785908 203.4202014332567 A 10 10 0 1 1 148.5881904510252 190.3407417371093 Z" fill-opacity="1"/><path fill="rgb(246,180,154)" stroke="none" paint-order="stroke fill markers" d=" M 155.0630778703665 204.226182617407 A 10 10 0 1 1 148.5881904510252 190.3407417371093 L 146 200 Z" fill-opacity="1"/><path fill="none" stroke="rgb(164,92,69)" paint-order="fill stroke markers" d=" M 155.0630778703665 204.226182617407 A 10 10 0 1 1 148.5881904510252 190.3407417371093" stroke-opacity="1" stroke-linecap="round" stroke-miterlimit="10" stroke-dasharray=""/><path fill="none" stroke="rgb(0,0,0)" paint-order="fill stroke markers" d=" M 289.2322876523771 229.91134792134739 A 45 20 0 0 1 243.17163193145572 217.37546984948878" stroke-opacity="1" stroke-linecap="round" stroke-miterlimit="10" stroke-dasharray=""/><path fill="rgb(246,180,154)" stroke="rgb(164,92,69)" paint-order="fill stroke markers" d=" M 177 410 L 187 410 L 187 440 L 177 440 L 177 410 Z" fill-opacity="1" stroke-opacity="1" stroke-linecap="round" stroke-miterlimit="10" stroke-dasharray=""/><path fill="rgb(246,180,154)" stroke="rgb(164,92,69)" paint-order="fill stroke markers" d=" M 222 410 L 232 410 L 232 440 L 222 440 L 222 410 Z" fill-opacity="1" stroke-opacity="1" stroke-linecap="round" stroke-miterlimit="10" stroke-dasharray=""/><path fill="rgb(0,76,149)" stroke="rgb(0,0,0)" paint-order="fill stroke markers" d=" M 160 383 L 204 383 L 204 413 L 160 413 L 160 383 Z" fill-opacity="1" stroke-opacity="1" stroke-linecap="round" stroke-miterlimit="10" stroke-dasharray=""/><path fill="rgb(0,76,149)" stroke="rgb(0,0,0)" paint-order="fill stroke markers" d=" M 205 383 L 249 383 L 249 413 L 205 413 L 205 383 Z" fill-opacity="1" stroke-opacity="1" stroke-linecap="round" stroke-miterlimit="10" stroke-dasharray=""/><path fill="rgb(0,0,0)" stroke="none" paint-order="stroke fill markers" d=" M 183 450 A 15 7.5 0 1 1 213 450 Z" fill-opacity="1"/><path fill="none" stroke="rgb(0,0,0)" paint-order="fill stroke markers" d=" M 183 450 A 15 7.5 0 1 1 213 450 Z" stroke-opacity="1" stroke-linecap="round" stroke-miterlimit="10" stroke-dasharray=""/><path fill="rgb(0,0,0)" stroke="none" paint-order="stroke fill markers" d=" M 228 450 A 15 7.5 0 1 1 258 450 Z" fill-opacity="1"/><path fill="none" stroke="rgb(0,0,0)" paint-order="fill stroke markers" d=" M 228 450 A 15 7.5 0 1 1 258 450 Z" stroke-opacity="1" stroke-linecap="round" stroke-miterlimit="10" stroke-dasharray=""/><path fill="rgb(0,0,0)" stroke="rgb(0,0,0)" paint-order="fill stroke markers" d=" M 177 440 L 187 440 L 187 450 L 177 450 L 177 440 Z" fill-opacity="1" stroke-opacity="1" stroke-linecap="round" stroke-miterlimit="10" stroke-dasharray=""/><path fill="rgb(0,0,0)" stroke="rgb(0,0,0)" paint-order="fill stroke markers" d=" M 222 440 L 232 440 L 232 450 L 222 450 L 222 440 Z" fill-opacity="1" stroke-opacity="1" stroke-linecap="round" stroke-miterlimit="10" stroke-dasharray=""/><path fill="rgb(0,0,0)" stroke="rgb(0,0,0)" paint-order="fill stroke markers" d=" M 177 440 L 187 440 L 187 450 L 177 450 L 177 440 Z" fill-opacity="1" stroke-opacity="1" stroke-linecap="round" stroke-miterlimit="10" stroke-dasharray=""/><path fill="rgb(0,0,0)" stroke="rgb(0,0,0)" paint-order="fill stroke markers" d=" M 222 440 L 232 440 L 232 450 L 222 450 L 222 440 Z" fill-opacity="1" stroke-opacity="1" stroke-linecap="round" stroke-miterlimit="10" stroke-dasharray=""/><path fill="rgb(246,180,154)" stroke="rgb(164,92,69)" paint-order="fill stroke markers" d=" M 200 320 L 250 320 L 250 328 L 200 328 L 200 320 Z" fill-opacity="1" stroke-opacity="1" stroke-linecap="round" stroke-miterlimit="10" stroke-dasharray=""/><path fill="rgb(246,180,154)" stroke="rgb(164,92,69)" paint-order="fill stroke markers" d=" M 256 324 A 6 6 0 1 1 255.99999700000026 323.994000001 Z" fill-opacity="1" stroke-opacity="1" stroke-linecap="round" stroke-miterlimit="10" stroke-dasharray=""/><path fill="rgb(246,180,154)" stroke="none" paint-order="stroke fill markers" d=" M 242 320.4 L 249 320.4 L 249 327.4 L 242 327.4 L 242 320.4 Z" fill-opacity="1"/><path fill="rgb(246,180,154)" stroke="none" paint-order="stroke fill markers" d=" M 155 392 L 205 292 L 255 392 Z" fill-opacity="1"/><g clip-path="url(#btGwmygwzEAs)"><g><path fill="rgb(244,209,162)" stroke="none" paint-order="stroke fill markers" d=" M 185 290 L 225 290 L 225 306.66700000000003 L 185 306.66700000000003 L 185 290 Z" fill-opacity="1"/><path fill="rgb(244,153,2)" stroke="none" paint-order="stroke fill markers" d=" M 170 306.667 L 240 306.667 L 240 323.33399999999995 L 170 323.33399999999995 L 170 306.667 Z" fill-opacity="1"/><path fill="rgb(244,209,162)" stroke="none" paint-order="stroke fill markers" d=" M 170 323.33367 L 250 323.33367 L 250 340.00067 L 170 340.00067 L 170 323.33367 Z" fill-opacity="1"/><path fill="rgb(244,153,2)" stroke="none" paint-order="stroke fill markers" d=" M 170 340.0007 L 240 340.0007 L 240 356.66769999999997 L 170 356.66769999999997 L 170 340.0007 Z" fill-opacity="1"/><path fill="rgb(244,209,162)" stroke="none" paint-order="stroke fill markers" d=" M 165 356.66767 L 245 356.66767 L 245 373.33466999999996 L 165 373.33466999999996 L 165 356.66767 Z" fill-opacity="1"/><path fill="rgb(244,153,2)" stroke="none" paint-order="stroke fill markers" d=" M 150 373.33467 L 260 373.33467 L 260 392.33467 L 150 392.33467 L 150 373.33467 Z" fill-opacity="1"/></g></g><path fill="rgb(244,153,2)" stroke="none" paint-order="stroke fill markers" d=" M 194 292 L 216 292 L 216 302 L 194 302 L 194 292 Z" fill-opacity="1"/><path fill="rgb(246,180,154)" stroke="rgb(164,92,69)" paint-order="fill stroke markers" d=" M 208 340.5 L 258 340.5 L 258 348.5 L 208 348.5 L 208 340.5 Z" fill-opacity="1" stroke-opacity="1" stroke-linecap="round" stroke-miterlimit="10" stroke-dasharray=""/><path fill="rgb(246,180,154)" stroke="rgb(164,92,69)" paint-order="fill stroke markers" d=" M 264 344 A 6 6 0 1 1 263.99999700000023 343.994000001 Z" fill-opacity="1" stroke-opacity="1" stroke-linecap="round" stroke-miterlimit="10" stroke-dasharray=""/><path fill="rgb(246,180,154)" stroke="none" paint-order="stroke fill markers" d=" M 250 340.9 L 257 340.9 L 257 347.9 L 250 347.9 L 250 340.9 Z" fill-opacity="1"/><path fill="rgb(244,209,162)" stroke="rgb(0,0,0)" paint-order="fill stroke markers" d=" M 200 340.0007 L 215 340.0007 L 215 350.0007 L 200 350.0007 L 200 340.0007 Z" fill-opacity="1" stroke-opacity="1" stroke-linecap="round" stroke-miterlimit="10" stroke-dasharray=""/><path fill="rgb(244,209,162)" stroke="none" paint-order="stroke fill markers" d=" M 203.5 340.9 L 215.5 340.9 L 215.5 348.4 L 203.5 348.4 L 203.5 340.9 Z" fill-opacity="1"/></g></svg>