<svg version="1.1" xmlns="http://www.w3.org/2000/svg" xmlns:xlink="http://www.w3.org/1999/xlink" width="500" height="500" viewBox="0 0 500 500"><defs/><g><rect fill="rgb(230,230,230)" stroke="none" x="0" y="0" width="500" height="500" transform="matrix(1 0 0 1 0 0)" fill-opacity="1"/><path fill="rgb(255,255,255)" stroke="none" paint-order="stroke fill markers" d=" M 360 150 A 110 90 0 1 1 359.9999450000046 149.91000001499995 Z" fill-opacity="1"/><path fill="rgb(255,0,0)" stroke="none" paint-order="stroke fill markers" d=" M 295 115 A 45 40 0 1 1 294.9999775000019 114.96000000666665 Z" fill-opacity="1"/><path fill="rgb(255,0,0)" stroke="none" paint-order="stroke fill markers" d=" M 360 150 A 10 35 0 1 1 359.9999950000004 149.9650000058333 Z" fill-opacity="1"/><path fill="rgb(255,0,0)" stroke="none" paint-order="stroke fill markers" d=" M 160 150 A 10 35 0 1 1 159.9999950000004 149.9650000058333 Z" fill-opacity="1"/><path fill="rgb(125,65,51)" stroke="none" paint-order="stroke fill markers" d=" M 157.56115201109174 396.87688502649064 A 42.5 35 0 1 1 242.5 395 L 200 395 Z" fill-opacity="1"/><path fill="rgb(125,65,51)" stroke="none" paint-order="stroke fill markers" d=" M 242.5 395 A 42.5 10 0 0 1 158.2314084167489 396.84724251093473 L 200 395 Z" fill-opacity="1"/><path fill="rgb(125,65,51)" stroke="none" paint-order="stroke fill markers" d=" M 257.56115201109174 396.87688502649064 A 42.5 35 0 1 1 342.5 395 L 300 395 Z" fill-opacity="1"/><path fill="rgb(125,65,51)" stroke="none" paint-order="stroke fill markers" d=" M 342.5 395 A 42.5 10 0 0 1 258.23140841674893 396.84724251093473 L 300 395 Z" fill-opacity="1"/><path fill="rgb(255,200,170)" stroke="none" paint-order="stroke fill markers" d=" M 288 264 L 310 282 L 320 300 L 325 316 L 300 316 L 269 266 L 288 264 L 288 264 Z" fill-opacity="1"/><path fill="rgb(255,200,170)" stroke="none" paint-order="stroke fill markers" d=" M 335 324 A 15 15 0 1 1 334.99999250000064 323.9850000025 Z" fill-opacity="1"/><path fill="rgb(255,200,170)" stroke="none" paint-order="stroke fill markers" d=" M 210 264 L 190 282 L 180 300 L 175 316 L 300 316 L 239 266 L 210 264 L 210 264 Z" fill-opacity="1"/><path fill="rgb(255,200,170)" stroke="none" paint-order="stroke fill markers" d=" M 195 324 A 15 15 0 1 1 194.99999250000062 323.9850000025 Z" fill-opacity="1"/><path fill="rgb(255,200,170)" stroke="none" paint-order="stroke fill markers" d=" M 310 320 A 60 65 0 1 1 309.9999700000025 319.9350000108333 Z" fill-opacity="1"/><path fill="rgb(255,200,170)" stroke="none" paint-order="stroke fill markers" d=" M 220 260 L 202 290 L 298 290 L 280 260 L 220 260 L 220 260 Z" fill-opacity="1"/><path fill="rgb(255,200,170)" stroke="none" paint-order="stroke fill markers" d=" M 302.5 220 A 52.5 50 0 0 1 197.5 220 L 250 220 Z" fill-opacity="1"/><path fill="rgb(255,200,170)" stroke="none" paint-order="stroke fill markers" d=" M 197 200 L 303 200 L 303 220 L 197 220 L 197 200 Z" fill-opacity="1"/><path fill="rgb(255,200,170)" stroke="none" paint-order="stroke fill markers" d=" M 196.5 203 A 53.5 18.5 0 1 1 303.5 203 L 250 203 Z" fill-opacity="1"/><path fill="rgb(255,255,255)" stroke="none" paint-order="stroke fill markers" d=" M 310 325 A 60 60 0 0 1 190 325 L 250 325 Z" fill-opacity="1"/><path fill="rgb(0,0,0)" stroke="none" paint-order="stroke fill markers" d=" M 235 215 A 5 10 0 1 1 234.9999975000002 214.99000000166666 Z" fill-opacity="1"/><path fill="rgb(0,0,0)" stroke="none" paint-order="stroke fill markers" d=" M 275 215 A 5 10 0 1 1 274.99999750000023 214.99000000166666 Z" fill-opacity="1"/><path fill="rgb(255,255,255)" stroke="none" paint-order="stroke fill markers" d=" M 232 210 A 2 3 0 1 1 231.9999990000001 209.9970000005 Z" fill-opacity="1"/><path fill="rgb(255,255,255)" stroke="none" paint-order="stroke fill markers" d=" M 272 210 A 2 3 0 1 1 271.99999900000006 209.9970000005 Z" fill-opacity="1"/><path fill="none" stroke="rgb(0,0,0)" paint-order="fill stroke markers" d=" M 270 240 A 20 10 0 0 1 230 240" stroke-opacity="1" stroke-linecap="round" stroke-miterlimit="10" stroke-dasharray=""/><path fill="rgb(0,0,200)" stroke="none" paint-order="stroke fill markers" d=" M 230 267 L 230 340 L 191 340 L 189 326 L 192 299 L 200 282 L 219 261 L 230 267 L 230 267 Z" fill-opacity="1"/><path fill="rgb(0,0,200)" stroke="none" paint-order="stroke fill markers" d=" M 270 267 L 270 340 L 309 340 L 310 326 L 309 299 L 300 282 L 280 261 L 270 267 L 270 267 Z" fill-opacity="1"/><path fill="rgb(253,203,46)" stroke="rgb(253,203,46)" paint-order="fill stroke markers" d=" M 219 260 L 219 325 L 189 325 L 190 340 L 230 340 L 230 266 L 219 260 L 219 260 Z" fill-opacity="1" stroke-opacity="1" stroke-linecap="round" stroke-miterlimit="10" stroke-dasharray=""/><path fill="rgb(253,203,46)" stroke="rgb(253,203,46)" paint-order="fill stroke markers" d=" M 280 260 L 280 325 L 310 325 L 309 340 L 269 340 L 269 266 L 280 260 L 280 260 Z" fill-opacity="1" stroke-opacity="1" stroke-linecap="round" stroke-miterlimit="10" stroke-dasharray=""/></g></svg>