<?xml version="1.0" encoding="UTF-8"?>
<svg id="Laag_2" data-name="Laag 2" xmlns="http://www.w3.org/2000/svg" viewBox="0 0 113.39 56.69">
  <defs>
    <style>
      .cls-1 {
        fill: #c0422d;
      }

      .cls-2 {
        fill: #1d1d1b;
        font-family: PressStart2P-Regular, 'Press Start 2P';
        font-size: 10px;
      }

      .cls-3 {
        fill: #eb5b3a;
      }
    </style>
  </defs>
  <g id="Laag_1-2" data-name="Laag 1">
    <g>
      <rect class="cls-1" x="14.17" y="42.52" width="14.17" height="14.17"/>
      <rect class="cls-1" x="14.17" width="14.17" height="14.17"/>
      <polygon class="cls-1" points="14.17 14.17 0 14.17 0 28.35 0 42.52 14.17 42.52 14.17 28.35 14.17 14.17"/>
    </g>
    <polygon class="cls-3" points="99.21 14.17 99.21 0 85.04 0 70.87 0 56.69 0 42.52 0 28.35 0 28.35 14.17 14.17 14.17 14.17 28.35 14.17 42.52 28.35 42.52 28.35 56.69 42.52 56.69 56.69 56.69 70.87 56.69 85.04 56.69 99.21 56.69 99.21 42.52 113.39 42.52 113.39 28.35 113.39 14.17 99.21 14.17"/>
    <text class="cls-2" transform="translate(23.24 28.03)"><tspan x="0" y="0">Download </tspan><tspan x="5" y="14">content</tspan></text>
  </g>
</svg>