<?xml version="1.0" encoding="utf-8"?>
<!-- Generator: Adobe Illustrator 29.5.1, SVG Export Plug-In . SVG Version: 9.03 Build 0)  -->
<!DOCTYPE svg PUBLIC "-//W3C//DTD SVG 1.1//EN" "http://www.w3.org/Graphics/SVG/1.1/DTD/svg11.dtd" [
	<!ENTITY st0 "fill:#EF847D;">
	<!ENTITY st1 "fill:#2B2B2B;">
	<!ENTITY st2 "fill:#EA5B3A;">
	<!ENTITY st3 "fill:#C0422D;">
	<!ENTITY st4 "fill:#FFFFFD;">
	<!ENTITY st5 "fill:#E7E7E8;">
	<!ENTITY st6 "fill:#CAC8C8;">
	<!ENTITY st7 "fill:#FFDB4B;">
	<!ENTITY st8 "fill:#FCC008;">
	<!ENTITY st9 "fill:#F6A52E;">
	<!ENTITY st10 "fill:#63A5CC;">
	<!ENTITY st11 "fill:#387BBE;">
	<!ENTITY st12 "fill:#1E4E9D;">
	<!ENTITY st13 "fill:#CAC9C9;">
	<!ENTITY st14 "fill:#E8E8E8;">
	<!ENTITY st15 "enable-background:new    ;">
	<!ENTITY st16 "fill:#1D1D1B;">
]>
<svg version="1.1" id="Laag_1" xmlns="http://www.w3.org/2000/svg" xmlns:xlink="http://www.w3.org/1999/xlink" x="0px" y="0px"
	 viewBox="0 0 1488.19 204.04" style="enable-background:new 0 0 1488.19 204.04;" xml:space="preserve">
<g>
	<rect x="1375.14" y="90.65" style="&st0;" width="70.87" height="70.87"/>
	<rect x="1419.43" y="111.91" style="&st1;" width="5.31" height="10.63"/>
	<rect x="1396.4" y="111.91" style="&st1;" width="5.31" height="10.63"/>
	<rect x="1420.76" y="116.34" style="&st0;" width="2.66" height="5.31"/>
	<rect x="1397.73" y="116.34" style="&st0;" width="2.66" height="5.31"/>
	<g>
		<polygon style="&st2;" points="1460.18,104.82 1460.18,90.65 1460.18,76.48 1446,76.48 1431.83,76.48 1417.66,76.48 
			1403.48,76.48 1403.48,76.48 1417.66,76.48 1417.66,62.3 1403.48,62.31 1389.31,62.31 1389.31,76.48 1375.14,76.48 1360.96,76.48 
			1360.96,90.65 1346.79,90.65 1346.79,104.82 1346.79,119 1360.96,119 1360.96,133.17 1360.96,147.34 1375.14,147.34 
			1375.14,133.17 1375.14,119 1375.14,104.82 1375.14,90.65 1389.31,90.65 1403.48,90.65 1417.66,90.65 1431.83,90.65 1446,90.65 
			1446,104.82 1446,119 1446,133.17 1446,147.34 1446,161.52 1431.83,161.52 1417.66,161.52 1403.48,161.52 1389.31,161.52 
			1389.31,175.69 1403.48,175.69 1417.66,175.69 1417.66,189.86 1417.66,204.04 1431.83,204.04 1446,204.04 1446,189.86 
			1431.83,189.86 1431.83,175.69 1446,175.69 1460.18,175.69 1460.18,161.52 1460.18,147.34 1460.18,133.17 1474.35,133.17 
			1474.35,119 1474.35,104.82 		"/>
		<polygon style="&st2;" points="1346.79,161.52 1346.79,175.69 1360.96,175.69 1360.96,161.52 1360.96,147.34 1346.79,147.34 		"/>
		<rect x="1417.66" y="62.3" style="&st2;" width="14.17" height="14.17"/>
	</g>
	<g>
		<polygon style="&st3;" points="1474.35,76.48 1460.18,76.48 1460.18,90.65 1460.18,104.82 1474.35,104.82 1474.35,90.65 		"/>
		<polygon style="&st3;" points="1474.35,104.82 1474.35,119 1474.35,133.17 1488.52,133.17 1488.52,119 1488.52,104.82 		"/>
		<rect x="1431.83" y="175.69" style="&st3;" width="14.17" height="14.17"/>
		<rect x="1446" y="189.86" style="&st3;" width="14.17" height="14.17"/>
		<polygon style="&st3;" points="1460.18,147.34 1460.18,161.52 1460.18,175.69 1474.35,175.69 1474.35,161.52 1474.35,147.34 
			1474.35,133.17 1460.18,133.17 		"/>
		<polygon style="&st3;" points="1375.14,147.34 1360.96,147.34 1360.96,161.52 1360.96,175.69 1375.14,175.69 1389.31,175.69 
			1389.31,161.52 1375.14,161.52 		"/>
		<rect x="1431.83" y="62.3" style="&st3;" width="14.17" height="14.17"/>
	</g>
</g>
<g>
	<rect x="1261.75" y="119" style="&st4;" width="70.87" height="70.87"/>
	<rect x="1306.04" y="140.26" style="&st1;" width="5.31" height="10.63"/>
	<rect x="1283.01" y="140.26" style="&st1;" width="5.31" height="10.63"/>
	<rect x="1307.37" y="144.69" style="&st4;" width="2.66" height="5.31"/>
	<rect x="1284.34" y="144.69" style="&st4;" width="2.66" height="5.31"/>
	<g>
		<polygon style="&st5;" points="1346.79,133.17 1346.79,119 1346.79,104.82 1332.62,104.82 1318.44,104.82 1304.27,104.82 
			1290.1,104.82 1290.1,104.82 1304.27,104.82 1304.27,90.65 1290.1,90.65 1290.1,90.65 1275.92,90.65 1275.92,104.82 
			1261.75,104.82 1247.58,104.82 1247.58,119 1233.4,119 1233.4,133.17 1233.4,147.34 1247.58,147.34 1247.58,161.52 
			1247.58,175.69 1261.75,175.69 1261.75,161.52 1261.75,147.34 1261.75,133.17 1261.75,119 1275.92,119 1290.1,119 1304.27,119 
			1318.44,119 1332.62,119 1332.62,133.17 1332.62,147.34 1332.62,161.52 1332.62,175.69 1332.62,189.86 1318.44,189.86 
			1318.44,204.04 1332.62,204.04 1346.79,204.04 1346.79,189.86 1346.79,175.69 1346.79,161.52 1360.96,161.52 1360.96,147.34 
			1360.96,133.17 		"/>
		<polygon style="&st5;" points="1233.4,189.86 1233.4,204.04 1247.58,204.04 1247.58,189.86 1247.58,175.69 1233.4,175.69 		"/>
		<polygon style="&st5;" points="1275.92,189.86 1275.92,204.04 1290.1,204.04 1290.1,189.86 1290.1,175.69 1275.92,175.69 		"/>
		<rect x="1304.27" y="90.65" style="&st5;" width="14.17" height="14.17"/>
	</g>
	<g>
		<polygon style="&st6;" points="1360.96,104.82 1346.79,104.82 1346.79,119 1346.79,133.17 1360.96,133.17 1360.96,119 		"/>
		<polygon style="&st6;" points="1360.96,133.17 1360.96,147.34 1360.96,161.52 1375.14,161.52 1375.14,147.34 1375.14,133.17 		"/>
		<polygon style="&st6;" points="1346.79,175.69 1346.79,189.86 1346.79,204.04 1360.96,204.04 1360.96,189.86 1360.96,175.69 
			1360.96,161.52 1346.79,161.52 		"/>
		<polygon style="&st6;" points="1261.75,175.69 1247.58,175.69 1247.58,189.86 1247.58,204.04 1261.75,204.04 1275.92,204.04 
			1275.92,189.86 1261.75,189.86 		"/>
		<polygon style="&st6;" points="1304.27,175.69 1290.1,175.69 1290.1,189.86 1290.1,204.04 1304.27,204.04 1318.44,204.04 
			1318.44,189.86 1304.27,189.86 		"/>
		<rect x="1318.44" y="90.65" style="&st6;" width="14.17" height="14.17"/>
	</g>
</g>
<g>
	<rect x="42.52" y="90.65" style="&st0;" width="70.87" height="70.87"/>
	<rect x="86.81" y="111.91" style="&st1;" width="5.31" height="10.63"/>
	<rect x="63.78" y="111.91" style="&st1;" width="5.31" height="10.63"/>
	<rect x="88.14" y="116.34" style="&st0;" width="2.66" height="5.31"/>
	<rect x="65.11" y="116.34" style="&st0;" width="2.66" height="5.31"/>
	<g>
		<path style="&st2;" d="M127.56,104.82V90.65V76.48h-14.17H99.21H85.04H70.87H56.69H42.52H28.35v14.17H14.17v14.17v14.17h14.17
			v14.17v14.17v14.17v14.17h14.17h14.17v14.17H42.52v14.17h14.17h14.17v-14.17v-14.15h14.17v14.17v14.17H99.2h14.17v-14.17H99.21
			v-14.17h14.17h14.17v-14.17v-14.17v-14.17h14.17v-14.17v-14.19H127.56z M113.39,147.34v14.17H99.21H85.04H70.87H56.69H42.52
			v-14.17v-14.17V119v-14.18V90.65h14.17h14.17h14.17H99.2h14.17v14.17v14.17v14.17v14.18H113.39z"/>
		<polygon style="&st2;" points="70.87,76.48 85.04,76.48 99.21,76.48 99.21,62.3 85.04,62.3 85.04,62.3 70.87,62.3 		"/>
		<rect x="56.69" y="62.3" style="&st2;" width="14.17" height="14.17"/>
	</g>
	<g>
		<rect x="14.17" y="76.48" style="&st3;" width="14.17" height="14.17"/>
		<polygon style="&st3;" points="70.87,175.69 70.87,189.86 70.87,204.04 85.04,204.04 85.04,189.86 85.04,175.69 		"/>
		<rect x="42.52" y="175.69" style="&st3;" width="14.17" height="14.17"/>
		<rect x="28.35" y="189.86" style="&st3;" width="14.17" height="14.17"/>
		<polygon style="&st3;" points="14.17,90.65 0,90.65 0,104.82 0,119 14.17,119 14.17,104.82 		"/>
		<polygon style="&st3;" points="14.17,147.34 14.17,161.52 14.17,175.69 28.35,175.69 28.35,161.52 28.35,147.34 28.35,133.17 
			28.35,119 14.17,119 14.17,133.17 		"/>
		<rect x="42.52" y="62.3" style="&st3;" width="14.17" height="14.17"/>
	</g>
</g>
<g>
	<rect x="155.91" y="119" style="&st7;" width="70.87" height="70.87"/>
	<rect x="200.2" y="140.26" style="&st1;" width="5.31" height="10.63"/>
	<rect x="177.17" y="140.26" style="&st1;" width="5.31" height="10.63"/>
	<rect x="201.53" y="144.69" style="&st7;" width="2.66" height="5.31"/>
	<rect x="178.5" y="144.69" style="&st7;" width="2.66" height="5.31"/>
	<g>
		<polygon style="&st8;" points="240.95,133.17 240.95,119 240.95,104.82 226.78,104.82 212.6,104.82 212.6,90.65 198.43,90.65 
			184.26,90.65 170.08,90.65 170.08,104.82 155.91,104.82 141.74,104.82 141.74,119 127.56,119 127.56,133.17 127.56,147.34 
			141.74,147.34 141.74,161.52 141.74,175.69 141.74,189.86 141.74,204.04 155.91,204.04 170.08,204.04 170.08,189.86 
			155.91,189.86 155.91,175.69 155.91,161.52 155.91,147.34 155.91,133.17 155.91,119 170.08,119 184.26,119 198.43,119 212.6,119 
			226.78,119 226.78,133.17 226.78,147.34 226.78,161.52 226.78,175.69 240.95,175.69 240.95,161.52 255.12,161.52 255.12,147.34 
			255.12,133.17 		"/>
		<polygon style="&st8;" points="198.43,189.86 198.43,204.04 212.6,204.04 212.6,189.86 212.6,175.69 198.43,175.69 		"/>
		<polygon style="&st8;" points="240.95,204.04 255.12,204.04 255.12,189.86 255.12,175.69 240.95,175.69 240.95,189.86 		"/>
	</g>
	<g>
		<rect x="127.56" y="104.82" style="&st9;" width="14.17" height="14.17"/>
		<polygon style="&st9;" points="113.39,133.17 113.39,147.34 127.56,147.34 127.56,133.17 127.56,119 113.39,119 		"/>
		<polygon style="&st9;" points="127.56,175.69 127.56,189.86 127.56,204.04 141.74,204.04 141.74,189.86 141.74,175.69 
			141.74,161.52 141.74,147.34 127.56,147.34 127.56,161.52 		"/>
		<polygon style="&st9;" points="184.26,189.86 170.08,189.86 170.08,204.04 184.26,204.04 198.43,204.04 198.43,189.86 
			198.43,175.69 184.26,175.69 		"/>
		<polygon style="&st9;" points="226.78,175.69 226.78,189.86 212.6,189.86 212.6,204.04 226.78,204.04 240.95,204.04 
			240.95,189.86 240.95,175.69 		"/>
		<rect x="155.91" y="90.65" style="&st9;" width="14.17" height="14.17"/>
	</g>
</g>
<g>
	<rect x="400.7" y="90.65" style="&st4;" width="70.87" height="70.87"/>
	<rect x="444.99" y="111.91" style="&st1;" width="5.31" height="10.63"/>
	<rect x="421.96" y="111.91" style="&st1;" width="5.31" height="10.63"/>
	<rect x="446.32" y="116.34" style="&st4;" width="2.66" height="5.31"/>
	<rect x="423.29" y="116.34" style="&st4;" width="2.66" height="5.31"/>
	<g>
		<polygon style="&st5;" points="485.74,104.82 485.74,90.65 485.74,76.48 471.57,76.48 457.39,76.48 443.22,76.48 429.05,76.48 
			414.87,76.48 400.7,76.48 386.53,76.48 386.53,90.65 372.35,90.65 372.35,104.82 372.35,119 386.53,119 386.53,133.17 
			386.53,147.34 386.53,161.52 386.53,175.69 400.7,175.69 414.87,175.69 414.87,189.86 400.7,189.86 400.7,204.04 414.87,204.04 
			429.05,204.04 429.05,189.86 429.05,175.69 443.22,175.69 457.39,175.69 457.39,161.52 443.22,161.52 429.05,161.52 
			414.87,161.52 400.7,161.52 400.7,147.34 400.7,133.17 400.7,119 400.7,104.82 400.7,90.65 414.87,90.65 429.05,90.65 
			443.22,90.65 457.39,90.65 471.57,90.65 471.57,104.82 471.57,119 471.57,133.17 471.57,147.34 485.74,147.34 485.74,133.17 
			499.91,133.17 499.91,119 499.91,104.82 		"/>
		<polygon style="&st5;" points="485.74,161.56 485.74,175.73 499.91,175.73 499.91,161.56 499.91,147.39 485.74,147.39 		"/>
		<polygon style="&st5;" points="443.22,76.48 443.22,76.48 457.39,76.48 457.39,62.3 443.22,62.3 429.05,62.3 429.05,76.48 		"/>
		<rect x="414.87" y="62.3" style="&st5;" width="14.17" height="14.17"/>
	</g>
	<g>
		<rect x="372.35" y="76.48" style="&st6;" width="14.17" height="14.17"/>
		<rect x="400.7" y="175.69" style="&st6;" width="14.17" height="14.17"/>
		<rect x="386.53" y="189.86" style="&st6;" width="14.17" height="14.17"/>
		<polygon style="&st6;" points="372.35,90.65 358.18,90.65 358.18,104.82 358.18,119 372.35,119 372.35,104.82 		"/>
		<polygon style="&st6;" points="372.35,147.34 372.35,161.52 372.35,175.69 386.53,175.69 386.53,161.52 386.53,147.34 
			386.53,133.17 386.53,119 372.35,119 372.35,133.17 		"/>
		<polygon style="&st6;" points="471.57,147.39 471.57,161.56 457.39,161.56 457.39,175.73 471.57,175.73 485.74,175.73 
			485.74,161.56 485.74,147.39 		"/>
		<rect x="400.7" y="62.31" style="&st6;" width="14.17" height="14.17"/>
	</g>
</g>
<g>
	<rect x="983.84" y="90.65" style="&st10;" width="70.87" height="70.87"/>
	<rect x="1028.13" y="111.91" style="&st1;" width="5.31" height="10.63"/>
	<rect x="1005.1" y="111.91" style="&st1;" width="5.31" height="10.63"/>
	<rect x="1029.46" y="116.34" style="&st10;" width="2.66" height="5.31"/>
	<rect x="1006.43" y="116.34" style="&st10;" width="2.66" height="5.31"/>
	<g>
		<polygon style="&st11;" points="1068.88,104.82 1068.88,90.65 1068.88,76.48 1054.71,76.48 1040.53,76.48 1026.36,76.48 
			1012.19,76.48 1012.19,76.48 1026.36,76.48 1026.36,62.3 1012.19,62.31 998.02,62.31 998.02,76.48 983.84,76.48 969.67,76.48 
			969.67,90.65 955.5,90.65 955.5,104.82 955.5,119 969.67,119 969.67,133.17 969.67,147.34 983.84,147.34 983.84,133.17 
			983.84,119 983.84,104.82 983.84,90.65 998.02,90.65 1012.19,90.65 1026.36,90.65 1040.53,90.65 1054.71,90.65 1054.71,104.82 
			1054.71,119 1054.71,133.17 1054.71,147.34 1054.71,161.52 1040.53,161.52 1026.36,161.52 1012.19,161.52 998.02,161.52 
			998.02,175.69 1012.19,175.69 1026.36,175.69 1026.36,189.86 1026.36,204.04 1040.53,204.04 1054.71,204.04 1054.71,189.86 
			1040.53,189.86 1040.53,175.69 1054.71,175.69 1068.88,175.69 1068.88,161.52 1068.88,147.34 1068.88,133.17 1083.05,133.17 
			1083.05,119 1083.05,104.82 		"/>
		<polygon style="&st11;" points="955.5,161.52 955.5,175.69 969.67,175.69 969.67,161.52 969.67,147.34 955.5,147.34 		"/>
		<rect x="1026.36" y="62.3" style="&st11;" width="14.17" height="14.17"/>
	</g>
	<g>
		<polygon style="&st12;" points="1083.05,76.48 1068.88,76.48 1068.88,90.65 1068.88,104.82 1083.05,104.82 1083.05,90.65 		"/>
		<polygon style="&st12;" points="1083.05,104.82 1083.05,119 1083.05,133.17 1097.23,133.17 1097.23,119 1097.23,104.82 		"/>
		<rect x="1040.53" y="175.69" style="&st12;" width="14.17" height="14.17"/>
		<rect x="1054.71" y="189.86" style="&st12;" width="14.17" height="14.17"/>
		<polygon style="&st12;" points="1068.88,147.34 1068.88,161.52 1068.88,175.69 1083.05,175.69 1083.05,161.52 1083.05,147.34 
			1083.05,133.17 1068.88,133.17 		"/>
		<polygon style="&st12;" points="983.84,147.34 969.67,147.34 969.67,161.52 969.67,175.69 983.84,175.69 998.02,175.69 
			998.02,161.52 983.84,161.52 		"/>
		<rect x="1040.53" y="62.3" style="&st12;" width="14.17" height="14.17"/>
	</g>
</g>
<g>
	<g>
		<g>
			<rect x="499.6" style="&st13;" width="9.14" height="9.14"/>
			<polygon style="&st13;" points="527.02,73.1 527.02,82.24 527.02,91.38 536.15,91.38 536.15,82.24 536.15,73.1 			"/>
			<rect x="517.88" y="91.38" style="&st13;" width="9.14" height="9.14"/>
			<rect x="490.46" y="9.14" style="&st13;" width="9.14" height="9.14"/>
			<polygon style="&st13;" points="490.46,54.83 490.46,63.96 490.46,73.1 499.6,73.1 499.6,63.96 499.6,54.83 499.6,45.69 
				499.6,36.55 490.46,36.55 490.46,45.69 			"/>
			<polygon style="&st13;" points="481.33,27.41 481.33,36.55 490.46,36.55 490.46,27.41 490.46,18.28 481.33,18.28 			"/>
		</g>
		<polygon style="&st14;" points="600.12,27.41 600.12,18.28 600.12,9.14 590.98,9.14 581.84,9.14 572.7,9.14 563.57,9.14 
			554.43,9.14 545.29,9.14 536.15,9.14 536.15,0 527.02,0 517.88,0 508.74,0 508.74,9.14 499.6,9.14 499.6,18.28 490.46,18.28 
			490.46,27.41 490.46,36.55 499.6,36.55 499.6,45.69 499.6,54.83 499.6,63.96 499.6,73.1 508.74,73.1 517.88,73.1 527.02,73.1 
			536.15,73.1 536.15,82.24 536.15,91.38 527.02,91.38 527.02,100.52 536.15,100.52 545.29,100.52 545.29,91.38 554.43,91.38 
			554.43,82.24 563.57,82.24 563.57,73.1 572.7,73.1 581.84,73.1 590.98,73.1 600.12,73.1 600.12,63.96 600.12,54.83 609.26,54.83 
			609.26,45.69 609.26,36.55 609.26,27.41 		"/>
	</g>
	<g style="&st15;">
		<path style="&st16;" d="M516.79,36.32v-7.58h5.42v1.08h1.08v1.08h1.08v3.25h-1.08v1.08h-1.08v1.08H516.79z M518.95,35.24h2.17
			v-1.08h1.08v-3.25h-1.08v-1.08h-2.17V35.24z"/>
		<path style="&st16;" d="M526.54,36.32v-1.08h-1.08v-3.25h1.08v-1.08h5.42v1.08h1.08v3.25h-1.08v1.08H526.54z M527.62,35.24h3.25
			v-3.25h-3.25V35.24z"/>
		<path style="&st16;" d="M536.28,35.24h1.08v1.08h-2.17v-1.08h-1.08v-4.33h2.17V35.24z M538.45,30.91v4.33h-1.08v-4.33H538.45z
			 M541.7,30.91v4.33h-1.08v1.08h-2.17v-1.08h1.08v-4.33H541.7z"/>
		<path style="&st16;" d="M542.78,36.32v-5.42h6.5v1.08h1.08v4.33h-2.17v-4.33h-3.25v4.33H542.78z"/>
		<path style="&st16;" d="M552.53,36.32v-1.08h2.17v-5.42h-1.08v-1.08h3.25v6.5h2.17v1.08H552.53z"/>
		<path style="&st16;" d="M561.19,36.32v-1.08h-1.08v-3.25h1.08v-1.08h5.42v1.08h1.08v3.25h-1.08v1.08H561.19z M562.28,35.24h3.25
			v-3.25h-3.25V35.24z"/>
		<path style="&st16;" d="M569.86,36.32v-1.08h-1.08v-1.08h1.08v-1.08h4.33v-1.08h-4.33v-1.08h5.42v1.08h1.08v4.33H569.86z
			 M570.94,35.24h3.25v-1.08h-3.25V35.24z"/>
		<path style="&st16;" d="M578.52,36.32v-1.08h-1.08v-3.25h1.08v-1.08h4.33v-2.17h2.17v7.58H578.52z M579.61,35.24h3.25v-3.25h-3.25
			V35.24z"/>
	</g>
	<g style="&st15;">
		<path style="&st16;" d="M535.2,46.43v-1.08h-1.08V42.1h1.08v-1.08h5.42v1.08h1.08v3.25h-1.08v1.08H535.2z M536.28,45.35h3.25V42.1
			h-3.25V45.35z"/>
		<path style="&st16;" d="M542.78,46.43v-5.42h6.5v1.08h1.08v4.33h-2.17V42.1h-3.25v4.33H542.78z"/>
		<path style="&st16;" d="M551.45,46.43v-1.08h1.08v-1.08h1.08v-1.08h1.08V42.1h-3.25v-1.08h7.58v1.08h-1.08v1.08h-1.08v1.08h-1.08
			v1.08h3.25v1.08H551.45z"/>
		<path style="&st16;" d="M561.19,46.43v-1.08h-1.08V42.1h1.08v-1.08h5.42v1.08h1.08v2.17h-5.42v1.08h4.33v1.08H561.19z
			 M562.28,43.18h3.25V42.1h-3.25V43.18z"/>
	</g>
	<g style="&st15;">
		<path style="&st16;" d="M522.2,56.54v-1.08h-1.08v-3.25h1.08v-1.08h6.5v1.08h-5.42v3.25h5.42v1.08H522.2z"/>
		<path style="&st16;" d="M530.87,56.54v-1.08h-1.08v-3.25h1.08v-1.08h5.42v1.08h1.08v3.25h-1.08v1.08H530.87z M531.95,55.46h3.25
			v-3.25h-3.25V55.46z"/>
		<path style="&st16;" d="M538.45,56.54v-5.42h6.5v1.08h1.08v4.33h-2.17v-4.33h-3.25v4.33H538.45z"/>
		<path style="&st16;" d="M550.36,56.54v-4.33h-2.17v-1.08h2.17v-2.17h2.17v2.17h2.17v1.08h-2.17v4.33H550.36z"/>
		<path style="&st16;" d="M556.86,56.54v-1.08h-1.08v-3.25h1.08v-1.08h5.42v1.08h1.08v2.17h-5.42v1.08h4.33v1.08H556.86z
			 M557.94,53.29h3.25v-1.08h-3.25V53.29z"/>
		<path style="&st16;" d="M564.44,56.54v-5.42h6.5v1.08h1.08v4.33h-2.17v-4.33h-3.25v4.33H564.44z"/>
		<path style="&st16;" d="M576.36,56.54v-4.33h-2.17v-1.08h2.17v-2.17h2.17v2.17h2.17v1.08h-2.17v4.33H576.36z"/>
	</g>
</g>
</svg>
