<svg width="378" height="540" viewBox="0 0 378 540" fill="none" xmlns="http://www.w3.org/2000/svg">
<path d="M92.8061 12.1338H62.3018V42.6381H92.8061V12.1338Z" fill="#BCBCBB"/>
<path d="M83.6508 21.2847H81.3652V25.8601H83.6508V21.2847Z" fill="#2B2B2B"/>
<path d="M73.7377 21.2847H71.4521V25.8601H73.7377V21.2847Z" fill="#2B2B2B"/>
<path d="M83.0824 23.1914H81.9375V25.477H83.0824V23.1914Z" fill="#BCBCBB"/>
<path d="M73.1703 23.1914H72.0254V25.477H73.1703V23.1914Z" fill="#BCBCBB"/>
<path d="M98.9057 18.2329V6.03028H86.7031V0H68.4014V6.03028H56.1988V12.1294H50.0996V24.332H56.1988V48.7329H68.4014V54.8321H62.3022V60.9312H74.5048V48.7286H80.604V60.9312H92.8066V54.8321H86.7074V48.7329H98.91V30.4312H105.009V18.2286H98.91L98.9057 18.2329ZM92.8066 36.5346V42.6338H62.3022V12.1337H92.8066V36.5346Z" fill="#5A5A58"/>
<path d="M56.1988 6.03027H50.0996V12.1294H56.1988V6.03027Z" fill="#2B2B2B"/>
<path d="M74.5049 48.7373V54.8365V60.9356H80.604V54.8365V48.7373H74.5049Z" fill="#2B2B2B"/>
<path d="M68.4009 48.7373H62.3018V54.8365H68.4009V48.7373Z" fill="#2B2B2B"/>
<path d="M62.3013 54.8364H56.2021V60.9356H62.3013V54.8364Z" fill="#2B2B2B"/>
<path d="M50.0992 12.1338H44V18.2329V24.3321H50.0992V18.2329V12.1338Z" fill="#2B2B2B"/>
<path d="M50.0996 36.5346V42.6338V48.7372H56.2031V42.6338V36.5346V30.4355V24.332H50.0996V30.4355V36.5346Z" fill="#2B2B2B"/>
<path d="M68.4009 0H62.3018V6.09915H68.4009V0Z" fill="#2B2B2B"/>
<path d="M217.703 12.1984H187.198V42.7027H217.703V12.1984Z" fill="#FFDC4B"/>
<path d="M208.547 21.3492H206.262V25.9247H208.547V21.3492Z" fill="#2B2B2B"/>
<path d="M198.634 21.3492H196.349V25.9247H198.634V21.3492Z" fill="#2B2B2B"/>
<path d="M207.979 23.256H206.834V25.5416H207.979V23.256Z" fill="#FFDC4B"/>
<path d="M198.067 23.256H196.922V25.5416H198.067V23.256Z" fill="#FFDC4B"/>
<path d="M223.802 18.3017V12.1983V6.09912H217.703H211.604H205.5H199.401H193.302H187.198H181.099V12.1983H175V18.3017V24.4009H181.099V30.5V36.6035H187.198V30.5V24.4009V18.3017V12.1983H193.302H199.401H205.5H211.604H217.703V18.3017V24.4009V30.5V36.6035V42.7026H211.604H205.5H199.401H193.302V48.8018H199.401H205.5V54.9052V61.0044H211.604H217.703V54.9052H211.604V48.8018H217.703H223.802V42.7026V36.6035V30.5H229.901V24.4009V18.3017H223.802Z" fill="#FCC10A"/>
<path d="M175 42.7027V48.8018H181.099V42.7027V36.6035H175V42.7027Z" fill="#FCC10A"/>
<path d="M205.5 6.09915H211.604V0H205.5H199.401H193.302V6.09915H199.401H205.5Z" fill="#FCC10A"/>
<path d="M229.901 6.09912H223.802V12.1983V18.3017H229.901V12.1983V6.09912Z" fill="#F7A62E"/>
<path d="M229.9 18.3018V24.4009V30.5001H236.004V24.4009V18.3018H229.9Z" fill="#F7A62E"/>
<path d="M217.703 48.8018H211.604V54.9009H217.703V48.8018Z" fill="#F7A62E"/>
<path d="M223.801 54.9053H217.702V61.0044H223.801V54.9053Z" fill="#F7A62E"/>
<path d="M223.802 36.6035V42.7026V48.8018H229.901V42.7026V36.6035V30.5H223.802V36.6035Z" fill="#F7A62E"/>
<path d="M187.198 36.6035H181.099V42.7027V48.8018H187.198H193.301V42.7027H187.198V36.6035Z" fill="#F7A62E"/>
<path d="M217.703 0H211.604V6.09915H217.703V0Z" fill="#F7A62E"/>
<path d="M25.1943 61V86.2049V111.428H50.4062V86.2049V61H25.1943Z" fill="#F7A62E"/>
<path d="M0 136.633V161.837V187.06V212.265H25.1941V187.06V161.837V136.633V111.428H0V136.633Z" fill="#F7A62E"/>
<path d="M25.1943 262.693V287.898H50.4062V262.693V237.47V212.265H25.1943V237.47V262.693Z" fill="#F7A62E"/>
<path d="M0 313.102V338.325V363.53V388.735V413.958V439.163V464.368V489.572V514.795V540H25.1941V514.795V489.572V464.368V439.163V413.958V388.735V363.53V338.325V313.102V287.898H0V313.102Z" fill="#F7A62E"/>
<path d="M352.806 86.2049H327.594V61H302.4H277.206H251.994H226.8H201.606V86.2049H176.394H151.2V61H126.006H100.794H75.6003H50.4062V86.2049V111.428H25.1943V136.633V161.837V187.06V212.265H50.4062V237.47V262.693V287.898H25.1943V313.102V338.325V363.53V388.735V413.958V439.163V464.367V489.572V514.795V540H50.4062H75.6003H100.794H126.006H151.2H176.394H201.606H226.8H251.994H277.206H302.4H327.594H352.806H378V514.795V489.572V464.367V439.163V413.958V388.735V363.53V338.325V313.102V287.898V262.693V237.47V212.265V187.06V161.837V136.633V111.428V86.2049H352.806Z" fill="#FCC10A"/>
<path d="M46.7578 327L45.1953 313.133H47.2461L48.418 325.438H48.6133L49.8926 316.648H51.8457L51.1914 318.582H50.8008L49.7754 327H46.7578ZM51.9434 327L50.918 318.582H50.5273L49.8926 316.648H51.8457L53.1055 325.438H53.3008L54.4727 313.133H56.5234L54.9609 327H51.9434ZM63.4766 327.195C61.7122 327.195 60.3483 326.733 59.3848 325.809C58.4277 324.878 57.9492 323.543 57.9492 321.805C57.9492 320.112 58.3561 318.797 59.1699 317.859C59.9837 316.922 61.1328 316.453 62.6172 316.453C64.0169 316.453 65.0977 316.876 65.8594 317.723C66.6276 318.569 67.0117 319.799 67.0117 321.414C67.0117 321.889 66.9922 322.332 66.9531 322.742H59.6875V321.16H65.1367C65.1367 320.229 64.9154 319.516 64.4727 319.021C64.0299 318.52 63.418 318.27 62.6367 318.27C61.7578 318.27 61.0742 318.569 60.5859 319.168C60.1042 319.767 59.8633 320.613 59.8633 321.707C59.8633 322.905 60.1953 323.816 60.8594 324.441C61.5299 325.066 62.4805 325.379 63.7109 325.379C64.1406 325.379 64.5638 325.356 64.9805 325.311C65.3971 325.258 65.8203 325.19 66.25 325.105L66.5039 326.922C65.8919 327.039 65.332 327.114 64.8242 327.146C64.3164 327.179 63.8672 327.195 63.4766 327.195ZM85.2148 327.195C84.4336 327.195 83.763 327.173 83.2031 327.127C82.6497 327.081 82.1419 327.007 81.6797 326.902L81.9141 325.027C82.5977 325.132 83.1999 325.21 83.7207 325.262C84.248 325.314 84.7461 325.34 85.2148 325.34C86.263 325.34 87.0215 325.239 87.4902 325.037C87.9655 324.829 88.2031 324.5 88.2031 324.051C88.2031 323.738 88.1185 323.507 87.9492 323.357C87.7865 323.201 87.5326 323.081 87.1875 322.996L84.8047 322.391C83.7826 322.13 83.0306 321.808 82.5488 321.424C82.0736 321.04 81.8359 320.457 81.8359 319.676C81.8359 318.543 82.2689 317.723 83.1348 317.215C84.0072 316.707 85.4102 316.453 87.3438 316.453C87.8451 316.453 88.3105 316.469 88.7402 316.502C89.1764 316.528 89.6224 316.577 90.0781 316.648L89.8633 318.445C89.3359 318.393 88.8704 318.357 88.4668 318.338C88.0632 318.318 87.6693 318.309 87.2852 318.309C86.1263 318.309 85.2865 318.41 84.7656 318.611C84.2448 318.807 83.9844 319.129 83.9844 319.578C83.9844 319.878 84.0918 320.096 84.3066 320.232C84.5215 320.363 84.8503 320.483 85.293 320.594L87.207 321.062C88.2943 321.323 89.0885 321.671 89.5898 322.107C90.0977 322.544 90.3516 323.178 90.3516 324.012C90.3516 325.125 89.9447 325.936 89.1309 326.443C88.3171 326.945 87.0117 327.195 85.2148 327.195ZM99.6094 327.195C98.0404 327.195 96.9043 326.87 96.2012 326.219C95.5046 325.568 95.1562 324.526 95.1562 323.094V321.336H97.2266V322.996C97.2266 323.816 97.4251 324.412 97.8223 324.783C98.2259 325.154 98.8867 325.34 99.8047 325.34C100.13 325.34 100.475 325.324 100.84 325.291C101.204 325.252 101.621 325.203 102.09 325.145L102.324 326.961C101.868 327.039 101.423 327.098 100.986 327.137C100.557 327.176 100.098 327.195 99.6094 327.195ZM95.1562 322.117V313.523H97.2266V322.117H95.1562ZM92.5586 318.465V316.648H101.934V318.465H92.5586ZM111.582 327.098L111.445 324.031L111.172 323.172V320.496C111.172 319.806 110.928 319.301 110.439 318.982C109.958 318.657 109.238 318.481 108.281 318.455L105.801 318.387L105.996 316.551L108.086 316.58C109.798 316.606 111.068 316.977 111.895 317.693C112.728 318.403 113.145 319.441 113.145 320.809V325.125L114.902 325.34V327L111.582 327.098ZM107.93 327.195C106.849 327.195 106.012 326.935 105.42 326.414C104.827 325.893 104.531 325.158 104.531 324.207C104.531 323.113 104.938 322.273 105.752 321.688C106.572 321.102 107.728 320.809 109.219 320.809C109.837 320.809 110.387 320.848 110.869 320.926C111.357 320.997 111.79 321.108 112.168 321.258L111.738 322.664C111.302 322.566 110.876 322.511 110.459 322.498C110.042 322.479 109.616 322.469 109.18 322.469C107.383 322.469 106.484 323.016 106.484 324.109C106.484 324.565 106.637 324.917 106.943 325.164C107.256 325.411 107.695 325.535 108.262 325.535C108.906 325.535 109.443 325.424 109.873 325.203C110.309 324.982 110.635 324.699 110.85 324.354C111.064 324.008 111.172 323.654 111.172 323.289V322.156L111.777 324.812H110.957L111.289 324.5C111.289 325.099 111.149 325.6 110.869 326.004C110.596 326.401 110.208 326.701 109.707 326.902C109.206 327.098 108.613 327.195 107.93 327.195ZM120.469 322.547L119.863 319.305H120.664C120.781 317.404 121.732 316.453 123.516 316.453C124.583 316.453 125.358 316.759 125.84 317.371C126.322 317.983 126.562 318.973 126.562 320.34H124.512C124.512 319.585 124.398 319.041 124.17 318.709C123.949 318.377 123.587 318.211 123.086 318.211C122.207 318.211 121.549 318.589 121.113 319.344C120.684 320.092 120.469 321.16 120.469 322.547ZM116.094 327V325.184H123.008V327H116.094ZM118.398 327V316.648H120.078L120.469 319.617V327H118.398ZM116.484 318.465V316.648H119.941L120.137 318.465H116.484ZM134.766 327.195C133.197 327.195 132.061 326.87 131.357 326.219C130.661 325.568 130.312 324.526 130.312 323.094V321.336H132.383V322.996C132.383 323.816 132.581 324.412 132.979 324.783C133.382 325.154 134.043 325.34 134.961 325.34C135.286 325.34 135.632 325.324 135.996 325.291C136.361 325.252 136.777 325.203 137.246 325.145L137.48 326.961C137.025 327.039 136.579 327.098 136.143 327.137C135.713 327.176 135.254 327.195 134.766 327.195ZM130.312 322.117V313.523H132.383V322.117H130.312ZM127.715 318.465V316.648H137.09V318.465H127.715ZM145.508 327.195C143.743 327.195 142.38 326.733 141.416 325.809C140.459 324.878 139.98 323.543 139.98 321.805C139.98 320.112 140.387 318.797 141.201 317.859C142.015 316.922 143.164 316.453 144.648 316.453C146.048 316.453 147.129 316.876 147.891 317.723C148.659 318.569 149.043 319.799 149.043 321.414C149.043 321.889 149.023 322.332 148.984 322.742H141.719V321.16H147.168C147.168 320.229 146.947 319.516 146.504 319.021C146.061 318.52 145.449 318.27 144.668 318.27C143.789 318.27 143.105 318.569 142.617 319.168C142.135 319.767 141.895 320.613 141.895 321.707C141.895 322.905 142.227 323.816 142.891 324.441C143.561 325.066 144.512 325.379 145.742 325.379C146.172 325.379 146.595 325.356 147.012 325.311C147.428 325.258 147.852 325.19 148.281 325.105L148.535 326.922C147.923 327.039 147.363 327.114 146.855 327.146C146.348 327.179 145.898 327.195 145.508 327.195ZM158.477 327V320.262C158.477 319.637 158.314 319.155 157.988 318.816C157.663 318.478 157.207 318.309 156.621 318.309C154.993 318.309 154.18 319.266 154.18 321.18L153.574 318.523H154.375C154.434 317.827 154.688 317.309 155.137 316.971C155.586 316.626 156.243 316.453 157.109 316.453C158.203 316.453 159.049 316.785 159.648 317.449C160.247 318.113 160.547 319.051 160.547 320.262V327H158.477ZM152.109 327V316.648H153.984L154.18 318.836V327H152.109ZM178.975 327.195C177.62 327.195 176.592 326.749 175.889 325.857C175.192 324.965 174.844 323.654 174.844 321.922C174.844 320.125 175.192 318.764 175.889 317.84C176.592 316.915 177.62 316.453 178.975 316.453C179.749 316.453 180.378 316.635 180.859 317C181.348 317.365 181.634 317.872 181.719 318.523H182.52L181.914 321.473C181.914 320.405 181.702 319.594 181.279 319.041C180.863 318.488 180.247 318.211 179.434 318.211C178.6 318.211 177.969 318.523 177.539 319.148C177.109 319.773 176.895 320.698 176.895 321.922C176.895 323.081 177.109 323.956 177.539 324.549C177.969 325.141 178.6 325.438 179.434 325.438C180.247 325.438 180.863 325.161 181.279 324.607C181.702 324.054 181.914 323.243 181.914 322.176L182.617 325.125H181.719C181.654 325.776 181.377 326.284 180.889 326.648C180.407 327.013 179.769 327.195 178.975 327.195ZM182.129 327.098L181.914 325.066V312.352H183.984V327L182.129 327.098ZM192.383 327.195C190.618 327.195 189.255 326.733 188.291 325.809C187.334 324.878 186.855 323.543 186.855 321.805C186.855 320.112 187.262 318.797 188.076 317.859C188.89 316.922 190.039 316.453 191.523 316.453C192.923 316.453 194.004 316.876 194.766 317.723C195.534 318.569 195.918 319.799 195.918 321.414C195.918 321.889 195.898 322.332 195.859 322.742H188.594V321.16H194.043C194.043 320.229 193.822 319.516 193.379 319.021C192.936 318.52 192.324 318.27 191.543 318.27C190.664 318.27 189.98 318.569 189.492 319.168C189.01 319.767 188.77 320.613 188.77 321.707C188.77 322.905 189.102 323.816 189.766 324.441C190.436 325.066 191.387 325.379 192.617 325.379C193.047 325.379 193.47 325.356 193.887 325.311C194.303 325.258 194.727 325.19 195.156 325.105L195.41 326.922C194.798 327.039 194.238 327.114 193.73 327.146C193.223 327.179 192.773 327.195 192.383 327.195ZM216.094 327L214.883 318.777H214.727L213.877 316.648H215.771L216.992 325.438H217.168L218.047 316.648H220.098L218.633 327H216.094ZM210.918 327L209.746 316.648H211.699L212.48 325.438H212.656L213.877 316.648H215.771L214.902 318.777H214.766L213.555 327H210.918ZM226.641 327.195C225.208 327.195 224.095 326.727 223.301 325.789C222.507 324.852 222.109 323.53 222.109 321.824C222.109 320.112 222.507 318.79 223.301 317.859C224.095 316.922 225.208 316.453 226.641 316.453C228.079 316.453 229.193 316.922 229.98 317.859C230.775 318.79 231.172 320.112 231.172 321.824C231.172 323.53 230.775 324.852 229.98 325.789C229.193 326.727 228.079 327.195 226.641 327.195ZM226.641 325.34C227.402 325.34 227.988 325.034 228.398 324.422C228.815 323.81 229.023 322.944 229.023 321.824C229.023 320.698 228.815 319.832 228.398 319.227C227.988 318.615 227.402 318.309 226.641 318.309C225.879 318.309 225.29 318.615 224.873 319.227C224.463 319.832 224.258 320.698 224.258 321.824C224.258 322.944 224.463 323.81 224.873 324.422C225.29 325.034 225.879 325.34 226.641 325.34ZM237.656 322.547L237.051 319.305H237.852C237.969 317.404 238.919 316.453 240.703 316.453C241.771 316.453 242.546 316.759 243.027 317.371C243.509 317.983 243.75 318.973 243.75 320.34H241.699C241.699 319.585 241.585 319.041 241.357 318.709C241.136 318.377 240.775 318.211 240.273 318.211C239.395 318.211 238.737 318.589 238.301 319.344C237.871 320.092 237.656 321.16 237.656 322.547ZM233.281 327V325.184H240.195V327H233.281ZM235.586 327V316.648H237.266L237.656 319.617V327H235.586ZM233.672 318.465V316.648H237.129L237.324 318.465H233.672ZM247.246 323.074V321.219H248.418C249.277 321.219 249.984 321.072 250.537 320.779C251.09 320.48 251.523 319.995 251.836 319.324C252.155 318.654 252.389 317.762 252.539 316.648H254.688C254.414 318.803 253.799 320.415 252.842 321.482C251.891 322.544 250.579 323.074 248.906 323.074H247.246ZM245.781 327V312.352H247.852V327H245.781ZM252.793 327L249.844 321.961L251.797 321.16L255.352 327H252.793ZM260.996 327.195C260.215 327.195 259.544 327.173 258.984 327.127C258.431 327.081 257.923 327.007 257.461 326.902L257.695 325.027C258.379 325.132 258.981 325.21 259.502 325.262C260.029 325.314 260.527 325.34 260.996 325.34C262.044 325.34 262.803 325.239 263.271 325.037C263.747 324.829 263.984 324.5 263.984 324.051C263.984 323.738 263.9 323.507 263.73 323.357C263.568 323.201 263.314 323.081 262.969 322.996L260.586 322.391C259.564 322.13 258.812 321.808 258.33 321.424C257.855 321.04 257.617 320.457 257.617 319.676C257.617 318.543 258.05 317.723 258.916 317.215C259.788 316.707 261.191 316.453 263.125 316.453C263.626 316.453 264.092 316.469 264.521 316.502C264.958 316.528 265.404 316.577 265.859 316.648L265.645 318.445C265.117 318.393 264.652 318.357 264.248 318.338C263.844 318.318 263.451 318.309 263.066 318.309C261.908 318.309 261.068 318.41 260.547 318.611C260.026 318.807 259.766 319.129 259.766 319.578C259.766 319.878 259.873 320.096 260.088 320.232C260.303 320.363 260.632 320.483 261.074 320.594L262.988 321.062C264.076 321.323 264.87 321.671 265.371 322.107C265.879 322.544 266.133 323.178 266.133 324.012C266.133 325.125 265.726 325.936 264.912 326.443C264.098 326.945 262.793 327.195 260.996 327.195ZM275.664 327V320.262C275.664 319.604 275.501 319.1 275.176 318.748C274.85 318.39 274.395 318.211 273.809 318.211C272.181 318.211 271.367 319.201 271.367 321.18L270.762 318.523H271.562C271.621 317.827 271.875 317.309 272.324 316.971C272.773 316.626 273.431 316.453 274.297 316.453C275.391 316.453 276.237 316.785 276.836 317.449C277.435 318.113 277.734 319.051 277.734 320.262V327H275.664ZM269.297 327V312.352H271.367V327H269.297ZM285.234 327.195C283.802 327.195 282.689 326.727 281.895 325.789C281.1 324.852 280.703 323.53 280.703 321.824C280.703 320.112 281.1 318.79 281.895 317.859C282.689 316.922 283.802 316.453 285.234 316.453C286.673 316.453 287.786 316.922 288.574 317.859C289.368 318.79 289.766 320.112 289.766 321.824C289.766 323.53 289.368 324.852 288.574 325.789C287.786 326.727 286.673 327.195 285.234 327.195ZM285.234 325.34C285.996 325.34 286.582 325.034 286.992 324.422C287.409 323.81 287.617 322.944 287.617 321.824C287.617 320.698 287.409 319.832 286.992 319.227C286.582 318.615 285.996 318.309 285.234 318.309C284.473 318.309 283.883 318.615 283.467 319.227C283.057 319.832 282.852 320.698 282.852 321.824C282.852 322.944 283.057 323.81 283.467 324.422C283.883 325.034 284.473 325.34 285.234 325.34ZM292.734 331.492V316.648H294.609L294.805 318.836V331.492H292.734ZM297.744 327.195C296.95 327.195 296.309 327.013 295.82 326.648C295.339 326.284 295.065 325.776 295 325.125H294.102L294.805 322.176C294.805 323.243 295.013 324.054 295.43 324.607C295.853 325.161 296.471 325.438 297.285 325.438C298.118 325.438 298.75 325.141 299.18 324.549C299.609 323.956 299.824 323.081 299.824 321.922C299.824 320.698 299.609 319.773 299.18 319.148C298.75 318.523 298.118 318.211 297.285 318.211C296.471 318.211 295.853 318.488 295.43 319.041C295.013 319.594 294.805 320.405 294.805 321.473L294.102 318.523H294.902C294.993 317.872 295.286 317.365 295.781 317C296.283 316.635 296.937 316.453 297.744 316.453C299.105 316.453 300.133 316.915 300.83 317.84C301.527 318.764 301.875 320.125 301.875 321.922C301.875 323.654 301.527 324.965 300.83 325.857C300.133 326.749 299.105 327.195 297.744 327.195ZM323.086 327V319.09C323.086 318.374 322.819 318.016 322.285 318.016C321.608 318.016 321.27 318.484 321.27 319.422L320.566 317.938H321.367C321.4 317.534 321.559 317.186 321.846 316.893C322.139 316.6 322.559 316.453 323.105 316.453C323.822 316.453 324.342 316.645 324.668 317.029C324.993 317.413 325.156 318.035 325.156 318.895V327H323.086ZM315.625 327V316.648H317.461L317.695 318.836V327H315.625ZM319.512 327V318.895C319.512 318.309 319.238 318.016 318.691 318.016C318.027 318.016 317.695 318.484 317.695 319.422L317.09 317.938H317.754C317.832 316.948 318.424 316.453 319.531 316.453C320.072 316.453 320.495 316.639 320.801 317.01C321.113 317.381 321.27 317.944 321.27 318.699V327H319.512ZM333.008 327.195C331.243 327.195 329.88 326.733 328.916 325.809C327.959 324.878 327.48 323.543 327.48 321.805C327.48 320.112 327.887 318.797 328.701 317.859C329.515 316.922 330.664 316.453 332.148 316.453C333.548 316.453 334.629 316.876 335.391 317.723C336.159 318.569 336.543 319.799 336.543 321.414C336.543 321.889 336.523 322.332 336.484 322.742H329.219V321.16H334.668C334.668 320.229 334.447 319.516 334.004 319.021C333.561 318.52 332.949 318.27 332.168 318.27C331.289 318.27 330.605 318.569 330.117 319.168C329.635 319.767 329.395 320.613 329.395 321.707C329.395 322.905 329.727 323.816 330.391 324.441C331.061 325.066 332.012 325.379 333.242 325.379C333.672 325.379 334.095 325.356 334.512 325.311C334.928 325.258 335.352 325.19 335.781 325.105L336.035 326.922C335.423 327.039 334.863 327.114 334.355 327.146C333.848 327.179 333.398 327.195 333.008 327.195ZM345.703 327.195C344.134 327.195 342.998 326.87 342.295 326.219C341.598 325.568 341.25 324.526 341.25 323.094V321.336H343.32V322.996C343.32 323.816 343.519 324.412 343.916 324.783C344.32 325.154 344.98 325.34 345.898 325.34C346.224 325.34 346.569 325.324 346.934 325.291C347.298 325.252 347.715 325.203 348.184 325.145L348.418 326.961C347.962 327.039 347.516 327.098 347.08 327.137C346.65 327.176 346.191 327.195 345.703 327.195ZM341.25 322.117V313.523H343.32V322.117H341.25ZM338.652 318.465V316.648H348.027V318.465H338.652ZM51.7578 353.195C49.9935 353.195 48.6296 352.733 47.666 351.809C46.709 350.878 46.2305 349.543 46.2305 347.805C46.2305 346.112 46.6374 344.797 47.4512 343.859C48.265 342.922 49.4141 342.453 50.8984 342.453C52.2982 342.453 53.3789 342.876 54.1406 343.723C54.9089 344.569 55.293 345.799 55.293 347.414C55.293 347.889 55.2734 348.332 55.2344 348.742H47.9688V347.16H53.418C53.418 346.229 53.1966 345.516 52.7539 345.021C52.3112 344.52 51.6992 344.27 50.918 344.27C50.0391 344.27 49.3555 344.569 48.8672 345.168C48.3854 345.767 48.1445 346.613 48.1445 347.707C48.1445 348.905 48.4766 349.816 49.1406 350.441C49.8112 351.066 50.7617 351.379 51.9922 351.379C52.4219 351.379 52.8451 351.356 53.2617 351.311C53.6784 351.258 54.1016 351.19 54.5312 351.105L54.7852 352.922C54.1732 353.039 53.6133 353.114 53.1055 353.146C52.5977 353.179 52.1484 353.195 51.7578 353.195ZM63.4766 353.195C61.7122 353.195 60.3483 352.733 59.3848 351.809C58.4277 350.878 57.9492 349.543 57.9492 347.805C57.9492 346.112 58.3561 344.797 59.1699 343.859C59.9837 342.922 61.1328 342.453 62.6172 342.453C64.0169 342.453 65.0977 342.876 65.8594 343.723C66.6276 344.569 67.0117 345.799 67.0117 347.414C67.0117 347.889 66.9922 348.332 66.9531 348.742H59.6875V347.16H65.1367C65.1367 346.229 64.9154 345.516 64.4727 345.021C64.0299 344.52 63.418 344.27 62.6367 344.27C61.7578 344.27 61.0742 344.569 60.5859 345.168C60.1042 345.767 59.8633 346.613 59.8633 347.707C59.8633 348.905 60.1953 349.816 60.8594 350.441C61.5299 351.066 62.4805 351.379 63.7109 351.379C64.1406 351.379 64.5638 351.356 64.9805 351.311C65.3971 351.258 65.8203 351.19 66.25 351.105L66.5039 352.922C65.8919 353.039 65.332 353.114 64.8242 353.146C64.3164 353.179 63.8672 353.195 63.4766 353.195ZM76.4453 353V346.262C76.4453 345.637 76.2826 345.155 75.957 344.816C75.6315 344.478 75.1758 344.309 74.5898 344.309C72.9622 344.309 72.1484 345.266 72.1484 347.18L71.543 344.523H72.3438C72.4023 343.827 72.6562 343.309 73.1055 342.971C73.5547 342.626 74.2122 342.453 75.0781 342.453C76.1719 342.453 77.0182 342.785 77.6172 343.449C78.2161 344.113 78.5156 345.051 78.5156 346.262V353H76.4453ZM70.0781 353V342.648H71.9531L72.1484 344.836V353H70.0781ZM96.9336 353.195C96.1523 353.195 95.4818 353.173 94.9219 353.127C94.3685 353.081 93.8607 353.007 93.3984 352.902L93.6328 351.027C94.3164 351.132 94.9186 351.21 95.4395 351.262C95.9668 351.314 96.4648 351.34 96.9336 351.34C97.9818 351.34 98.7402 351.239 99.209 351.037C99.6842 350.829 99.9219 350.5 99.9219 350.051C99.9219 349.738 99.8372 349.507 99.668 349.357C99.5052 349.201 99.2513 349.081 98.9062 348.996L96.5234 348.391C95.5013 348.13 94.7493 347.808 94.2676 347.424C93.7923 347.04 93.5547 346.457 93.5547 345.676C93.5547 344.543 93.9876 343.723 94.8535 343.215C95.7259 342.707 97.1289 342.453 99.0625 342.453C99.5638 342.453 100.029 342.469 100.459 342.502C100.895 342.528 101.341 342.577 101.797 342.648L101.582 344.445C101.055 344.393 100.589 344.357 100.186 344.338C99.7819 344.318 99.388 344.309 99.0039 344.309C97.8451 344.309 97.0052 344.41 96.4844 344.611C95.9635 344.807 95.7031 345.129 95.7031 345.578C95.7031 345.878 95.8105 346.096 96.0254 346.232C96.2402 346.363 96.569 346.483 97.0117 346.594L98.9258 347.062C100.013 347.323 100.807 347.671 101.309 348.107C101.816 348.544 102.07 349.178 102.07 350.012C102.07 351.125 101.663 351.936 100.85 352.443C100.036 352.945 98.7305 353.195 96.9336 353.195ZM105.234 357.492V342.648H107.109L107.305 344.836V357.492H105.234ZM110.244 353.195C109.45 353.195 108.809 353.013 108.32 352.648C107.839 352.284 107.565 351.776 107.5 351.125H106.602L107.305 348.176C107.305 349.243 107.513 350.054 107.93 350.607C108.353 351.161 108.971 351.438 109.785 351.438C110.618 351.438 111.25 351.141 111.68 350.549C112.109 349.956 112.324 349.081 112.324 347.922C112.324 346.698 112.109 345.773 111.68 345.148C111.25 344.523 110.618 344.211 109.785 344.211C108.971 344.211 108.353 344.488 107.93 345.041C107.513 345.594 107.305 346.405 107.305 347.473L106.602 344.523H107.402C107.493 343.872 107.786 343.365 108.281 343C108.783 342.635 109.437 342.453 110.244 342.453C111.605 342.453 112.633 342.915 113.33 343.84C114.027 344.764 114.375 346.125 114.375 347.922C114.375 349.654 114.027 350.965 113.33 351.857C112.633 352.749 111.605 353.195 110.244 353.195ZM122.07 353.195C120.306 353.195 118.942 352.733 117.979 351.809C117.021 350.878 116.543 349.543 116.543 347.805C116.543 346.112 116.95 344.797 117.764 343.859C118.577 342.922 119.727 342.453 121.211 342.453C122.611 342.453 123.691 342.876 124.453 343.723C125.221 344.569 125.605 345.799 125.605 347.414C125.605 347.889 125.586 348.332 125.547 348.742H118.281V347.16H123.73C123.73 346.229 123.509 345.516 123.066 345.021C122.624 344.52 122.012 344.27 121.23 344.27C120.352 344.27 119.668 344.569 119.18 345.168C118.698 345.767 118.457 346.613 118.457 347.707C118.457 348.905 118.789 349.816 119.453 350.441C120.124 351.066 121.074 351.379 122.305 351.379C122.734 351.379 123.158 351.356 123.574 351.311C123.991 351.258 124.414 351.19 124.844 351.105L125.098 352.922C124.486 353.039 123.926 353.114 123.418 353.146C122.91 353.179 122.461 353.195 122.07 353.195ZM133.789 353.195C132.025 353.195 130.661 352.733 129.697 351.809C128.74 350.878 128.262 349.543 128.262 347.805C128.262 346.112 128.669 344.797 129.482 343.859C130.296 342.922 131.445 342.453 132.93 342.453C134.329 342.453 135.41 342.876 136.172 343.723C136.94 344.569 137.324 345.799 137.324 347.414C137.324 347.889 137.305 348.332 137.266 348.742H130V347.16H135.449C135.449 346.229 135.228 345.516 134.785 345.021C134.342 344.52 133.73 344.27 132.949 344.27C132.07 344.27 131.387 344.569 130.898 345.168C130.417 345.767 130.176 346.613 130.176 347.707C130.176 348.905 130.508 349.816 131.172 350.441C131.842 351.066 132.793 351.379 134.023 351.379C134.453 351.379 134.876 351.356 135.293 351.311C135.71 351.258 136.133 351.19 136.562 351.105L136.816 352.922C136.204 353.039 135.645 353.114 135.137 353.146C134.629 353.179 134.18 353.195 133.789 353.195ZM146.152 353.195C144.954 353.195 144.089 352.87 143.555 352.219C143.021 351.568 142.754 350.526 142.754 349.094V338.352H144.824V348.996C144.824 349.543 144.876 349.989 144.98 350.334C145.085 350.679 145.286 350.933 145.586 351.096C145.892 351.258 146.341 351.34 146.934 351.34C147.474 351.34 148.164 351.216 149.004 350.969L149.238 352.785C148.711 352.928 148.203 353.033 147.715 353.098C147.233 353.163 146.712 353.195 146.152 353.195ZM139.707 340.168V338.352H142.93V340.168H139.707ZM155.527 353.195C154.746 353.195 154.076 353.173 153.516 353.127C152.962 353.081 152.454 353.007 151.992 352.902L152.227 351.027C152.91 351.132 153.512 351.21 154.033 351.262C154.561 351.314 155.059 351.34 155.527 351.34C156.576 351.34 157.334 351.239 157.803 351.037C158.278 350.829 158.516 350.5 158.516 350.051C158.516 349.738 158.431 349.507 158.262 349.357C158.099 349.201 157.845 349.081 157.5 348.996L155.117 348.391C154.095 348.13 153.343 347.808 152.861 347.424C152.386 347.04 152.148 346.457 152.148 345.676C152.148 344.543 152.581 343.723 153.447 343.215C154.32 342.707 155.723 342.453 157.656 342.453C158.158 342.453 158.623 342.469 159.053 342.502C159.489 342.528 159.935 342.577 160.391 342.648L160.176 344.445C159.648 344.393 159.183 344.357 158.779 344.338C158.376 344.318 157.982 344.309 157.598 344.309C156.439 344.309 155.599 344.41 155.078 344.611C154.557 344.807 154.297 345.129 154.297 345.578C154.297 345.878 154.404 346.096 154.619 346.232C154.834 346.363 155.163 346.483 155.605 346.594L157.52 347.062C158.607 347.323 159.401 347.671 159.902 348.107C160.41 348.544 160.664 349.178 160.664 350.012C160.664 351.125 160.257 351.936 159.443 352.443C158.63 352.945 157.324 353.195 155.527 353.195ZM168.945 353.195C167.181 353.195 165.817 352.733 164.854 351.809C163.896 350.878 163.418 349.543 163.418 347.805C163.418 346.112 163.825 344.797 164.639 343.859C165.452 342.922 166.602 342.453 168.086 342.453C169.486 342.453 170.566 342.876 171.328 343.723C172.096 344.569 172.48 345.799 172.48 347.414C172.48 347.889 172.461 348.332 172.422 348.742H165.156V347.16H170.605C170.605 346.229 170.384 345.516 169.941 345.021C169.499 344.52 168.887 344.27 168.105 344.27C167.227 344.27 166.543 344.569 166.055 345.168C165.573 345.767 165.332 346.613 165.332 347.707C165.332 348.905 165.664 349.816 166.328 350.441C166.999 351.066 167.949 351.379 169.18 351.379C169.609 351.379 170.033 351.356 170.449 351.311C170.866 351.258 171.289 351.19 171.719 351.105L171.973 352.922C171.361 353.039 170.801 353.114 170.293 353.146C169.785 353.179 169.336 353.195 168.945 353.195ZM192.383 353.195C190.618 353.195 189.255 352.733 188.291 351.809C187.334 350.878 186.855 349.543 186.855 347.805C186.855 346.112 187.262 344.797 188.076 343.859C188.89 342.922 190.039 342.453 191.523 342.453C192.923 342.453 194.004 342.876 194.766 343.723C195.534 344.569 195.918 345.799 195.918 347.414C195.918 347.889 195.898 348.332 195.859 348.742H188.594V347.16H194.043C194.043 346.229 193.822 345.516 193.379 345.021C192.936 344.52 192.324 344.27 191.543 344.27C190.664 344.27 189.98 344.569 189.492 345.168C189.01 345.767 188.77 346.613 188.77 347.707C188.77 348.905 189.102 349.816 189.766 350.441C190.436 351.066 191.387 351.379 192.617 351.379C193.047 351.379 193.47 351.356 193.887 351.311C194.303 351.258 194.727 351.19 195.156 351.105L195.41 352.922C194.798 353.039 194.238 353.114 193.73 353.146C193.223 353.179 192.773 353.195 192.383 353.195ZM205.352 353V346.262C205.352 345.637 205.189 345.155 204.863 344.816C204.538 344.478 204.082 344.309 203.496 344.309C201.868 344.309 201.055 345.266 201.055 347.18L200.449 344.523H201.25C201.309 343.827 201.562 343.309 202.012 342.971C202.461 342.626 203.118 342.453 203.984 342.453C205.078 342.453 205.924 342.785 206.523 343.449C207.122 344.113 207.422 345.051 207.422 346.262V353H205.352ZM198.984 353V342.648H200.859L201.055 344.836V353H198.984ZM228.184 353.195C226.986 353.195 226.12 352.87 225.586 352.219C225.052 351.568 224.785 350.526 224.785 349.094V338.352H226.855V348.996C226.855 349.543 226.908 349.989 227.012 350.334C227.116 350.679 227.318 350.933 227.617 351.096C227.923 351.258 228.372 351.34 228.965 351.34C229.505 351.34 230.195 351.216 231.035 350.969L231.27 352.785C230.742 352.928 230.234 353.033 229.746 353.098C229.264 353.163 228.743 353.195 228.184 353.195ZM221.738 340.168V338.352H224.961V340.168H221.738ZM239.258 353.195C237.493 353.195 236.13 352.733 235.166 351.809C234.209 350.878 233.73 349.543 233.73 347.805C233.73 346.112 234.137 344.797 234.951 343.859C235.765 342.922 236.914 342.453 238.398 342.453C239.798 342.453 240.879 342.876 241.641 343.723C242.409 344.569 242.793 345.799 242.793 347.414C242.793 347.889 242.773 348.332 242.734 348.742H235.469V347.16H240.918C240.918 346.229 240.697 345.516 240.254 345.021C239.811 344.52 239.199 344.27 238.418 344.27C237.539 344.27 236.855 344.569 236.367 345.168C235.885 345.767 235.645 346.613 235.645 347.707C235.645 348.905 235.977 349.816 236.641 350.441C237.311 351.066 238.262 351.379 239.492 351.379C239.922 351.379 240.345 351.356 240.762 351.311C241.178 351.258 241.602 351.19 242.031 351.105L242.285 352.922C241.673 353.039 241.113 353.114 240.605 353.146C240.098 353.179 239.648 353.195 239.258 353.195ZM250.977 353.195C249.212 353.195 247.848 352.733 246.885 351.809C245.928 350.878 245.449 349.543 245.449 347.805C245.449 346.112 245.856 344.797 246.67 343.859C247.484 342.922 248.633 342.453 250.117 342.453C251.517 342.453 252.598 342.876 253.359 343.723C254.128 344.569 254.512 345.799 254.512 347.414C254.512 347.889 254.492 348.332 254.453 348.742H247.188V347.16H252.637C252.637 346.229 252.415 345.516 251.973 345.021C251.53 344.52 250.918 344.27 250.137 344.27C249.258 344.27 248.574 344.569 248.086 345.168C247.604 345.767 247.363 346.613 247.363 347.707C247.363 348.905 247.695 349.816 248.359 350.441C249.03 351.066 249.98 351.379 251.211 351.379C251.641 351.379 252.064 351.356 252.48 351.311C252.897 351.258 253.32 351.19 253.75 351.105L254.004 352.922C253.392 353.039 252.832 353.114 252.324 353.146C251.816 353.179 251.367 353.195 250.977 353.195ZM261.094 348.547L260.488 345.305H261.289C261.406 343.404 262.357 342.453 264.141 342.453C265.208 342.453 265.983 342.759 266.465 343.371C266.947 343.983 267.188 344.973 267.188 346.34H265.137C265.137 345.585 265.023 345.041 264.795 344.709C264.574 344.377 264.212 344.211 263.711 344.211C262.832 344.211 262.174 344.589 261.738 345.344C261.309 346.092 261.094 347.16 261.094 348.547ZM256.719 353V351.184H263.633V353H256.719ZM259.023 353V342.648H260.703L261.094 345.617V353H259.023ZM257.109 344.465V342.648H260.566L260.762 344.465H257.109ZM270.684 352.355L269.258 351.164L276.152 343.332L277.578 344.484L270.684 352.355ZM269.258 353V351.164H277.773V353H269.258ZM269.258 344.484V342.648H277.578V344.484H269.258ZM287.363 353.098L287.227 350.031L286.953 349.172V346.496C286.953 345.806 286.709 345.301 286.221 344.982C285.739 344.657 285.02 344.481 284.062 344.455L281.582 344.387L281.777 342.551L283.867 342.58C285.579 342.606 286.849 342.977 287.676 343.693C288.509 344.403 288.926 345.441 288.926 346.809V351.125L290.684 351.34V353L287.363 353.098ZM283.711 353.195C282.63 353.195 281.794 352.935 281.201 352.414C280.609 351.893 280.312 351.158 280.312 350.207C280.312 349.113 280.719 348.273 281.533 347.688C282.354 347.102 283.509 346.809 285 346.809C285.618 346.809 286.169 346.848 286.65 346.926C287.139 346.997 287.572 347.108 287.949 347.258L287.52 348.664C287.083 348.566 286.657 348.511 286.24 348.498C285.824 348.479 285.397 348.469 284.961 348.469C283.164 348.469 282.266 349.016 282.266 350.109C282.266 350.565 282.419 350.917 282.725 351.164C283.037 351.411 283.477 351.535 284.043 351.535C284.688 351.535 285.225 351.424 285.654 351.203C286.09 350.982 286.416 350.699 286.631 350.354C286.846 350.008 286.953 349.654 286.953 349.289V348.156L287.559 350.812H286.738L287.07 350.5C287.07 351.099 286.93 351.6 286.65 352.004C286.377 352.401 285.99 352.701 285.488 352.902C284.987 353.098 284.395 353.195 283.711 353.195ZM299.648 353V345.09C299.648 344.374 299.382 344.016 298.848 344.016C298.171 344.016 297.832 344.484 297.832 345.422L297.129 343.938H297.93C297.962 343.534 298.122 343.186 298.408 342.893C298.701 342.6 299.121 342.453 299.668 342.453C300.384 342.453 300.905 342.645 301.23 343.029C301.556 343.413 301.719 344.035 301.719 344.895V353H299.648ZM292.188 353V342.648H294.023L294.258 344.836V353H292.188ZM296.074 353V344.895C296.074 344.309 295.801 344.016 295.254 344.016C294.59 344.016 294.258 344.484 294.258 345.422L293.652 343.938H294.316C294.395 342.948 294.987 342.453 296.094 342.453C296.634 342.453 297.057 342.639 297.363 343.01C297.676 343.381 297.832 343.944 297.832 344.699V353H296.074ZM309.57 353.195C307.806 353.195 306.442 352.733 305.479 351.809C304.521 350.878 304.043 349.543 304.043 347.805C304.043 346.112 304.45 344.797 305.264 343.859C306.077 342.922 307.227 342.453 308.711 342.453C310.111 342.453 311.191 342.876 311.953 343.723C312.721 344.569 313.105 345.799 313.105 347.414C313.105 347.889 313.086 348.332 313.047 348.742H305.781V347.16H311.23C311.23 346.229 311.009 345.516 310.566 345.021C310.124 344.52 309.512 344.27 308.73 344.27C307.852 344.27 307.168 344.569 306.68 345.168C306.198 345.767 305.957 346.613 305.957 347.707C305.957 348.905 306.289 349.816 306.953 350.441C307.624 351.066 308.574 351.379 309.805 351.379C310.234 351.379 310.658 351.356 311.074 351.311C311.491 351.258 311.914 351.19 312.344 351.105L312.598 352.922C311.986 353.039 311.426 353.114 310.918 353.146C310.41 353.179 309.961 353.195 309.57 353.195ZM50.5078 379V369.234H52.5781V379H50.5078ZM46.5625 379V377.184H50.7031V379H46.5625ZM52.3828 379V377.184H55.7617V379H52.3828ZM47.1484 370.465V368.648H52.5781V370.465H47.1484ZM51.4746 367.008C51.0775 367.008 50.7357 366.868 50.4492 366.588C50.1693 366.301 50.0293 365.96 50.0293 365.562C50.0293 365.159 50.1693 364.817 50.4492 364.537C50.7357 364.257 51.0775 364.117 51.4746 364.117C51.8783 364.117 52.2201 364.257 52.5 364.537C52.7799 364.817 52.9199 365.159 52.9199 365.562C52.9199 365.96 52.7799 366.301 52.5 366.588C52.2201 366.868 51.8783 367.008 51.4746 367.008ZM64.7266 379V372.262C64.7266 371.637 64.5638 371.155 64.2383 370.816C63.9128 370.478 63.457 370.309 62.8711 370.309C61.2435 370.309 60.4297 371.266 60.4297 373.18L59.8242 370.523H60.625C60.6836 369.827 60.9375 369.309 61.3867 368.971C61.8359 368.626 62.4935 368.453 63.3594 368.453C64.4531 368.453 65.2995 368.785 65.8984 369.449C66.4974 370.113 66.7969 371.051 66.7969 372.262V379H64.7266ZM58.3594 379V368.648H60.2344L60.4297 370.836V379H58.3594ZM76.1719 379.195C74.6029 379.195 73.4668 378.87 72.7637 378.219C72.0671 377.568 71.7188 376.526 71.7188 375.094V373.336H73.7891V374.996C73.7891 375.816 73.9876 376.412 74.3848 376.783C74.7884 377.154 75.4492 377.34 76.3672 377.34C76.6927 377.34 77.0378 377.324 77.4023 377.291C77.7669 377.252 78.1836 377.203 78.6523 377.145L78.8867 378.961C78.431 379.039 77.985 379.098 77.5488 379.137C77.1191 379.176 76.6602 379.195 76.1719 379.195ZM71.7188 374.117V365.523H73.7891V374.117H71.7188ZM69.1211 370.465V368.648H78.4961V370.465H69.1211ZM85.3125 374.547L84.707 371.305H85.5078C85.625 369.404 86.5755 368.453 88.3594 368.453C89.4271 368.453 90.2018 368.759 90.6836 369.371C91.1654 369.983 91.4062 370.973 91.4062 372.34H89.3555C89.3555 371.585 89.2415 371.041 89.0137 370.709C88.7923 370.377 88.431 370.211 87.9297 370.211C87.0508 370.211 86.3932 370.589 85.957 371.344C85.5273 372.092 85.3125 373.16 85.3125 374.547ZM80.9375 379V377.184H87.8516V379H80.9375ZM83.2422 379V368.648H84.9219L85.3125 371.617V379H83.2422ZM81.3281 370.465V368.648H84.7852L84.9805 370.465H81.3281ZM97.7344 379.195C96.3021 379.195 95.1888 378.727 94.3945 377.789C93.6003 376.852 93.2031 375.53 93.2031 373.824C93.2031 372.112 93.6003 370.79 94.3945 369.859C95.1888 368.922 96.3021 368.453 97.7344 368.453C99.1732 368.453 100.286 368.922 101.074 369.859C101.868 370.79 102.266 372.112 102.266 373.824C102.266 375.53 101.868 376.852 101.074 377.789C100.286 378.727 99.1732 379.195 97.7344 379.195ZM97.7344 377.34C98.4961 377.34 99.082 377.034 99.4922 376.422C99.9089 375.81 100.117 374.944 100.117 373.824C100.117 372.698 99.9089 371.832 99.4922 371.227C99.082 370.615 98.4961 370.309 97.7344 370.309C96.9727 370.309 96.3835 370.615 95.9668 371.227C95.5566 371.832 95.3516 372.698 95.3516 373.824C95.3516 374.944 95.5566 375.81 95.9668 376.422C96.3835 377.034 96.9727 377.34 97.7344 377.34ZM108.662 379.195C107.308 379.195 106.279 378.749 105.576 377.857C104.88 376.965 104.531 375.654 104.531 373.922C104.531 372.125 104.88 370.764 105.576 369.84C106.279 368.915 107.308 368.453 108.662 368.453C109.437 368.453 110.065 368.635 110.547 369C111.035 369.365 111.322 369.872 111.406 370.523H112.207L111.602 373.473C111.602 372.405 111.39 371.594 110.967 371.041C110.55 370.488 109.935 370.211 109.121 370.211C108.288 370.211 107.656 370.523 107.227 371.148C106.797 371.773 106.582 372.698 106.582 373.922C106.582 375.081 106.797 375.956 107.227 376.549C107.656 377.141 108.288 377.438 109.121 377.438C109.935 377.438 110.55 377.161 110.967 376.607C111.39 376.054 111.602 375.243 111.602 374.176L112.305 377.125H111.406C111.341 377.776 111.064 378.284 110.576 378.648C110.094 379.013 109.456 379.195 108.662 379.195ZM111.816 379.098L111.602 377.066V364.352H113.672V379L111.816 379.098ZM120.156 379.195C119.069 379.195 118.226 378.873 117.627 378.229C117.035 377.577 116.738 376.663 116.738 375.484V368.648H118.809V375.484C118.809 376.077 118.978 376.536 119.316 376.861C119.655 377.18 120.13 377.34 120.742 377.34C121.497 377.34 122.067 377.102 122.451 376.627C122.835 376.145 123.027 375.341 123.027 374.215L123.555 377.008H122.871C122.708 377.711 122.389 378.251 121.914 378.629C121.439 379.007 120.853 379.195 120.156 379.195ZM123.203 379.098L123.027 376.617V374.801H125.098V377.125L126.523 377.34V379L123.203 379.098ZM123.027 376.07V368.648H125.098V375.484L123.027 376.07ZM133.887 379.195C132.122 379.195 130.758 378.733 129.795 377.809C128.838 376.878 128.359 375.543 128.359 373.805C128.359 372.112 128.812 370.797 129.717 369.859C130.628 368.922 131.927 368.453 133.613 368.453C134.622 368.453 135.485 368.642 136.201 369.02C136.924 369.391 137.438 369.918 137.744 370.602L136.152 371.803C135.859 371.327 135.485 370.96 135.029 370.699C134.574 370.439 134.076 370.309 133.535 370.309C132.559 370.309 131.8 370.605 131.26 371.197C130.719 371.783 130.449 372.62 130.449 373.707C130.449 374.885 130.765 375.787 131.396 376.412C132.035 377.031 132.943 377.34 134.121 377.34C134.603 377.34 135.085 377.317 135.566 377.271C136.048 377.226 136.517 377.164 136.973 377.086L137.207 378.902C136.673 379.02 136.12 379.098 135.547 379.137C134.98 379.176 134.427 379.195 133.887 379.195ZM146.484 379.195C144.915 379.195 143.779 378.87 143.076 378.219C142.38 377.568 142.031 376.526 142.031 375.094V373.336H144.102V374.996C144.102 375.816 144.3 376.412 144.697 376.783C145.101 377.154 145.762 377.34 146.68 377.34C147.005 377.34 147.35 377.324 147.715 377.291C148.079 377.252 148.496 377.203 148.965 377.145L149.199 378.961C148.743 379.039 148.298 379.098 147.861 379.137C147.432 379.176 146.973 379.195 146.484 379.195ZM142.031 374.117V365.523H144.102V374.117H142.031ZM139.434 370.465V368.648H148.809V370.465H139.434ZM155.977 379V369.234H158.047V379H155.977ZM152.031 379V377.184H156.172V379H152.031ZM157.852 379V377.184H161.23V379H157.852ZM152.617 370.465V368.648H158.047V370.465H152.617ZM156.943 367.008C156.546 367.008 156.204 366.868 155.918 366.588C155.638 366.301 155.498 365.96 155.498 365.562C155.498 365.159 155.638 364.817 155.918 364.537C156.204 364.257 156.546 364.117 156.943 364.117C157.347 364.117 157.689 364.257 157.969 364.537C158.249 364.817 158.389 365.159 158.389 365.562C158.389 365.96 158.249 366.301 157.969 366.588C157.689 366.868 157.347 367.008 156.943 367.008ZM168.945 379.195C167.181 379.195 165.817 378.733 164.854 377.809C163.896 376.878 163.418 375.543 163.418 373.805C163.418 372.112 163.825 370.797 164.639 369.859C165.452 368.922 166.602 368.453 168.086 368.453C169.486 368.453 170.566 368.876 171.328 369.723C172.096 370.569 172.48 371.799 172.48 373.414C172.48 373.889 172.461 374.332 172.422 374.742H165.156V373.16H170.605C170.605 372.229 170.384 371.516 169.941 371.021C169.499 370.52 168.887 370.27 168.105 370.27C167.227 370.27 166.543 370.569 166.055 371.168C165.573 371.767 165.332 372.613 165.332 373.707C165.332 374.905 165.664 375.816 166.328 376.441C166.999 377.066 167.949 377.379 169.18 377.379C169.609 377.379 170.033 377.356 170.449 377.311C170.866 377.258 171.289 377.19 171.719 377.105L171.973 378.922C171.361 379.039 170.801 379.114 170.293 379.146C169.785 379.179 169.336 379.195 168.945 379.195ZM191.484 379.195C190.052 379.195 188.939 378.727 188.145 377.789C187.35 376.852 186.953 375.53 186.953 373.824C186.953 372.112 187.35 370.79 188.145 369.859C188.939 368.922 190.052 368.453 191.484 368.453C192.923 368.453 194.036 368.922 194.824 369.859C195.618 370.79 196.016 372.112 196.016 373.824C196.016 375.53 195.618 376.852 194.824 377.789C194.036 378.727 192.923 379.195 191.484 379.195ZM191.484 377.34C192.246 377.34 192.832 377.034 193.242 376.422C193.659 375.81 193.867 374.944 193.867 373.824C193.867 372.698 193.659 371.832 193.242 371.227C192.832 370.615 192.246 370.309 191.484 370.309C190.723 370.309 190.133 370.615 189.717 371.227C189.307 371.832 189.102 372.698 189.102 373.824C189.102 374.944 189.307 375.81 189.717 376.422C190.133 377.034 190.723 377.34 191.484 377.34ZM201.826 379L198.125 368.648H200.332L203.115 377.242H203.291L206.074 368.648H208.281L204.58 379H201.826ZM215.82 379.195C214.056 379.195 212.692 378.733 211.729 377.809C210.771 376.878 210.293 375.543 210.293 373.805C210.293 372.112 210.7 370.797 211.514 369.859C212.327 368.922 213.477 368.453 214.961 368.453C216.361 368.453 217.441 368.876 218.203 369.723C218.971 370.569 219.355 371.799 219.355 373.414C219.355 373.889 219.336 374.332 219.297 374.742H212.031V373.16H217.48C217.48 372.229 217.259 371.516 216.816 371.021C216.374 370.52 215.762 370.27 214.98 370.27C214.102 370.27 213.418 370.569 212.93 371.168C212.448 371.767 212.207 372.613 212.207 373.707C212.207 374.905 212.539 375.816 213.203 376.441C213.874 377.066 214.824 377.379 216.055 377.379C216.484 377.379 216.908 377.356 217.324 377.311C217.741 377.258 218.164 377.19 218.594 377.105L218.848 378.922C218.236 379.039 217.676 379.114 217.168 379.146C216.66 379.179 216.211 379.195 215.82 379.195ZM225.938 374.547L225.332 371.305H226.133C226.25 369.404 227.201 368.453 228.984 368.453C230.052 368.453 230.827 368.759 231.309 369.371C231.79 369.983 232.031 370.973 232.031 372.34H229.98C229.98 371.585 229.867 371.041 229.639 370.709C229.417 370.377 229.056 370.211 228.555 370.211C227.676 370.211 227.018 370.589 226.582 371.344C226.152 372.092 225.938 373.16 225.938 374.547ZM221.562 379V377.184H228.477V379H221.562ZM223.867 379V368.648H225.547L225.938 371.617V379H223.867ZM221.953 370.465V368.648H225.41L225.605 370.465H221.953ZM251.074 379.195C249.31 379.195 247.946 378.733 246.982 377.809C246.025 376.878 245.547 375.543 245.547 373.805C245.547 372.112 245.999 370.797 246.904 369.859C247.816 368.922 249.115 368.453 250.801 368.453C251.81 368.453 252.673 368.642 253.389 369.02C254.111 369.391 254.626 369.918 254.932 370.602L253.34 371.803C253.047 371.327 252.673 370.96 252.217 370.699C251.761 370.439 251.263 370.309 250.723 370.309C249.746 370.309 248.988 370.605 248.447 371.197C247.907 371.783 247.637 372.62 247.637 373.707C247.637 374.885 247.952 375.787 248.584 376.412C249.222 377.031 250.13 377.34 251.309 377.34C251.79 377.34 252.272 377.317 252.754 377.271C253.236 377.226 253.704 377.164 254.16 377.086L254.395 378.902C253.861 379.02 253.307 379.098 252.734 379.137C252.168 379.176 251.615 379.195 251.074 379.195ZM261.797 379.195C260.365 379.195 259.251 378.727 258.457 377.789C257.663 376.852 257.266 375.53 257.266 373.824C257.266 372.112 257.663 370.79 258.457 369.859C259.251 368.922 260.365 368.453 261.797 368.453C263.236 368.453 264.349 368.922 265.137 369.859C265.931 370.79 266.328 372.112 266.328 373.824C266.328 375.53 265.931 376.852 265.137 377.789C264.349 378.727 263.236 379.195 261.797 379.195ZM261.797 377.34C262.559 377.34 263.145 377.034 263.555 376.422C263.971 375.81 264.18 374.944 264.18 373.824C264.18 372.698 263.971 371.832 263.555 371.227C263.145 370.615 262.559 370.309 261.797 370.309C261.035 370.309 260.446 370.615 260.029 371.227C259.619 371.832 259.414 372.698 259.414 373.824C259.414 374.944 259.619 375.81 260.029 376.422C260.446 377.034 261.035 377.34 261.797 377.34ZM272.725 379.195C271.37 379.195 270.342 378.749 269.639 377.857C268.942 376.965 268.594 375.654 268.594 373.922C268.594 372.125 268.942 370.764 269.639 369.84C270.342 368.915 271.37 368.453 272.725 368.453C273.499 368.453 274.128 368.635 274.609 369C275.098 369.365 275.384 369.872 275.469 370.523H276.27L275.664 373.473C275.664 372.405 275.452 371.594 275.029 371.041C274.613 370.488 273.997 370.211 273.184 370.211C272.35 370.211 271.719 370.523 271.289 371.148C270.859 371.773 270.645 372.698 270.645 373.922C270.645 375.081 270.859 375.956 271.289 376.549C271.719 377.141 272.35 377.438 273.184 377.438C273.997 377.438 274.613 377.161 275.029 376.607C275.452 376.054 275.664 375.243 275.664 374.176L276.367 377.125H275.469C275.404 377.776 275.127 378.284 274.639 378.648C274.157 379.013 273.519 379.195 272.725 379.195ZM275.879 379.098L275.664 377.066V364.352H277.734V379L275.879 379.098ZM286.133 379.195C284.368 379.195 283.005 378.733 282.041 377.809C281.084 376.878 280.605 375.543 280.605 373.805C280.605 372.112 281.012 370.797 281.826 369.859C282.64 368.922 283.789 368.453 285.273 368.453C286.673 368.453 287.754 368.876 288.516 369.723C289.284 370.569 289.668 371.799 289.668 373.414C289.668 373.889 289.648 374.332 289.609 374.742H282.344V373.16H287.793C287.793 372.229 287.572 371.516 287.129 371.021C286.686 370.52 286.074 370.27 285.293 370.27C284.414 370.27 283.73 370.569 283.242 371.168C282.76 371.767 282.52 372.613 282.52 373.707C282.52 374.905 282.852 375.816 283.516 376.441C284.186 377.066 285.137 377.379 286.367 377.379C286.797 377.379 287.22 377.356 287.637 377.311C288.053 377.258 288.477 377.19 288.906 377.105L289.16 378.922C288.548 379.039 287.988 379.114 287.48 379.146C286.973 379.179 286.523 379.195 286.133 379.195ZM309.57 379.195C307.806 379.195 306.442 378.733 305.479 377.809C304.521 376.878 304.043 375.543 304.043 373.805C304.043 372.112 304.45 370.797 305.264 369.859C306.077 368.922 307.227 368.453 308.711 368.453C310.111 368.453 311.191 368.876 311.953 369.723C312.721 370.569 313.105 371.799 313.105 373.414C313.105 373.889 313.086 374.332 313.047 374.742H305.781V373.16H311.23C311.23 372.229 311.009 371.516 310.566 371.021C310.124 370.52 309.512 370.27 308.73 370.27C307.852 370.27 307.168 370.569 306.68 371.168C306.198 371.767 305.957 372.613 305.957 373.707C305.957 374.905 306.289 375.816 306.953 376.441C307.624 377.066 308.574 377.379 309.805 377.379C310.234 377.379 310.658 377.356 311.074 377.311C311.491 377.258 311.914 377.19 312.344 377.105L312.598 378.922C311.986 379.039 311.426 379.114 310.918 379.146C310.41 379.179 309.961 379.195 309.57 379.195ZM322.539 379V372.262C322.539 371.637 322.376 371.155 322.051 370.816C321.725 370.478 321.27 370.309 320.684 370.309C319.056 370.309 318.242 371.266 318.242 373.18L317.637 370.523H318.438C318.496 369.827 318.75 369.309 319.199 368.971C319.648 368.626 320.306 368.453 321.172 368.453C322.266 368.453 323.112 368.785 323.711 369.449C324.31 370.113 324.609 371.051 324.609 372.262V379H322.539ZM316.172 379V368.648H318.047L318.242 370.836V379H316.172ZM48.3594 400.703V398.848H50.6445C51.7122 398.848 52.5195 398.584 53.0664 398.057C53.6133 397.523 53.8867 396.745 53.8867 395.723C53.8867 394.824 53.6133 394.144 53.0664 393.682C52.5195 393.219 51.7122 392.988 50.6445 392.988H48.3984V391.133H50.6445C52.3828 391.133 53.6979 391.52 54.5898 392.295C55.4883 393.07 55.9375 394.212 55.9375 395.723C55.9375 397.357 55.4883 398.597 54.5898 399.443C53.6979 400.283 52.3828 400.703 50.6445 400.703H48.3594ZM46.5625 405V391.133H48.5938V405H46.5625ZM62.7148 405.195C61.2174 405.195 60.0586 404.84 59.2383 404.131C58.418 403.415 58.0078 402.409 58.0078 401.113H60.0977C60.0977 401.836 60.3255 402.399 60.7812 402.803C61.237 403.2 61.888 403.398 62.7344 403.398C63.5677 403.398 64.2122 403.148 64.668 402.646C65.1237 402.145 65.3516 401.439 65.3516 400.527C65.3516 399.635 65.1042 398.945 64.6094 398.457C64.1146 397.962 63.4115 397.715 62.5 397.715C61.5885 397.715 60.7357 397.93 59.9414 398.359L60.1172 396.699C60.6315 396.406 61.1426 396.211 61.6504 396.113C62.1582 396.009 62.6693 395.957 63.1836 395.957C64.5247 395.957 65.5632 396.354 66.2988 397.148C67.0345 397.943 67.4023 399.069 67.4023 400.527C67.4023 401.517 67.2168 402.36 66.8457 403.057C66.4811 403.753 65.9505 404.284 65.2539 404.648C64.5573 405.013 63.7109 405.195 62.7148 405.195ZM58.8477 398.359L59.043 391.133H61.1328L60.9375 397.148L59.9414 398.359H58.8477ZM59.9805 392.949L59.8047 391.133H66.5234V392.949H59.9805ZM70.1953 409.688L70.0977 407.852L72.0508 407.676C73.099 407.585 73.8574 407.279 74.3262 406.758C74.8014 406.243 75.0391 405.456 75.0391 404.395V401.25H77.1094V404.082C77.1094 405.312 76.9271 406.315 76.5625 407.09C76.1979 407.865 75.6283 408.447 74.8535 408.838C74.0788 409.235 73.0794 409.479 71.8555 409.57L70.1953 409.688ZM71.0156 396.465V394.648H75.1953V396.465H71.0156ZM75.0391 401.582V394.648H77.1094V401.582H75.0391ZM75.8594 393.008C75.4622 393.008 75.1204 392.868 74.834 392.588C74.554 392.301 74.4141 391.96 74.4141 391.562C74.4141 391.159 74.554 390.817 74.834 390.537C75.1204 390.257 75.4622 390.117 75.8594 390.117C76.263 390.117 76.6048 390.257 76.8848 390.537C77.1647 390.817 77.3047 391.159 77.3047 391.562C77.3047 391.96 77.1647 392.301 76.8848 392.588C76.6048 392.868 76.263 393.008 75.8594 393.008ZM85.2148 405.195C84.4336 405.195 83.763 405.173 83.2031 405.127C82.6497 405.081 82.1419 405.007 81.6797 404.902L81.9141 403.027C82.5977 403.132 83.1999 403.21 83.7207 403.262C84.248 403.314 84.7461 403.34 85.2148 403.34C86.263 403.34 87.0215 403.239 87.4902 403.037C87.9655 402.829 88.2031 402.5 88.2031 402.051C88.2031 401.738 88.1185 401.507 87.9492 401.357C87.7865 401.201 87.5326 401.081 87.1875 400.996L84.8047 400.391C83.7826 400.13 83.0306 399.808 82.5488 399.424C82.0736 399.04 81.8359 398.457 81.8359 397.676C81.8359 396.543 82.2689 395.723 83.1348 395.215C84.0072 394.707 85.4102 394.453 87.3438 394.453C87.8451 394.453 88.3105 394.469 88.7402 394.502C89.1764 394.528 89.6224 394.577 90.0781 394.648L89.8633 396.445C89.3359 396.393 88.8704 396.357 88.4668 396.338C88.0632 396.318 87.6693 396.309 87.2852 396.309C86.1263 396.309 85.2865 396.41 84.7656 396.611C84.2448 396.807 83.9844 397.129 83.9844 397.578C83.9844 397.878 84.0918 398.096 84.3066 398.232C84.5215 398.363 84.8503 398.483 85.293 398.594L87.207 399.062C88.2943 399.323 89.0885 399.671 89.5898 400.107C90.0977 400.544 90.3516 401.178 90.3516 402.012C90.3516 403.125 89.9447 403.936 89.1309 404.443C88.3171 404.945 87.0117 405.195 85.2148 405.195ZM97.7344 405.195C97.3372 405.195 96.9954 405.055 96.709 404.775C96.429 404.489 96.2891 404.147 96.2891 403.75C96.2891 403.346 96.429 403.005 96.709 402.725C96.9954 402.445 97.3372 402.305 97.7344 402.305C98.138 402.305 98.4798 402.445 98.7598 402.725C99.0397 403.005 99.1797 403.346 99.1797 403.75C99.1797 404.147 99.0397 404.489 98.7598 404.775C98.4798 405.055 98.138 405.195 97.7344 405.195ZM120.918 405.195C119.395 405.195 118.219 404.772 117.393 403.926C116.566 403.073 116.152 401.882 116.152 400.352H118.184C118.184 401.328 118.424 402.087 118.906 402.627C119.395 403.167 120.081 403.438 120.967 403.438C121.826 403.438 122.487 403.171 122.949 402.637C123.418 402.096 123.652 401.335 123.652 400.352V391.133H125.684V400.352C125.684 401.888 125.264 403.079 124.424 403.926C123.584 404.772 122.415 405.195 120.918 405.195ZM120.098 392.988V391.133H124.648V392.988H120.098ZM133.789 405.195C132.025 405.195 130.661 404.733 129.697 403.809C128.74 402.878 128.262 401.543 128.262 399.805C128.262 398.112 128.669 396.797 129.482 395.859C130.296 394.922 131.445 394.453 132.93 394.453C134.329 394.453 135.41 394.876 136.172 395.723C136.94 396.569 137.324 397.799 137.324 399.414C137.324 399.889 137.305 400.332 137.266 400.742H130V399.16H135.449C135.449 398.229 135.228 397.516 134.785 397.021C134.342 396.52 133.73 396.27 132.949 396.27C132.07 396.27 131.387 396.569 130.898 397.168C130.417 397.767 130.176 398.613 130.176 399.707C130.176 400.905 130.508 401.816 131.172 402.441C131.842 403.066 132.793 403.379 134.023 403.379C134.453 403.379 134.876 403.356 135.293 403.311C135.71 403.258 136.133 403.19 136.562 403.105L136.816 404.922C136.204 405.039 135.645 405.114 135.137 405.146C134.629 405.179 134.18 405.195 133.789 405.195ZM157.871 405.195C156.673 405.195 155.807 404.87 155.273 404.219C154.74 403.568 154.473 402.526 154.473 401.094V390.352H156.543V400.996C156.543 401.543 156.595 401.989 156.699 402.334C156.803 402.679 157.005 402.933 157.305 403.096C157.611 403.258 158.06 403.34 158.652 403.34C159.193 403.34 159.883 403.216 160.723 402.969L160.957 404.785C160.43 404.928 159.922 405.033 159.434 405.098C158.952 405.163 158.431 405.195 157.871 405.195ZM151.426 392.168V390.352H154.648V392.168H151.426ZM168.945 405.195C167.181 405.195 165.817 404.733 164.854 403.809C163.896 402.878 163.418 401.543 163.418 399.805C163.418 398.112 163.825 396.797 164.639 395.859C165.452 394.922 166.602 394.453 168.086 394.453C169.486 394.453 170.566 394.876 171.328 395.723C172.096 396.569 172.48 397.799 172.48 399.414C172.48 399.889 172.461 400.332 172.422 400.742H165.156V399.16H170.605C170.605 398.229 170.384 397.516 169.941 397.021C169.499 396.52 168.887 396.27 168.105 396.27C167.227 396.27 166.543 396.569 166.055 397.168C165.573 397.767 165.332 398.613 165.332 399.707C165.332 400.905 165.664 401.816 166.328 402.441C166.999 403.066 167.949 403.379 169.18 403.379C169.609 403.379 170.033 403.356 170.449 403.311C170.866 403.258 171.289 403.19 171.719 403.105L171.973 404.922C171.361 405.039 170.801 405.114 170.293 405.146C169.785 405.179 169.336 405.195 168.945 405.195ZM180.664 405.195C178.9 405.195 177.536 404.733 176.572 403.809C175.615 402.878 175.137 401.543 175.137 399.805C175.137 398.112 175.544 396.797 176.357 395.859C177.171 394.922 178.32 394.453 179.805 394.453C181.204 394.453 182.285 394.876 183.047 395.723C183.815 396.569 184.199 397.799 184.199 399.414C184.199 399.889 184.18 400.332 184.141 400.742H176.875V399.16H182.324C182.324 398.229 182.103 397.516 181.66 397.021C181.217 396.52 180.605 396.27 179.824 396.27C178.945 396.27 178.262 396.569 177.773 397.168C177.292 397.767 177.051 398.613 177.051 399.707C177.051 400.905 177.383 401.816 178.047 402.441C178.717 403.066 179.668 403.379 180.898 403.379C181.328 403.379 181.751 403.356 182.168 403.311C182.585 403.258 183.008 403.19 183.438 403.105L183.691 404.922C183.079 405.039 182.52 405.114 182.012 405.146C181.504 405.179 181.055 405.195 180.664 405.195ZM190.781 400.547L190.176 397.305H190.977C191.094 395.404 192.044 394.453 193.828 394.453C194.896 394.453 195.671 394.759 196.152 395.371C196.634 395.983 196.875 396.973 196.875 398.34H194.824C194.824 397.585 194.71 397.041 194.482 396.709C194.261 396.377 193.9 396.211 193.398 396.211C192.52 396.211 191.862 396.589 191.426 397.344C190.996 398.092 190.781 399.16 190.781 400.547ZM186.406 405V403.184H193.32V405H186.406ZM188.711 405V394.648H190.391L190.781 397.617V405H188.711ZM186.797 396.465V394.648H190.254L190.449 396.465H186.797ZM205.078 405.195C203.509 405.195 202.373 404.87 201.67 404.219C200.973 403.568 200.625 402.526 200.625 401.094V399.336H202.695V400.996C202.695 401.816 202.894 402.412 203.291 402.783C203.695 403.154 204.355 403.34 205.273 403.34C205.599 403.34 205.944 403.324 206.309 403.291C206.673 403.252 207.09 403.203 207.559 403.145L207.793 404.961C207.337 405.039 206.891 405.098 206.455 405.137C206.025 405.176 205.566 405.195 205.078 405.195ZM200.625 400.117V391.523H202.695V400.117H200.625ZM198.027 396.465V394.648H207.402V396.465H198.027ZM225.85 405.195C224.495 405.195 223.467 404.749 222.764 403.857C222.067 402.965 221.719 401.654 221.719 399.922C221.719 398.125 222.067 396.764 222.764 395.84C223.467 394.915 224.495 394.453 225.85 394.453C226.624 394.453 227.253 394.635 227.734 395C228.223 395.365 228.509 395.872 228.594 396.523H229.395L228.789 399.473C228.789 398.405 228.577 397.594 228.154 397.041C227.738 396.488 227.122 396.211 226.309 396.211C225.475 396.211 224.844 396.523 224.414 397.148C223.984 397.773 223.77 398.698 223.77 399.922C223.77 401.081 223.984 401.956 224.414 402.549C224.844 403.141 225.475 403.438 226.309 403.438C227.122 403.438 227.738 403.161 228.154 402.607C228.577 402.054 228.789 401.243 228.789 400.176L229.492 403.125H228.594C228.529 403.776 228.252 404.284 227.764 404.648C227.282 405.013 226.644 405.195 225.85 405.195ZM229.004 405.098L228.789 403.066V390.352H230.859V405L229.004 405.098ZM239.258 405.195C237.493 405.195 236.13 404.733 235.166 403.809C234.209 402.878 233.73 401.543 233.73 399.805C233.73 398.112 234.137 396.797 234.951 395.859C235.765 394.922 236.914 394.453 238.398 394.453C239.798 394.453 240.879 394.876 241.641 395.723C242.409 396.569 242.793 397.799 242.793 399.414C242.793 399.889 242.773 400.332 242.734 400.742H235.469V399.16H240.918C240.918 398.229 240.697 397.516 240.254 397.021C239.811 396.52 239.199 396.27 238.418 396.27C237.539 396.27 236.855 396.569 236.367 397.168C235.885 397.767 235.645 398.613 235.645 399.707C235.645 400.905 235.977 401.816 236.641 402.441C237.311 403.066 238.262 403.379 239.492 403.379C239.922 403.379 240.345 403.356 240.762 403.311C241.178 403.258 241.602 403.19 242.031 403.105L242.285 404.922C241.673 405.039 241.113 405.114 240.605 405.146C240.098 405.179 239.648 405.195 239.258 405.195ZM49.3652 431.195C48.8965 431.195 48.4342 431.176 47.9785 431.137C47.5228 431.104 47.0605 431.059 46.5918 431L47.3926 429.105C47.7376 429.268 48.1185 429.366 48.5352 429.398C48.9518 429.424 49.3652 429.438 49.7754 429.438C51.0189 429.438 51.9792 429.063 52.6562 428.314C53.3398 427.566 53.6816 426.508 53.6816 425.141C53.6816 424.203 53.4733 423.48 53.0566 422.973C52.6465 422.465 52.0605 422.211 51.2988 422.211C49.541 422.211 48.6621 423.201 48.6621 425.18L48.0566 422.523H48.8574C48.9551 421.143 49.8014 420.453 51.3965 420.453C52.7767 420.453 53.8444 420.86 54.5996 421.674C55.3548 422.488 55.7324 423.643 55.7324 425.141C55.7324 427.061 55.1758 428.552 54.0625 429.613C52.9557 430.668 51.39 431.195 49.3652 431.195ZM46.5918 431V416.352H48.6621V430.824L46.5918 431ZM64.707 431.098L64.5703 428.031L64.2969 427.172V424.496C64.2969 423.806 64.0527 423.301 63.5645 422.982C63.0827 422.657 62.3633 422.481 61.4062 422.455L58.9258 422.387L59.1211 420.551L61.2109 420.58C62.9232 420.606 64.1927 420.977 65.0195 421.693C65.8529 422.403 66.2695 423.441 66.2695 424.809V429.125L68.0273 429.34V431L64.707 431.098ZM61.0547 431.195C59.974 431.195 59.1374 430.935 58.5449 430.414C57.9525 429.893 57.6562 429.158 57.6562 428.207C57.6562 427.113 58.0632 426.273 58.877 425.688C59.6973 425.102 60.8529 424.809 62.3438 424.809C62.9622 424.809 63.5124 424.848 63.9941 424.926C64.4824 424.997 64.9154 425.108 65.293 425.258L64.8633 426.664C64.4271 426.566 64.0007 426.511 63.584 426.498C63.1673 426.479 62.7409 426.469 62.3047 426.469C60.5078 426.469 59.6094 427.016 59.6094 428.109C59.6094 428.565 59.7624 428.917 60.0684 429.164C60.3809 429.411 60.8203 429.535 61.3867 429.535C62.0312 429.535 62.5684 429.424 62.998 429.203C63.4342 428.982 63.7598 428.699 63.9746 428.354C64.1895 428.008 64.2969 427.654 64.2969 427.289V426.156L64.9023 428.812H64.082L64.4141 428.5C64.4141 429.099 64.2741 429.6 63.9941 430.004C63.7207 430.401 63.3333 430.701 62.832 430.902C62.3307 431.098 61.7383 431.195 61.0547 431.195ZM73.4961 431.195C72.7148 431.195 72.0443 431.173 71.4844 431.127C70.931 431.081 70.4232 431.007 69.9609 430.902L70.1953 429.027C70.8789 429.132 71.4811 429.21 72.002 429.262C72.5293 429.314 73.0273 429.34 73.4961 429.34C74.5443 429.34 75.3027 429.239 75.7715 429.037C76.2467 428.829 76.4844 428.5 76.4844 428.051C76.4844 427.738 76.3997 427.507 76.2305 427.357C76.0677 427.201 75.8138 427.081 75.4688 426.996L73.0859 426.391C72.0638 426.13 71.3118 425.808 70.8301 425.424C70.3548 425.04 70.1172 424.457 70.1172 423.676C70.1172 422.543 70.5501 421.723 71.416 421.215C72.2884 420.707 73.6914 420.453 75.625 420.453C76.1263 420.453 76.5918 420.469 77.0215 420.502C77.4577 420.528 77.9036 420.577 78.3594 420.648L78.1445 422.445C77.6172 422.393 77.1517 422.357 76.748 422.338C76.3444 422.318 75.9505 422.309 75.5664 422.309C74.4076 422.309 73.5677 422.41 73.0469 422.611C72.526 422.807 72.2656 423.129 72.2656 423.578C72.2656 423.878 72.373 424.096 72.5879 424.232C72.8027 424.363 73.1315 424.483 73.5742 424.594L75.4883 425.062C76.5755 425.323 77.3698 425.671 77.8711 426.107C78.3789 426.544 78.6328 427.178 78.6328 428.012C78.6328 429.125 78.2259 429.936 77.4121 430.443C76.5983 430.945 75.293 431.195 73.4961 431.195ZM85.6641 431V421.234H87.7344V431H85.6641ZM81.7188 431V429.184H85.8594V431H81.7188ZM87.5391 431V429.184H90.918V431H87.5391ZM82.3047 422.465V420.648H87.7344V422.465H82.3047ZM86.6309 419.008C86.2337 419.008 85.8919 418.868 85.6055 418.588C85.3255 418.301 85.1855 417.96 85.1855 417.562C85.1855 417.159 85.3255 416.817 85.6055 416.537C85.8919 416.257 86.2337 416.117 86.6309 416.117C87.0345 416.117 87.3763 416.257 87.6562 416.537C87.9362 416.817 88.0762 417.159 88.0762 417.562C88.0762 417.96 87.9362 418.301 87.6562 418.588C87.3763 418.868 87.0345 419.008 86.6309 419.008ZM96.9336 431.195C96.1523 431.195 95.4818 431.173 94.9219 431.127C94.3685 431.081 93.8607 431.007 93.3984 430.902L93.6328 429.027C94.3164 429.132 94.9186 429.21 95.4395 429.262C95.9668 429.314 96.4648 429.34 96.9336 429.34C97.9818 429.34 98.7402 429.239 99.209 429.037C99.6842 428.829 99.9219 428.5 99.9219 428.051C99.9219 427.738 99.8372 427.507 99.668 427.357C99.5052 427.201 99.2513 427.081 98.9062 426.996L96.5234 426.391C95.5013 426.13 94.7493 425.808 94.2676 425.424C93.7923 425.04 93.5547 424.457 93.5547 423.676C93.5547 422.543 93.9876 421.723 94.8535 421.215C95.7259 420.707 97.1289 420.453 99.0625 420.453C99.5638 420.453 100.029 420.469 100.459 420.502C100.895 420.528 101.341 420.577 101.797 420.648L101.582 422.445C101.055 422.393 100.589 422.357 100.186 422.338C99.7819 422.318 99.388 422.309 99.0039 422.309C97.8451 422.309 97.0052 422.41 96.4844 422.611C95.9635 422.807 95.7031 423.129 95.7031 423.578C95.7031 423.878 95.8105 424.096 96.0254 424.232C96.2402 424.363 96.569 424.483 97.0117 424.594L98.9258 425.062C100.013 425.323 100.807 425.671 101.309 426.107C101.816 426.544 102.07 427.178 102.07 428.012C102.07 429.125 101.663 429.936 100.85 430.443C100.036 430.945 98.7305 431.195 96.9336 431.195ZM105.234 435.492V420.648H107.109L107.305 422.836V435.492H105.234ZM110.244 431.195C109.45 431.195 108.809 431.013 108.32 430.648C107.839 430.284 107.565 429.776 107.5 429.125H106.602L107.305 426.176C107.305 427.243 107.513 428.054 107.93 428.607C108.353 429.161 108.971 429.438 109.785 429.438C110.618 429.438 111.25 429.141 111.68 428.549C112.109 427.956 112.324 427.081 112.324 425.922C112.324 424.698 112.109 423.773 111.68 423.148C111.25 422.523 110.618 422.211 109.785 422.211C108.971 422.211 108.353 422.488 107.93 423.041C107.513 423.594 107.305 424.405 107.305 425.473L106.602 422.523H107.402C107.493 421.872 107.786 421.365 108.281 421C108.783 420.635 109.437 420.453 110.244 420.453C111.605 420.453 112.633 420.915 113.33 421.84C114.027 422.764 114.375 424.125 114.375 425.922C114.375 427.654 114.027 428.965 113.33 429.857C112.633 430.749 111.605 431.195 110.244 431.195ZM120.469 426.547L119.863 423.305H120.664C120.781 421.404 121.732 420.453 123.516 420.453C124.583 420.453 125.358 420.759 125.84 421.371C126.322 421.983 126.562 422.973 126.562 424.34H124.512C124.512 423.585 124.398 423.041 124.17 422.709C123.949 422.377 123.587 422.211 123.086 422.211C122.207 422.211 121.549 422.589 121.113 423.344C120.684 424.092 120.469 425.16 120.469 426.547ZM116.094 431V429.184H123.008V431H116.094ZM118.398 431V420.648H120.078L120.469 423.617V431H118.398ZM116.484 422.465V420.648H119.941L120.137 422.465H116.484ZM132.539 431V421.234H134.609V431H132.539ZM128.594 431V429.184H132.734V431H128.594ZM134.414 431V429.184H137.793V431H134.414ZM129.18 422.465V420.648H134.609V422.465H129.18ZM133.506 419.008C133.109 419.008 132.767 418.868 132.48 418.588C132.201 418.301 132.061 417.96 132.061 417.562C132.061 417.159 132.201 416.817 132.48 416.537C132.767 416.257 133.109 416.117 133.506 416.117C133.91 416.117 134.251 416.257 134.531 416.537C134.811 416.817 134.951 417.159 134.951 417.562C134.951 417.96 134.811 418.301 134.531 418.588C134.251 418.868 133.91 419.008 133.506 419.008ZM146.758 431V424.262C146.758 423.637 146.595 423.155 146.27 422.816C145.944 422.478 145.488 422.309 144.902 422.309C143.275 422.309 142.461 423.266 142.461 425.18L141.855 422.523H142.656C142.715 421.827 142.969 421.309 143.418 420.971C143.867 420.626 144.525 420.453 145.391 420.453C146.484 420.453 147.331 420.785 147.93 421.449C148.529 422.113 148.828 423.051 148.828 424.262V431H146.758ZM140.391 431V420.648H142.266L142.461 422.836V431H140.391ZM157.324 431.195C155.56 431.195 154.196 430.733 153.232 429.809C152.275 428.878 151.797 427.543 151.797 425.805C151.797 424.112 152.249 422.797 153.154 421.859C154.066 420.922 155.365 420.453 157.051 420.453C158.06 420.453 158.923 420.642 159.639 421.02C160.361 421.391 160.876 421.918 161.182 422.602L159.59 423.803C159.297 423.327 158.923 422.96 158.467 422.699C158.011 422.439 157.513 422.309 156.973 422.309C155.996 422.309 155.238 422.605 154.697 423.197C154.157 423.783 153.887 424.62 153.887 425.707C153.887 426.885 154.202 427.787 154.834 428.412C155.472 429.031 156.38 429.34 157.559 429.34C158.04 429.34 158.522 429.317 159.004 429.271C159.486 429.226 159.954 429.164 160.41 429.086L160.645 430.902C160.111 431.02 159.557 431.098 158.984 431.137C158.418 431.176 157.865 431.195 157.324 431.195ZM167.695 431V421.234H169.766V431H167.695ZM163.75 431V429.184H167.891V431H163.75ZM169.57 431V429.184H172.949V431H169.57ZM164.336 422.465V420.648H169.766V422.465H164.336ZM168.662 419.008C168.265 419.008 167.923 418.868 167.637 418.588C167.357 418.301 167.217 417.96 167.217 417.562C167.217 417.159 167.357 416.817 167.637 416.537C167.923 416.257 168.265 416.117 168.662 416.117C169.066 416.117 169.408 416.257 169.688 416.537C169.967 416.817 170.107 417.159 170.107 417.562C170.107 417.96 169.967 418.301 169.688 418.588C169.408 418.868 169.066 419.008 168.662 419.008ZM175.547 435.492V420.648H177.422L177.617 422.836V435.492H175.547ZM180.557 431.195C179.762 431.195 179.121 431.013 178.633 430.648C178.151 430.284 177.878 429.776 177.812 429.125H176.914L177.617 426.176C177.617 427.243 177.826 428.054 178.242 428.607C178.665 429.161 179.284 429.438 180.098 429.438C180.931 429.438 181.562 429.141 181.992 428.549C182.422 427.956 182.637 427.081 182.637 425.922C182.637 424.698 182.422 423.773 181.992 423.148C181.562 422.523 180.931 422.211 180.098 422.211C179.284 422.211 178.665 422.488 178.242 423.041C177.826 423.594 177.617 424.405 177.617 425.473L176.914 422.523H177.715C177.806 421.872 178.099 421.365 178.594 421C179.095 420.635 179.749 420.453 180.557 420.453C181.917 420.453 182.946 420.915 183.643 421.84C184.339 422.764 184.688 424.125 184.688 425.922C184.688 427.654 184.339 428.965 183.643 429.857C182.946 430.749 181.917 431.195 180.557 431.195ZM192.383 431.195C190.618 431.195 189.255 430.733 188.291 429.809C187.334 428.878 186.855 427.543 186.855 425.805C186.855 424.112 187.262 422.797 188.076 421.859C188.89 420.922 190.039 420.453 191.523 420.453C192.923 420.453 194.004 420.876 194.766 421.723C195.534 422.569 195.918 423.799 195.918 425.414C195.918 425.889 195.898 426.332 195.859 426.742H188.594V425.16H194.043C194.043 424.229 193.822 423.516 193.379 423.021C192.936 422.52 192.324 422.27 191.543 422.27C190.664 422.27 189.98 422.569 189.492 423.168C189.01 423.767 188.77 424.613 188.77 425.707C188.77 426.905 189.102 427.816 189.766 428.441C190.436 429.066 191.387 429.379 192.617 429.379C193.047 429.379 193.47 429.356 193.887 429.311C194.303 429.258 194.727 429.19 195.156 429.105L195.41 430.922C194.798 431.039 194.238 431.114 193.73 431.146C193.223 431.179 192.773 431.195 192.383 431.195ZM202.402 431.195C201.621 431.195 200.951 431.173 200.391 431.127C199.837 431.081 199.329 431.007 198.867 430.902L199.102 429.027C199.785 429.132 200.387 429.21 200.908 429.262C201.436 429.314 201.934 429.34 202.402 429.34C203.451 429.34 204.209 429.239 204.678 429.037C205.153 428.829 205.391 428.5 205.391 428.051C205.391 427.738 205.306 427.507 205.137 427.357C204.974 427.201 204.72 427.081 204.375 426.996L201.992 426.391C200.97 426.13 200.218 425.808 199.736 425.424C199.261 425.04 199.023 424.457 199.023 423.676C199.023 422.543 199.456 421.723 200.322 421.215C201.195 420.707 202.598 420.453 204.531 420.453C205.033 420.453 205.498 420.469 205.928 420.502C206.364 420.528 206.81 420.577 207.266 420.648L207.051 422.445C206.523 422.393 206.058 422.357 205.654 422.338C205.251 422.318 204.857 422.309 204.473 422.309C203.314 422.309 202.474 422.41 201.953 422.611C201.432 422.807 201.172 423.129 201.172 423.578C201.172 423.878 201.279 424.096 201.494 424.232C201.709 424.363 202.038 424.483 202.48 424.594L204.395 425.062C205.482 425.323 206.276 425.671 206.777 426.107C207.285 426.544 207.539 427.178 207.539 428.012C207.539 429.125 207.132 429.936 206.318 430.443C205.505 430.945 204.199 431.195 202.402 431.195ZM225.264 431L221.562 420.648H223.77L226.553 429.242H226.729L229.512 420.648H231.719L228.018 431H225.264ZM240.488 431.098L240.352 428.031L240.078 427.172V424.496C240.078 423.806 239.834 423.301 239.346 422.982C238.864 422.657 238.145 422.481 237.188 422.455L234.707 422.387L234.902 420.551L236.992 420.58C238.704 420.606 239.974 420.977 240.801 421.693C241.634 422.403 242.051 423.441 242.051 424.809V429.125L243.809 429.34V431L240.488 431.098ZM236.836 431.195C235.755 431.195 234.919 430.935 234.326 430.414C233.734 429.893 233.438 429.158 233.438 428.207C233.438 427.113 233.844 426.273 234.658 425.688C235.479 425.102 236.634 424.809 238.125 424.809C238.743 424.809 239.294 424.848 239.775 424.926C240.264 424.997 240.697 425.108 241.074 425.258L240.645 426.664C240.208 426.566 239.782 426.511 239.365 426.498C238.949 426.479 238.522 426.469 238.086 426.469C236.289 426.469 235.391 427.016 235.391 428.109C235.391 428.565 235.544 428.917 235.85 429.164C236.162 429.411 236.602 429.535 237.168 429.535C237.812 429.535 238.35 429.424 238.779 429.203C239.215 428.982 239.541 428.699 239.756 428.354C239.971 428.008 240.078 427.654 240.078 427.289V426.156L240.684 428.812H239.863L240.195 428.5C240.195 429.099 240.055 429.6 239.775 430.004C239.502 430.401 239.115 430.701 238.613 430.902C238.112 431.098 237.52 431.195 236.836 431.195ZM252.227 431V424.262C252.227 423.637 252.064 423.155 251.738 422.816C251.413 422.478 250.957 422.309 250.371 422.309C248.743 422.309 247.93 423.266 247.93 425.18L247.324 422.523H248.125C248.184 421.827 248.438 421.309 248.887 420.971C249.336 420.626 249.993 420.453 250.859 420.453C251.953 420.453 252.799 420.785 253.398 421.449C253.997 422.113 254.297 423.051 254.297 424.262V431H252.227ZM245.859 431V420.648H247.734L247.93 422.836V431H245.859ZM271.016 426.703V424.848H273.301C274.368 424.848 275.176 424.584 275.723 424.057C276.27 423.523 276.543 422.745 276.543 421.723C276.543 420.824 276.27 420.144 275.723 419.682C275.176 419.219 274.368 418.988 273.301 418.988H271.055V417.133H273.301C275.039 417.133 276.354 417.52 277.246 418.295C278.145 419.07 278.594 420.212 278.594 421.723C278.594 423.357 278.145 424.597 277.246 425.443C276.354 426.283 275.039 426.703 273.301 426.703H271.016ZM269.219 431V417.133H271.25V431H269.219ZM285.371 431.195C283.874 431.195 282.715 430.84 281.895 430.131C281.074 429.415 280.664 428.409 280.664 427.113H282.754C282.754 427.836 282.982 428.399 283.438 428.803C283.893 429.2 284.544 429.398 285.391 429.398C286.224 429.398 286.868 429.148 287.324 428.646C287.78 428.145 288.008 427.439 288.008 426.527C288.008 425.635 287.76 424.945 287.266 424.457C286.771 423.962 286.068 423.715 285.156 423.715C284.245 423.715 283.392 423.93 282.598 424.359L282.773 422.699C283.288 422.406 283.799 422.211 284.307 422.113C284.814 422.009 285.326 421.957 285.84 421.957C287.181 421.957 288.219 422.354 288.955 423.148C289.691 423.943 290.059 425.069 290.059 426.527C290.059 427.517 289.873 428.36 289.502 429.057C289.137 429.753 288.607 430.284 287.91 430.648C287.214 431.013 286.367 431.195 285.371 431.195ZM281.504 424.359L281.699 417.133H283.789L283.594 423.148L282.598 424.359H281.504ZM282.637 418.949L282.461 417.133H289.18V418.949H282.637ZM296.953 431.195C296.556 431.195 296.214 431.055 295.928 430.775C295.648 430.489 295.508 430.147 295.508 429.75C295.508 429.346 295.648 429.005 295.928 428.725C296.214 428.445 296.556 428.305 296.953 428.305C297.357 428.305 297.699 428.445 297.979 428.725C298.258 429.005 298.398 429.346 298.398 429.75C298.398 430.147 298.258 430.489 297.979 430.775C297.699 431.055 297.357 431.195 296.953 431.195ZM304.57 435.688L304.473 433.852L306.426 433.676C307.474 433.585 308.232 433.279 308.701 432.758C309.176 432.243 309.414 431.456 309.414 430.395V427.25H311.484V430.082C311.484 431.312 311.302 432.315 310.938 433.09C310.573 433.865 310.003 434.447 309.229 434.838C308.454 435.235 307.454 435.479 306.23 435.57L304.57 435.688ZM305.391 422.465V420.648H309.57V422.465H305.391ZM309.414 427.582V420.648H311.484V427.582H309.414ZM310.234 419.008C309.837 419.008 309.495 418.868 309.209 418.588C308.929 418.301 308.789 417.96 308.789 417.562C308.789 417.159 308.929 416.817 309.209 416.537C309.495 416.257 309.837 416.117 310.234 416.117C310.638 416.117 310.98 416.257 311.26 416.537C311.54 416.817 311.68 417.159 311.68 417.562C311.68 417.96 311.54 418.301 311.26 418.588C310.98 418.868 310.638 419.008 310.234 419.008ZM319.59 431.195C318.809 431.195 318.138 431.173 317.578 431.127C317.025 431.081 316.517 431.007 316.055 430.902L316.289 429.027C316.973 429.132 317.575 429.21 318.096 429.262C318.623 429.314 319.121 429.34 319.59 429.34C320.638 429.34 321.396 429.239 321.865 429.037C322.34 428.829 322.578 428.5 322.578 428.051C322.578 427.738 322.493 427.507 322.324 427.357C322.161 427.201 321.908 427.081 321.562 426.996L319.18 426.391C318.158 426.13 317.406 425.808 316.924 425.424C316.449 425.04 316.211 424.457 316.211 423.676C316.211 422.543 316.644 421.723 317.51 421.215C318.382 420.707 319.785 420.453 321.719 420.453C322.22 420.453 322.686 420.469 323.115 420.502C323.551 420.528 323.997 420.577 324.453 420.648L324.238 422.445C323.711 422.393 323.245 422.357 322.842 422.338C322.438 422.318 322.044 422.309 321.66 422.309C320.501 422.309 319.661 422.41 319.141 422.611C318.62 422.807 318.359 423.129 318.359 423.578C318.359 423.878 318.467 424.096 318.682 424.232C318.896 424.363 319.225 424.483 319.668 424.594L321.582 425.062C322.669 425.323 323.464 425.671 323.965 426.107C324.473 426.544 324.727 427.178 324.727 428.012C324.727 429.125 324.32 429.936 323.506 430.443C322.692 430.945 321.387 431.195 319.59 431.195ZM332.109 423.344C331.712 423.344 331.37 423.204 331.084 422.924C330.804 422.637 330.664 422.296 330.664 421.898C330.664 421.495 330.804 421.153 331.084 420.873C331.37 420.593 331.712 420.453 332.109 420.453C332.513 420.453 332.855 420.593 333.135 420.873C333.415 421.153 333.555 421.495 333.555 421.898C333.555 422.296 333.415 422.637 333.135 422.924C332.855 423.204 332.513 423.344 332.109 423.344ZM332.109 431.195C331.712 431.195 331.37 431.055 331.084 430.775C330.804 430.489 330.664 430.147 330.664 429.75C330.664 429.346 330.804 429.005 331.084 428.725C331.37 428.445 331.712 428.305 332.109 428.305C332.513 428.305 332.855 428.445 333.135 428.725C333.415 429.005 333.555 429.346 333.555 429.75C333.555 430.147 333.415 430.489 333.135 430.775C332.855 431.055 332.513 431.195 332.109 431.195ZM50.0586 457.195C49.2773 457.195 48.6068 457.173 48.0469 457.127C47.4935 457.081 46.9857 457.007 46.5234 456.902L46.7578 455.027C47.4414 455.132 48.0436 455.21 48.5645 455.262C49.0918 455.314 49.5898 455.34 50.0586 455.34C51.1068 455.34 51.8652 455.239 52.334 455.037C52.8092 454.829 53.0469 454.5 53.0469 454.051C53.0469 453.738 52.9622 453.507 52.793 453.357C52.6302 453.201 52.3763 453.081 52.0312 452.996L49.6484 452.391C48.6263 452.13 47.8743 451.808 47.3926 451.424C46.9173 451.04 46.6797 450.457 46.6797 449.676C46.6797 448.543 47.1126 447.723 47.9785 447.215C48.8509 446.707 50.2539 446.453 52.1875 446.453C52.6888 446.453 53.1543 446.469 53.584 446.502C54.0202 446.528 54.4661 446.577 54.9219 446.648L54.707 448.445C54.1797 448.393 53.7142 448.357 53.3105 448.338C52.9069 448.318 52.513 448.309 52.1289 448.309C50.9701 448.309 50.1302 448.41 49.6094 448.611C49.0885 448.807 48.8281 449.129 48.8281 449.578C48.8281 449.878 48.9355 450.096 49.1504 450.232C49.3652 450.363 49.694 450.483 50.1367 450.594L52.0508 451.062C53.138 451.323 53.9323 451.671 54.4336 452.107C54.9414 452.544 55.1953 453.178 55.1953 454.012C55.1953 455.125 54.7884 455.936 53.9746 456.443C53.1608 456.945 51.8555 457.195 50.0586 457.195ZM64.7266 457V450.262C64.7266 449.604 64.5638 449.1 64.2383 448.748C63.9128 448.39 63.457 448.211 62.8711 448.211C61.2435 448.211 60.4297 449.201 60.4297 451.18L59.8242 448.523H60.625C60.6836 447.827 60.9375 447.309 61.3867 446.971C61.8359 446.626 62.4935 446.453 63.3594 446.453C64.4531 446.453 65.2995 446.785 65.8984 447.449C66.4974 448.113 66.7969 449.051 66.7969 450.262V457H64.7266ZM58.3594 457V442.352H60.4297V457H58.3594ZM76.4258 457.098L76.2891 454.031L76.0156 453.172V450.496C76.0156 449.806 75.7715 449.301 75.2832 448.982C74.8014 448.657 74.082 448.481 73.125 448.455L70.6445 448.387L70.8398 446.551L72.9297 446.58C74.6419 446.606 75.9115 446.977 76.7383 447.693C77.5716 448.403 77.9883 449.441 77.9883 450.809V455.125L79.7461 455.34V457L76.4258 457.098ZM72.7734 457.195C71.6927 457.195 70.8561 456.935 70.2637 456.414C69.6712 455.893 69.375 455.158 69.375 454.207C69.375 453.113 69.7819 452.273 70.5957 451.688C71.416 451.102 72.5716 450.809 74.0625 450.809C74.681 450.809 75.2311 450.848 75.7129 450.926C76.2012 450.997 76.6341 451.108 77.0117 451.258L76.582 452.664C76.1458 452.566 75.7194 452.511 75.3027 452.498C74.8861 452.479 74.4596 452.469 74.0234 452.469C72.2266 452.469 71.3281 453.016 71.3281 454.109C71.3281 454.565 71.4811 454.917 71.7871 455.164C72.0996 455.411 72.5391 455.535 73.1055 455.535C73.75 455.535 74.2871 455.424 74.7168 455.203C75.153 454.982 75.4785 454.699 75.6934 454.354C75.9082 454.008 76.0156 453.654 76.0156 453.289V452.156L76.6211 454.812H75.8008L76.1328 454.5C76.1328 455.099 75.9928 455.6 75.7129 456.004C75.4395 456.401 75.0521 456.701 74.5508 456.902C74.0495 457.098 73.457 457.195 72.7734 457.195ZM81.7969 461.492V446.648H83.6719L83.8672 448.836V461.492H81.7969ZM86.8066 457.195C86.0124 457.195 85.3711 457.013 84.8828 456.648C84.401 456.284 84.1276 455.776 84.0625 455.125H83.1641L83.8672 452.176C83.8672 453.243 84.0755 454.054 84.4922 454.607C84.9154 455.161 85.5339 455.438 86.3477 455.438C87.181 455.438 87.8125 455.141 88.2422 454.549C88.6719 453.956 88.8867 453.081 88.8867 451.922C88.8867 450.698 88.6719 449.773 88.2422 449.148C87.8125 448.523 87.181 448.211 86.3477 448.211C85.5339 448.211 84.9154 448.488 84.4922 449.041C84.0755 449.594 83.8672 450.405 83.8672 451.473L83.1641 448.523H83.9648C84.056 447.872 84.349 447.365 84.8438 447C85.3451 446.635 85.9993 446.453 86.8066 446.453C88.1673 446.453 89.196 446.915 89.8926 447.84C90.5892 448.764 90.9375 450.125 90.9375 451.922C90.9375 453.654 90.5892 454.965 89.8926 455.857C89.196 456.749 88.1673 457.195 86.8066 457.195ZM98.6328 457.195C96.8685 457.195 95.5046 456.733 94.541 455.809C93.584 454.878 93.1055 453.543 93.1055 451.805C93.1055 450.112 93.5124 448.797 94.3262 447.859C95.14 446.922 96.2891 446.453 97.7734 446.453C99.1732 446.453 100.254 446.876 101.016 447.723C101.784 448.569 102.168 449.799 102.168 451.414C102.168 451.889 102.148 452.332 102.109 452.742H94.8438V451.16H100.293C100.293 450.229 100.072 449.516 99.6289 449.021C99.1862 448.52 98.5742 448.27 97.793 448.27C96.9141 448.27 96.2305 448.569 95.7422 449.168C95.2604 449.767 95.0195 450.613 95.0195 451.707C95.0195 452.905 95.3516 453.816 96.0156 454.441C96.6862 455.066 97.6367 455.379 98.8672 455.379C99.2969 455.379 99.7201 455.356 100.137 455.311C100.553 455.258 100.977 455.19 101.406 455.105L101.66 456.922C101.048 457.039 100.488 457.114 99.9805 457.146C99.4727 457.179 99.0234 457.195 98.6328 457.195ZM108.652 457.195C107.871 457.195 107.201 457.173 106.641 457.127C106.087 457.081 105.579 457.007 105.117 456.902L105.352 455.027C106.035 455.132 106.637 455.21 107.158 455.262C107.686 455.314 108.184 455.34 108.652 455.34C109.701 455.34 110.459 455.239 110.928 455.037C111.403 454.829 111.641 454.5 111.641 454.051C111.641 453.738 111.556 453.507 111.387 453.357C111.224 453.201 110.97 453.081 110.625 452.996L108.242 452.391C107.22 452.13 106.468 451.808 105.986 451.424C105.511 451.04 105.273 450.457 105.273 449.676C105.273 448.543 105.706 447.723 106.572 447.215C107.445 446.707 108.848 446.453 110.781 446.453C111.283 446.453 111.748 446.469 112.178 446.502C112.614 446.528 113.06 446.577 113.516 446.648L113.301 448.445C112.773 448.393 112.308 448.357 111.904 448.338C111.501 448.318 111.107 448.309 110.723 448.309C109.564 448.309 108.724 448.41 108.203 448.611C107.682 448.807 107.422 449.129 107.422 449.578C107.422 449.878 107.529 450.096 107.744 450.232C107.959 450.363 108.288 450.483 108.73 450.594L110.645 451.062C111.732 451.323 112.526 451.671 113.027 452.107C113.535 452.544 113.789 453.178 113.789 454.012C113.789 455.125 113.382 455.936 112.568 456.443C111.755 456.945 110.449 457.195 108.652 457.195ZM119.336 461.258L120.117 454.52H122.383L121.211 461.258H119.336ZM141.777 453.074V451.219H142.949C143.809 451.219 144.515 451.072 145.068 450.779C145.622 450.48 146.055 449.995 146.367 449.324C146.686 448.654 146.921 447.762 147.07 446.648H149.219C148.945 448.803 148.33 450.415 147.373 451.482C146.423 452.544 145.111 453.074 143.438 453.074H141.777ZM140.312 457V442.352H142.383V457H140.312ZM147.324 457L144.375 451.961L146.328 451.16L149.883 457H147.324ZM157.871 457.195C156.673 457.195 155.807 456.87 155.273 456.219C154.74 455.568 154.473 454.526 154.473 453.094V442.352H156.543V452.996C156.543 453.543 156.595 453.989 156.699 454.334C156.803 454.679 157.005 454.933 157.305 455.096C157.611 455.258 158.06 455.34 158.652 455.34C159.193 455.34 159.883 455.216 160.723 454.969L160.957 456.785C160.43 456.928 159.922 457.033 159.434 457.098C158.952 457.163 158.431 457.195 157.871 457.195ZM151.426 444.168V442.352H154.648V444.168H151.426ZM168.945 457.195C167.181 457.195 165.817 456.733 164.854 455.809C163.896 454.878 163.418 453.543 163.418 451.805C163.418 450.112 163.825 448.797 164.639 447.859C165.452 446.922 166.602 446.453 168.086 446.453C169.486 446.453 170.566 446.876 171.328 447.723C172.096 448.569 172.48 449.799 172.48 451.414C172.48 451.889 172.461 452.332 172.422 452.742H165.156V451.16H170.605C170.605 450.229 170.384 449.516 169.941 449.021C169.499 448.52 168.887 448.27 168.105 448.27C167.227 448.27 166.543 448.569 166.055 449.168C165.573 449.767 165.332 450.613 165.332 451.707C165.332 452.905 165.664 453.816 166.328 454.441C166.999 455.066 167.949 455.379 169.18 455.379C169.609 455.379 170.033 455.356 170.449 455.311C170.866 455.258 171.289 455.19 171.719 455.105L171.973 456.922C171.361 457.039 170.801 457.114 170.293 457.146C169.785 457.179 169.336 457.195 168.945 457.195ZM178.75 457.195C177.663 457.195 176.82 456.873 176.221 456.229C175.628 455.577 175.332 454.663 175.332 453.484V446.648H177.402V453.484C177.402 454.077 177.572 454.536 177.91 454.861C178.249 455.18 178.724 455.34 179.336 455.34C180.091 455.34 180.661 455.102 181.045 454.627C181.429 454.145 181.621 453.341 181.621 452.215L182.148 455.008H181.465C181.302 455.711 180.983 456.251 180.508 456.629C180.033 457.007 179.447 457.195 178.75 457.195ZM181.797 457.098L181.621 454.617V452.801H183.691V455.125L185.117 455.34V457L181.797 457.098ZM181.621 454.07V446.648H183.691V453.484L181.621 454.07ZM190.781 452.547L190.176 449.305H190.977C191.094 447.404 192.044 446.453 193.828 446.453C194.896 446.453 195.671 446.759 196.152 447.371C196.634 447.983 196.875 448.973 196.875 450.34H194.824C194.824 449.585 194.71 449.041 194.482 448.709C194.261 448.377 193.9 448.211 193.398 448.211C192.52 448.211 191.862 448.589 191.426 449.344C190.996 450.092 190.781 451.16 190.781 452.547ZM186.406 457V455.184H193.32V457H186.406ZM188.711 457V446.648H190.391L190.781 449.617V457H188.711ZM186.797 448.465V446.648H190.254L190.449 448.465H186.797ZM201.367 461.258L202.148 454.52H204.414L203.242 461.258H201.367ZM227.539 457.195C225.775 457.195 224.411 456.733 223.447 455.809C222.49 454.878 222.012 453.543 222.012 451.805C222.012 450.112 222.419 448.797 223.232 447.859C224.046 446.922 225.195 446.453 226.68 446.453C228.079 446.453 229.16 446.876 229.922 447.723C230.69 448.569 231.074 449.799 231.074 451.414C231.074 451.889 231.055 452.332 231.016 452.742H223.75V451.16H229.199C229.199 450.229 228.978 449.516 228.535 449.021C228.092 448.52 227.48 448.27 226.699 448.27C225.82 448.27 225.137 448.569 224.648 449.168C224.167 449.767 223.926 450.613 223.926 451.707C223.926 452.905 224.258 453.816 224.922 454.441C225.592 455.066 226.543 455.379 227.773 455.379C228.203 455.379 228.626 455.356 229.043 455.311C229.46 455.258 229.883 455.19 230.312 455.105L230.566 456.922C229.954 457.039 229.395 457.114 228.887 457.146C228.379 457.179 227.93 457.195 227.539 457.195ZM240.508 457V450.262C240.508 449.637 240.345 449.155 240.02 448.816C239.694 448.478 239.238 448.309 238.652 448.309C237.025 448.309 236.211 449.266 236.211 451.18L235.605 448.523H236.406C236.465 447.827 236.719 447.309 237.168 446.971C237.617 446.626 238.275 446.453 239.141 446.453C240.234 446.453 241.081 446.785 241.68 447.449C242.279 448.113 242.578 449.051 242.578 450.262V457H240.508ZM234.141 457V446.648H236.016L236.211 448.836V457H234.141ZM263.672 457.195C262.103 457.195 260.967 456.87 260.264 456.219C259.567 455.568 259.219 454.526 259.219 453.094V451.336H261.289V452.996C261.289 453.816 261.488 454.412 261.885 454.783C262.288 455.154 262.949 455.34 263.867 455.34C264.193 455.34 264.538 455.324 264.902 455.291C265.267 455.252 265.684 455.203 266.152 455.145L266.387 456.961C265.931 457.039 265.485 457.098 265.049 457.137C264.619 457.176 264.16 457.195 263.672 457.195ZM259.219 452.117V443.523H261.289V452.117H259.219ZM256.621 448.465V446.648H265.996V448.465H256.621ZM274.414 457.195C272.65 457.195 271.286 456.733 270.322 455.809C269.365 454.878 268.887 453.543 268.887 451.805C268.887 450.112 269.294 448.797 270.107 447.859C270.921 446.922 272.07 446.453 273.555 446.453C274.954 446.453 276.035 446.876 276.797 447.723C277.565 448.569 277.949 449.799 277.949 451.414C277.949 451.889 277.93 452.332 277.891 452.742H270.625V451.16H276.074C276.074 450.229 275.853 449.516 275.41 449.021C274.967 448.52 274.355 448.27 273.574 448.27C272.695 448.27 272.012 448.569 271.523 449.168C271.042 449.767 270.801 450.613 270.801 451.707C270.801 452.905 271.133 453.816 271.797 454.441C272.467 455.066 273.418 455.379 274.648 455.379C275.078 455.379 275.501 455.356 275.918 455.311C276.335 455.258 276.758 455.19 277.188 455.105L277.441 456.922C276.829 457.039 276.27 457.114 275.762 457.146C275.254 457.179 274.805 457.195 274.414 457.195ZM280.41 457L284.531 451.297L287.715 446.648H290.059L285.781 452.527L282.754 457H280.41ZM287.715 457L284.57 452.527L280.41 446.648H282.754L285.938 451.297L290.059 457H287.715ZM298.828 457.195C297.259 457.195 296.123 456.87 295.42 456.219C294.723 455.568 294.375 454.526 294.375 453.094V451.336H296.445V452.996C296.445 453.816 296.644 454.412 297.041 454.783C297.445 455.154 298.105 455.34 299.023 455.34C299.349 455.34 299.694 455.324 300.059 455.291C300.423 455.252 300.84 455.203 301.309 455.145L301.543 456.961C301.087 457.039 300.641 457.098 300.205 457.137C299.775 457.176 299.316 457.195 298.828 457.195ZM294.375 452.117V443.523H296.445V452.117H294.375ZM291.777 448.465V446.648H301.152V448.465H291.777ZM307.812 452.547L307.656 443.035H309.688L309.492 452.547H307.812ZM308.672 457.195C308.275 457.195 307.933 457.055 307.646 456.775C307.367 456.489 307.227 456.147 307.227 455.75C307.227 455.346 307.367 455.005 307.646 454.725C307.933 454.445 308.275 454.305 308.672 454.305C309.076 454.305 309.417 454.445 309.697 454.725C309.977 455.005 310.117 455.346 310.117 455.75C310.117 456.147 309.977 456.489 309.697 456.775C309.417 457.055 309.076 457.195 308.672 457.195Z" fill="#2B2B2B"/>
<path d="M134.5 144.5V142H132V139.5H137V142H144.5V137H134.5V134.5H132V129.5H134.5V127H147V129.5H149.5V132H144.5V129.5H137V134.5H147V137H149.5V142H147V144.5H134.5ZM159.5 144.5V134.5H154.5V132H159.5V127H164.5V132H169.5V134.5H164.5V144.5H159.5ZM174.5 144.5V142H172V139.5H174.5V137H184.5V134.5H174.5V132H187V134.5H189.5V144.5H174.5ZM177 142H184.5V139.5H177V142ZM192 147V132H207V134.5H209.5V139.5H207V142H197V147H192ZM197 139.5H204.5V134.5H197V139.5ZM234.5 144.5V142H239.5V132H237V129.5H239.5V127H244.5V142H249.5V144.5H234.5ZM257 134.5V129.5H262V134.5H257ZM257 142V137H262V142H257ZM92 196.5V179H97V181.5H99.5V184H102V181.5H104.5V179H109.5V196.5H104.5V186.5H102V191.5H99.5V186.5H97V196.5H92ZM114.5 196.5V194H112V191.5H114.5V189H124.5V186.5H114.5V184H127V186.5H129.5V196.5H114.5ZM117 194H124.5V191.5H117V194ZM134.5 196.5V194H132V191.5H134.5V189H144.5V186.5H134.5V184H147V186.5H149.5V196.5H134.5ZM137 194H144.5V191.5H137V194ZM152 196.5V179H157V189H162V186.5H164.5V184H169.5V186.5H167V189H164.5V191.5H167V194H169.5V196.5H164.5V194H162V191.5H157V196.5H152ZM192 196.5V179H197V189H202V186.5H204.5V184H209.5V186.5H207V189H204.5V191.5H207V194H209.5V196.5H204.5V194H202V191.5H197V196.5H192ZM214.5 196.5V194H212V186.5H214.5V184H227V186.5H229.5V191.5H217V194H227V196.5H214.5ZM217 189H224.5V186.5H217V189ZM232 196.5V184H247V186.5H249.5V196.5H244.5V186.5H237V196.5H232ZM252 196.5V184H267V186.5H269.5V196.5H264.5V186.5H257V196.5H252ZM279.5 181.5V179H284.5V181.5H279.5ZM274.5 196.5V194H279.5V186.5H277V184H284.5V194H289.5V196.5H274.5ZM292 196.5V194H304.5V191.5H294.5V189H292V186.5H294.5V184H307V186.5H297V189H307V191.5H309.5V194H307V196.5H292ZM122 222.5V210H137V212.5H139.5V222.5H134.5V212.5H132V222.5H127V212.5H124.5V222.5H122ZM144.5 222.5V220H142V212.5H144.5V210H157V212.5H159.5V217.5H147V220H157V222.5H144.5ZM147 215H154.5V212.5H147V215ZM169.5 222.5V212.5H164.5V210H169.5V205H174.5V210H179.5V212.5H174.5V222.5H169.5ZM204.5 222.5V220H202V212.5H204.5V210H219.5V212.5H207V220H219.5V222.5H204.5ZM224.5 222.5V220H222V212.5H224.5V210H237V212.5H239.5V220H237V222.5H224.5ZM227 220H234.5V212.5H227V220ZM244.5 222.5V220H242V212.5H244.5V210H254.5V205H259.5V222.5H244.5ZM247 220H254.5V212.5H247V220ZM264.5 222.5V220H262V212.5H264.5V210H277V212.5H279.5V217.5H267V220H277V222.5H264.5ZM267 215H274.5V212.5H267V215Z" fill="black"/>
</svg>
