<svg width="378" height="540" viewBox="0 0 378 540" fill="none" xmlns="http://www.w3.org/2000/svg">
<path d="M25.1943 61V86.2049V111.428H50.4062V86.2049V61H25.1943Z" fill="#F7A62E"/>
<path d="M0 136.633V161.837V187.06V212.265H25.1941V187.06V161.837V136.633V111.428H0V136.633Z" fill="#F7A62E"/>
<path d="M25.1943 262.693V287.898H50.4062V262.693V237.47V212.265H25.1943V237.47V262.693Z" fill="#F7A62E"/>
<path d="M0 313.102V338.325V363.53V388.735V413.958V439.163V464.368V489.572V514.795V540H25.1941V514.795V489.572V464.368V439.163V413.958V388.735V363.53V338.325V313.102V287.898H0V313.102Z" fill="#F7A62E"/>
<path d="M352.806 86.2049H327.594V61H302.4H277.206H251.994H226.8H201.606V86.2049H176.394H151.2V61H126.006H100.794H75.6003H50.4062V86.2049V111.428H25.1943V136.633V161.837V187.06V212.265H50.4062V237.47V262.693V287.898H25.1943V313.102V338.325V363.53V388.735V413.958V439.163V464.367V489.572V514.795V540H50.4062H75.6003H100.794H126.006H151.2H176.394H201.606H226.8H251.994H277.206H302.4H327.594H352.806H378V514.795V489.572V464.367V439.163V413.958V388.735V363.53V338.325V313.102V287.898V262.693V237.47V212.265V187.06V161.837V136.633V111.428V86.2049H352.806Z" fill="#FCC10A"/>
<path d="M55.6055 327.195C54.082 327.195 52.9069 326.772 52.0801 325.926C51.2533 325.073 50.8398 323.882 50.8398 322.352H52.8711C52.8711 323.328 53.112 324.087 53.5938 324.627C54.082 325.167 54.7689 325.438 55.6543 325.438C56.5137 325.438 57.1745 325.171 57.6367 324.637C58.1055 324.096 58.3398 323.335 58.3398 322.352V313.133H60.3711V322.352C60.3711 323.888 59.9512 325.079 59.1113 325.926C58.2715 326.772 57.1029 327.195 55.6055 327.195ZM54.7852 314.988V313.133H59.3359V314.988H54.7852ZM68.4766 327.195C66.7122 327.195 65.3483 326.733 64.3848 325.809C63.4277 324.878 62.9492 323.543 62.9492 321.805C62.9492 320.112 63.3561 318.797 64.1699 317.859C64.9837 316.922 66.1328 316.453 67.6172 316.453C69.0169 316.453 70.0977 316.876 70.8594 317.723C71.6276 318.569 72.0117 319.799 72.0117 321.414C72.0117 321.889 71.9922 322.332 71.9531 322.742H64.6875V321.16H70.1367C70.1367 320.229 69.9154 319.516 69.4727 319.021C69.0299 318.52 68.418 318.27 67.6367 318.27C66.7578 318.27 66.0742 318.569 65.5859 319.168C65.1042 319.767 64.8633 320.613 64.8633 321.707C64.8633 322.905 65.1953 323.816 65.8594 324.441C66.5299 325.066 67.4805 325.379 68.7109 325.379C69.1406 325.379 69.5638 325.356 69.9805 325.311C70.3971 325.258 70.8203 325.19 71.25 325.105L71.5039 326.922C70.8919 327.039 70.332 327.114 69.8242 327.146C69.3164 327.179 68.8672 327.195 68.4766 327.195ZM89.5215 327.195C89.0527 327.195 88.5905 327.176 88.1348 327.137C87.679 327.104 87.2168 327.059 86.748 327L87.5488 325.105C87.8939 325.268 88.2747 325.366 88.6914 325.398C89.1081 325.424 89.5215 325.438 89.9316 325.438C91.1751 325.438 92.1354 325.063 92.8125 324.314C93.4961 323.566 93.8379 322.508 93.8379 321.141C93.8379 320.203 93.6296 319.48 93.2129 318.973C92.8027 318.465 92.2168 318.211 91.4551 318.211C89.6973 318.211 88.8184 319.201 88.8184 321.18L88.2129 318.523H89.0137C89.1113 317.143 89.9577 316.453 91.5527 316.453C92.9329 316.453 94.0007 316.86 94.7559 317.674C95.5111 318.488 95.8887 319.643 95.8887 321.141C95.8887 323.061 95.332 324.552 94.2188 325.613C93.112 326.668 91.5462 327.195 89.5215 327.195ZM86.748 327V312.352H88.8184V326.824L86.748 327ZM103.633 327.195C101.868 327.195 100.505 326.733 99.541 325.809C98.584 324.878 98.1055 323.543 98.1055 321.805C98.1055 320.112 98.5124 318.797 99.3262 317.859C100.14 316.922 101.289 316.453 102.773 316.453C104.173 316.453 105.254 316.876 106.016 317.723C106.784 318.569 107.168 319.799 107.168 321.414C107.168 321.889 107.148 322.332 107.109 322.742H99.8438V321.16H105.293C105.293 320.229 105.072 319.516 104.629 319.021C104.186 318.52 103.574 318.27 102.793 318.27C101.914 318.27 101.23 318.569 100.742 319.168C100.26 319.767 100.02 320.613 100.02 321.707C100.02 322.905 100.352 323.816 101.016 324.441C101.686 325.066 102.637 325.379 103.867 325.379C104.297 325.379 104.72 325.356 105.137 325.311C105.553 325.258 105.977 325.19 106.406 325.105L106.66 326.922C106.048 327.039 105.488 327.114 104.98 327.146C104.473 327.179 104.023 327.195 103.633 327.195ZM116.602 327V320.262C116.602 319.637 116.439 319.155 116.113 318.816C115.788 318.478 115.332 318.309 114.746 318.309C113.118 318.309 112.305 319.266 112.305 321.18L111.699 318.523H112.5C112.559 317.827 112.812 317.309 113.262 316.971C113.711 316.626 114.368 316.453 115.234 316.453C116.328 316.453 117.174 316.785 117.773 317.449C118.372 318.113 118.672 319.051 118.672 320.262V327H116.602ZM110.234 327V316.648H112.109L112.305 318.836V327H110.234ZM128.047 327.195C126.478 327.195 125.342 326.87 124.639 326.219C123.942 325.568 123.594 324.526 123.594 323.094V321.336H125.664V322.996C125.664 323.816 125.863 324.412 126.26 324.783C126.663 325.154 127.324 325.34 128.242 325.34C128.568 325.34 128.913 325.324 129.277 325.291C129.642 325.252 130.059 325.203 130.527 325.145L130.762 326.961C130.306 327.039 129.86 327.098 129.424 327.137C128.994 327.176 128.535 327.195 128.047 327.195ZM123.594 322.117V313.523H125.664V322.117H123.594ZM120.996 318.465V316.648H130.371V318.465H120.996ZM151.758 327V320.262C151.758 319.637 151.595 319.155 151.27 318.816C150.944 318.478 150.488 318.309 149.902 318.309C148.275 318.309 147.461 319.266 147.461 321.18L146.855 318.523H147.656C147.715 317.827 147.969 317.309 148.418 316.971C148.867 316.626 149.525 316.453 150.391 316.453C151.484 316.453 152.331 316.785 152.93 317.449C153.529 318.113 153.828 319.051 153.828 320.262V327H151.758ZM145.391 327V316.648H147.266L147.461 318.836V327H145.391ZM160.312 327.195C159.225 327.195 158.382 326.873 157.783 326.229C157.191 325.577 156.895 324.663 156.895 323.484V316.648H158.965V323.484C158.965 324.077 159.134 324.536 159.473 324.861C159.811 325.18 160.286 325.34 160.898 325.34C161.654 325.34 162.223 325.102 162.607 324.627C162.992 324.145 163.184 323.341 163.184 322.215L163.711 325.008H163.027C162.865 325.711 162.546 326.251 162.07 326.629C161.595 327.007 161.009 327.195 160.312 327.195ZM163.359 327.098L163.184 324.617V322.801H165.254V325.125L166.68 325.34V327L163.359 327.098ZM163.184 324.07V316.648H165.254V323.484L163.184 324.07ZM181.934 323.074V321.219H183.105C183.965 321.219 184.671 321.072 185.225 320.779C185.778 320.48 186.211 319.995 186.523 319.324C186.842 318.654 187.077 317.762 187.227 316.648H189.375C189.102 318.803 188.486 320.415 187.529 321.482C186.579 322.544 185.267 323.074 183.594 323.074H181.934ZM180.469 327V312.352H182.539V327H180.469ZM187.48 327L184.531 321.961L186.484 321.16L190.039 327H187.48ZM198.027 327.195C196.829 327.195 195.964 326.87 195.43 326.219C194.896 325.568 194.629 324.526 194.629 323.094V312.352H196.699V322.996C196.699 323.543 196.751 323.989 196.855 324.334C196.96 324.679 197.161 324.933 197.461 325.096C197.767 325.258 198.216 325.34 198.809 325.34C199.349 325.34 200.039 325.216 200.879 324.969L201.113 326.785C200.586 326.928 200.078 327.033 199.59 327.098C199.108 327.163 198.587 327.195 198.027 327.195ZM191.582 314.168V312.352H194.805V314.168H191.582ZM210.332 327.098L210.195 324.031L209.922 323.172V320.496C209.922 319.806 209.678 319.301 209.189 318.982C208.708 318.657 207.988 318.481 207.031 318.455L204.551 318.387L204.746 316.551L206.836 316.58C208.548 316.606 209.818 316.977 210.645 317.693C211.478 318.403 211.895 319.441 211.895 320.809V325.125L213.652 325.34V327L210.332 327.098ZM206.68 327.195C205.599 327.195 204.762 326.935 204.17 326.414C203.577 325.893 203.281 325.158 203.281 324.207C203.281 323.113 203.688 322.273 204.502 321.688C205.322 321.102 206.478 320.809 207.969 320.809C208.587 320.809 209.137 320.848 209.619 320.926C210.107 320.997 210.54 321.108 210.918 321.258L210.488 322.664C210.052 322.566 209.626 322.511 209.209 322.498C208.792 322.479 208.366 322.469 207.93 322.469C206.133 322.469 205.234 323.016 205.234 324.109C205.234 324.565 205.387 324.917 205.693 325.164C206.006 325.411 206.445 325.535 207.012 325.535C207.656 325.535 208.193 325.424 208.623 325.203C209.059 324.982 209.385 324.699 209.6 324.354C209.814 324.008 209.922 323.654 209.922 323.289V322.156L210.527 324.812H209.707L210.039 324.5C210.039 325.099 209.899 325.6 209.619 326.004C209.346 326.401 208.958 326.701 208.457 326.902C207.956 327.098 207.363 327.195 206.68 327.195ZM222.051 327.098L221.914 324.031L221.641 323.172V320.496C221.641 319.806 221.396 319.301 220.908 318.982C220.426 318.657 219.707 318.481 218.75 318.455L216.27 318.387L216.465 316.551L218.555 316.58C220.267 316.606 221.536 316.977 222.363 317.693C223.197 318.403 223.613 319.441 223.613 320.809V325.125L225.371 325.34V327L222.051 327.098ZM218.398 327.195C217.318 327.195 216.481 326.935 215.889 326.414C215.296 325.893 215 325.158 215 324.207C215 323.113 215.407 322.273 216.221 321.688C217.041 321.102 218.197 320.809 219.688 320.809C220.306 320.809 220.856 320.848 221.338 320.926C221.826 320.997 222.259 321.108 222.637 321.258L222.207 322.664C221.771 322.566 221.344 322.511 220.928 322.498C220.511 322.479 220.085 322.469 219.648 322.469C217.852 322.469 216.953 323.016 216.953 324.109C216.953 324.565 217.106 324.917 217.412 325.164C217.725 325.411 218.164 325.535 218.73 325.535C219.375 325.535 219.912 325.424 220.342 325.203C220.778 324.982 221.104 324.699 221.318 324.354C221.533 324.008 221.641 323.654 221.641 323.289V322.156L222.246 324.812H221.426L221.758 324.5C221.758 325.099 221.618 325.6 221.338 326.004C221.064 326.401 220.677 326.701 220.176 326.902C219.674 327.098 219.082 327.195 218.398 327.195ZM230.938 322.547L230.332 319.305H231.133C231.25 317.404 232.201 316.453 233.984 316.453C235.052 316.453 235.827 316.759 236.309 317.371C236.79 317.983 237.031 318.973 237.031 320.34H234.98C234.98 319.585 234.867 319.041 234.639 318.709C234.417 318.377 234.056 318.211 233.555 318.211C232.676 318.211 232.018 318.589 231.582 319.344C231.152 320.092 230.938 321.16 230.938 322.547ZM226.562 327V325.184H233.477V327H226.562ZM228.867 327V316.648H230.547L230.938 319.617V327H228.867ZM226.953 318.465V316.648H230.41L230.605 318.465H226.953ZM253.701 327L250 316.648H252.207L254.99 325.242H255.166L257.949 316.648H260.156L256.455 327H253.701ZM266.797 327.195C265.365 327.195 264.251 326.727 263.457 325.789C262.663 324.852 262.266 323.53 262.266 321.824C262.266 320.112 262.663 318.79 263.457 317.859C264.251 316.922 265.365 316.453 266.797 316.453C268.236 316.453 269.349 316.922 270.137 317.859C270.931 318.79 271.328 320.112 271.328 321.824C271.328 323.53 270.931 324.852 270.137 325.789C269.349 326.727 268.236 327.195 266.797 327.195ZM266.797 325.34C267.559 325.34 268.145 325.034 268.555 324.422C268.971 323.81 269.18 322.944 269.18 321.824C269.18 320.698 268.971 319.832 268.555 319.227C268.145 318.615 267.559 318.309 266.797 318.309C266.035 318.309 265.446 318.615 265.029 319.227C264.619 319.832 264.414 320.698 264.414 321.824C264.414 322.944 264.619 323.81 265.029 324.422C265.446 325.034 266.035 325.34 266.797 325.34ZM278.516 327.195C277.083 327.195 275.97 326.727 275.176 325.789C274.382 324.852 273.984 323.53 273.984 321.824C273.984 320.112 274.382 318.79 275.176 317.859C275.97 316.922 277.083 316.453 278.516 316.453C279.954 316.453 281.068 316.922 281.855 317.859C282.65 318.79 283.047 320.112 283.047 321.824C283.047 323.53 282.65 324.852 281.855 325.789C281.068 326.727 279.954 327.195 278.516 327.195ZM278.516 325.34C279.277 325.34 279.863 325.034 280.273 324.422C280.69 323.81 280.898 322.944 280.898 321.824C280.898 320.698 280.69 319.832 280.273 319.227C279.863 318.615 279.277 318.309 278.516 318.309C277.754 318.309 277.165 318.615 276.748 319.227C276.338 319.832 276.133 320.698 276.133 321.824C276.133 322.944 276.338 323.81 276.748 324.422C277.165 325.034 277.754 325.34 278.516 325.34ZM289.531 322.547L288.926 319.305H289.727C289.844 317.404 290.794 316.453 292.578 316.453C293.646 316.453 294.421 316.759 294.902 317.371C295.384 317.983 295.625 318.973 295.625 320.34H293.574C293.574 319.585 293.46 319.041 293.232 318.709C293.011 318.377 292.65 318.211 292.148 318.211C291.27 318.211 290.612 318.589 290.176 319.344C289.746 320.092 289.531 321.16 289.531 322.547ZM285.156 327V325.184H292.07V327H285.156ZM287.461 327V316.648H289.141L289.531 319.617V327H287.461ZM285.547 318.465V316.648H289.004L289.199 318.465H285.547ZM315.82 327V320.262C315.82 319.604 315.658 319.1 315.332 318.748C315.007 318.39 314.551 318.211 313.965 318.211C312.337 318.211 311.523 319.201 311.523 321.18L310.918 318.523H311.719C311.777 317.827 312.031 317.309 312.48 316.971C312.93 316.626 313.587 316.453 314.453 316.453C315.547 316.453 316.393 316.785 316.992 317.449C317.591 318.113 317.891 319.051 317.891 320.262V327H315.82ZM309.453 327V312.352H311.523V327H309.453ZM326.289 327.195C324.525 327.195 323.161 326.733 322.197 325.809C321.24 324.878 320.762 323.543 320.762 321.805C320.762 320.112 321.169 318.797 321.982 317.859C322.796 316.922 323.945 316.453 325.43 316.453C326.829 316.453 327.91 316.876 328.672 317.723C329.44 318.569 329.824 319.799 329.824 321.414C329.824 321.889 329.805 322.332 329.766 322.742H322.5V321.16H327.949C327.949 320.229 327.728 319.516 327.285 319.021C326.842 318.52 326.23 318.27 325.449 318.27C324.57 318.27 323.887 318.569 323.398 319.168C322.917 319.767 322.676 320.613 322.676 321.707C322.676 322.905 323.008 323.816 323.672 324.441C324.342 325.066 325.293 325.379 326.523 325.379C326.953 325.379 327.376 325.356 327.793 325.311C328.21 325.258 328.633 325.19 329.062 325.105L329.316 326.922C328.704 327.039 328.145 327.114 327.637 327.146C327.129 327.179 326.68 327.195 326.289 327.195ZM338.984 327.195C337.415 327.195 336.279 326.87 335.576 326.219C334.88 325.568 334.531 324.526 334.531 323.094V321.336H336.602V322.996C336.602 323.816 336.8 324.412 337.197 324.783C337.601 325.154 338.262 325.34 339.18 325.34C339.505 325.34 339.85 325.324 340.215 325.291C340.579 325.252 340.996 325.203 341.465 325.145L341.699 326.961C341.243 327.039 340.798 327.098 340.361 327.137C339.932 327.176 339.473 327.195 338.984 327.195ZM334.531 322.117V313.523H336.602V322.117H334.531ZM331.934 318.465V316.648H341.309V318.465H331.934ZM56.7578 353.195C54.9935 353.195 53.6296 352.733 52.666 351.809C51.709 350.878 51.2305 349.543 51.2305 347.805C51.2305 346.112 51.6374 344.797 52.4512 343.859C53.265 342.922 54.4141 342.453 55.8984 342.453C57.2982 342.453 58.3789 342.876 59.1406 343.723C59.9089 344.569 60.293 345.799 60.293 347.414C60.293 347.889 60.2734 348.332 60.2344 348.742H52.9688V347.16H58.418C58.418 346.229 58.1966 345.516 57.7539 345.021C57.3112 344.52 56.6992 344.27 55.918 344.27C55.0391 344.27 54.3555 344.569 53.8672 345.168C53.3854 345.767 53.1445 346.613 53.1445 347.707C53.1445 348.905 53.4766 349.816 54.1406 350.441C54.8112 351.066 55.7617 351.379 56.9922 351.379C57.4219 351.379 57.8451 351.356 58.2617 351.311C58.6784 351.258 59.1016 351.19 59.5312 351.105L59.7852 352.922C59.1732 353.039 58.6133 353.114 58.1055 353.146C57.5977 353.179 57.1484 353.195 56.7578 353.195ZM68.5742 353.195C66.8099 353.195 65.446 352.733 64.4824 351.809C63.5254 350.878 63.0469 349.543 63.0469 347.805C63.0469 346.112 63.4993 344.797 64.4043 343.859C65.3158 342.922 66.6146 342.453 68.3008 342.453C69.3099 342.453 70.1725 342.642 70.8887 343.02C71.6113 343.391 72.1257 343.918 72.4316 344.602L70.8398 345.803C70.5469 345.327 70.1725 344.96 69.7168 344.699C69.2611 344.439 68.763 344.309 68.2227 344.309C67.2461 344.309 66.4876 344.605 65.9473 345.197C65.4069 345.783 65.1367 346.62 65.1367 347.707C65.1367 348.885 65.4525 349.787 66.084 350.412C66.722 351.031 67.6302 351.34 68.8086 351.34C69.2904 351.34 69.7721 351.317 70.2539 351.271C70.7357 351.226 71.2044 351.164 71.6602 351.086L71.8945 352.902C71.3607 353.02 70.8073 353.098 70.2344 353.137C69.668 353.176 69.1146 353.195 68.5742 353.195ZM81.4453 353V346.262C81.4453 345.604 81.2826 345.1 80.957 344.748C80.6315 344.39 80.1758 344.211 79.5898 344.211C77.9622 344.211 77.1484 345.201 77.1484 347.18L76.543 344.523H77.3438C77.4023 343.827 77.6562 343.309 78.1055 342.971C78.5547 342.626 79.2122 342.453 80.0781 342.453C81.1719 342.453 82.0182 342.785 82.6172 343.449C83.2161 344.113 83.5156 345.051 83.5156 346.262V353H81.4453ZM75.0781 353V338.352H77.1484V353H75.0781ZM92.8906 353.195C91.3216 353.195 90.1855 352.87 89.4824 352.219C88.7858 351.568 88.4375 350.526 88.4375 349.094V347.336H90.5078V348.996C90.5078 349.816 90.7064 350.412 91.1035 350.783C91.5072 351.154 92.168 351.34 93.0859 351.34C93.4115 351.34 93.7565 351.324 94.1211 351.291C94.4857 351.252 94.9023 351.203 95.3711 351.145L95.6055 352.961C95.1497 353.039 94.7038 353.098 94.2676 353.137C93.8379 353.176 93.3789 353.195 92.8906 353.195ZM88.4375 348.117V339.523H90.5078V348.117H88.4375ZM85.8398 344.465V342.648H95.2148V344.465H85.8398ZM103.633 353.195C101.868 353.195 100.505 352.733 99.541 351.809C98.584 350.878 98.1055 349.543 98.1055 347.805C98.1055 346.112 98.5124 344.797 99.3262 343.859C100.14 342.922 101.289 342.453 102.773 342.453C104.173 342.453 105.254 342.876 106.016 343.723C106.784 344.569 107.168 345.799 107.168 347.414C107.168 347.889 107.148 348.332 107.109 348.742H99.8438V347.16H105.293C105.293 346.229 105.072 345.516 104.629 345.021C104.186 344.52 103.574 344.27 102.793 344.27C101.914 344.27 101.23 344.569 100.742 345.168C100.26 345.767 100.02 346.613 100.02 347.707C100.02 348.905 100.352 349.816 101.016 350.441C101.686 351.066 102.637 351.379 103.867 351.379C104.297 351.379 104.72 351.356 105.137 351.311C105.553 351.258 105.977 351.19 106.406 351.105L106.66 352.922C106.048 353.039 105.488 353.114 104.98 353.146C104.473 353.179 104.023 353.195 103.633 353.195ZM127.344 353L126.133 344.777H125.977L125.127 342.648H127.021L128.242 351.438H128.418L129.297 342.648H131.348L129.883 353H127.344ZM122.168 353L120.996 342.648H122.949L123.73 351.438H123.906L125.127 342.648H127.021L126.152 344.777H126.016L124.805 353H122.168ZM138.789 353.195C137.025 353.195 135.661 352.733 134.697 351.809C133.74 350.878 133.262 349.543 133.262 347.805C133.262 346.112 133.669 344.797 134.482 343.859C135.296 342.922 136.445 342.453 137.93 342.453C139.329 342.453 140.41 342.876 141.172 343.723C141.94 344.569 142.324 345.799 142.324 347.414C142.324 347.889 142.305 348.332 142.266 348.742H135V347.16H140.449C140.449 346.229 140.228 345.516 139.785 345.021C139.342 344.52 138.73 344.27 137.949 344.27C137.07 344.27 136.387 344.569 135.898 345.168C135.417 345.767 135.176 346.613 135.176 347.707C135.176 348.905 135.508 349.816 136.172 350.441C136.842 351.066 137.793 351.379 139.023 351.379C139.453 351.379 139.876 351.356 140.293 351.311C140.71 351.258 141.133 351.19 141.562 351.105L141.816 352.922C141.204 353.039 140.645 353.114 140.137 353.146C139.629 353.179 139.18 353.195 138.789 353.195ZM148.906 348.547L148.301 345.305H149.102C149.219 343.404 150.169 342.453 151.953 342.453C153.021 342.453 153.796 342.759 154.277 343.371C154.759 343.983 155 344.973 155 346.34H152.949C152.949 345.585 152.835 345.041 152.607 344.709C152.386 344.377 152.025 344.211 151.523 344.211C150.645 344.211 149.987 344.589 149.551 345.344C149.121 346.092 148.906 347.16 148.906 348.547ZM144.531 353V351.184H151.445V353H144.531ZM146.836 353V342.648H148.516L148.906 345.617V353H146.836ZM144.922 344.465V342.648H148.379L148.574 344.465H144.922ZM158.496 349.074V347.219H159.668C160.527 347.219 161.234 347.072 161.787 346.779C162.34 346.48 162.773 345.995 163.086 345.324C163.405 344.654 163.639 343.762 163.789 342.648H165.938C165.664 344.803 165.049 346.415 164.092 347.482C163.141 348.544 161.829 349.074 160.156 349.074H158.496ZM157.031 353V338.352H159.102V353H157.031ZM164.043 353L161.094 347.961L163.047 347.16L166.602 353H164.043ZM172.188 348.547L172.031 339.035H174.062L173.867 348.547H172.188ZM173.047 353.195C172.65 353.195 172.308 353.055 172.021 352.775C171.742 352.489 171.602 352.147 171.602 351.75C171.602 351.346 171.742 351.005 172.021 350.725C172.308 350.445 172.65 350.305 173.047 350.305C173.451 350.305 173.792 350.445 174.072 350.725C174.352 351.005 174.492 351.346 174.492 351.75C174.492 352.147 174.352 352.489 174.072 352.775C173.792 353.055 173.451 353.195 173.047 353.195ZM194.082 353V351.145H196.934C197.793 351.145 198.46 350.949 198.936 350.559C199.411 350.161 199.648 349.608 199.648 348.898C199.648 348.169 199.401 347.606 198.906 347.209C198.411 346.805 197.708 346.604 196.797 346.604H194.121L193.887 345.715H197.285C198.691 345.715 199.779 346.018 200.547 346.623C201.315 347.229 201.699 348.085 201.699 349.191C201.699 350.402 201.335 351.34 200.605 352.004C199.876 352.668 198.841 353 197.5 353H194.082ZM192.188 353V339.133H194.219V353H192.188ZM193.418 346.184V345.227H197.402V346.184H193.418ZM194.082 345.637V344.748H196.348C197.083 344.748 197.653 344.585 198.057 344.26C198.467 343.928 198.672 343.456 198.672 342.844C198.672 342.245 198.457 341.786 198.027 341.467C197.604 341.148 196.999 340.988 196.211 340.988H194.121L193.887 339.133H196.309C197.715 339.133 198.802 339.439 199.57 340.051C200.339 340.656 200.723 341.522 200.723 342.648C200.723 343.605 200.358 344.344 199.629 344.865C198.9 345.38 197.865 345.637 196.523 345.637H194.082ZM209.102 353.195C207.337 353.195 205.973 352.733 205.01 351.809C204.053 350.878 203.574 349.543 203.574 347.805C203.574 346.112 203.981 344.797 204.795 343.859C205.609 342.922 206.758 342.453 208.242 342.453C209.642 342.453 210.723 342.876 211.484 343.723C212.253 344.569 212.637 345.799 212.637 347.414C212.637 347.889 212.617 348.332 212.578 348.742H205.312V347.16H210.762C210.762 346.229 210.54 345.516 210.098 345.021C209.655 344.52 209.043 344.27 208.262 344.27C207.383 344.27 206.699 344.569 206.211 345.168C205.729 345.767 205.488 346.613 205.488 347.707C205.488 348.905 205.82 349.816 206.484 350.441C207.155 351.066 208.105 351.379 209.336 351.379C209.766 351.379 210.189 351.356 210.605 351.311C211.022 351.258 211.445 351.19 211.875 351.105L212.129 352.922C211.517 353.039 210.957 353.114 210.449 353.146C209.941 353.179 209.492 353.195 209.102 353.195ZM219.131 353.195C217.777 353.195 216.748 352.749 216.045 351.857C215.348 350.965 215 349.654 215 347.922C215 346.125 215.348 344.764 216.045 343.84C216.748 342.915 217.777 342.453 219.131 342.453C219.906 342.453 220.534 342.635 221.016 343C221.504 343.365 221.79 343.872 221.875 344.523H222.676L222.07 347.473C222.07 346.405 221.859 345.594 221.436 345.041C221.019 344.488 220.404 344.211 219.59 344.211C218.757 344.211 218.125 344.523 217.695 345.148C217.266 345.773 217.051 346.698 217.051 347.922C217.051 349.081 217.266 349.956 217.695 350.549C218.125 351.141 218.757 351.438 219.59 351.438C220.404 351.438 221.019 351.161 221.436 350.607C221.859 350.054 222.07 349.243 222.07 348.176L222.773 351.125H221.875C221.81 351.776 221.533 352.284 221.045 352.648C220.563 353.013 219.925 353.195 219.131 353.195ZM222.285 353.098L222.07 351.066V338.352H224.141V353L222.285 353.098ZM232.539 353.195C230.775 353.195 229.411 352.733 228.447 351.809C227.49 350.878 227.012 349.543 227.012 347.805C227.012 346.112 227.419 344.797 228.232 343.859C229.046 342.922 230.195 342.453 231.68 342.453C233.079 342.453 234.16 342.876 234.922 343.723C235.69 344.569 236.074 345.799 236.074 347.414C236.074 347.889 236.055 348.332 236.016 348.742H228.75V347.16H234.199C234.199 346.229 233.978 345.516 233.535 345.021C233.092 344.52 232.48 344.27 231.699 344.27C230.82 344.27 230.137 344.569 229.648 345.168C229.167 345.767 228.926 346.613 228.926 347.707C228.926 348.905 229.258 349.816 229.922 350.441C230.592 351.066 231.543 351.379 232.773 351.379C233.203 351.379 233.626 351.356 234.043 351.311C234.46 351.258 234.883 351.19 235.312 351.105L235.566 352.922C234.954 353.039 234.395 353.114 233.887 353.146C233.379 353.179 232.93 353.195 232.539 353.195ZM245.508 353V346.262C245.508 345.637 245.345 345.155 245.02 344.816C244.694 344.478 244.238 344.309 243.652 344.309C242.025 344.309 241.211 345.266 241.211 347.18L240.605 344.523H241.406C241.465 343.827 241.719 343.309 242.168 342.971C242.617 342.626 243.275 342.453 244.141 342.453C245.234 342.453 246.081 342.785 246.68 343.449C247.279 344.113 247.578 345.051 247.578 346.262V353H245.508ZM239.141 353V342.648H241.016L241.211 344.836V353H239.141ZM252.246 349.074V347.219H253.418C254.277 347.219 254.984 347.072 255.537 346.779C256.09 346.48 256.523 345.995 256.836 345.324C257.155 344.654 257.389 343.762 257.539 342.648H259.688C259.414 344.803 258.799 346.415 257.842 347.482C256.891 348.544 255.579 349.074 253.906 349.074H252.246ZM250.781 353V338.352H252.852V353H250.781ZM257.793 353L254.844 347.961L256.797 347.16L260.352 353H257.793ZM279.414 353.195C277.65 353.195 276.286 352.733 275.322 351.809C274.365 350.878 273.887 349.543 273.887 347.805C273.887 346.112 274.294 344.797 275.107 343.859C275.921 342.922 277.07 342.453 278.555 342.453C279.954 342.453 281.035 342.876 281.797 343.723C282.565 344.569 282.949 345.799 282.949 347.414C282.949 347.889 282.93 348.332 282.891 348.742H275.625V347.16H281.074C281.074 346.229 280.853 345.516 280.41 345.021C279.967 344.52 279.355 344.27 278.574 344.27C277.695 344.27 277.012 344.569 276.523 345.168C276.042 345.767 275.801 346.613 275.801 347.707C275.801 348.905 276.133 349.816 276.797 350.441C277.467 351.066 278.418 351.379 279.648 351.379C280.078 351.379 280.501 351.356 280.918 351.311C281.335 351.258 281.758 351.19 282.188 351.105L282.441 352.922C281.829 353.039 281.27 353.114 280.762 353.146C280.254 353.179 279.805 353.195 279.414 353.195ZM291.133 353.195C289.368 353.195 288.005 352.733 287.041 351.809C286.084 350.878 285.605 349.543 285.605 347.805C285.605 346.112 286.012 344.797 286.826 343.859C287.64 342.922 288.789 342.453 290.273 342.453C291.673 342.453 292.754 342.876 293.516 343.723C294.284 344.569 294.668 345.799 294.668 347.414C294.668 347.889 294.648 348.332 294.609 348.742H287.344V347.16H292.793C292.793 346.229 292.572 345.516 292.129 345.021C291.686 344.52 291.074 344.27 290.293 344.27C289.414 344.27 288.73 344.569 288.242 345.168C287.76 345.767 287.52 346.613 287.52 347.707C287.52 348.905 287.852 349.816 288.516 350.441C289.186 351.066 290.137 351.379 291.367 351.379C291.797 351.379 292.22 351.356 292.637 351.311C293.053 351.258 293.477 351.19 293.906 351.105L294.16 352.922C293.548 353.039 292.988 353.114 292.48 353.146C291.973 353.179 291.523 353.195 291.133 353.195ZM304.102 353V346.262C304.102 345.637 303.939 345.155 303.613 344.816C303.288 344.478 302.832 344.309 302.246 344.309C300.618 344.309 299.805 345.266 299.805 347.18L299.199 344.523H300C300.059 343.827 300.312 343.309 300.762 342.971C301.211 342.626 301.868 342.453 302.734 342.453C303.828 342.453 304.674 342.785 305.273 343.449C305.872 344.113 306.172 345.051 306.172 346.262V353H304.102ZM297.734 353V342.648H299.609L299.805 344.836V353H297.734ZM56.7578 379.195C54.9935 379.195 53.6296 378.733 52.666 377.809C51.709 376.878 51.2305 375.543 51.2305 373.805C51.2305 372.112 51.6374 370.797 52.4512 369.859C53.265 368.922 54.4141 368.453 55.8984 368.453C57.2982 368.453 58.3789 368.876 59.1406 369.723C59.9089 370.569 60.293 371.799 60.293 373.414C60.293 373.889 60.2734 374.332 60.2344 374.742H52.9688V373.16H58.418C58.418 372.229 58.1966 371.516 57.7539 371.021C57.3112 370.52 56.6992 370.27 55.918 370.27C55.0391 370.27 54.3555 370.569 53.8672 371.168C53.3854 371.767 53.1445 372.613 53.1445 373.707C53.1445 374.905 53.4766 375.816 54.1406 376.441C54.8112 377.066 55.7617 377.379 56.9922 377.379C57.4219 377.379 57.8451 377.356 58.2617 377.311C58.6784 377.258 59.1016 377.19 59.5312 377.105L59.7852 378.922C59.1732 379.039 58.6133 379.114 58.1055 379.146C57.5977 379.179 57.1484 379.195 56.7578 379.195ZM67.2266 379V369.234H69.2969V379H67.2266ZM63.2812 379V377.184H67.4219V379H63.2812ZM69.1016 379V377.184H72.4805V379H69.1016ZM63.8672 370.465V368.648H69.2969V370.465H63.8672ZM68.1934 367.008C67.7962 367.008 67.4544 366.868 67.168 366.588C66.888 366.301 66.748 365.96 66.748 365.562C66.748 365.159 66.888 364.817 67.168 364.537C67.4544 364.257 67.7962 364.117 68.1934 364.117C68.597 364.117 68.9388 364.257 69.2188 364.537C69.4987 364.817 69.6387 365.159 69.6387 365.562C69.6387 365.96 69.4987 366.301 69.2188 366.588C68.9388 366.868 68.597 367.008 68.1934 367.008ZM75.2148 383.668L75.1172 381.773L78.4375 381.676C79.4857 381.643 80.2474 381.354 80.7227 380.807C81.1979 380.26 81.4388 379.456 81.4453 378.395V370.836L81.6406 368.648H83.5156V378.082C83.5156 379.924 83.0957 381.285 82.2559 382.164C81.416 383.043 80.0781 383.512 78.2422 383.57L75.2148 383.668ZM78.5059 379.195C77.1517 379.195 76.123 378.749 75.4199 377.857C74.7233 376.965 74.375 375.654 74.375 373.922C74.375 372.125 74.7233 370.764 75.4199 369.84C76.123 368.915 77.1517 368.453 78.5059 368.453C79.3132 368.453 79.9674 368.635 80.4688 369C80.9701 369.365 81.263 369.872 81.3477 370.523H82.1484L81.4453 373.473C81.4453 372.405 81.2337 371.594 80.8105 371.041C80.3939 370.488 79.7786 370.211 78.9648 370.211C78.1315 370.211 77.5 370.523 77.0703 371.148C76.6406 371.773 76.4258 372.698 76.4258 373.922C76.4258 375.081 76.6406 375.956 77.0703 376.549C77.5 377.141 78.1315 377.438 78.9648 377.438C79.7786 377.438 80.3939 377.161 80.8105 376.607C81.2337 376.054 81.4453 375.243 81.4453 374.176L82.1484 377.125H81.25C81.1849 377.776 80.9082 378.284 80.4199 378.648C79.9382 379.013 79.3001 379.195 78.5059 379.195ZM91.9141 379.195C90.1497 379.195 88.7858 378.733 87.8223 377.809C86.8652 376.878 86.3867 375.543 86.3867 373.805C86.3867 372.112 86.7936 370.797 87.6074 369.859C88.4212 368.922 89.5703 368.453 91.0547 368.453C92.4544 368.453 93.5352 368.876 94.2969 369.723C95.0651 370.569 95.4492 371.799 95.4492 373.414C95.4492 373.889 95.4297 374.332 95.3906 374.742H88.125V373.16H93.5742C93.5742 372.229 93.3529 371.516 92.9102 371.021C92.4674 370.52 91.8555 370.27 91.0742 370.27C90.1953 370.27 89.5117 370.569 89.0234 371.168C88.5417 371.767 88.3008 372.613 88.3008 373.707C88.3008 374.905 88.6328 375.816 89.2969 376.441C89.9674 377.066 90.918 377.379 92.1484 377.379C92.5781 377.379 93.0013 377.356 93.418 377.311C93.8346 377.258 94.2578 377.19 94.6875 377.105L94.9414 378.922C94.3294 379.039 93.7695 379.114 93.2617 379.146C92.7539 379.179 92.3047 379.195 91.9141 379.195ZM104.883 379V372.262C104.883 371.637 104.72 371.155 104.395 370.816C104.069 370.478 103.613 370.309 103.027 370.309C101.4 370.309 100.586 371.266 100.586 373.18L99.9805 370.523H100.781C100.84 369.827 101.094 369.309 101.543 368.971C101.992 368.626 102.65 368.453 103.516 368.453C104.609 368.453 105.456 368.785 106.055 369.449C106.654 370.113 106.953 371.051 106.953 372.262V379H104.883ZM98.5156 379V368.648H100.391L100.586 370.836V379H98.5156ZM127.168 379.195C125.404 379.195 124.04 378.733 123.076 377.809C122.119 376.878 121.641 375.543 121.641 373.805C121.641 372.112 122.093 370.797 122.998 369.859C123.91 368.922 125.208 368.453 126.895 368.453C127.904 368.453 128.766 368.642 129.482 369.02C130.205 369.391 130.719 369.918 131.025 370.602L129.434 371.803C129.141 371.327 128.766 370.96 128.311 370.699C127.855 370.439 127.357 370.309 126.816 370.309C125.84 370.309 125.081 370.605 124.541 371.197C124.001 371.783 123.73 372.62 123.73 373.707C123.73 374.885 124.046 375.787 124.678 376.412C125.316 377.031 126.224 377.34 127.402 377.34C127.884 377.34 128.366 377.317 128.848 377.271C129.329 377.226 129.798 377.164 130.254 377.086L130.488 378.902C129.954 379.02 129.401 379.098 128.828 379.137C128.262 379.176 127.708 379.195 127.168 379.195ZM137.188 374.547L136.582 371.305H137.383C137.5 369.404 138.451 368.453 140.234 368.453C141.302 368.453 142.077 368.759 142.559 369.371C143.04 369.983 143.281 370.973 143.281 372.34H141.23C141.23 371.585 141.117 371.041 140.889 370.709C140.667 370.377 140.306 370.211 139.805 370.211C138.926 370.211 138.268 370.589 137.832 371.344C137.402 372.092 137.188 373.16 137.188 374.547ZM132.812 379V377.184H139.727V379H132.812ZM135.117 379V368.648H136.797L137.188 371.617V379H135.117ZM133.203 370.465V368.648H136.66L136.855 370.465H133.203ZM150.508 379.195C148.743 379.195 147.38 378.733 146.416 377.809C145.459 376.878 144.98 375.543 144.98 373.805C144.98 372.112 145.387 370.797 146.201 369.859C147.015 368.922 148.164 368.453 149.648 368.453C151.048 368.453 152.129 368.876 152.891 369.723C153.659 370.569 154.043 371.799 154.043 373.414C154.043 373.889 154.023 374.332 153.984 374.742H146.719V373.16H152.168C152.168 372.229 151.947 371.516 151.504 371.021C151.061 370.52 150.449 370.27 149.668 370.27C148.789 370.27 148.105 370.569 147.617 371.168C147.135 371.767 146.895 372.613 146.895 373.707C146.895 374.905 147.227 375.816 147.891 376.441C148.561 377.066 149.512 377.379 150.742 377.379C151.172 377.379 151.595 377.356 152.012 377.311C152.428 377.258 152.852 377.19 153.281 377.105L153.535 378.922C152.923 379.039 152.363 379.114 151.855 379.146C151.348 379.179 150.898 379.195 150.508 379.195ZM163.457 379.098L163.32 376.031L163.047 375.172V372.496C163.047 371.806 162.803 371.301 162.314 370.982C161.833 370.657 161.113 370.481 160.156 370.455L157.676 370.387L157.871 368.551L159.961 368.58C161.673 368.606 162.943 368.977 163.77 369.693C164.603 370.403 165.02 371.441 165.02 372.809V377.125L166.777 377.34V379L163.457 379.098ZM159.805 379.195C158.724 379.195 157.887 378.935 157.295 378.414C156.702 377.893 156.406 377.158 156.406 376.207C156.406 375.113 156.813 374.273 157.627 373.688C158.447 373.102 159.603 372.809 161.094 372.809C161.712 372.809 162.262 372.848 162.744 372.926C163.232 372.997 163.665 373.108 164.043 373.258L163.613 374.664C163.177 374.566 162.751 374.511 162.334 374.498C161.917 374.479 161.491 374.469 161.055 374.469C159.258 374.469 158.359 375.016 158.359 376.109C158.359 376.565 158.512 376.917 158.818 377.164C159.131 377.411 159.57 377.535 160.137 377.535C160.781 377.535 161.318 377.424 161.748 377.203C162.184 376.982 162.51 376.699 162.725 376.354C162.939 376.008 163.047 375.654 163.047 375.289V374.156L163.652 376.812H162.832L163.164 376.5C163.164 377.099 163.024 377.6 162.744 378.004C162.471 378.401 162.083 378.701 161.582 378.902C161.081 379.098 160.488 379.195 159.805 379.195ZM174.922 379.195C173.353 379.195 172.217 378.87 171.514 378.219C170.817 377.568 170.469 376.526 170.469 375.094V373.336H172.539V374.996C172.539 375.816 172.738 376.412 173.135 376.783C173.538 377.154 174.199 377.34 175.117 377.34C175.443 377.34 175.788 377.324 176.152 377.291C176.517 377.252 176.934 377.203 177.402 377.145L177.637 378.961C177.181 379.039 176.735 379.098 176.299 379.137C175.869 379.176 175.41 379.195 174.922 379.195ZM170.469 374.117V365.523H172.539V374.117H170.469ZM167.871 370.465V368.648H177.246V370.465H167.871ZM184.414 379V369.234H186.484V379H184.414ZM180.469 379V377.184H184.609V379H180.469ZM186.289 379V377.184H189.668V379H186.289ZM181.055 370.465V368.648H186.484V370.465H181.055ZM185.381 367.008C184.984 367.008 184.642 366.868 184.355 366.588C184.076 366.301 183.936 365.96 183.936 365.562C183.936 365.159 184.076 364.817 184.355 364.537C184.642 364.257 184.984 364.117 185.381 364.117C185.785 364.117 186.126 364.257 186.406 364.537C186.686 364.817 186.826 365.159 186.826 365.562C186.826 365.96 186.686 366.301 186.406 366.588C186.126 366.868 185.785 367.008 185.381 367.008ZM197.383 379.195C195.618 379.195 194.255 378.733 193.291 377.809C192.334 376.878 191.855 375.543 191.855 373.805C191.855 372.112 192.262 370.797 193.076 369.859C193.89 368.922 195.039 368.453 196.523 368.453C197.923 368.453 199.004 368.876 199.766 369.723C200.534 370.569 200.918 371.799 200.918 373.414C200.918 373.889 200.898 374.332 200.859 374.742H193.594V373.16H199.043C199.043 372.229 198.822 371.516 198.379 371.021C197.936 370.52 197.324 370.27 196.543 370.27C195.664 370.27 194.98 370.569 194.492 371.168C194.01 371.767 193.77 372.613 193.77 373.707C193.77 374.905 194.102 375.816 194.766 376.441C195.436 377.066 196.387 377.379 197.617 377.379C198.047 377.379 198.47 377.356 198.887 377.311C199.303 377.258 199.727 377.19 200.156 377.105L200.41 378.922C199.798 379.039 199.238 379.114 198.73 379.146C198.223 379.179 197.773 379.195 197.383 379.195ZM206.27 379V369.527C206.27 365.947 207.904 364.156 211.172 364.156C211.914 364.156 212.63 364.221 213.32 364.352L213.105 366.148C212.695 366.096 212.334 366.061 212.021 366.041C211.709 366.021 211.406 366.012 211.113 366.012C209.264 366.012 208.34 367.151 208.34 369.43V379H206.27ZM203.008 372.75V370.934H212.578V372.75H203.008ZM231.641 379.195C230.208 379.195 229.095 378.727 228.301 377.789C227.507 376.852 227.109 375.53 227.109 373.824C227.109 372.112 227.507 370.79 228.301 369.859C229.095 368.922 230.208 368.453 231.641 368.453C233.079 368.453 234.193 368.922 234.98 369.859C235.775 370.79 236.172 372.112 236.172 373.824C236.172 375.53 235.775 376.852 234.98 377.789C234.193 378.727 233.079 379.195 231.641 379.195ZM231.641 377.34C232.402 377.34 232.988 377.034 233.398 376.422C233.815 375.81 234.023 374.944 234.023 373.824C234.023 372.698 233.815 371.832 233.398 371.227C232.988 370.615 232.402 370.309 231.641 370.309C230.879 370.309 230.29 370.615 229.873 371.227C229.463 371.832 229.258 372.698 229.258 373.824C229.258 374.944 229.463 375.81 229.873 376.422C230.29 377.034 230.879 377.34 231.641 377.34ZM245.508 379V372.262C245.508 371.637 245.345 371.155 245.02 370.816C244.694 370.478 244.238 370.309 243.652 370.309C242.025 370.309 241.211 371.266 241.211 373.18L240.605 370.523H241.406C241.465 369.827 241.719 369.309 242.168 368.971C242.617 368.626 243.275 368.453 244.141 368.453C245.234 368.453 246.081 368.785 246.68 369.449C247.279 370.113 247.578 371.051 247.578 372.262V379H245.508ZM239.141 379V368.648H241.016L241.211 370.836V379H239.141ZM256.953 379.195C255.384 379.195 254.248 378.87 253.545 378.219C252.848 377.568 252.5 376.526 252.5 375.094V373.336H254.57V374.996C254.57 375.816 254.769 376.412 255.166 376.783C255.57 377.154 256.23 377.34 257.148 377.34C257.474 377.34 257.819 377.324 258.184 377.291C258.548 377.252 258.965 377.203 259.434 377.145L259.668 378.961C259.212 379.039 258.766 379.098 258.33 379.137C257.9 379.176 257.441 379.195 256.953 379.195ZM252.5 374.117V365.523H254.57V374.117H252.5ZM249.902 370.465V368.648H259.277V370.465H249.902ZM267.969 379L266.758 370.777H266.602L265.752 368.648H267.646L268.867 377.438H269.043L269.922 368.648H271.973L270.508 379H267.969ZM262.793 379L261.621 368.648H263.574L264.355 377.438H264.531L265.752 368.648H267.646L266.777 370.777H266.641L265.43 379H262.793ZM279.414 379.195C277.65 379.195 276.286 378.733 275.322 377.809C274.365 376.878 273.887 375.543 273.887 373.805C273.887 372.112 274.294 370.797 275.107 369.859C275.921 368.922 277.07 368.453 278.555 368.453C279.954 368.453 281.035 368.876 281.797 369.723C282.565 370.569 282.949 371.799 282.949 373.414C282.949 373.889 282.93 374.332 282.891 374.742H275.625V373.16H281.074C281.074 372.229 280.853 371.516 280.41 371.021C279.967 370.52 279.355 370.27 278.574 370.27C277.695 370.27 277.012 370.569 276.523 371.168C276.042 371.767 275.801 372.613 275.801 373.707C275.801 374.905 276.133 375.816 276.797 376.441C277.467 377.066 278.418 377.379 279.648 377.379C280.078 377.379 280.501 377.356 280.918 377.311C281.335 377.258 281.758 377.19 282.188 377.105L282.441 378.922C281.829 379.039 281.27 379.114 280.762 379.146C280.254 379.179 279.805 379.195 279.414 379.195ZM289.531 374.547L288.926 371.305H289.727C289.844 369.404 290.794 368.453 292.578 368.453C293.646 368.453 294.421 368.759 294.902 369.371C295.384 369.983 295.625 370.973 295.625 372.34H293.574C293.574 371.585 293.46 371.041 293.232 370.709C293.011 370.377 292.65 370.211 292.148 370.211C291.27 370.211 290.612 370.589 290.176 371.344C289.746 372.092 289.531 373.16 289.531 374.547ZM285.156 379V377.184H292.07V379H285.156ZM287.461 379V368.648H289.141L289.531 371.617V379H287.461ZM285.547 370.465V368.648H289.004L289.199 370.465H285.547ZM297.734 383.492V368.648H299.609L299.805 370.836V383.492H297.734ZM302.744 379.195C301.95 379.195 301.309 379.013 300.82 378.648C300.339 378.284 300.065 377.776 300 377.125H299.102L299.805 374.176C299.805 375.243 300.013 376.054 300.43 376.607C300.853 377.161 301.471 377.438 302.285 377.438C303.118 377.438 303.75 377.141 304.18 376.549C304.609 375.956 304.824 375.081 304.824 373.922C304.824 372.698 304.609 371.773 304.18 371.148C303.75 370.523 303.118 370.211 302.285 370.211C301.471 370.211 300.853 370.488 300.43 371.041C300.013 371.594 299.805 372.405 299.805 373.473L299.102 370.523H299.902C299.993 369.872 300.286 369.365 300.781 369C301.283 368.635 301.937 368.453 302.744 368.453C304.105 368.453 305.133 368.915 305.83 369.84C306.527 370.764 306.875 372.125 306.875 373.922C306.875 375.654 306.527 376.965 305.83 377.857C305.133 378.749 304.105 379.195 302.744 379.195ZM325.391 379.195C323.958 379.195 322.845 378.727 322.051 377.789C321.257 376.852 320.859 375.53 320.859 373.824C320.859 372.112 321.257 370.79 322.051 369.859C322.845 368.922 323.958 368.453 325.391 368.453C326.829 368.453 327.943 368.922 328.73 369.859C329.525 370.79 329.922 372.112 329.922 373.824C329.922 375.53 329.525 376.852 328.73 377.789C327.943 378.727 326.829 379.195 325.391 379.195ZM325.391 377.34C326.152 377.34 326.738 377.034 327.148 376.422C327.565 375.81 327.773 374.944 327.773 373.824C327.773 372.698 327.565 371.832 327.148 371.227C326.738 370.615 326.152 370.309 325.391 370.309C324.629 370.309 324.04 370.615 323.623 371.227C323.213 371.832 323.008 372.698 323.008 373.824C323.008 374.944 323.213 375.81 323.623 376.422C324.04 377.034 324.629 377.34 325.391 377.34ZM339.805 379V371.09C339.805 370.374 339.538 370.016 339.004 370.016C338.327 370.016 337.988 370.484 337.988 371.422L337.285 369.938H338.086C338.118 369.534 338.278 369.186 338.564 368.893C338.857 368.6 339.277 368.453 339.824 368.453C340.54 368.453 341.061 368.645 341.387 369.029C341.712 369.413 341.875 370.035 341.875 370.895V379H339.805ZM332.344 379V368.648H334.18L334.414 370.836V379H332.344ZM336.23 379V370.895C336.23 370.309 335.957 370.016 335.41 370.016C334.746 370.016 334.414 370.484 334.414 371.422L333.809 369.938H334.473C334.551 368.948 335.143 368.453 336.25 368.453C336.79 368.453 337.214 368.639 337.52 369.01C337.832 369.381 337.988 369.944 337.988 370.699V379H336.23ZM57.7344 405.195C56.1654 405.195 55.0293 404.87 54.3262 404.219C53.6296 403.568 53.2812 402.526 53.2812 401.094V399.336H55.3516V400.996C55.3516 401.816 55.5501 402.412 55.9473 402.783C56.3509 403.154 57.0117 403.34 57.9297 403.34C58.2552 403.34 58.6003 403.324 58.9648 403.291C59.3294 403.252 59.7461 403.203 60.2148 403.145L60.4492 404.961C59.9935 405.039 59.5475 405.098 59.1113 405.137C58.6816 405.176 58.2227 405.195 57.7344 405.195ZM53.2812 400.117V391.523H55.3516V400.117H53.2812ZM50.6836 396.465V394.648H60.0586V396.465H50.6836ZM68.4766 405.195C66.7122 405.195 65.3483 404.733 64.3848 403.809C63.4277 402.878 62.9492 401.543 62.9492 399.805C62.9492 398.112 63.3561 396.797 64.1699 395.859C64.9837 394.922 66.1328 394.453 67.6172 394.453C69.0169 394.453 70.0977 394.876 70.8594 395.723C71.6276 396.569 72.0117 397.799 72.0117 399.414C72.0117 399.889 71.9922 400.332 71.9531 400.742H64.6875V399.16H70.1367C70.1367 398.229 69.9154 397.516 69.4727 397.021C69.0299 396.52 68.418 396.27 67.6367 396.27C66.7578 396.27 66.0742 396.569 65.5859 397.168C65.1042 397.767 64.8633 398.613 64.8633 399.707C64.8633 400.905 65.1953 401.816 65.8594 402.441C66.5299 403.066 67.4805 403.379 68.7109 403.379C69.1406 403.379 69.5638 403.356 69.9805 403.311C70.3971 403.258 70.8203 403.19 71.25 403.105L71.5039 404.922C70.8919 405.039 70.332 405.114 69.8242 405.146C69.3164 405.179 68.8672 405.195 68.4766 405.195ZM93.7109 405V397.09C93.7109 396.374 93.444 396.016 92.9102 396.016C92.2331 396.016 91.8945 396.484 91.8945 397.422L91.1914 395.938H91.9922C92.0247 395.534 92.1842 395.186 92.4707 394.893C92.7637 394.6 93.1836 394.453 93.7305 394.453C94.4466 394.453 94.9674 394.645 95.293 395.029C95.6185 395.413 95.7812 396.035 95.7812 396.895V405H93.7109ZM86.25 405V394.648H88.0859L88.3203 396.836V405H86.25ZM90.1367 405V396.895C90.1367 396.309 89.8633 396.016 89.3164 396.016C88.6523 396.016 88.3203 396.484 88.3203 397.422L87.7148 395.938H88.3789C88.457 394.948 89.0495 394.453 90.1562 394.453C90.6966 394.453 91.1198 394.639 91.4258 395.01C91.7383 395.381 91.8945 395.944 91.8945 396.699V405H90.1367ZM104.863 405.098L104.727 402.031L104.453 401.172V398.496C104.453 397.806 104.209 397.301 103.721 396.982C103.239 396.657 102.52 396.481 101.562 396.455L99.082 396.387L99.2773 394.551L101.367 394.58C103.079 394.606 104.349 394.977 105.176 395.693C106.009 396.403 106.426 397.441 106.426 398.809V403.125L108.184 403.34V405L104.863 405.098ZM101.211 405.195C100.13 405.195 99.2936 404.935 98.7012 404.414C98.1087 403.893 97.8125 403.158 97.8125 402.207C97.8125 401.113 98.2194 400.273 99.0332 399.688C99.8535 399.102 101.009 398.809 102.5 398.809C103.118 398.809 103.669 398.848 104.15 398.926C104.639 398.997 105.072 399.108 105.449 399.258L105.02 400.664C104.583 400.566 104.157 400.511 103.74 400.498C103.324 400.479 102.897 400.469 102.461 400.469C100.664 400.469 99.7656 401.016 99.7656 402.109C99.7656 402.565 99.9186 402.917 100.225 403.164C100.537 403.411 100.977 403.535 101.543 403.535C102.188 403.535 102.725 403.424 103.154 403.203C103.59 402.982 103.916 402.699 104.131 402.354C104.346 402.008 104.453 401.654 104.453 401.289V400.156L105.059 402.812H104.238L104.57 402.5C104.57 403.099 104.43 403.6 104.15 404.004C103.877 404.401 103.49 404.701 102.988 404.902C102.487 405.098 101.895 405.195 101.211 405.195ZM111.621 401.074V399.219H112.793C113.652 399.219 114.359 399.072 114.912 398.779C115.465 398.48 115.898 397.995 116.211 397.324C116.53 396.654 116.764 395.762 116.914 394.648H119.062C118.789 396.803 118.174 398.415 117.217 399.482C116.266 400.544 114.954 401.074 113.281 401.074H111.621ZM110.156 405V390.352H112.227V405H110.156ZM117.168 405L114.219 399.961L116.172 399.16L119.727 405H117.168ZM127.07 405.195C125.306 405.195 123.942 404.733 122.979 403.809C122.021 402.878 121.543 401.543 121.543 399.805C121.543 398.112 121.95 396.797 122.764 395.859C123.577 394.922 124.727 394.453 126.211 394.453C127.611 394.453 128.691 394.876 129.453 395.723C130.221 396.569 130.605 397.799 130.605 399.414C130.605 399.889 130.586 400.332 130.547 400.742H123.281V399.16H128.73C128.73 398.229 128.509 397.516 128.066 397.021C127.624 396.52 127.012 396.27 126.23 396.27C125.352 396.27 124.668 396.569 124.18 397.168C123.698 397.767 123.457 398.613 123.457 399.707C123.457 400.905 123.789 401.816 124.453 402.441C125.124 403.066 126.074 403.379 127.305 403.379C127.734 403.379 128.158 403.356 128.574 403.311C128.991 403.258 129.414 403.19 129.844 403.105L130.098 404.922C129.486 405.039 128.926 405.114 128.418 405.146C127.91 405.179 127.461 405.195 127.07 405.195ZM140.039 405V398.262C140.039 397.637 139.876 397.155 139.551 396.816C139.225 396.478 138.77 396.309 138.184 396.309C136.556 396.309 135.742 397.266 135.742 399.18L135.137 396.523H135.938C135.996 395.827 136.25 395.309 136.699 394.971C137.148 394.626 137.806 394.453 138.672 394.453C139.766 394.453 140.612 394.785 141.211 395.449C141.81 396.113 142.109 397.051 142.109 398.262V405H140.039ZM133.672 405V394.648H135.547L135.742 396.836V405H133.672ZM160.977 405V395.234H163.047V405H160.977ZM157.031 405V403.184H161.172V405H157.031ZM162.852 405V403.184H166.23V405H162.852ZM157.617 396.465V394.648H163.047V396.465H157.617ZM161.943 393.008C161.546 393.008 161.204 392.868 160.918 392.588C160.638 392.301 160.498 391.96 160.498 391.562C160.498 391.159 160.638 390.817 160.918 390.537C161.204 390.257 161.546 390.117 161.943 390.117C162.347 390.117 162.689 390.257 162.969 390.537C163.249 390.817 163.389 391.159 163.389 391.562C163.389 391.96 163.249 392.301 162.969 392.588C162.689 392.868 162.347 393.008 161.943 393.008ZM175.195 405V398.262C175.195 397.637 175.033 397.155 174.707 396.816C174.382 396.478 173.926 396.309 173.34 396.309C171.712 396.309 170.898 397.266 170.898 399.18L170.293 396.523H171.094C171.152 395.827 171.406 395.309 171.855 394.971C172.305 394.626 172.962 394.453 173.828 394.453C174.922 394.453 175.768 394.785 176.367 395.449C176.966 396.113 177.266 397.051 177.266 398.262V405H175.195ZM168.828 405V394.648H170.703L170.898 396.836V405H168.828ZM193.984 400.703V398.848H196.27C197.337 398.848 198.145 398.584 198.691 398.057C199.238 397.523 199.512 396.745 199.512 395.723C199.512 394.824 199.238 394.144 198.691 393.682C198.145 393.219 197.337 392.988 196.27 392.988H194.023V391.133H196.27C198.008 391.133 199.323 391.52 200.215 392.295C201.113 393.07 201.562 394.212 201.562 395.723C201.562 397.357 201.113 398.597 200.215 399.443C199.323 400.283 198.008 400.703 196.27 400.703H193.984ZM192.188 405V391.133H194.219V405H192.188ZM208.34 405.195C206.842 405.195 205.684 404.84 204.863 404.131C204.043 403.415 203.633 402.409 203.633 401.113H205.723C205.723 401.836 205.951 402.399 206.406 402.803C206.862 403.2 207.513 403.398 208.359 403.398C209.193 403.398 209.837 403.148 210.293 402.646C210.749 402.145 210.977 401.439 210.977 400.527C210.977 399.635 210.729 398.945 210.234 398.457C209.74 397.962 209.036 397.715 208.125 397.715C207.214 397.715 206.361 397.93 205.566 398.359L205.742 396.699C206.257 396.406 206.768 396.211 207.275 396.113C207.783 396.009 208.294 395.957 208.809 395.957C210.15 395.957 211.188 396.354 211.924 397.148C212.66 397.943 213.027 399.069 213.027 400.527C213.027 401.517 212.842 402.36 212.471 403.057C212.106 403.753 211.576 404.284 210.879 404.648C210.182 405.013 209.336 405.195 208.34 405.195ZM204.473 398.359L204.668 391.133H206.758L206.562 397.148L205.566 398.359H204.473ZM205.605 392.949L205.43 391.133H212.148V392.949H205.605ZM219.922 405.195C219.525 405.195 219.183 405.055 218.896 404.775C218.617 404.489 218.477 404.147 218.477 403.75C218.477 403.346 218.617 403.005 218.896 402.725C219.183 402.445 219.525 402.305 219.922 402.305C220.326 402.305 220.667 402.445 220.947 402.725C221.227 403.005 221.367 403.346 221.367 403.75C221.367 404.147 221.227 404.489 220.947 404.775C220.667 405.055 220.326 405.195 219.922 405.195ZM227.539 409.688L227.441 407.852L229.395 407.676C230.443 407.585 231.201 407.279 231.67 406.758C232.145 406.243 232.383 405.456 232.383 404.395V401.25H234.453V404.082C234.453 405.312 234.271 406.315 233.906 407.09C233.542 407.865 232.972 408.447 232.197 408.838C231.423 409.235 230.423 409.479 229.199 409.57L227.539 409.688ZM228.359 396.465V394.648H232.539V396.465H228.359ZM232.383 401.582V394.648H234.453V401.582H232.383ZM233.203 393.008C232.806 393.008 232.464 392.868 232.178 392.588C231.898 392.301 231.758 391.96 231.758 391.562C231.758 391.159 231.898 390.817 232.178 390.537C232.464 390.257 232.806 390.117 233.203 390.117C233.607 390.117 233.949 390.257 234.229 390.537C234.508 390.817 234.648 391.159 234.648 391.562C234.648 391.96 234.508 392.301 234.229 392.588C233.949 392.868 233.607 393.008 233.203 393.008ZM242.559 405.195C241.777 405.195 241.107 405.173 240.547 405.127C239.993 405.081 239.486 405.007 239.023 404.902L239.258 403.027C239.941 403.132 240.544 403.21 241.064 403.262C241.592 403.314 242.09 403.34 242.559 403.34C243.607 403.34 244.365 403.239 244.834 403.037C245.309 402.829 245.547 402.5 245.547 402.051C245.547 401.738 245.462 401.507 245.293 401.357C245.13 401.201 244.876 401.081 244.531 400.996L242.148 400.391C241.126 400.13 240.374 399.808 239.893 399.424C239.417 399.04 239.18 398.457 239.18 397.676C239.18 396.543 239.613 395.723 240.479 395.215C241.351 394.707 242.754 394.453 244.688 394.453C245.189 394.453 245.654 394.469 246.084 394.502C246.52 394.528 246.966 394.577 247.422 394.648L247.207 396.445C246.68 396.393 246.214 396.357 245.811 396.338C245.407 396.318 245.013 396.309 244.629 396.309C243.47 396.309 242.63 396.41 242.109 396.611C241.589 396.807 241.328 397.129 241.328 397.578C241.328 397.878 241.436 398.096 241.65 398.232C241.865 398.363 242.194 398.483 242.637 398.594L244.551 399.062C245.638 399.323 246.432 399.671 246.934 400.107C247.441 400.544 247.695 401.178 247.695 402.012C247.695 403.125 247.288 403.936 246.475 404.443C245.661 404.945 244.355 405.195 242.559 405.195ZM255.078 405.195C254.681 405.195 254.339 405.055 254.053 404.775C253.773 404.489 253.633 404.147 253.633 403.75C253.633 403.346 253.773 403.005 254.053 402.725C254.339 402.445 254.681 402.305 255.078 402.305C255.482 402.305 255.824 402.445 256.104 402.725C256.383 403.005 256.523 403.346 256.523 403.75C256.523 404.147 256.383 404.489 256.104 404.775C255.824 405.055 255.482 405.195 255.078 405.195ZM277.002 405L273.096 391.133H275.186L278.428 403.34H278.604L281.846 391.133H283.936L280.029 405H277.002ZM291.133 405.195C289.368 405.195 288.005 404.733 287.041 403.809C286.084 402.878 285.605 401.543 285.605 399.805C285.605 398.112 286.012 396.797 286.826 395.859C287.64 394.922 288.789 394.453 290.273 394.453C291.673 394.453 292.754 394.876 293.516 395.723C294.284 396.569 294.668 397.799 294.668 399.414C294.668 399.889 294.648 400.332 294.609 400.742H287.344V399.16H292.793C292.793 398.229 292.572 397.516 292.129 397.021C291.686 396.52 291.074 396.27 290.293 396.27C289.414 396.27 288.73 396.569 288.242 397.168C287.76 397.767 287.52 398.613 287.52 399.707C287.52 400.905 287.852 401.816 288.516 402.441C289.186 403.066 290.137 403.379 291.367 403.379C291.797 403.379 292.22 403.356 292.637 403.311C293.053 403.258 293.477 403.19 293.906 403.105L294.16 404.922C293.548 405.039 292.988 405.114 292.48 405.146C291.973 405.179 291.523 405.195 291.133 405.195ZM301.25 400.547L300.645 397.305H301.445C301.562 395.404 302.513 394.453 304.297 394.453C305.365 394.453 306.139 394.759 306.621 395.371C307.103 395.983 307.344 396.973 307.344 398.34H305.293C305.293 397.585 305.179 397.041 304.951 396.709C304.73 396.377 304.368 396.211 303.867 396.211C302.988 396.211 302.331 396.589 301.895 397.344C301.465 398.092 301.25 399.16 301.25 400.547ZM296.875 405V403.184H303.789V405H296.875ZM299.18 405V394.648H300.859L301.25 397.617V405H299.18ZM297.266 396.465V394.648H300.723L300.918 396.465H297.266ZM312.881 405.195C311.527 405.195 310.498 404.749 309.795 403.857C309.098 402.965 308.75 401.654 308.75 399.922C308.75 398.125 309.098 396.764 309.795 395.84C310.498 394.915 311.527 394.453 312.881 394.453C313.656 394.453 314.284 394.635 314.766 395C315.254 395.365 315.54 395.872 315.625 396.523H316.426L315.82 399.473C315.82 398.405 315.609 397.594 315.186 397.041C314.769 396.488 314.154 396.211 313.34 396.211C312.507 396.211 311.875 396.523 311.445 397.148C311.016 397.773 310.801 398.698 310.801 399.922C310.801 401.081 311.016 401.956 311.445 402.549C311.875 403.141 312.507 403.438 313.34 403.438C314.154 403.438 314.769 403.161 315.186 402.607C315.609 402.054 315.82 401.243 315.82 400.176L316.523 403.125H315.625C315.56 403.776 315.283 404.284 314.795 404.648C314.313 405.013 313.675 405.195 312.881 405.195ZM316.035 405.098L315.82 403.066V390.352H317.891V405L316.035 405.098ZM325.039 405V395.234H327.109V405H325.039ZM321.094 405V403.184H325.234V405H321.094ZM326.914 405V403.184H330.293V405H326.914ZM321.68 396.465V394.648H327.109V396.465H321.68ZM326.006 393.008C325.609 393.008 325.267 392.868 324.98 392.588C324.701 392.301 324.561 391.96 324.561 391.562C324.561 391.159 324.701 390.817 324.98 390.537C325.267 390.257 325.609 390.117 326.006 390.117C326.41 390.117 326.751 390.257 327.031 390.537C327.311 390.817 327.451 391.159 327.451 391.562C327.451 391.96 327.311 392.301 327.031 392.588C326.751 392.868 326.41 393.008 326.006 393.008ZM338.008 405.195C336.243 405.195 334.88 404.733 333.916 403.809C332.959 402.878 332.48 401.543 332.48 399.805C332.48 398.112 332.887 396.797 333.701 395.859C334.515 394.922 335.664 394.453 337.148 394.453C338.548 394.453 339.629 394.876 340.391 395.723C341.159 396.569 341.543 397.799 341.543 399.414C341.543 399.889 341.523 400.332 341.484 400.742H334.219V399.16H339.668C339.668 398.229 339.447 397.516 339.004 397.021C338.561 396.52 337.949 396.27 337.168 396.27C336.289 396.27 335.605 396.569 335.117 397.168C334.635 397.767 334.395 398.613 334.395 399.707C334.395 400.905 334.727 401.816 335.391 402.441C336.061 403.066 337.012 403.379 338.242 403.379C338.672 403.379 339.095 403.356 339.512 403.311C339.928 403.258 340.352 403.19 340.781 403.105L341.035 404.922C340.423 405.039 339.863 405.114 339.355 405.146C338.848 405.179 338.398 405.195 338.008 405.195ZM350.977 405V398.262C350.977 397.637 350.814 397.155 350.488 396.816C350.163 396.478 349.707 396.309 349.121 396.309C347.493 396.309 346.68 397.266 346.68 399.18L346.074 396.523H346.875C346.934 395.827 347.188 395.309 347.637 394.971C348.086 394.626 348.743 394.453 349.609 394.453C350.703 394.453 351.549 394.785 352.148 395.449C352.747 396.113 353.047 397.051 353.047 398.262V405H350.977ZM344.609 405V394.648H346.484L346.68 396.836V405H344.609ZM57.9883 431.098L57.8516 428.031L57.5781 427.172V424.496C57.5781 423.806 57.334 423.301 56.8457 422.982C56.3639 422.657 55.6445 422.481 54.6875 422.455L52.207 422.387L52.4023 420.551L54.4922 420.58C56.2044 420.606 57.474 420.977 58.3008 421.693C59.1341 422.403 59.5508 423.441 59.5508 424.809V429.125L61.3086 429.34V431L57.9883 431.098ZM54.3359 431.195C53.2552 431.195 52.4186 430.935 51.8262 430.414C51.2337 429.893 50.9375 429.158 50.9375 428.207C50.9375 427.113 51.3444 426.273 52.1582 425.688C52.9785 425.102 54.1341 424.809 55.625 424.809C56.2435 424.809 56.7936 424.848 57.2754 424.926C57.7637 424.997 58.1966 425.108 58.5742 425.258L58.1445 426.664C57.7083 426.566 57.2819 426.511 56.8652 426.498C56.4486 426.479 56.0221 426.469 55.5859 426.469C53.7891 426.469 52.8906 427.016 52.8906 428.109C52.8906 428.565 53.0436 428.917 53.3496 429.164C53.6621 429.411 54.1016 429.535 54.668 429.535C55.3125 429.535 55.8496 429.424 56.2793 429.203C56.7155 428.982 57.041 428.699 57.2559 428.354C57.4707 428.008 57.5781 427.654 57.5781 427.289V426.156L58.1836 428.812H57.3633L57.6953 428.5C57.6953 429.099 57.5553 429.6 57.2754 430.004C57.002 430.401 56.6146 430.701 56.1133 430.902C55.612 431.098 55.0195 431.195 54.3359 431.195ZM69.707 431.098L69.5703 428.031L69.2969 427.172V424.496C69.2969 423.806 69.0527 423.301 68.5645 422.982C68.0827 422.657 67.3633 422.481 66.4062 422.455L63.9258 422.387L64.1211 420.551L66.2109 420.58C67.9232 420.606 69.1927 420.977 70.0195 421.693C70.8529 422.403 71.2695 423.441 71.2695 424.809V429.125L73.0273 429.34V431L69.707 431.098ZM66.0547 431.195C64.974 431.195 64.1374 430.935 63.5449 430.414C62.9525 429.893 62.6562 429.158 62.6562 428.207C62.6562 427.113 63.0632 426.273 63.877 425.688C64.6973 425.102 65.8529 424.809 67.3438 424.809C67.9622 424.809 68.5124 424.848 68.9941 424.926C69.4824 424.997 69.9154 425.108 70.293 425.258L69.8633 426.664C69.4271 426.566 69.0007 426.511 68.584 426.498C68.1673 426.479 67.7409 426.469 67.3047 426.469C65.5078 426.469 64.6094 427.016 64.6094 428.109C64.6094 428.565 64.7624 428.917 65.0684 429.164C65.3809 429.411 65.8203 429.535 66.3867 429.535C67.0312 429.535 67.5684 429.424 67.998 429.203C68.4342 428.982 68.7598 428.699 68.9746 428.354C69.1895 428.008 69.2969 427.654 69.2969 427.289V426.156L69.9023 428.812H69.082L69.4141 428.5C69.4141 429.099 69.2741 429.6 68.9941 430.004C68.7207 430.401 68.3333 430.701 67.832 430.902C67.3307 431.098 66.7383 431.195 66.0547 431.195ZM81.4453 431V424.262C81.4453 423.637 81.2826 423.155 80.957 422.816C80.6315 422.478 80.1758 422.309 79.5898 422.309C77.9622 422.309 77.1484 423.266 77.1484 425.18L76.543 422.523H77.3438C77.4023 421.827 77.6562 421.309 78.1055 420.971C78.5547 420.626 79.2122 420.453 80.0781 420.453C81.1719 420.453 82.0182 420.785 82.6172 421.449C83.2161 422.113 83.5156 423.051 83.5156 424.262V431H81.4453ZM75.0781 431V420.648H76.9531L77.1484 422.836V431H75.0781ZM104.883 431V424.262C104.883 423.604 104.72 423.1 104.395 422.748C104.069 422.39 103.613 422.211 103.027 422.211C101.4 422.211 100.586 423.201 100.586 425.18L99.9805 422.523H100.781C100.84 421.827 101.094 421.309 101.543 420.971C101.992 420.626 102.65 420.453 103.516 420.453C104.609 420.453 105.456 420.785 106.055 421.449C106.654 422.113 106.953 423.051 106.953 424.262V431H104.883ZM98.5156 431V416.352H100.586V431H98.5156ZM115.352 431.195C113.587 431.195 112.223 430.733 111.26 429.809C110.303 428.878 109.824 427.543 109.824 425.805C109.824 424.112 110.231 422.797 111.045 421.859C111.859 420.922 113.008 420.453 114.492 420.453C115.892 420.453 116.973 420.876 117.734 421.723C118.503 422.569 118.887 423.799 118.887 425.414C118.887 425.889 118.867 426.332 118.828 426.742H111.562V425.16H117.012C117.012 424.229 116.79 423.516 116.348 423.021C115.905 422.52 115.293 422.27 114.512 422.27C113.633 422.27 112.949 422.569 112.461 423.168C111.979 423.767 111.738 424.613 111.738 425.707C111.738 426.905 112.07 427.816 112.734 428.441C113.405 429.066 114.355 429.379 115.586 429.379C116.016 429.379 116.439 429.356 116.855 429.311C117.272 429.258 117.695 429.19 118.125 429.105L118.379 430.922C117.767 431.039 117.207 431.114 116.699 431.146C116.191 431.179 115.742 431.195 115.352 431.195ZM128.047 431.195C126.478 431.195 125.342 430.87 124.639 430.219C123.942 429.568 123.594 428.526 123.594 427.094V425.336H125.664V426.996C125.664 427.816 125.863 428.412 126.26 428.783C126.663 429.154 127.324 429.34 128.242 429.34C128.568 429.34 128.913 429.324 129.277 429.291C129.642 429.252 130.059 429.203 130.527 429.145L130.762 430.961C130.306 431.039 129.86 431.098 129.424 431.137C128.994 431.176 128.535 431.195 128.047 431.195ZM123.594 426.117V417.523H125.664V426.117H123.594ZM120.996 422.465V420.648H130.371V422.465H120.996ZM150.508 431.195C148.743 431.195 147.38 430.733 146.416 429.809C145.459 428.878 144.98 427.543 144.98 425.805C144.98 424.112 145.387 422.797 146.201 421.859C147.015 420.922 148.164 420.453 149.648 420.453C151.048 420.453 152.129 420.876 152.891 421.723C153.659 422.569 154.043 423.799 154.043 425.414C154.043 425.889 154.023 426.332 153.984 426.742H146.719V425.16H152.168C152.168 424.229 151.947 423.516 151.504 423.021C151.061 422.52 150.449 422.27 149.668 422.27C148.789 422.27 148.105 422.569 147.617 423.168C147.135 423.767 146.895 424.613 146.895 425.707C146.895 426.905 147.227 427.816 147.891 428.441C148.561 429.066 149.512 429.379 150.742 429.379C151.172 429.379 151.595 429.356 152.012 429.311C152.428 429.258 152.852 429.19 153.281 429.105L153.535 430.922C152.923 431.039 152.363 431.114 151.855 431.146C151.348 431.179 150.898 431.195 150.508 431.195ZM160.977 431V421.234H163.047V431H160.977ZM157.031 431V429.184H161.172V431H157.031ZM162.852 431V429.184H166.23V431H162.852ZM157.617 422.465V420.648H163.047V422.465H157.617ZM161.943 419.008C161.546 419.008 161.204 418.868 160.918 418.588C160.638 418.301 160.498 417.96 160.498 417.562C160.498 417.159 160.638 416.817 160.918 416.537C161.204 416.257 161.546 416.117 161.943 416.117C162.347 416.117 162.689 416.257 162.969 416.537C163.249 416.817 163.389 417.159 163.389 417.562C163.389 417.96 163.249 418.301 162.969 418.588C162.689 418.868 162.347 419.008 161.943 419.008ZM175.195 431V424.262C175.195 423.637 175.033 423.155 174.707 422.816C174.382 422.478 173.926 422.309 173.34 422.309C171.712 422.309 170.898 423.266 170.898 425.18L170.293 422.523H171.094C171.152 421.827 171.406 421.309 171.855 420.971C172.305 420.626 172.962 420.453 173.828 420.453C174.922 420.453 175.768 420.785 176.367 421.449C176.966 422.113 177.266 423.051 177.266 424.262V431H175.195ZM168.828 431V420.648H170.703L170.898 422.836V431H168.828ZM183.975 431.195C182.62 431.195 181.592 430.749 180.889 429.857C180.192 428.965 179.844 427.654 179.844 425.922C179.844 424.125 180.192 422.764 180.889 421.84C181.592 420.915 182.62 420.453 183.975 420.453C184.749 420.453 185.378 420.635 185.859 421C186.348 421.365 186.634 421.872 186.719 422.523H187.52L186.914 425.473C186.914 424.405 186.702 423.594 186.279 423.041C185.863 422.488 185.247 422.211 184.434 422.211C183.6 422.211 182.969 422.523 182.539 423.148C182.109 423.773 181.895 424.698 181.895 425.922C181.895 427.081 182.109 427.956 182.539 428.549C182.969 429.141 183.6 429.438 184.434 429.438C185.247 429.438 185.863 429.161 186.279 428.607C186.702 428.054 186.914 427.243 186.914 426.176L187.617 429.125H186.719C186.654 429.776 186.377 430.284 185.889 430.648C185.407 431.013 184.769 431.195 183.975 431.195ZM187.129 431.098L186.914 429.066V416.352H188.984V431L187.129 431.098ZM197.383 431.195C195.618 431.195 194.255 430.733 193.291 429.809C192.334 428.878 191.855 427.543 191.855 425.805C191.855 424.112 192.262 422.797 193.076 421.859C193.89 420.922 195.039 420.453 196.523 420.453C197.923 420.453 199.004 420.876 199.766 421.723C200.534 422.569 200.918 423.799 200.918 425.414C200.918 425.889 200.898 426.332 200.859 426.742H193.594V425.16H199.043C199.043 424.229 198.822 423.516 198.379 423.021C197.936 422.52 197.324 422.27 196.543 422.27C195.664 422.27 194.98 422.569 194.492 423.168C194.01 423.767 193.77 424.613 193.77 425.707C193.77 426.905 194.102 427.816 194.766 428.441C195.436 429.066 196.387 429.379 197.617 429.379C198.047 429.379 198.47 429.356 198.887 429.311C199.303 429.258 199.727 429.19 200.156 429.105L200.41 430.922C199.798 431.039 199.238 431.114 198.73 431.146C198.223 431.179 197.773 431.195 197.383 431.195ZM218.545 431L214.844 420.648H217.051L219.834 429.242H220.01L222.793 420.648H225L221.299 431H218.545ZM233.77 431.098L233.633 428.031L233.359 427.172V424.496C233.359 423.806 233.115 423.301 232.627 422.982C232.145 422.657 231.426 422.481 230.469 422.455L227.988 422.387L228.184 420.551L230.273 420.58C231.986 420.606 233.255 420.977 234.082 421.693C234.915 422.403 235.332 423.441 235.332 424.809V429.125L237.09 429.34V431L233.77 431.098ZM230.117 431.195C229.036 431.195 228.2 430.935 227.607 430.414C227.015 429.893 226.719 429.158 226.719 428.207C226.719 427.113 227.126 426.273 227.939 425.688C228.76 425.102 229.915 424.809 231.406 424.809C232.025 424.809 232.575 424.848 233.057 424.926C233.545 424.997 233.978 425.108 234.355 425.258L233.926 426.664C233.49 426.566 233.063 426.511 232.646 426.498C232.23 426.479 231.803 426.469 231.367 426.469C229.57 426.469 228.672 427.016 228.672 428.109C228.672 428.565 228.825 428.917 229.131 429.164C229.443 429.411 229.883 429.535 230.449 429.535C231.094 429.535 231.631 429.424 232.061 429.203C232.497 428.982 232.822 428.699 233.037 428.354C233.252 428.008 233.359 427.654 233.359 427.289V426.156L233.965 428.812H233.145L233.477 428.5C233.477 429.099 233.337 429.6 233.057 430.004C232.783 430.401 232.396 430.701 231.895 430.902C231.393 431.098 230.801 431.195 230.117 431.195ZM245.508 431V424.262C245.508 423.637 245.345 423.155 245.02 422.816C244.694 422.478 244.238 422.309 243.652 422.309C242.025 422.309 241.211 423.266 241.211 425.18L240.605 422.523H241.406C241.465 421.827 241.719 421.309 242.168 420.971C242.617 420.626 243.275 420.453 244.141 420.453C245.234 420.453 246.081 420.785 246.68 421.449C247.279 422.113 247.578 423.051 247.578 424.262V431H245.508ZM239.141 431V420.648H241.016L241.211 422.836V431H239.141ZM266.006 431.195C264.652 431.195 263.623 430.749 262.92 429.857C262.223 428.965 261.875 427.654 261.875 425.922C261.875 424.125 262.223 422.764 262.92 421.84C263.623 420.915 264.652 420.453 266.006 420.453C266.781 420.453 267.409 420.635 267.891 421C268.379 421.365 268.665 421.872 268.75 422.523H269.551L268.945 425.473C268.945 424.405 268.734 423.594 268.311 423.041C267.894 422.488 267.279 422.211 266.465 422.211C265.632 422.211 265 422.523 264.57 423.148C264.141 423.773 263.926 424.698 263.926 425.922C263.926 427.081 264.141 427.956 264.57 428.549C265 429.141 265.632 429.438 266.465 429.438C267.279 429.438 267.894 429.161 268.311 428.607C268.734 428.054 268.945 427.243 268.945 426.176L269.648 429.125H268.75C268.685 429.776 268.408 430.284 267.92 430.648C267.438 431.013 266.8 431.195 266.006 431.195ZM269.16 431.098L268.945 429.066V416.352H271.016V431L269.16 431.098ZM279.414 431.195C277.65 431.195 276.286 430.733 275.322 429.809C274.365 428.878 273.887 427.543 273.887 425.805C273.887 424.112 274.294 422.797 275.107 421.859C275.921 420.922 277.07 420.453 278.555 420.453C279.954 420.453 281.035 420.876 281.797 421.723C282.565 422.569 282.949 423.799 282.949 425.414C282.949 425.889 282.93 426.332 282.891 426.742H275.625V425.16H281.074C281.074 424.229 280.853 423.516 280.41 423.021C279.967 422.52 279.355 422.27 278.574 422.27C277.695 422.27 277.012 422.569 276.523 423.168C276.042 423.767 275.801 424.613 275.801 425.707C275.801 426.905 276.133 427.816 276.797 428.441C277.467 429.066 278.418 429.379 279.648 429.379C280.078 429.379 280.501 429.356 280.918 429.311C281.335 429.258 281.758 429.19 282.188 429.105L282.441 430.922C281.829 431.039 281.27 431.114 280.762 431.146C280.254 431.179 279.805 431.195 279.414 431.195ZM57.0312 457L55.8203 448.777H55.6641L54.8145 446.648H56.709L57.9297 455.438H58.1055L58.9844 446.648H61.0352L59.5703 457H57.0312ZM51.8555 457L50.6836 446.648H52.6367L53.418 455.438H53.5938L54.8145 446.648H56.709L55.8398 448.777H55.7031L54.4922 457H51.8555ZM67.5781 457.195C66.1458 457.195 65.0326 456.727 64.2383 455.789C63.444 454.852 63.0469 453.53 63.0469 451.824C63.0469 450.112 63.444 448.79 64.2383 447.859C65.0326 446.922 66.1458 446.453 67.5781 446.453C69.0169 446.453 70.1302 446.922 70.918 447.859C71.7122 448.79 72.1094 450.112 72.1094 451.824C72.1094 453.53 71.7122 454.852 70.918 455.789C70.1302 456.727 69.0169 457.195 67.5781 457.195ZM67.5781 455.34C68.3398 455.34 68.9258 455.034 69.3359 454.422C69.7526 453.81 69.9609 452.944 69.9609 451.824C69.9609 450.698 69.7526 449.832 69.3359 449.227C68.9258 448.615 68.3398 448.309 67.5781 448.309C66.8164 448.309 66.2272 448.615 65.8105 449.227C65.4004 449.832 65.1953 450.698 65.1953 451.824C65.1953 452.944 65.4004 453.81 65.8105 454.422C66.2272 455.034 66.8164 455.34 67.5781 455.34ZM78.5938 452.547L77.9883 449.305H78.7891C78.9062 447.404 79.8568 446.453 81.6406 446.453C82.7083 446.453 83.4831 446.759 83.9648 447.371C84.4466 447.983 84.6875 448.973 84.6875 450.34H82.6367C82.6367 449.585 82.5228 449.041 82.2949 448.709C82.0736 448.377 81.7122 448.211 81.2109 448.211C80.332 448.211 79.6745 448.589 79.2383 449.344C78.8086 450.092 78.5938 451.16 78.5938 452.547ZM74.2188 457V455.184H81.1328V457H74.2188ZM76.5234 457V446.648H78.2031L78.5938 449.617V457H76.5234ZM74.6094 448.465V446.648H78.0664L78.2617 448.465H74.6094ZM88.1836 453.074V451.219H89.3555C90.2148 451.219 90.9212 451.072 91.4746 450.779C92.028 450.48 92.4609 449.995 92.7734 449.324C93.0924 448.654 93.3268 447.762 93.4766 446.648H95.625C95.3516 448.803 94.7363 450.415 93.7793 451.482C92.8288 452.544 91.5169 453.074 89.8438 453.074H88.1836ZM86.7188 457V442.352H88.7891V457H86.7188ZM93.7305 457L90.7812 451.961L92.7344 451.16L96.2891 457H93.7305ZM101.934 457.195C101.152 457.195 100.482 457.173 99.9219 457.127C99.3685 457.081 98.8607 457.007 98.3984 456.902L98.6328 455.027C99.3164 455.132 99.9186 455.21 100.439 455.262C100.967 455.314 101.465 455.34 101.934 455.34C102.982 455.34 103.74 455.239 104.209 455.037C104.684 454.829 104.922 454.5 104.922 454.051C104.922 453.738 104.837 453.507 104.668 453.357C104.505 453.201 104.251 453.081 103.906 452.996L101.523 452.391C100.501 452.13 99.7493 451.808 99.2676 451.424C98.7923 451.04 98.5547 450.457 98.5547 449.676C98.5547 448.543 98.9876 447.723 99.8535 447.215C100.726 446.707 102.129 446.453 104.062 446.453C104.564 446.453 105.029 446.469 105.459 446.502C105.895 446.528 106.341 446.577 106.797 446.648L106.582 448.445C106.055 448.393 105.589 448.357 105.186 448.338C104.782 448.318 104.388 448.309 104.004 448.309C102.845 448.309 102.005 448.41 101.484 448.611C100.964 448.807 100.703 449.129 100.703 449.578C100.703 449.878 100.811 450.096 101.025 450.232C101.24 450.363 101.569 450.483 102.012 450.594L103.926 451.062C105.013 451.323 105.807 451.671 106.309 452.107C106.816 452.544 107.07 453.178 107.07 454.012C107.07 455.125 106.663 455.936 105.85 456.443C105.036 456.945 103.73 457.195 101.934 457.195ZM116.602 457V450.262C116.602 449.604 116.439 449.1 116.113 448.748C115.788 448.39 115.332 448.211 114.746 448.211C113.118 448.211 112.305 449.201 112.305 451.18L111.699 448.523H112.5C112.559 447.827 112.812 447.309 113.262 446.971C113.711 446.626 114.368 446.453 115.234 446.453C116.328 446.453 117.174 446.785 117.773 447.449C118.372 448.113 118.672 449.051 118.672 450.262V457H116.602ZM110.234 457V442.352H112.305V457H110.234ZM126.172 457.195C124.74 457.195 123.626 456.727 122.832 455.789C122.038 454.852 121.641 453.53 121.641 451.824C121.641 450.112 122.038 448.79 122.832 447.859C123.626 446.922 124.74 446.453 126.172 446.453C127.611 446.453 128.724 446.922 129.512 447.859C130.306 448.79 130.703 450.112 130.703 451.824C130.703 453.53 130.306 454.852 129.512 455.789C128.724 456.727 127.611 457.195 126.172 457.195ZM126.172 455.34C126.934 455.34 127.52 455.034 127.93 454.422C128.346 453.81 128.555 452.944 128.555 451.824C128.555 450.698 128.346 449.832 127.93 449.227C127.52 448.615 126.934 448.309 126.172 448.309C125.41 448.309 124.821 448.615 124.404 449.227C123.994 449.832 123.789 450.698 123.789 451.824C123.789 452.944 123.994 453.81 124.404 454.422C124.821 455.034 125.41 455.34 126.172 455.34ZM133.672 461.492V446.648H135.547L135.742 448.836V461.492H133.672ZM138.682 457.195C137.887 457.195 137.246 457.013 136.758 456.648C136.276 456.284 136.003 455.776 135.938 455.125H135.039L135.742 452.176C135.742 453.243 135.951 454.054 136.367 454.607C136.79 455.161 137.409 455.438 138.223 455.438C139.056 455.438 139.688 455.141 140.117 454.549C140.547 453.956 140.762 453.081 140.762 451.922C140.762 450.698 140.547 449.773 140.117 449.148C139.688 448.523 139.056 448.211 138.223 448.211C137.409 448.211 136.79 448.488 136.367 449.041C135.951 449.594 135.742 450.405 135.742 451.473L135.039 448.523H135.84C135.931 447.872 136.224 447.365 136.719 447C137.22 446.635 137.874 446.453 138.682 446.453C140.042 446.453 141.071 446.915 141.768 447.84C142.464 448.764 142.812 450.125 142.812 451.922C142.812 453.654 142.464 454.965 141.768 455.857C141.071 456.749 140.042 457.195 138.682 457.195ZM162.227 457.195C160.462 457.195 159.098 456.733 158.135 455.809C157.178 454.878 156.699 453.543 156.699 451.805C156.699 450.112 157.106 448.797 157.92 447.859C158.734 446.922 159.883 446.453 161.367 446.453C162.767 446.453 163.848 446.876 164.609 447.723C165.378 448.569 165.762 449.799 165.762 451.414C165.762 451.889 165.742 452.332 165.703 452.742H158.438V451.16H163.887C163.887 450.229 163.665 449.516 163.223 449.021C162.78 448.52 162.168 448.27 161.387 448.27C160.508 448.27 159.824 448.569 159.336 449.168C158.854 449.767 158.613 450.613 158.613 451.707C158.613 452.905 158.945 453.816 159.609 454.441C160.28 455.066 161.23 455.379 162.461 455.379C162.891 455.379 163.314 455.356 163.73 455.311C164.147 455.258 164.57 455.19 165 455.105L165.254 456.922C164.642 457.039 164.082 457.114 163.574 457.146C163.066 457.179 162.617 457.195 162.227 457.195ZM173.945 457.195C172.181 457.195 170.817 456.733 169.854 455.809C168.896 454.878 168.418 453.543 168.418 451.805C168.418 450.112 168.825 448.797 169.639 447.859C170.452 446.922 171.602 446.453 173.086 446.453C174.486 446.453 175.566 446.876 176.328 447.723C177.096 448.569 177.48 449.799 177.48 451.414C177.48 451.889 177.461 452.332 177.422 452.742H170.156V451.16H175.605C175.605 450.229 175.384 449.516 174.941 449.021C174.499 448.52 173.887 448.27 173.105 448.27C172.227 448.27 171.543 448.569 171.055 449.168C170.573 449.767 170.332 450.613 170.332 451.707C170.332 452.905 170.664 453.816 171.328 454.441C171.999 455.066 172.949 455.379 174.18 455.379C174.609 455.379 175.033 455.356 175.449 455.311C175.866 455.258 176.289 455.19 176.719 455.105L176.973 456.922C176.361 457.039 175.801 457.114 175.293 457.146C174.785 457.179 174.336 457.195 173.945 457.195ZM186.914 457V450.262C186.914 449.637 186.751 449.155 186.426 448.816C186.1 448.478 185.645 448.309 185.059 448.309C183.431 448.309 182.617 449.266 182.617 451.18L182.012 448.523H182.812C182.871 447.827 183.125 447.309 183.574 446.971C184.023 446.626 184.681 446.453 185.547 446.453C186.641 446.453 187.487 446.785 188.086 447.449C188.685 448.113 188.984 449.051 188.984 450.262V457H186.914ZM180.547 457V446.648H182.422L182.617 448.836V457H180.547ZM207.871 451.336L208.164 449.09H208.281L209.785 443.133H211.172V445.594H210.605L209.102 451.336H207.871ZM203.594 457V443.133H205.547V457H203.594ZM207.305 451.336L205.801 445.594H205.234V443.133H206.621L208.125 449.09H208.203L208.398 451.336H207.305ZM210.859 457V443.133H212.812V457H210.859ZM219.57 457V447.234H221.641V457H219.57ZM215.625 457V455.184H219.766V457H215.625ZM221.445 457V455.184H224.824V457H221.445ZM216.211 448.465V446.648H221.641V448.465H216.211ZM220.537 445.008C220.14 445.008 219.798 444.868 219.512 444.588C219.232 444.301 219.092 443.96 219.092 443.562C219.092 443.159 219.232 442.817 219.512 442.537C219.798 442.257 220.14 442.117 220.537 442.117C220.941 442.117 221.283 442.257 221.562 442.537C221.842 442.817 221.982 443.159 221.982 443.562C221.982 443.96 221.842 444.301 221.562 444.588C221.283 444.868 220.941 445.008 220.537 445.008ZM233.789 457V450.262C233.789 449.637 233.626 449.155 233.301 448.816C232.975 448.478 232.52 448.309 231.934 448.309C230.306 448.309 229.492 449.266 229.492 451.18L228.887 448.523H229.688C229.746 447.827 230 447.309 230.449 446.971C230.898 446.626 231.556 446.453 232.422 446.453C233.516 446.453 234.362 446.785 234.961 447.449C235.56 448.113 235.859 449.051 235.859 450.262V457H233.789ZM227.422 457V446.648H229.297L229.492 448.836V457H227.422ZM243.008 457V447.234H245.078V457H243.008ZM239.062 457V455.184H243.203V457H239.062ZM244.883 457V455.184H248.262V457H244.883ZM239.648 448.465V446.648H245.078V448.465H239.648ZM243.975 445.008C243.577 445.008 243.236 444.868 242.949 444.588C242.669 444.301 242.529 443.96 242.529 443.562C242.529 443.159 242.669 442.817 242.949 442.537C243.236 442.257 243.577 442.117 243.975 442.117C244.378 442.117 244.72 442.257 245 442.537C245.28 442.817 245.42 443.159 245.42 443.562C245.42 443.96 245.28 444.301 245 444.588C244.72 444.868 244.378 445.008 243.975 445.008ZM252.676 457V455.145H255.527C256.387 455.145 257.054 454.949 257.529 454.559C258.005 454.161 258.242 453.608 258.242 452.898C258.242 452.169 257.995 451.606 257.5 451.209C257.005 450.805 256.302 450.604 255.391 450.604H252.715L252.48 449.715H255.879C257.285 449.715 258.372 450.018 259.141 450.623C259.909 451.229 260.293 452.085 260.293 453.191C260.293 454.402 259.928 455.34 259.199 456.004C258.47 456.668 257.435 457 256.094 457H252.676ZM250.781 457V443.133H252.812V457H250.781ZM252.012 450.184V449.227H255.996V450.184H252.012ZM252.676 449.637V448.748H254.941C255.677 448.748 256.247 448.585 256.65 448.26C257.061 447.928 257.266 447.456 257.266 446.844C257.266 446.245 257.051 445.786 256.621 445.467C256.198 445.148 255.592 444.988 254.805 444.988H252.715L252.48 443.133H254.902C256.309 443.133 257.396 443.439 258.164 444.051C258.932 444.656 259.316 445.522 259.316 446.648C259.316 447.605 258.952 448.344 258.223 448.865C257.493 449.38 256.458 449.637 255.117 449.637H252.676ZM261.67 461.688L261.572 459.832L263.193 459.637C263.877 459.552 264.46 459.367 264.941 459.08C265.43 458.794 265.846 458.367 266.191 457.801C266.536 457.241 266.839 456.505 267.1 455.594L269.678 446.648H271.826L268.838 456.082C268.447 457.319 268.008 458.315 267.52 459.07C267.038 459.826 266.465 460.392 265.801 460.77C265.143 461.147 264.352 461.388 263.428 461.492L261.67 461.688ZM265.596 457L261.475 446.648H263.623L267.002 455.438H267.314V457H265.596ZM280.391 457.195C278.822 457.195 277.686 456.87 276.982 456.219C276.286 455.568 275.938 454.526 275.938 453.094V451.336H278.008V452.996C278.008 453.816 278.206 454.412 278.604 454.783C279.007 455.154 279.668 455.34 280.586 455.34C280.911 455.34 281.257 455.324 281.621 455.291C281.986 455.252 282.402 455.203 282.871 455.145L283.105 456.961C282.65 457.039 282.204 457.098 281.768 457.137C281.338 457.176 280.879 457.195 280.391 457.195ZM275.938 452.117V443.523H278.008V452.117H275.938ZM273.34 448.465V446.648H282.715V448.465H273.34ZM291.133 457.195C289.368 457.195 288.005 456.733 287.041 455.809C286.084 454.878 285.605 453.543 285.605 451.805C285.605 450.112 286.012 448.797 286.826 447.859C287.64 446.922 288.789 446.453 290.273 446.453C291.673 446.453 292.754 446.876 293.516 447.723C294.284 448.569 294.668 449.799 294.668 451.414C294.668 451.889 294.648 452.332 294.609 452.742H287.344V451.16H292.793C292.793 450.229 292.572 449.516 292.129 449.021C291.686 448.52 291.074 448.27 290.293 448.27C289.414 448.27 288.73 448.569 288.242 449.168C287.76 449.767 287.52 450.613 287.52 451.707C287.52 452.905 287.852 453.816 288.516 454.441C289.186 455.066 290.137 455.379 291.367 455.379C291.797 455.379 292.22 455.356 292.637 455.311C293.053 455.258 293.477 455.19 293.906 455.105L294.16 456.922C293.548 457.039 292.988 457.114 292.48 457.146C291.973 457.179 291.523 457.195 291.133 457.195ZM301.152 457.195C300.371 457.195 299.701 457.173 299.141 457.127C298.587 457.081 298.079 457.007 297.617 456.902L297.852 455.027C298.535 455.132 299.137 455.21 299.658 455.262C300.186 455.314 300.684 455.34 301.152 455.34C302.201 455.34 302.959 455.239 303.428 455.037C303.903 454.829 304.141 454.5 304.141 454.051C304.141 453.738 304.056 453.507 303.887 453.357C303.724 453.201 303.47 453.081 303.125 452.996L300.742 452.391C299.72 452.13 298.968 451.808 298.486 451.424C298.011 451.04 297.773 450.457 297.773 449.676C297.773 448.543 298.206 447.723 299.072 447.215C299.945 446.707 301.348 446.453 303.281 446.453C303.783 446.453 304.248 446.469 304.678 446.502C305.114 446.528 305.56 446.577 306.016 446.648L305.801 448.445C305.273 448.393 304.808 448.357 304.404 448.338C304.001 448.318 303.607 448.309 303.223 448.309C302.064 448.309 301.224 448.41 300.703 448.611C300.182 448.807 299.922 449.129 299.922 449.578C299.922 449.878 300.029 450.096 300.244 450.232C300.459 450.363 300.788 450.483 301.23 450.594L303.145 451.062C304.232 451.323 305.026 451.671 305.527 452.107C306.035 452.544 306.289 453.178 306.289 454.012C306.289 455.125 305.882 455.936 305.068 456.443C304.255 456.945 302.949 457.195 301.152 457.195ZM56.8555 483.195C55.0911 483.195 53.7272 482.733 52.7637 481.809C51.8066 480.878 51.3281 479.543 51.3281 477.805C51.3281 476.112 51.7806 474.797 52.6855 473.859C53.597 472.922 54.8958 472.453 56.582 472.453C57.5911 472.453 58.4538 472.642 59.1699 473.02C59.8926 473.391 60.4069 473.918 60.7129 474.602L59.1211 475.803C58.8281 475.327 58.4538 474.96 57.998 474.699C57.5423 474.439 57.0443 474.309 56.5039 474.309C55.5273 474.309 54.7689 474.605 54.2285 475.197C53.6882 475.783 53.418 476.62 53.418 477.707C53.418 478.885 53.7337 479.787 54.3652 480.412C55.0033 481.031 55.9115 481.34 57.0898 481.34C57.5716 481.34 58.0534 481.317 58.5352 481.271C59.0169 481.226 59.4857 481.164 59.9414 481.086L60.1758 482.902C59.6419 483.02 59.0885 483.098 58.5156 483.137C57.9492 483.176 57.3958 483.195 56.8555 483.195ZM68.4766 483.195C66.7122 483.195 65.3483 482.733 64.3848 481.809C63.4277 480.878 62.9492 479.543 62.9492 477.805C62.9492 476.112 63.3561 474.797 64.1699 473.859C64.9837 472.922 66.1328 472.453 67.6172 472.453C69.0169 472.453 70.0977 472.876 70.8594 473.723C71.6276 474.569 72.0117 475.799 72.0117 477.414C72.0117 477.889 71.9922 478.332 71.9531 478.742H64.6875V477.16H70.1367C70.1367 476.229 69.9154 475.516 69.4727 475.021C69.0299 474.52 68.418 474.27 67.6367 474.27C66.7578 474.27 66.0742 474.569 65.5859 475.168C65.1042 475.767 64.8633 476.613 64.8633 477.707C64.8633 478.905 65.1953 479.816 65.8594 480.441C66.5299 481.066 67.4805 481.379 68.7109 481.379C69.1406 481.379 69.5638 481.356 69.9805 481.311C70.3971 481.258 70.8203 481.19 71.25 481.105L71.5039 482.922C70.8919 483.039 70.332 483.114 69.8242 483.146C69.3164 483.179 68.8672 483.195 68.4766 483.195ZM78.5938 478.547L77.9883 475.305H78.7891C78.9062 473.404 79.8568 472.453 81.6406 472.453C82.7083 472.453 83.4831 472.759 83.9648 473.371C84.4466 473.983 84.6875 474.973 84.6875 476.34H82.6367C82.6367 475.585 82.5228 475.041 82.2949 474.709C82.0736 474.377 81.7122 474.211 81.2109 474.211C80.332 474.211 79.6745 474.589 79.2383 475.344C78.8086 476.092 78.5938 477.16 78.5938 478.547ZM74.2188 483V481.184H81.1328V483H74.2188ZM76.5234 483V472.648H78.2031L78.5938 475.617V483H76.5234ZM74.6094 474.465V472.648H78.0664L78.2617 474.465H74.6094ZM92.8906 483.195C91.3216 483.195 90.1855 482.87 89.4824 482.219C88.7858 481.568 88.4375 480.526 88.4375 479.094V477.336H90.5078V478.996C90.5078 479.816 90.7064 480.412 91.1035 480.783C91.5072 481.154 92.168 481.34 93.0859 481.34C93.4115 481.34 93.7565 481.324 94.1211 481.291C94.4857 481.252 94.9023 481.203 95.3711 481.145L95.6055 482.961C95.1497 483.039 94.7038 483.098 94.2676 483.137C93.8379 483.176 93.3789 483.195 92.8906 483.195ZM88.4375 478.117V469.523H90.5078V478.117H88.4375ZM85.8398 474.465V472.648H95.2148V474.465H85.8398ZM102.383 483V473.234H104.453V483H102.383ZM98.4375 483V481.184H102.578V483H98.4375ZM104.258 483V481.184H107.637V483H104.258ZM99.0234 474.465V472.648H104.453V474.465H99.0234ZM103.35 471.008C102.952 471.008 102.611 470.868 102.324 470.588C102.044 470.301 101.904 469.96 101.904 469.562C101.904 469.159 102.044 468.817 102.324 468.537C102.611 468.257 102.952 468.117 103.35 468.117C103.753 468.117 104.095 468.257 104.375 468.537C104.655 468.817 104.795 469.159 104.795 469.562C104.795 469.96 104.655 470.301 104.375 470.588C104.095 470.868 103.753 471.008 103.35 471.008ZM112.52 483V473.527C112.52 469.947 114.154 468.156 117.422 468.156C118.164 468.156 118.88 468.221 119.57 468.352L119.355 470.148C118.945 470.096 118.584 470.061 118.271 470.041C117.959 470.021 117.656 470.012 117.363 470.012C115.514 470.012 114.59 471.151 114.59 473.43V483H112.52ZM109.258 476.75V474.934H118.828V476.75H109.258ZM125.82 483V473.234H127.891V483H125.82ZM121.875 483V481.184H126.016V483H121.875ZM127.695 483V481.184H131.074V483H127.695ZM122.461 474.465V472.648H127.891V474.465H122.461ZM126.787 471.008C126.39 471.008 126.048 470.868 125.762 470.588C125.482 470.301 125.342 469.96 125.342 469.562C125.342 469.159 125.482 468.817 125.762 468.537C126.048 468.257 126.39 468.117 126.787 468.117C127.191 468.117 127.533 468.257 127.812 468.537C128.092 468.817 128.232 469.159 128.232 469.562C128.232 469.96 128.092 470.301 127.812 470.588C127.533 470.868 127.191 471.008 126.787 471.008ZM138.887 483.195C137.122 483.195 135.758 482.733 134.795 481.809C133.838 480.878 133.359 479.543 133.359 477.805C133.359 476.112 133.812 474.797 134.717 473.859C135.628 472.922 136.927 472.453 138.613 472.453C139.622 472.453 140.485 472.642 141.201 473.02C141.924 473.391 142.438 473.918 142.744 474.602L141.152 475.803C140.859 475.327 140.485 474.96 140.029 474.699C139.574 474.439 139.076 474.309 138.535 474.309C137.559 474.309 136.8 474.605 136.26 475.197C135.719 475.783 135.449 476.62 135.449 477.707C135.449 478.885 135.765 479.787 136.396 480.412C137.035 481.031 137.943 481.34 139.121 481.34C139.603 481.34 140.085 481.317 140.566 481.271C141.048 481.226 141.517 481.164 141.973 481.086L142.207 482.902C141.673 483.02 141.12 483.098 140.547 483.137C139.98 483.176 139.427 483.195 138.887 483.195ZM151.738 483.098L151.602 480.031L151.328 479.172V476.496C151.328 475.806 151.084 475.301 150.596 474.982C150.114 474.657 149.395 474.481 148.438 474.455L145.957 474.387L146.152 472.551L148.242 472.58C149.954 472.606 151.224 472.977 152.051 473.693C152.884 474.403 153.301 475.441 153.301 476.809V481.125L155.059 481.34V483L151.738 483.098ZM148.086 483.195C147.005 483.195 146.169 482.935 145.576 482.414C144.984 481.893 144.688 481.158 144.688 480.207C144.688 479.113 145.094 478.273 145.908 477.688C146.729 477.102 147.884 476.809 149.375 476.809C149.993 476.809 150.544 476.848 151.025 476.926C151.514 476.997 151.947 477.108 152.324 477.258L151.895 478.664C151.458 478.566 151.032 478.511 150.615 478.498C150.199 478.479 149.772 478.469 149.336 478.469C147.539 478.469 146.641 479.016 146.641 480.109C146.641 480.565 146.794 480.917 147.1 481.164C147.412 481.411 147.852 481.535 148.418 481.535C149.062 481.535 149.6 481.424 150.029 481.203C150.465 480.982 150.791 480.699 151.006 480.354C151.221 480.008 151.328 479.654 151.328 479.289V478.156L151.934 480.812H151.113L151.445 480.5C151.445 481.099 151.305 481.6 151.025 482.004C150.752 482.401 150.365 482.701 149.863 482.902C149.362 483.098 148.77 483.195 148.086 483.195ZM163.457 483.098L163.32 480.031L163.047 479.172V476.496C163.047 475.806 162.803 475.301 162.314 474.982C161.833 474.657 161.113 474.481 160.156 474.455L157.676 474.387L157.871 472.551L159.961 472.58C161.673 472.606 162.943 472.977 163.77 473.693C164.603 474.403 165.02 475.441 165.02 476.809V481.125L166.777 481.34V483L163.457 483.098ZM159.805 483.195C158.724 483.195 157.887 482.935 157.295 482.414C156.702 481.893 156.406 481.158 156.406 480.207C156.406 479.113 156.813 478.273 157.627 477.688C158.447 477.102 159.603 476.809 161.094 476.809C161.712 476.809 162.262 476.848 162.744 476.926C163.232 476.997 163.665 477.108 164.043 477.258L163.613 478.664C163.177 478.566 162.751 478.511 162.334 478.498C161.917 478.479 161.491 478.469 161.055 478.469C159.258 478.469 158.359 479.016 158.359 480.109C158.359 480.565 158.512 480.917 158.818 481.164C159.131 481.411 159.57 481.535 160.137 481.535C160.781 481.535 161.318 481.424 161.748 481.203C162.184 480.982 162.51 480.699 162.725 480.354C162.939 480.008 163.047 479.654 163.047 479.289V478.156L163.652 480.812H162.832L163.164 480.5C163.164 481.099 163.024 481.6 162.744 482.004C162.471 482.401 162.083 482.701 161.582 482.902C161.081 483.098 160.488 483.195 159.805 483.195ZM174.922 483.195C173.353 483.195 172.217 482.87 171.514 482.219C170.817 481.568 170.469 480.526 170.469 479.094V477.336H172.539V478.996C172.539 479.816 172.738 480.412 173.135 480.783C173.538 481.154 174.199 481.34 175.117 481.34C175.443 481.34 175.788 481.324 176.152 481.291C176.517 481.252 176.934 481.203 177.402 481.145L177.637 482.961C177.181 483.039 176.735 483.098 176.299 483.137C175.869 483.176 175.41 483.195 174.922 483.195ZM170.469 478.117V469.523H172.539V478.117H170.469ZM167.871 474.465V472.648H177.246V474.465H167.871ZM183.906 478.547L183.75 469.035H185.781L185.586 478.547H183.906ZM184.766 483.195C184.368 483.195 184.027 483.055 183.74 482.775C183.46 482.489 183.32 482.147 183.32 481.75C183.32 481.346 183.46 481.005 183.74 480.725C184.027 480.445 184.368 480.305 184.766 480.305C185.169 480.305 185.511 480.445 185.791 480.725C186.071 481.005 186.211 481.346 186.211 481.75C186.211 482.147 186.071 482.489 185.791 482.775C185.511 483.055 185.169 483.195 184.766 483.195Z" fill="#2B2B2B"/>
<path d="M134.5 144.5V142H132V139.5H137V142H144.5V137H134.5V134.5H132V129.5H134.5V127H147V129.5H149.5V132H144.5V129.5H137V134.5H147V137H149.5V142H147V144.5H134.5ZM159.5 144.5V134.5H154.5V132H159.5V127H164.5V132H169.5V134.5H164.5V144.5H159.5ZM174.5 144.5V142H172V139.5H174.5V137H184.5V134.5H174.5V132H187V134.5H189.5V144.5H174.5ZM177 142H184.5V139.5H177V142ZM192 147V132H207V134.5H209.5V139.5H207V142H197V147H192ZM197 139.5H204.5V134.5H197V139.5ZM234.5 144.5V142H232V139.5H237V142H244.5V137H237V134.5H239.5V132H242V129.5H234.5V127H249.5V129.5H247V132H244.5V134.5H247V137H249.5V142H247V144.5H234.5ZM257 134.5V129.5H262V134.5H257ZM257 142V137H262V142H257ZM92 196.5V179H107V181.5H109.5V189H107V191.5H97V196.5H92ZM97 189H104.5V181.5H97V189ZM114.5 196.5V194H112V191.5H117V194H124.5V186.5H112V179H127V181.5H117V184H127V186.5H129.5V194H127V196.5H114.5ZM137 196.5V191.5H142V196.5H137ZM162 181.5V179H167V181.5H162ZM154.5 199V196.5H162V186.5H159.5V184H167V196.5H164.5V199H154.5ZM172 196.5V194H184.5V191.5H174.5V189H172V186.5H174.5V184H187V186.5H177V189H187V191.5H189.5V194H187V196.5H172ZM212 196.5V184H227V186.5H229.5V196.5H224.5V186.5H222V196.5H217V186.5H214.5V196.5H212ZM234.5 196.5V194H232V191.5H234.5V189H244.5V186.5H234.5V184H247V186.5H249.5V196.5H234.5ZM237 194H244.5V191.5H237V194ZM252 196.5V194H264.5V191.5H254.5V189H252V186.5H254.5V184H267V186.5H257V189H267V191.5H269.5V194H267V196.5H252ZM279.5 196.5V186.5H274.5V184H279.5V179H284.5V184H289.5V186.5H284.5V196.5H279.5ZM294.5 196.5V194H292V186.5H294.5V184H307V186.5H309.5V191.5H297V194H307V196.5H294.5ZM297 189H304.5V186.5H297V189ZM319.5 186.5H322V189H319.5V196.5H314.5V184H319.5V186.5ZM329.5 184V186.5H322V184H329.5Z" fill="black"/>
<path d="M305.707 24.1982H275.202V54.7026H305.707V24.1982Z" fill="#F0857D"/>
<path d="M296.552 33.3491H294.267V37.9246H296.552V33.3491Z" fill="#2B2B2B"/>
<path d="M286.639 33.3491H284.354V37.9246H286.639V33.3491Z" fill="#2B2B2B"/>
<path d="M295.984 35.256H294.839V37.5416H295.984V35.256Z" fill="#F0857D"/>
<path d="M286.071 35.256H284.926V37.5416H286.071V35.256Z" fill="#F0857D"/>
<path d="M311.806 30.3018V24.1983V18.0992H305.703H299.604H293.504H287.401H293.504V12H287.401H281.302V18.0992H275.203H269.103V24.1983H263V30.3018V36.4009H269.103V42.5001V48.5992H275.203V42.5001V36.4009V30.3018V24.1983H281.302H287.401H293.504H299.604H305.703V30.3018V36.4009V42.5001V48.5992V54.7027H299.604V60.8018H305.703H311.806V54.7027V48.5992V42.5001H317.905V36.4009V30.3018H311.806Z" fill="#EB5B3A"/>
<path d="M263 54.7027V60.8019H269.103V54.7027V48.5992H263V54.7027Z" fill="#EB5B3A"/>
<path d="M281.302 54.7027V60.8019H287.401V54.7027V48.5992H281.302V54.7027Z" fill="#EB5B3A"/>
<path d="M299.604 12H293.505V18.0992H299.604V12Z" fill="#EB5B3A"/>
<path d="M317.905 18.0991H311.806V24.1983V30.3017H317.905V24.1983V18.0991Z" fill="#C0422D"/>
<path d="M317.905 30.3018V36.4009V42.5001H324.004V36.4009V30.3018H317.905Z" fill="#C0422D"/>
<path d="M311.806 48.5991V54.7026V60.8018H317.905V54.7026V48.5991V42.5H311.806V48.5991Z" fill="#C0422D"/>
<path d="M275.203 48.5992H269.104V54.7027V60.8019H275.203H281.302V54.7027H275.203V48.5992Z" fill="#C0422D"/>
<path d="M293.504 48.5992H287.4V54.7027V60.8019H293.504H299.603V54.7027H293.504V48.5992Z" fill="#C0422D"/>
<path d="M305.703 12H299.604V18.0992H305.703V12Z" fill="#C0422D"/>
<path d="M155.806 12.2156H125.302V42.7199H155.806V12.2156Z" fill="#FFDC4B"/>
<path d="M146.65 21.3665H144.364V25.9419H146.65V21.3665Z" fill="#2B2B2B"/>
<path d="M136.738 21.3665H134.452V25.9419H136.738V21.3665Z" fill="#2B2B2B"/>
<path d="M146.082 23.2732H144.938V25.5588H146.082V23.2732Z" fill="#FFDC4B"/>
<path d="M136.164 23.2732H135.02V25.5588H136.164V23.2732Z" fill="#FFDC4B"/>
<path d="M161.905 18.3191V12.2156V6.11646H155.801H149.702H143.603H137.5H131.4H125.301H119.198V12.2156H113.099V18.3191V24.4182H119.198V30.5174V36.6208V42.72V48.8191H125.301H131.4V54.9226H125.301V61.0217H131.4H137.5V54.9226V48.8191H143.603H149.702V42.72H143.603H137.5H131.4H125.301V36.6208V30.5174V24.4182V18.3191V12.2156H131.4H137.5H143.603H149.702H155.801V18.3191V24.4182V30.5174V36.6208H161.905V30.5174H168.004V24.4182V18.3191H161.905Z" fill="#FCC10A"/>
<path d="M161.904 42.7371V48.8362H168.003V42.7371V36.6379H161.904V42.7371Z" fill="#FCC10A"/>
<path d="M143.603 6.10345H149.702V0H143.603H137.5H131.4V6.10345H137.5H143.603Z" fill="#FCC10A"/>
<path d="M119.198 6.11646H113.099V12.2156H119.198V6.11646Z" fill="#F7A62E"/>
<path d="M131.401 48.8191H125.302V54.9182H131.401V48.8191Z" fill="#F7A62E"/>
<path d="M125.297 54.9225H119.198V61.0216H125.297V54.9225Z" fill="#F7A62E"/>
<path d="M113.099 12.2156H107V18.319V24.4182H113.099V18.319V12.2156Z" fill="#F7A62E"/>
<path d="M113.099 36.6208V42.72V48.8191H119.198V42.72V36.6208V30.5174V24.4182H113.099V30.5174V36.6208Z" fill="#F7A62E"/>
<path d="M155.801 36.6379V42.7371H149.702V48.8362H155.801H161.905V42.7371V36.6379H155.801Z" fill="#F7A62E"/>
<path d="M131.401 0H125.302V6.09915H131.401V0Z" fill="#F7A62E"/>
</svg>
