<?xml version="1.0" encoding="utf-8"?>
<!-- Generator: Adobe Illustrator 29.5.1, SVG Export Plug-In . SVG Version: 9.03 Build 0)  -->
<!DOCTYPE svg PUBLIC "-//W3C//DTD SVG 1.1//EN" "http://www.w3.org/Graphics/SVG/1.1/DTD/svg11.dtd" [
	<!ENTITY st0 "fill:#34383D;">
	<!ENTITY st1 "fill:#FFFFFF;">
	<!ENTITY st2 "font-family:'PressStart2P-Regular';">
	<!ENTITY st3 "font-size:36.2317px;">
	<!ENTITY st4 "fill:#63A6CC;">
	<!ENTITY st5 "fill:#2B2B2B;">
	<!ENTITY st6 "fill:#387BBF;">
	<!ENTITY st7 "fill:#1F4E9E;">
	<!ENTITY st8 "fill:#F0857D;">
	<!ENTITY st9 "fill:#EB5B3A;">
	<!ENTITY st10 "fill:#C1422C;">
	<!ENTITY st11 "fill:#FFDC4B;">
	<!ENTITY st12 "fill:#FCC10A;">
	<!ENTITY st13 "fill:#F7A62E;">
]>
<svg version="1.1" id="Laag_1" xmlns="http://www.w3.org/2000/svg" xmlns:xlink="http://www.w3.org/1999/xlink" x="0px" y="0px"
	 viewBox="0 0 500 140" style="enable-background:new 0 0 500 140;" xml:space="preserve">
<rect style="&st0;" width="500" height="140"/>
<text transform="matrix(1 0 0 1 148.1282 92.1575)" style="&st1; &st2; &st3;">MiniBytes</text>
<g>
	<rect x="67.16" y="31.83" style="&st4;" width="22.38" height="22.38"/>
	<rect x="81.15" y="38.54" style="&st5;" width="1.68" height="3.36"/>
	<rect x="73.87" y="38.54" style="&st5;" width="1.68" height="3.36"/>
	<rect x="81.57" y="39.94" style="&st4;" width="0.84" height="1.68"/>
	<rect x="74.29" y="39.94" style="&st4;" width="0.84" height="1.68"/>
	<path style="&st6;" d="M94.02,36.3v-4.48v-4.48h-4.48h-4.48v-4.48h-4.48h-4.48h-4.48v4.48h-4.48h-4.48v4.48h-4.48v4.48v4.48h4.48
		v4.48v4.48v4.48v4.48h4.48h4.48v4.48h-4.48v4.48h4.48h4.48v-4.48v-4.48h4.48v4.48v4.48h4.48h4.48v-4.48h-4.48v-4.48h4.48h4.48
		v-4.48v-4.48v-4.48h4.48v-4.48V36.3H94.02z M89.54,49.73v4.48h-4.48h-4.48h-4.48h-4.48h-4.48v-4.48v-4.48v-4.48V36.3v-4.48h4.48
		h4.48h4.48h4.48h4.48v4.48v4.48v4.48V49.73z"/>
	<g>
		<rect x="58.21" y="27.35" style="&st7;" width="4.48" height="4.48"/>
		<polygon style="&st7;" points="76.11,58.68 76.11,63.16 76.11,67.63 80.59,67.63 80.59,63.16 80.59,58.68 		"/>
		<rect x="67.16" y="58.68" style="&st7;" width="4.48" height="4.48"/>
		<rect x="62.68" y="63.16" style="&st7;" width="4.48" height="4.48"/>
		<polygon style="&st7;" points="58.21,31.82 53.73,31.82 53.73,36.3 53.73,40.78 58.21,40.78 58.21,36.3 		"/>
		<polygon style="&st7;" points="58.21,49.73 58.21,54.21 58.21,58.68 62.68,58.68 62.68,54.21 62.68,49.73 62.68,45.25 
			62.68,40.78 58.21,40.78 58.21,45.25 		"/>
		<rect x="67.16" y="22.87" style="&st7;" width="4.48" height="4.48"/>
	</g>
</g>
<g>
	
		<rect x="36.1" y="76.54" transform="matrix(-1 -4.488555e-11 4.488555e-11 -1 94.8929 175.784)" style="&st8;" width="22.69" height="22.69"/>
	
		<rect x="42.91" y="83.35" transform="matrix(-1 -4.381663e-11 4.381663e-11 -1 87.5173 170.1104)" style="&st5;" width="1.7" height="3.4"/>
	
		<rect x="50.28" y="83.35" transform="matrix(-1 -4.381663e-11 4.381663e-11 -1 102.2685 170.1104)" style="&st5;" width="1.7" height="3.4"/>
	
		<rect x="43.33" y="84.77" transform="matrix(-1 -4.488555e-11 4.488555e-11 -1 87.5173 171.2451)" style="&st8;" width="0.85" height="1.7"/>
	
		<rect x="50.71" y="84.77" transform="matrix(-1 -3.633594e-11 3.633594e-11 -1 102.2685 171.2451)" style="&st8;" width="0.85" height="1.7"/>
	<g>
		<polygon style="&st9;" points="31.56,81.08 31.56,76.54 31.56,72.01 36.1,72.01 40.64,72.01 40.64,67.47 45.18,67.47 49.72,67.47 
			54.25,67.47 54.25,72.01 58.79,72.01 63.33,72.01 63.33,76.54 67.87,76.54 67.87,81.08 67.87,85.62 63.33,85.62 63.33,90.16 
			63.33,94.7 58.79,94.7 58.79,90.16 58.79,85.62 58.79,81.08 58.79,76.54 54.25,76.54 49.72,76.54 45.18,76.54 40.64,76.54 
			36.1,76.54 36.1,81.08 36.1,85.62 36.1,90.16 36.1,94.7 36.1,99.24 40.64,99.24 40.64,103.78 36.1,103.78 31.56,103.78 
			31.56,99.24 31.56,94.7 31.56,90.16 27.02,90.16 27.02,85.62 27.02,81.08 		"/>
		<polygon style="&st9;" points="67.87,99.24 67.87,103.78 63.33,103.78 63.33,99.24 63.33,94.7 67.87,94.7 		"/>
		<polygon style="&st9;" points="54.25,99.24 54.25,103.78 49.72,103.78 49.72,99.24 49.72,94.7 54.25,94.7 		"/>
	</g>
	<g>
		<polygon style="&st10;" points="27.02,72.01 31.56,72.01 31.56,76.54 31.56,81.08 27.02,81.08 27.02,76.54 		"/>
		<polygon style="&st10;" points="27.02,81.08 27.02,85.62 27.02,90.16 22.48,90.16 22.48,85.62 22.48,81.08 		"/>
		<polygon style="&st10;" points="31.56,94.7 31.56,99.24 31.56,103.78 27.02,103.78 27.02,99.24 27.02,94.7 27.02,90.16 
			31.56,90.16 		"/>
		<polygon style="&st10;" points="58.79,94.7 63.33,94.7 63.33,99.24 63.33,103.78 58.79,103.78 54.25,103.78 54.25,99.24 
			58.79,99.24 		"/>
		<polygon style="&st10;" points="45.18,94.7 49.72,94.7 49.72,99.24 49.72,103.78 45.18,103.78 40.64,103.78 40.64,99.24 
			45.18,99.24 		"/>
		<rect x="36.1" y="67.47" style="&st10;" width="4.54" height="4.54"/>
	</g>
</g>
<g>
	
		<rect x="98.4" y="67.44" transform="matrix(-1 -4.478163e-11 4.478163e-11 -1 219.1824 157.2515)" style="&st11;" width="22.38" height="22.38"/>
	
		<rect x="105.12" y="74.15" transform="matrix(-1 -4.876423e-11 4.876423e-11 -1 211.9086 151.6562)" style="&st5;" width="1.68" height="3.36"/>
	
		<rect x="112.39" y="74.15" transform="matrix(-1 -4.442947e-11 4.442947e-11 -1 226.4563 151.6562)" style="&st5;" width="1.68" height="3.36"/>
	
		<rect x="105.53" y="75.55" transform="matrix(-1 -4.551349e-11 4.551349e-11 -1 211.9086 152.7753)" style="&st11;" width="0.84" height="1.68"/>
	
		<rect x="112.81" y="75.55" transform="matrix(-1 -4.334589e-11 4.334589e-11 -1 226.4563 152.7753)" style="&st11;" width="0.84" height="1.68"/>
	<g>
		<polygon style="&st12;" points="93.92,71.91 93.92,67.44 93.92,62.96 98.4,62.96 102.88,62.96 102.88,58.48 107.35,58.48 
			107.35,58.48 111.83,58.48 111.83,62.96 111.83,62.96 111.83,58.48 116.31,58.48 116.31,62.96 120.78,62.96 125.26,62.96 
			125.26,67.44 129.73,67.44 129.73,71.91 129.73,76.39 125.26,76.39 125.26,80.86 125.26,85.34 125.26,89.82 125.26,94.29 
			120.78,94.29 116.31,94.29 116.31,98.77 120.78,98.77 120.78,103.24 116.31,103.24 111.83,103.24 111.83,98.77 111.83,94.29 
			107.35,94.29 102.88,94.29 102.88,89.82 107.35,89.82 111.83,89.82 116.31,89.82 120.78,89.82 120.78,85.34 120.78,80.86 
			120.78,76.39 120.78,71.91 120.78,67.44 116.31,67.44 111.83,67.44 107.35,67.44 102.88,67.44 98.4,67.44 98.4,71.91 98.4,76.39 
			98.4,80.86 98.4,85.34 93.92,85.34 93.92,80.86 89.45,80.86 89.45,76.39 89.45,71.91 		"/>
		<polygon style="&st12;" points="93.92,89.83 93.92,94.31 89.45,94.31 89.45,89.83 89.45,85.35 93.92,85.35 		"/>
	</g>
	<g>
		<rect x="125.26" y="62.96" style="&st13;" width="4.48" height="4.48"/>
		<rect x="116.31" y="94.29" style="&st13;" width="4.48" height="4.48"/>
		<rect x="120.78" y="98.77" style="&st13;" width="4.48" height="4.48"/>
		<polygon style="&st13;" points="129.73,67.44 134.21,67.44 134.21,71.91 134.21,76.39 129.73,76.39 129.73,71.91 		"/>
		<polygon style="&st13;" points="129.73,85.34 129.73,89.82 129.73,94.29 125.26,94.29 125.26,89.82 125.26,85.34 125.26,80.86 
			125.26,76.39 129.73,76.39 129.73,80.86 		"/>
		<polygon style="&st13;" points="98.4,85.35 98.4,89.83 102.88,89.83 102.88,94.31 98.4,94.31 93.92,94.31 93.92,89.83 
			93.92,85.35 		"/>
		<rect x="116.31" y="58.48" style="&st13;" width="4.48" height="4.48"/>
	</g>
</g>
</svg>
