<?xml version="1.0" encoding="utf-8"?>
<!-- Generator: Adobe Illustrator 29.5.1, SVG Export Plug-In . SVG Version: 9.03 Build 0)  -->
<!DOCTYPE svg PUBLIC "-//W3C//DTD SVG 1.1//EN" "http://www.w3.org/Graphics/SVG/1.1/DTD/svg11.dtd" [
	<!ENTITY st0 "fill:#63A5CC;">
	<!ENTITY st1 "fill:#2B2B2B;">
	<!ENTITY st2 "fill:#387BBE;">
	<!ENTITY st3 "fill:#1E4E9D;">
]>
<svg version="1.1" id="Laag_1" xmlns="http://www.w3.org/2000/svg" xmlns:xlink="http://www.w3.org/1999/xlink" x="0px" y="0px"
	 viewBox="0 0 23.61 23.61" style="enable-background:new 0 0 23.61 23.61;" xml:space="preserve">
<rect x="7.08" y="4.72" style="&st0;" width="11.81" height="11.81"/>
<rect x="14.46" y="8.27" style="&st1;" width="0.89" height="1.77"/>
<rect x="10.63" y="8.27" style="&st1;" width="0.89" height="1.77"/>
<rect x="14.69" y="9" style="&st0;" width="0.44" height="0.89"/>
<rect x="10.85" y="9" style="&st0;" width="0.44" height="0.89"/>
<path style="&st2;" d="M21.25,7.08V4.72V2.36h-2.36h-2.36V0h-2.36h-2.36H9.45v2.36H7.08H4.72v2.36H2.36v2.36v2.36h2.36v2.36v2.36
	v2.36v2.36h2.36h2.36v2.36H7.08v2.36h2.36h2.36v-2.36v-2.36h2.36v2.36v2.36h2.36h2.36v-2.36h-2.36v-2.36h2.36h2.36v-2.36v-2.36
	v-2.36h2.36V9.45V7.08H21.25z M18.89,14.17v2.36h-2.36h-2.36h-2.36H9.45H7.08v-2.36v-2.36V9.45V7.08V4.72h2.36h2.36h2.36h2.36h2.36
	v2.36v2.36v2.36V14.17z"/>
<g>
	<rect x="2.36" y="2.36" style="&st3;" width="2.36" height="2.36"/>
	<polygon style="&st3;" points="11.81,18.89 11.81,21.25 11.81,23.61 14.17,23.61 14.17,21.25 14.17,18.89 	"/>
	<rect x="7.08" y="18.89" style="&st3;" width="2.36" height="2.36"/>
	<rect x="4.72" y="21.25" style="&st3;" width="2.36" height="2.36"/>
	<polygon style="&st3;" points="2.36,4.72 0,4.72 0,7.08 0,9.45 2.36,9.45 2.36,7.08 	"/>
	<polygon style="&st3;" points="2.36,14.17 2.36,16.53 2.36,18.89 4.72,18.89 4.72,16.53 4.72,14.17 4.72,11.81 4.72,9.45 
		2.36,9.45 2.36,11.81 	"/>
	<rect x="7.08" y="0" style="&st3;" width="2.36" height="2.36"/>
</g>
<g>
	<rect x="24.8" y="-44.89" style="&st3;" width="14.17" height="14.17"/>
	
		<rect x="81.49" y="54.32" transform="matrix(-1.836970e-16 1 -1 -1.836970e-16 149.9911 -27.1679)" style="&st3;" width="14.17" height="14.17"/>
	
		<rect x="81.49" y="68.5" transform="matrix(-1.836970e-16 1 -1 -1.836970e-16 164.1643 -12.9947)" style="&st3;" width="14.17" height="14.17"/>
	
		<rect x="53.15" y="54.32" transform="matrix(-1.836970e-16 1 -1 -1.836970e-16 121.6446 1.1786)" style="&st3;" width="14.17" height="14.17"/>
	
		<rect x="38.97" y="68.5" transform="matrix(-1.836970e-16 1 -1 -1.836970e-16 121.6446 29.525)" style="&st3;" width="14.17" height="14.17"/>
	
		<rect x="10.63" y="-30.71" transform="matrix(-1.836970e-16 1 -1 -1.836970e-16 -5.9145 -41.3411)" style="&st3;" width="14.17" height="14.17"/>
	
		<rect x="10.63" y="-16.54" transform="matrix(-1.836970e-16 1 -1 -1.836970e-16 8.2588 -27.1679)" style="&st3;" width="14.17" height="14.17"/>
	
		<rect x="24.8" y="40.15" transform="matrix(-1 -1.224647e-16 1.224647e-16 -1 63.7731 94.4767)" style="&st3;" width="14.17" height="14.17"/>
	
		<rect x="24.8" y="25.98" transform="matrix(6.123234e-17 -1 1 6.123234e-17 -1.1786 64.9517)" style="&st3;" width="14.17" height="14.17"/>
	
		<rect x="24.8" y="11.81" transform="matrix(6.123234e-17 -1 1 6.123234e-17 12.9947 50.7785)" style="&st3;" width="14.17" height="14.17"/>
	
		<rect x="24.8" y="-2.37" transform="matrix(6.123234e-17 -1 1 6.123234e-17 27.1679 36.6052)" style="&st3;" width="14.17" height="14.17"/>
</g>
<g>
	<rect x="38.97" y="-44.89" style="&st2;" width="14.17" height="14.17"/>
	<rect x="53.15" y="-44.89" style="&st2;" width="14.17" height="14.17"/>
	<rect x="67.32" y="-44.89" style="&st2;" width="14.17" height="14.17"/>
	<rect x="81.49" y="-44.89" style="&st2;" width="14.17" height="14.17"/>
	<rect x="95.67" y="-44.89" style="&st2;" width="14.17" height="14.17"/>
	<rect x="109.84" y="-44.89" style="&st2;" width="14.17" height="14.17"/>
	<rect x="124.01" y="-44.89" style="&st2;" width="14.17" height="14.17"/>
	
		<rect x="124.01" y="-30.71" transform="matrix(-1.836970e-16 1 -1 -1.836970e-16 107.4714 -154.7269)" style="&st2;" width="14.17" height="14.17"/>
	
		<rect x="124.01" y="-16.54" transform="matrix(-1.836970e-16 1 -1 -1.836970e-16 121.6446 -140.5537)" style="&st2;" width="14.17" height="14.17"/>
	
		<rect x="124.01" y="-2.37" transform="matrix(-1.836970e-16 1 -1 -1.836970e-16 135.8178 -126.3805)" style="&st2;" width="14.17" height="14.17"/>
	
		<rect x="138.19" y="-16.54" transform="matrix(-1.836970e-16 1 -1 -1.836970e-16 135.8178 -154.7269)" style="&st2;" width="14.17" height="14.17"/>
	
		<rect x="138.19" y="-2.37" transform="matrix(-1.836970e-16 1 -1 -1.836970e-16 149.9911 -140.5537)" style="&st2;" width="14.17" height="14.17"/>
	
		<rect x="95.67" y="54.32" transform="matrix(-1.836970e-16 1 -1 -1.836970e-16 164.1643 -41.3411)" style="&st2;" width="14.17" height="14.17"/>
	
		<rect x="95.67" y="68.5" transform="matrix(-1.836970e-16 1 -1 -1.836970e-16 178.3375 -27.1679)" style="&st2;" width="14.17" height="14.17"/>
	
		<rect x="67.32" y="54.32" transform="matrix(-1.836970e-16 1 -1 -1.836970e-16 135.8178 -12.9947)" style="&st2;" width="14.17" height="14.17"/>
	
		<rect x="67.32" y="68.5" transform="matrix(-1.836970e-16 1 -1 -1.836970e-16 149.9911 1.1786)" style="&st2;" width="14.17" height="14.17"/>
	
		<rect x="53.15" y="68.5" transform="matrix(-1.836970e-16 1 -1 -1.836970e-16 135.8178 15.3518)" style="&st2;" width="14.17" height="14.17"/>
	
		<rect x="109.84" y="68.5" transform="matrix(-1.836970e-16 1 -1 -1.836970e-16 192.5107 -41.3411)" style="&st2;" width="14.17" height="14.17"/>
	
		<rect x="24.8" y="-30.71" transform="matrix(-1.836970e-16 1 -1 -1.836970e-16 8.2588 -55.5143)" style="&st2;" width="14.17" height="14.17"/>
	
		<rect x="24.8" y="-16.54" transform="matrix(-1.836970e-16 1 -1 -1.836970e-16 22.432 -41.3411)" style="&st2;" width="14.17" height="14.17"/>
	
		<rect x="124.01" y="11.81" transform="matrix(-1.836970e-16 1 -1 -1.836970e-16 149.9911 -112.2073)" style="&st2;" width="14.17" height="14.17"/>
	
		<rect x="124.01" y="25.98" transform="matrix(-1.836970e-16 1 -1 -1.836970e-16 164.1643 -98.034)" style="&st2;" width="14.17" height="14.17"/>
	
		<rect x="109.84" y="40.15" transform="matrix(-1 -1.224647e-16 1.224647e-16 -1 233.8519 94.4767)" style="&st2;" width="14.17" height="14.17"/>
	
		<rect x="95.67" y="40.15" transform="matrix(-1 -1.224647e-16 1.224647e-16 -1 205.5054 94.4767)" style="&st2;" width="14.17" height="14.17"/>
	
		<rect x="81.49" y="40.15" transform="matrix(-1 -1.224647e-16 1.224647e-16 -1 177.1589 94.4767)" style="&st2;" width="14.17" height="14.17"/>
	
		<rect x="67.32" y="40.15" transform="matrix(-1 -1.224647e-16 1.224647e-16 -1 148.8125 94.4767)" style="&st2;" width="14.17" height="14.17"/>
	
		<rect x="53.15" y="40.15" transform="matrix(-1 -1.224647e-16 1.224647e-16 -1 120.466 94.4767)" style="&st2;" width="14.17" height="14.17"/>
	
		<rect x="38.97" y="40.15" transform="matrix(-1 -1.224647e-16 1.224647e-16 -1 92.1196 94.4767)" style="&st2;" width="14.17" height="14.17"/>
	
		<rect x="38.97" y="25.98" transform="matrix(6.123234e-17 -1 1 6.123234e-17 12.9947 79.1249)" style="&st2;" width="14.17" height="14.17"/>
	
		<rect x="38.97" y="11.81" transform="matrix(6.123234e-17 -1 1 6.123234e-17 27.1679 64.9517)" style="&st2;" width="14.17" height="14.17"/>
	
		<rect x="38.97" y="-2.37" transform="matrix(6.123234e-17 -1 1 6.123234e-17 41.3411 50.7785)" style="&st2;" width="14.17" height="14.17"/>
	
		<rect x="38.97" y="-16.54" transform="matrix(6.123234e-17 -1 1 6.123234e-17 55.5143 36.6052)" style="&st2;" width="14.17" height="14.17"/>
	
		<rect x="38.97" y="-30.71" transform="matrix(6.123234e-17 -1 1 6.123234e-17 69.6876 22.432)" style="&st2;" width="14.17" height="14.17"/>
	
		<rect x="124.01" y="40.15" transform="matrix(-1.836970e-16 1 -1 -1.836970e-16 178.3375 -83.8608)" style="&st2;" width="14.17" height="14.17"/>
</g>
<rect x="53.15" y="-30.71" style="&st0;" width="70.87" height="70.87"/>
<rect x="97.44" y="-9.45" style="&st1;" width="5.31" height="10.63"/>
<rect x="74.41" y="-9.45" style="&st1;" width="5.31" height="10.63"/>
<rect x="98.77" y="-5.03" style="&st0;" width="2.66" height="5.31"/>
<rect x="75.73" y="-5.03" style="&st0;" width="2.66" height="5.31"/>
</svg>
