<?xml version="1.0" encoding="utf-8"?>
<!-- Generator: Adobe Illustrator 29.5.1, SVG Export Plug-In . SVG Version: 9.03 Build 0)  -->
<!DOCTYPE svg PUBLIC "-//W3C//DTD SVG 1.1//EN" "http://www.w3.org/Graphics/SVG/1.1/DTD/svg11.dtd" [
	<!ENTITY st0 "fill:#FFFFFF;">
	<!ENTITY st1 "fill:#CAC8C8;">
	<!ENTITY st2 "fill:#E7E7E8;">
]>
<svg version="1.1" id="Laag_1" xmlns="http://www.w3.org/2000/svg" xmlns:xlink="http://www.w3.org/1999/xlink" x="0px" y="0px"
	 viewBox="0 0 1440 85.04" style="enable-background:new 0 0 1440 85.04;" xml:space="preserve">
<rect x="95.77" y="56.92" transform="matrix(-1.836970e-16 1 -1 -1.836970e-16 166.6368 -39.0778)" style="&st0;" width="14.17" height="13.71"/>
<g>
	<rect x="54.86" y="70.87" style="&st1;" width="13.71" height="14.17"/>
	<rect x="137.14" y="70.87" style="&st1;" width="13.71" height="14.17"/>
	<rect x="205.71" y="70.87" style="&st1;" width="13.71" height="14.17"/>
	<rect x="13.71" y="56.69" style="&st1;" width="13.71" height="14.17"/>
	<rect x="68.57" y="56.69" style="&st1;" width="13.71" height="14.17"/>
	<rect x="260.57" y="56.69" style="&st1;" width="13.71" height="14.17"/>
	<rect x="288" y="70.87" style="&st1;" width="13.71" height="14.17"/>
	<rect x="315.43" y="56.69" style="&st1;" width="13.71" height="14.17"/>
	<rect x="411.43" y="70.87" style="&st1;" width="13.71" height="14.17"/>
	<rect x="493.71" y="70.87" style="&st1;" width="13.71" height="14.17"/>
	<rect x="562.29" y="70.87" style="&st1;" width="13.71" height="14.17"/>
	<rect x="370.29" y="56.69" style="&st1;" width="13.71" height="14.17"/>
	<rect x="425.14" y="56.69" style="&st1;" width="13.71" height="14.17"/>
	<rect x="617.14" y="56.69" style="&st1;" width="13.71" height="14.17"/>
	<rect x="644.57" y="70.87" style="&st1;" width="13.71" height="14.17"/>
	<rect x="672" y="56.69" style="&st1;" width="13.71" height="14.17"/>
	<rect x="768" y="70.87" style="&st1;" width="13.71" height="14.17"/>
	<rect x="850.29" y="70.87" style="&st1;" width="13.71" height="14.17"/>
	<rect x="918.86" y="70.87" style="&st1;" width="13.71" height="14.17"/>
	<rect x="726.86" y="56.69" style="&st1;" width="13.71" height="14.17"/>
	<rect x="781.71" y="56.69" style="&st1;" width="13.71" height="14.17"/>
	<rect x="973.71" y="56.69" style="&st1;" width="13.71" height="14.17"/>
	<rect x="1001.14" y="70.87" style="&st1;" width="13.71" height="14.17"/>
	<rect x="1028.57" y="56.69" style="&st1;" width="13.71" height="14.17"/>
	<polygon style="&st1;" points="1426.29,0 1426.29,14.17 1426.29,28.35 1426.29,42.52 1426.29,56.69 1426.29,70.87 1440,70.87 
		1440,56.69 1440,42.52 1440,28.35 1440,14.17 1440,0 	"/>
	<rect x="1206.86" y="70.87" style="&st1;" width="13.71" height="14.17"/>
	<rect x="1275.43" y="70.87" style="&st1;" width="13.71" height="14.17"/>
	<rect x="1083.43" y="56.69" style="&st1;" width="13.71" height="14.17"/>
	<rect x="1124.57" y="70.87" style="&st1;" width="13.71" height="14.17"/>
	<rect x="1138.29" y="56.69" style="&st1;" width="13.71" height="14.17"/>
	<rect x="1330.29" y="56.69" style="&st1;" width="13.71" height="14.17"/>
	<rect x="1357.71" y="70.87" style="&st1;" width="13.71" height="14.17"/>
	<rect x="1385.14" y="56.69" style="&st1;" width="13.71" height="14.17"/>
</g>
<g>
	<polygon style="&st2;" points="356.57,14.17 356.57,0 342.86,0 329.14,0 315.43,0 301.71,0 288,0 274.29,0 260.57,0 246.86,0 
		233.14,0 219.43,0 205.71,0 192,0 178.29,0 164.57,0 150.86,0 137.14,0 123.43,0 109.71,0 96,0 82.29,0 68.57,0 54.86,0 41.14,0 
		27.43,0 13.71,0 0,0 0,14.17 0,28.35 0,28.35 0,42.52 0,42.52 0,56.69 0,56.69 0,70.87 13.71,70.87 13.71,56.69 27.43,56.69 
		41.14,56.69 41.14,56.69 41.14,70.87 41.14,85.04 54.86,85.04 54.86,70.87 68.57,70.87 68.57,56.69 82.29,56.69 96,56.69 
		109.71,56.69 109.71,56.69 109.71,70.87 123.43,70.87 123.43,85.04 137.14,85.04 137.14,70.87 137.14,70.87 150.86,70.87 
		164.57,70.87 178.29,70.87 178.29,85.04 192,85.04 205.71,85.04 205.71,70.87 219.43,70.87 219.43,56.69 233.14,56.69 
		233.14,70.87 246.86,70.87 246.86,56.69 246.86,56.69 246.86,70.87 260.57,70.87 260.57,56.69 274.29,56.69 274.29,56.69 
		274.29,70.87 274.29,85.04 288,85.04 288,70.87 301.71,70.87 315.43,70.87 315.43,56.69 329.14,56.69 342.86,56.69 342.86,56.69 
		342.86,70.87 356.57,70.87 356.57,56.69 356.57,56.69 356.57,42.52 356.57,42.52 356.57,28.35 356.57,28.35 	"/>
	<polygon style="&st2;" points="713.14,42.52 713.14,42.52 713.14,28.35 713.14,28.35 713.14,14.17 713.14,0 699.43,0 685.71,0 
		672,0 658.29,0 644.57,0 630.86,0 617.14,0 603.43,0 589.71,0 576,0 562.29,0 548.57,0 534.86,0 521.14,0 507.43,0 493.71,0 480,0 
		466.29,0 452.57,0 438.86,0 425.14,0 411.43,0 397.71,0 384,0 370.29,0 356.57,0 356.57,14.17 356.57,28.35 356.57,28.35 
		356.57,42.52 356.57,42.52 356.57,56.69 356.57,56.69 356.57,70.87 370.29,70.87 370.29,56.69 384,56.69 397.71,56.69 
		397.71,56.69 397.71,70.87 397.71,85.04 411.43,85.04 411.43,70.87 425.14,70.87 425.14,56.69 438.86,56.69 452.57,56.69 
		466.29,56.69 466.29,56.69 466.29,70.87 480,70.87 480,85.04 493.71,85.04 493.71,70.87 493.71,70.87 507.43,70.87 521.14,70.87 
		534.86,70.87 534.86,85.04 548.57,85.04 562.29,85.04 562.29,70.87 576,70.87 576,56.69 589.71,56.69 589.71,70.87 603.43,70.87 
		603.43,56.69 603.43,56.69 603.43,70.87 617.14,70.87 617.14,56.69 630.86,56.69 630.86,56.69 630.86,70.87 630.86,85.04 
		644.57,85.04 644.57,70.87 658.29,70.87 672,70.87 672,56.69 685.71,56.69 699.43,56.69 699.43,56.69 699.43,70.87 713.14,70.87 
		713.14,56.69 713.14,56.69 	"/>
	<polygon style="&st2;" points="1069.71,14.17 1069.71,0 1056,0 1042.29,0 1028.57,0 1014.86,0 1001.14,0 987.43,0 973.71,0 960,0 
		946.29,0 932.57,0 918.86,0 905.14,0 891.43,0 877.71,0 864,0 850.29,0 836.57,0 822.86,0 809.14,0 795.43,0 781.71,0 768,0 
		754.29,0 740.57,0 726.86,0 713.14,0 713.14,14.17 713.14,28.35 713.14,28.35 713.14,42.52 713.14,42.52 713.14,56.69 
		713.14,56.69 713.14,70.87 726.86,70.87 726.86,56.69 740.57,56.69 754.29,56.69 754.29,56.69 754.29,70.87 754.29,85.04 
		768,85.04 768,70.87 781.71,70.87 781.71,56.69 795.43,56.69 809.14,56.69 822.86,56.69 822.86,56.69 822.86,70.87 836.57,70.87 
		836.57,85.04 850.29,85.04 850.29,70.87 850.29,70.87 864,70.87 877.71,70.87 891.43,70.87 891.43,85.04 905.14,85.04 
		918.86,85.04 918.86,70.87 932.57,70.87 932.57,56.69 946.29,56.69 946.29,70.87 960,70.87 960,56.69 960,56.69 960,70.87 
		973.71,70.87 973.71,56.69 987.43,56.69 987.43,56.69 987.43,70.87 987.43,85.04 1001.14,85.04 1001.14,70.87 1014.86,70.87 
		1028.57,70.87 1028.57,56.69 1042.29,56.69 1056,56.69 1056,56.69 1056,70.87 1069.71,70.87 1069.71,56.69 1069.71,56.69 
		1069.71,42.52 1069.71,42.52 1069.71,28.35 1069.71,28.35 	"/>
	<polygon style="&st2;" points="1426.29,42.52 1426.29,28.35 1426.29,28.35 1426.29,14.17 1426.29,0 1412.57,0 1398.86,0 1385.14,0 
		1371.43,0 1357.71,0 1344,0 1330.29,0 1316.57,0 1302.86,0 1289.14,0 1275.43,0 1261.71,0 1248,0 1234.29,0 1220.57,0 1206.86,0 
		1193.14,0 1179.43,0 1165.71,0 1152,0 1138.29,0 1124.57,0 1110.86,0 1097.14,0 1083.43,0 1069.71,0 1069.71,14.17 1069.71,28.35 
		1069.71,28.35 1069.71,42.52 1069.71,42.52 1069.71,56.69 1069.71,56.69 1069.71,70.87 1083.43,70.87 1083.43,56.69 1097.14,56.69 
		1110.86,56.69 1110.86,56.69 1110.86,70.87 1110.86,85.04 1124.57,85.04 1124.57,70.87 1138.29,70.87 1138.29,56.69 1152,56.69 
		1165.71,56.69 1179.43,56.69 1179.43,56.69 1179.43,70.87 1193.14,70.87 1193.14,85.04 1206.86,85.04 1206.86,70.87 1206.86,70.87 
		1220.57,70.87 1234.29,70.87 1248,70.87 1248,85.04 1261.71,85.04 1275.43,85.04 1275.43,70.87 1289.14,70.87 1289.14,56.69 
		1302.86,56.69 1302.86,70.87 1316.57,70.87 1316.57,56.69 1316.57,56.69 1316.57,70.87 1330.29,70.87 1330.29,56.69 1344,56.69 
		1344,56.69 1344,70.87 1344,85.04 1357.71,85.04 1357.71,70.87 1371.43,70.87 1385.14,70.87 1385.14,56.69 1398.86,56.69 
		1412.57,56.69 1412.57,56.69 1412.57,70.87 1426.29,70.87 1426.29,56.69 1426.29,56.69 1426.29,42.52 	"/>
</g>
</svg>
