<?xml version="1.0" encoding="utf-8"?>
<!-- Generator: Adobe Illustrator 29.5.1, SVG Export Plug-In . SVG Version: 9.03 Build 0)  -->
<!DOCTYPE svg PUBLIC "-//W3C//DTD SVG 1.1//EN" "http://www.w3.org/Graphics/SVG/1.1/DTD/svg11.dtd" [
	<!ENTITY st0 "fill:#EF847D;">
	<!ENTITY st1 "fill:#2B2B2B;">
	<!ENTITY st2 "fill:#EA5B3A;">
	<!ENTITY st3 "fill:#C0412C;">
	<!ENTITY st4 "fill:#1D1D1B;">
]>
<svg version="1.1" id="Laag_1" xmlns="http://www.w3.org/2000/svg" xmlns:xlink="http://www.w3.org/1999/xlink" x="0px" y="0px"
	 viewBox="0 0 20.53 20.53" style="enable-background:new 0 0 20.53 20.53;" xml:space="preserve">
<rect x="6.16" y="4.09" style="&st0;" width="10.27" height="10.28"/>
<rect x="12.58" y="7.17" style="&st1;" width="0.77" height="1.54"/>
<rect x="9.24" y="7.17" style="&st1;" width="0.77" height="1.54"/>
<rect x="12.77" y="7.81" style="&st0;" width="0.38" height="0.77"/>
<rect x="9.43" y="7.81" style="&st0;" width="0.38" height="0.77"/>
<path style="&st2;" d="M18.48,6.14V4.09V2.03h-2.05h-2.05V0h-2.05h-2.05H8.21v2.03H6.16H4.11v2.06H2.05v2.06V8.2h2.05v2.06v2.06
	v2.06v2.06h2.05h2.05v2.06H6.16v2.06h2.05h2.05v-2.06v-2.06h2.05v2.06v2.06h2.05h2.05v-2.06h-2.05v-2.06h2.05h2.05v-2.06v-2.06
	v-2.06h2.05V8.2V6.14H18.48z M16.42,6.14V8.2v2.06v2.06v2.06h-2.05h-2.05h-2.05H8.21H6.16v-2.06v-2.06V8.2V6.14V4.09h2.05h2.05h2.05
	h2.05h2.05V6.14z"/>
<rect x="2.05" y="2.03" style="&st3;" width="2.05" height="2.06"/>
<polygon style="&st3;" points="10.27,16.42 10.27,18.48 10.27,20.53 12.32,20.53 12.32,18.48 12.32,16.42 "/>
<rect x="6.16" y="16.42" style="&st3;" width="2.05" height="2.06"/>
<rect x="4.11" y="18.48" style="&st3;" width="2.05" height="2.06"/>
<polygon style="&st3;" points="2.05,4.09 0,4.09 0,6.14 0,8.2 2.05,8.2 2.05,6.14 "/>
<polygon style="&st3;" points="2.05,12.31 2.05,14.36 2.05,16.42 4.11,16.42 4.11,14.36 4.11,12.31 4.11,10.25 4.11,8.2 2.05,8.2 
	2.05,10.25 "/>
<rect x="6.16" y="0" style="&st3;" width="2.05" height="2.06"/>
<g>
	
		<rect x="52.69" y="-6.65" transform="matrix(-1 -4.493440e-11 4.493440e-11 -1 145.0581 26.3804)" style="&st0;" width="39.67" height="39.67"/>
	
		<rect x="60.63" y="-22.51" transform="matrix(-4.447572e-11 1 -1 -4.447572e-11 46.0521 -83.146)" style="&st3;" width="7.93" height="7.93"/>
	
		<rect x="64.64" y="4.39" transform="matrix(-1 -4.465507e-11 4.465507e-11 -1 132.9689 16.8647)" style="&st4;" width="3.69" height="8.09"/>
	
		<rect x="80.76" y="4.39" transform="matrix(-1 -4.490154e-11 4.490154e-11 -1 165.2062 16.8647)" style="&st4;" width="3.69" height="8.09"/>
	
		<rect x="81.68" y="9.47" transform="matrix(-1 -4.490154e-11 4.490154e-11 -1 165.2062 20.7807)" style="&st0;" width="1.84" height="1.84"/>
	
		<rect x="65.5" y="9.47" transform="matrix(-1 -4.490154e-11 4.490154e-11 -1 132.8513 20.7807)" style="&st0;" width="1.84" height="1.84"/>
	
		<rect x="84.43" y="25.09" transform="matrix(-4.493491e-11 1 -1 -4.493491e-11 117.4564 -59.3389)" style="&st0;" width="7.93" height="7.93"/>
	
		<rect x="68.56" y="-38.38" transform="matrix(-4.493491e-11 1 -1 -4.493491e-11 61.9164 -83.1418)" style="&st2;" width="7.93" height="55.54"/>
	<rect x="92.36" y="-6.65" style="&st2;" width="7.93" height="31.74"/>
	<rect x="44.79" y="-14.58" style="&st2;" width="7.93" height="55.54"/>
	
		<rect x="52.69" y="33.03" transform="matrix(-1 1.957073e-08 -1.957073e-08 -1 113.3207 73.9991)" style="&st2;" width="7.93" height="7.93"/>
	
		<rect x="24.96" y="21.12" transform="matrix(-4.493491e-11 1 -1 -4.493491e-11 65.9189 -15.7357)" style="&st3;" width="31.74" height="7.93"/>
	
		<rect x="24.96" y="-2.68" transform="matrix(-4.493491e-11 1 -1 -4.493491e-11 34.1809 -31.6047)" style="&st3;" width="15.87" height="7.93"/>
	<rect x="36.86" y="-6.65" style="&st2;" width="7.93" height="15.87"/>
	
		<rect x="36.86" y="-14.58" transform="matrix(-4.470487e-11 1 -1 -4.470487e-11 30.2131 -51.441)" style="&st3;" width="7.93" height="7.93"/>
	
		<rect x="64.59" y="29.06" transform="matrix(-4.493491e-11 1 -1 -4.493491e-11 105.5551 -39.5033)" style="&st3;" width="15.87" height="7.93"/>
	
		<rect x="60.63" y="33.03" transform="matrix(-4.470487e-11 1 -1 -4.470487e-11 101.5877 -27.6016)" style="&st3;" width="7.93" height="7.93"/>
	<rect x="76.5" y="25.09" style="&st2;" width="7.93" height="15.87"/>
	
		<rect x="88.4" y="29.07" transform="matrix(-4.493491e-11 1 -1 -4.493491e-11 129.3643 -63.2995)" style="&st3;" width="15.87" height="7.93"/>
	
		<rect x="84.43" y="33.03" transform="matrix(-4.470487e-11 1 -1 -4.470487e-11 125.3908 -51.4047)" style="&st3;" width="7.93" height="7.93"/>
	
		<rect x="72.55" y="-26.48" transform="matrix(4.493479e-11 -1 1 4.493479e-11 95.0608 57.9668)" style="&st2;" width="7.93" height="15.87"/>
	<rect x="100.3" y="1.29" style="&st2;" width="7.93" height="15.87"/>
	<rect x="100.3" y="25.1" style="&st2;" width="7.93" height="15.87"/>
</g>
</svg>
