<?xml version="1.0" encoding="utf-8"?>
<!-- Generator: Adobe Illustrator 29.5.1, SVG Export Plug-In . SVG Version: 9.03 Build 0)  -->
<!DOCTYPE svg PUBLIC "-//W3C//DTD SVG 1.1//EN" "http://www.w3.org/Graphics/SVG/1.1/DTD/svg11.dtd" [
	<!ENTITY st0 "fill:#FFFFFD;">
	<!ENTITY st1 "fill:#1D1D1B;">
	<!ENTITY st2 "fill:#FFFFFF;">
	<!ENTITY st3 "fill:#CAC8C8;">
	<!ENTITY st4 "fill:#E7E7E8;">
]>
<svg version="1.1" id="Laag_1" xmlns="http://www.w3.org/2000/svg" xmlns:xlink="http://www.w3.org/1999/xlink" x="0px" y="0px"
	 viewBox="0 0 24.27 19.43" style="enable-background:new 0 0 24.27 19.43;" xml:space="preserve">
<rect x="4.86" y="4.86" style="&st0;" width="12.14" height="12.14"/>
<rect x="12.21" y="8.23" style="&st1;" width="1.13" height="2.48"/>
<rect x="7.28" y="8.23" style="&st1;" width="1.13" height="2.48"/>
<rect x="7.56" y="9.79" style="&st0;" width="0.56" height="0.56"/>
<rect x="12.51" y="9.79" style="&st0;" width="0.56" height="0.56"/>
<rect x="4.86" y="14.57" transform="matrix(-1.836970e-16 1 -1 -1.836970e-16 21.857 9.7142)" style="&st2;" width="2.43" height="2.43"/>
<g>
	<rect x="12.14" y="0" style="&st3;" width="2.43" height="2.43"/>
	<rect x="19.42" y="9.71" style="&st3;" width="2.43" height="9.71"/>
	<rect x="21.85" y="4.86" style="&st3;" width="2.43" height="4.86"/>
	<rect x="19.42" y="2.43" style="&st3;" width="2.43" height="2.43"/>
	<rect x="9.71" y="14.57" style="&st3;" width="2.43" height="4.86"/>
	<rect x="12.14" y="17" style="&st3;" width="2.43" height="2.43"/>
	<polygon style="&st3;" points="4.86,14.57 2.43,14.57 2.43,19.43 4.86,19.43 4.86,19.43 7.29,19.43 7.29,17 4.86,17 	"/>
</g>
<g>
	<polygon style="&st4;" points="19.43,4.86 19.43,2.43 19.42,2.43 16.99,2.43 12.14,2.43 12.14,0 7.28,0 7.28,2.43 2.43,2.43 
		2.43,4.86 0,4.86 0,9.71 2.43,9.71 2.43,14.57 4.86,14.57 4.86,4.86 16.99,4.86 16.99,17 14.57,17 14.57,19.43 17,19.43 17,19.43 
		19.42,19.43 19.42,9.71 21.85,9.71 21.85,4.86 	"/>
	<rect x="7.29" y="14.57" style="&st4;" width="2.43" height="4.86"/>
	<rect x="0" y="14.57" style="&st4;" width="2.43" height="4.86"/>
</g>
</svg>
