<?xml version="1.0" encoding="utf-8"?>
<!-- Generator: Adobe Illustrator 29.5.1, SVG Export Plug-In . SVG Version: 9.03 Build 0)  -->
<!DOCTYPE svg PUBLIC "-//W3C//DTD SVG 1.1//EN" "http://www.w3.org/Graphics/SVG/1.1/DTD/svg11.dtd" [
	<!ENTITY st0 "fill:#FFFFFD;">
	<!ENTITY st1 "fill:#CAC8C8;">
	<!ENTITY st2 "fill:#1D1D1B;">
	<!ENTITY st3 "fill:#FFFFFF;">
	<!ENTITY st4 "fill:#E7E7E8;">
	<!ENTITY st5 "fill:#BCBBBB;">
	<!ENTITY st6 "fill:#2B2B2B;">
	<!ENTITY st7 "fill:#5A5A58;">
]>
<svg version="1.1" id="Laag_1" xmlns="http://www.w3.org/2000/svg" xmlns:xlink="http://www.w3.org/1999/xlink" x="0px" y="0px"
	 viewBox="0 0 25.67 25.67" style="enable-background:new 0 0 25.67 25.67;" xml:space="preserve">
<g>
	<rect x="45.51" y="-6.3" style="&st0;" width="39.69" height="39.69"/>
	
		<rect x="69.32" y="-22.18" transform="matrix(-1.836970e-16 1 -1 -1.836970e-16 55.0761 -91.4923)" style="&st1;" width="7.94" height="7.94"/>
	<rect x="69.55" y="4.74" style="&st2;" width="3.69" height="8.09"/>
	<rect x="53.43" y="4.74" style="&st2;" width="3.69" height="8.09"/>
	<rect x="54.35" y="9.82" style="&st0;" width="1.84" height="1.84"/>
	<rect x="70.53" y="9.82" style="&st0;" width="1.84" height="1.84"/>
	
		<rect x="45.51" y="25.45" transform="matrix(-1.836970e-16 1 -1 -1.836970e-16 78.8943 -20.0548)" style="&st3;" width="7.94" height="7.94"/>
	
		<rect x="61.38" y="-38.05" transform="matrix(-1.836970e-16 1 -1 -1.836970e-16 55.0803 -75.6206)" style="&st4;" width="7.94" height="55.57"/>
	
		<rect x="37.57" y="-6.3" transform="matrix(-1 -1.224647e-16 1.224647e-16 -1 83.0732 19.1496)" style="&st4;" width="7.94" height="31.75"/>
	
		<rect x="85.16" y="-14.24" transform="matrix(-1 -1.224647e-16 1.224647e-16 -1 178.2579 27.0875)" style="&st4;" width="7.94" height="55.57"/>
	<rect x="77.26" y="33.4" style="&st4;" width="7.94" height="7.94"/>
	
		<rect x="81.19" y="21.48" transform="matrix(-1.836970e-16 1 -1 -1.836970e-16 122.5176 -71.6162)" style="&st1;" width="31.75" height="7.94"/>
	
		<rect x="97.07" y="-2.33" transform="matrix(-1.836970e-16 1 -1 -1.836970e-16 106.6413 -103.369)" style="&st1;" width="15.88" height="7.94"/>
	
		<rect x="93.1" y="-6.3" transform="matrix(-1 -1.224647e-16 1.224647e-16 -1 194.1339 3.2724)" style="&st4;" width="7.94" height="15.88"/>
	
		<rect x="93.1" y="-14.24" transform="matrix(-1.836970e-16 1 -1 -1.836970e-16 86.7958 -107.3386)" style="&st1;" width="7.94" height="7.94"/>
	
		<rect x="57.41" y="29.42" transform="matrix(-1.836970e-16 1 -1 -1.836970e-16 98.739 -31.9617)" style="&st1;" width="15.88" height="7.94"/>
	
		<rect x="69.32" y="33.39" transform="matrix(-1.836970e-16 1 -1 -1.836970e-16 110.6463 -35.9309)" style="&st1;" width="7.94" height="7.94"/>
	
		<rect x="53.44" y="25.45" transform="matrix(-1 -1.224647e-16 1.224647e-16 -1 114.8252 66.7774)" style="&st4;" width="7.94" height="15.88"/>
	
		<rect x="33.6" y="29.43" transform="matrix(-1.836970e-16 1 -1 -1.836970e-16 74.9318 -8.1414)" style="&st1;" width="15.88" height="7.94"/>
	
		<rect x="45.51" y="33.39" transform="matrix(-1.836970e-16 1 -1 -1.836970e-16 86.8322 -12.1168)" style="&st1;" width="7.94" height="7.94"/>
	
		<rect x="57.39" y="-26.15" transform="matrix(6.123234e-17 -1 1 6.123234e-17 79.572 43.1558)" style="&st4;" width="7.94" height="15.88"/>
	
		<rect x="29.63" y="-6.3" transform="matrix(-1 -1.224647e-16 1.224647e-16 -1 67.1972 3.2724)" style="&st4;" width="7.94" height="15.88"/>
	
		<rect x="29.63" y="25.46" transform="matrix(-1 -1.224647e-16 1.224647e-16 -1 67.1972 66.7904)" style="&st4;" width="7.94" height="15.88"/>
</g>
<rect x="7.7" y="5.13" style="&st5;" width="12.83" height="12.83"/>
<rect x="15.72" y="8.98" style="&st6;" width="0.96" height="1.92"/>
<rect x="11.55" y="8.98" style="&st6;" width="0.96" height="1.92"/>
<rect x="15.96" y="9.79" style="&st5;" width="0.48" height="0.96"/>
<rect x="11.79" y="9.79" style="&st5;" width="0.48" height="0.96"/>
<g>
	<polygon style="&st7;" points="23.1,7.7 23.1,5.13 23.1,2.57 20.53,2.57 17.97,2.57 17.97,0 15.4,0 15.4,0 12.83,0 12.83,2.57 
		12.83,2.57 12.83,0 10.27,0 10.27,2.57 7.7,2.57 5.13,2.57 5.13,5.13 2.57,5.13 2.57,7.7 2.57,10.27 5.13,10.27 5.13,12.83 
		5.13,15.4 5.13,17.97 5.13,20.53 7.7,20.53 10.27,20.53 10.27,23.1 7.7,23.1 7.7,25.67 10.27,25.67 12.83,25.67 12.83,23.1 
		12.83,20.53 15.4,20.53 17.97,20.53 17.97,17.97 15.4,17.97 12.83,17.97 10.27,17.97 7.7,17.97 7.7,15.4 7.7,12.83 7.7,10.27 
		7.7,7.7 7.7,5.13 10.27,5.13 12.83,5.13 15.4,5.13 17.97,5.13 20.53,5.13 20.53,7.7 20.53,10.27 20.53,12.83 20.53,15.4 23.1,15.4 
		23.1,12.83 25.67,12.83 25.67,10.27 25.67,7.7 	"/>
	<polygon style="&st7;" points="23.1,17.97 23.1,20.54 25.67,20.54 25.67,17.97 25.67,15.41 23.1,15.41 	"/>
</g>
<g>
	<rect x="2.57" y="2.57" style="&st6;" width="2.57" height="2.57"/>
	<rect x="7.7" y="20.53" style="&st6;" width="2.57" height="2.57"/>
	<rect x="5.13" y="23.1" style="&st6;" width="2.57" height="2.57"/>
	<polygon style="&st6;" points="2.57,5.13 0,5.13 0,7.7 0,10.27 2.57,10.27 2.57,7.7 	"/>
	<polygon style="&st6;" points="2.57,15.4 2.57,17.97 2.57,20.53 5.13,20.53 5.13,17.97 5.13,15.4 5.13,12.83 5.13,10.27 
		2.57,10.27 2.57,12.83 	"/>
	<polygon style="&st6;" points="20.53,15.41 20.53,17.97 17.97,17.97 17.97,20.54 20.53,20.54 23.1,20.54 23.1,17.97 23.1,15.41 	
		"/>
	<rect x="7.7" y="0" style="&st6;" width="2.57" height="2.57"/>
</g>
</svg>
