<?xml version="1.0" encoding="utf-8"?>
<!-- Generator: Adobe Illustrator 29.5.1, SVG Export Plug-In . SVG Version: 9.03 Build 0)  -->
<!DOCTYPE svg PUBLIC "-//W3C//DTD SVG 1.1//EN" "http://www.w3.org/Graphics/SVG/1.1/DTD/svg11.dtd" [
	<!ENTITY st0 "fill:#34383D;">
	<!ENTITY st1 "fill:#FFFFFF;">
	<!ENTITY st2 "font-family:'PressStart2P-Regular';">
	<!ENTITY st3 "font-size:36.2317px;">
	<!ENTITY st4 "fill:#63A6CC;">
	<!ENTITY st5 "fill:#2B2B2B;">
	<!ENTITY st6 "fill:#387BBF;">
	<!ENTITY st7 "fill:#1F4E9E;">
	<!ENTITY st8 "fill:#F0857D;">
	<!ENTITY st9 "fill:#EB5B3A;">
	<!ENTITY st10 "fill:#C1422C;">
	<!ENTITY st11 "fill:#FFDC4B;">
	<!ENTITY st12 "fill:#FCC10A;">
	<!ENTITY st13 "fill:#F7A62E;">
]>
<svg version="1.1" id="Laag_1" xmlns="http://www.w3.org/2000/svg" xmlns:xlink="http://www.w3.org/1999/xlink" x="0px" y="0px"
	 viewBox="0 0 821.43 414" style="enable-background:new 0 0 821.43 414;" xml:space="preserve">
<rect y="-0.41" style="&st0;" width="821.43" height="414.41"/>
<g>
	<rect x="160.71" y="137" style="&st0;" width="500" height="140"/>
	<text transform="matrix(1 0 0 1 308.8425 229.1575)" style="&st1; &st2; &st3;">MiniBytes</text>
	<g>
		<rect x="227.87" y="168.83" style="&st4;" width="22.38" height="22.38"/>
		<rect x="241.86" y="175.54" style="&st5;" width="1.68" height="3.36"/>
		<rect x="234.58" y="175.54" style="&st5;" width="1.68" height="3.36"/>
		<rect x="242.28" y="176.94" style="&st4;" width="0.84" height="1.68"/>
		<rect x="235" y="176.94" style="&st4;" width="0.84" height="1.68"/>
		<path style="&st6;" d="M254.73,173.3v-4.48v-4.48h-4.48h-4.48v-4.48h-4.48h-4.48h-4.48v4.48h-4.48h-4.48v4.48h-4.48v4.48v4.48
			h4.48v4.48v4.48v4.48v4.48h4.48h4.48v4.48h-4.48v4.48h4.48h4.48v-4.48v-4.48h4.48v4.48v4.48h4.48h4.48v-4.48h-4.48v-4.48h4.48
			h4.48v-4.48v-4.48v-4.48h4.48v-4.48v-4.48H254.73z M250.25,186.73v4.48h-4.48h-4.48h-4.48h-4.48h-4.48v-4.48v-4.48v-4.48v-4.47
			v-4.48h4.48h4.48h4.48h4.48h4.48v4.48v4.48v4.48V186.73z"/>
		<g>
			<rect x="218.92" y="164.35" style="&st7;" width="4.48" height="4.48"/>
			<polygon style="&st7;" points="236.82,195.68 236.82,200.16 236.82,204.63 241.3,204.63 241.3,200.16 241.3,195.68 			"/>
			<rect x="227.87" y="195.68" style="&st7;" width="4.48" height="4.48"/>
			<rect x="223.39" y="200.16" style="&st7;" width="4.48" height="4.48"/>
			<polygon style="&st7;" points="218.92,168.82 214.44,168.82 214.44,173.3 214.44,177.78 218.92,177.78 218.92,173.3 			"/>
			<polygon style="&st7;" points="218.92,186.73 218.92,191.21 218.92,195.68 223.39,195.68 223.39,191.21 223.39,186.73 
				223.39,182.25 223.39,177.78 218.92,177.78 218.92,182.25 			"/>
			<rect x="227.87" y="159.87" style="&st7;" width="4.48" height="4.48"/>
		</g>
	</g>
	<g>
		<rect x="196.82" y="213.55" style="&st8;" width="22.69" height="22.69"/>
		<rect x="203.62" y="220.36" style="&st5;" width="1.7" height="3.4"/>
		<rect x="211" y="220.36" style="&st5;" width="1.7" height="3.4"/>
		<rect x="204.05" y="221.78" style="&st8;" width="0.85" height="1.7"/>
		<rect x="211.42" y="221.78" style="&st8;" width="0.85" height="1.7"/>
		<g>
			<polygon style="&st9;" points="192.27,218.08 192.27,213.54 192.27,209.01 196.81,209.01 201.35,209.01 201.35,204.47 
				205.89,204.47 210.43,204.47 214.96,204.47 214.96,209.01 219.5,209.01 224.04,209.01 224.04,213.54 228.58,213.54 
				228.58,218.08 228.58,222.62 224.04,222.62 224.04,227.16 224.04,231.7 219.5,231.7 219.5,227.16 219.5,222.62 219.5,218.08 
				219.5,213.54 214.96,213.54 210.43,213.54 205.89,213.54 201.35,213.54 196.81,213.54 196.81,218.08 196.81,222.62 
				196.81,227.16 196.81,231.7 196.81,236.24 201.35,236.24 201.35,240.78 196.81,240.78 192.27,240.78 192.27,236.24 192.27,231.7 
				192.27,227.16 187.73,227.16 187.73,222.62 187.73,218.08 			"/>
			<polygon style="&st9;" points="228.58,236.24 228.58,240.78 224.04,240.78 224.04,236.24 224.04,231.7 228.58,231.7 			"/>
			<polygon style="&st9;" points="214.96,236.24 214.96,240.78 210.43,240.78 210.43,236.24 210.43,231.7 214.96,231.7 			"/>
		</g>
		<g>
			<polygon style="&st10;" points="187.73,209.01 192.27,209.01 192.27,213.54 192.27,218.08 187.73,218.08 187.73,213.54 			"/>
			<polygon style="&st10;" points="187.73,218.08 187.73,222.62 187.73,227.16 183.19,227.16 183.19,222.62 183.19,218.08 			"/>
			<polygon style="&st10;" points="192.27,231.7 192.27,236.24 192.27,240.78 187.73,240.78 187.73,236.24 187.73,231.7 
				187.73,227.16 192.27,227.16 			"/>
			<polygon style="&st10;" points="219.5,231.7 224.04,231.7 224.04,236.24 224.04,240.78 219.5,240.78 214.96,240.78 
				214.96,236.24 219.5,236.24 			"/>
			<polygon style="&st10;" points="205.89,231.7 210.43,231.7 210.43,236.24 210.43,240.78 205.89,240.78 201.35,240.78 
				201.35,236.24 205.89,236.24 			"/>
			<rect x="196.81" y="204.47" style="&st10;" width="4.54" height="4.54"/>
		</g>
	</g>
	<g>
		<rect x="259.12" y="204.43" style="&st11;" width="22.38" height="22.38"/>
		<rect x="265.82" y="211.15" style="&st5;" width="1.68" height="3.36"/>
		<rect x="273.1" y="211.15" style="&st5;" width="1.68" height="3.36"/>
		<rect x="266.25" y="212.55" style="&st11;" width="0.84" height="1.68"/>
		<rect x="273.52" y="212.55" style="&st11;" width="0.84" height="1.68"/>
		<g>
			<polygon style="&st12;" points="254.63,208.91 254.63,204.44 254.63,199.96 259.11,199.96 263.59,199.96 263.59,195.48 
				268.06,195.48 268.06,195.48 272.54,195.48 272.54,199.96 272.54,199.96 272.54,195.48 277.02,195.48 277.02,199.96 
				281.49,199.96 285.97,199.96 285.97,204.44 290.44,204.44 290.44,208.91 290.44,213.39 285.97,213.39 285.97,217.86 
				285.97,222.34 285.97,226.82 285.97,231.29 281.49,231.29 277.02,231.29 277.02,235.77 281.49,235.77 281.49,240.24 
				277.02,240.24 272.54,240.24 272.54,235.77 272.54,231.29 268.06,231.29 263.59,231.29 263.59,226.82 268.06,226.82 
				272.54,226.82 277.02,226.82 281.49,226.82 281.49,222.34 281.49,217.86 281.49,213.39 281.49,208.91 281.49,204.44 
				277.02,204.44 272.54,204.44 268.06,204.44 263.59,204.44 259.11,204.44 259.11,208.91 259.11,213.39 259.11,217.86 
				259.11,222.34 254.63,222.34 254.63,217.86 250.16,217.86 250.16,213.39 250.16,208.91 			"/>
			<polygon style="&st12;" points="254.63,226.83 254.63,231.31 250.16,231.31 250.16,226.83 250.16,222.35 254.63,222.35 			"/>
		</g>
		<g>
			<rect x="285.97" y="199.96" style="&st13;" width="4.48" height="4.48"/>
			<rect x="277.02" y="231.29" style="&st13;" width="4.48" height="4.48"/>
			<rect x="281.49" y="235.77" style="&st13;" width="4.48" height="4.48"/>
			<polygon style="&st13;" points="290.44,204.44 294.92,204.44 294.92,208.91 294.92,213.39 290.44,213.39 290.44,208.91 			"/>
			<polygon style="&st13;" points="290.44,222.34 290.44,226.82 290.44,231.29 285.97,231.29 285.97,226.82 285.97,222.34 
				285.97,217.86 285.97,213.39 290.44,213.39 290.44,217.86 			"/>
			<polygon style="&st13;" points="259.11,222.35 259.11,226.83 263.59,226.83 263.59,231.31 259.11,231.31 254.63,231.31 
				254.63,226.83 254.63,222.35 			"/>
			<rect x="277.02" y="195.48" style="&st13;" width="4.48" height="4.48"/>
		</g>
	</g>
</g>
</svg>
