<?xml version="1.0" encoding="utf-8"?>
<!-- Generator: Adobe Illustrator 29.5.1, SVG Export Plug-In . SVG Version: 9.03 Build 0)  -->
<!DOCTYPE svg PUBLIC "-//W3C//DTD SVG 1.1//EN" "http://www.w3.org/Graphics/SVG/1.1/DTD/svg11.dtd" [
	<!ENTITY st0 "fill:#FFDB4B;">
	<!ENTITY st1 "fill:#2B2B2B;">
	<!ENTITY st2 "fill:#FCC008;">
	<!ENTITY st3 "fill:#F6A52E;">
	<!ENTITY st4 "fill:#BCBBBB;">
	<!ENTITY st5 "fill:#5A5A58;">
	<!ENTITY st6 "fill:#FFFFFD;">
	<!ENTITY st7 "fill:#E7E7E8;">
	<!ENTITY st8 "fill:#CAC8C8;">
	<!ENTITY st9 "fill:#EF847D;">
	<!ENTITY st10 "fill:#EA5B3A;">
	<!ENTITY st11 "fill:#C0422D;">
	<!ENTITY st12 "fill:#63A5CC;">
	<!ENTITY st13 "fill:#387BBE;">
	<!ENTITY st14 "fill:#1E4E9D;">
]>
<svg version="1.1" id="Laag_1" xmlns="http://www.w3.org/2000/svg" xmlns:xlink="http://www.w3.org/1999/xlink" x="0px" y="0px"
	 viewBox="0 0 1532.84 404.25" style="enable-background:new 0 0 1532.84 404.25;" xml:space="preserve">
<g>
	<rect x="1025.54" y="290.87" style="&st0;" width="70.87" height="70.87"/>
	<rect x="1069.83" y="312.13" style="&st1;" width="5.31" height="10.63"/>
	<rect x="1046.8" y="312.13" style="&st1;" width="5.31" height="10.63"/>
	<rect x="1071.16" y="316.55" style="&st0;" width="2.66" height="5.31"/>
	<rect x="1048.13" y="316.55" style="&st0;" width="2.66" height="5.31"/>
	<path style="&st2;" d="M1110.58,305.04v-14.17v-14.17h-14.17h-14.17v-14.17h-14.17h-14.17h-14.17v14.17h-14.17h-14.17v14.17H997.2
		v14.17v14.17h14.17v14.17v14.17v14.17v14.17h14.17h14.17v14.17h-14.17v14.17h14.17h14.17v-14.17v-14.17h14.17v14.17v14.17h14.17
		h14.17v-14.17h-14.17v-14.17h14.17h14.17v-14.17v-14.17v-14.17h14.17v-14.17v-14.17H1110.58z M1096.41,347.56v14.17h-14.17h-14.17
		h-14.17h-14.17h-14.17v-14.17v-14.17v-14.17v-14.17v-14.17h14.17h14.17h14.17h14.17h14.17v14.17v14.17v14.17V347.56z"/>
	<g>
		<polygon style="&st3;" points="1124.75,276.69 1110.58,276.69 1110.58,290.87 1110.58,305.04 1124.75,305.04 1124.75,290.87 		"/>
		<polygon style="&st3;" points="1124.75,305.04 1124.75,319.21 1124.75,333.39 1138.93,333.39 1138.93,319.21 1138.93,305.04 		"/>
		<rect x="1082.24" y="375.91" style="&st3;" width="14.17" height="14.17"/>
		<polygon style="&st3;" points="1053.89,390.08 1053.89,404.25 1068.06,404.25 1068.06,390.08 1068.06,375.91 1053.89,375.91 		"/>
		<rect x="1096.41" y="390.08" style="&st3;" width="14.17" height="14.17"/>
		<polygon style="&st3;" points="1110.58,347.56 1110.58,361.73 1110.58,375.91 1124.75,375.91 1124.75,361.73 1124.75,347.56 
			1124.75,333.39 1110.58,333.39 		"/>
		<rect x="1082.24" y="262.52" style="&st3;" width="14.17" height="14.17"/>
	</g>
</g>
<g>
	<g>
		<rect x="1419.45" y="290.87" style="&st4;" width="70.87" height="70.87"/>
		<rect x="1463.75" y="312.13" style="&st1;" width="5.31" height="10.63"/>
		<rect x="1440.71" y="312.13" style="&st1;" width="5.31" height="10.63"/>
		<rect x="1465.07" y="316.55" style="&st4;" width="2.66" height="5.31"/>
		<rect x="1442.04" y="316.55" style="&st4;" width="2.66" height="5.31"/>
	</g>
	<path style="&st5;" d="M1504.49,305.04v-14.17v-14.17h-14.17h-14.17v-14.17h-14.17h-14.17h-14.17v14.17h-14.17h-14.17v14.17h-14.17
		v14.17v14.17h14.17v14.17v14.17v14.17v14.17h14.17h14.17v14.17h-14.17v14.17h14.17h14.17v-14.17v-14.17h14.17v14.17v14.17h14.17
		h14.17v-14.17h-14.17v-14.17h14.17h14.17v-14.17v-14.17v-14.17h14.17v-14.17v-14.17H1504.49z M1490.32,347.56v14.17h-14.17h-14.17
		h-14.17h-14.17h-14.17v-14.17v-14.17v-14.17v-14.17v-14.17h14.17h14.17h14.17h14.17h14.17v14.17v14.17v14.17V347.56z"/>
	<g>
		<polygon style="&st1;" points="1518.67,276.69 1504.49,276.69 1504.49,290.87 1504.49,305.04 1518.67,305.04 1518.67,290.87 		"/>
		<polygon style="&st1;" points="1518.67,305.04 1518.67,319.21 1518.67,333.39 1532.84,333.39 1532.84,319.21 1532.84,305.04 		"/>
		<rect x="1476.15" y="375.91" style="&st1;" width="14.17" height="14.17"/>
		<polygon style="&st1;" points="1447.8,390.08 1447.8,404.25 1461.97,404.25 1461.97,390.08 1461.97,375.91 1447.8,375.91 		"/>
		<rect x="1490.32" y="390.08" style="&st1;" width="14.17" height="14.17"/>
		<polygon style="&st1;" points="1504.49,347.56 1504.49,361.73 1504.49,375.91 1518.67,375.91 1518.67,361.73 1518.67,347.56 
			1518.67,333.39 1504.49,333.39 		"/>
		<rect x="1476.15" y="262.52" style="&st1;" width="14.17" height="14.17"/>
	</g>
</g>
<g>
	<rect x="1306.08" y="319.21" style="&st6;" width="70.87" height="70.87"/>
	<rect x="1350.37" y="340.47" style="&st1;" width="5.31" height="10.63"/>
	<rect x="1327.34" y="340.47" style="&st1;" width="5.31" height="10.63"/>
	<rect x="1351.7" y="344.9" style="&st6;" width="2.66" height="5.31"/>
	<rect x="1328.67" y="344.9" style="&st6;" width="2.66" height="5.31"/>
	<g>
		<polygon style="&st7;" points="1391.12,333.39 1391.12,319.21 1391.12,305.04 1376.95,305.04 1362.77,305.04 1348.6,305.04 
			1334.43,305.04 1334.43,305.04 1348.6,305.04 1348.6,290.87 1334.43,290.87 1334.43,290.87 1320.26,290.87 1320.26,305.04 
			1306.08,305.04 1291.91,305.04 1291.91,319.21 1277.74,319.21 1277.74,333.39 1277.74,347.56 1291.91,347.56 1291.91,361.73 
			1291.91,375.91 1306.08,375.91 1306.08,361.73 1306.08,347.56 1306.08,333.39 1306.08,319.21 1320.26,319.21 1334.43,319.21 
			1348.6,319.21 1362.77,319.21 1376.95,319.21 1376.95,333.39 1376.95,347.56 1376.95,361.73 1376.95,375.91 1376.95,390.08 
			1362.77,390.08 1362.77,404.25 1376.95,404.25 1391.12,404.25 1391.12,390.08 1391.12,375.91 1391.12,361.73 1405.29,361.73 
			1405.29,347.56 1405.29,333.39 		"/>
		<polygon style="&st7;" points="1277.74,390.08 1277.74,404.25 1291.91,404.25 1291.91,390.08 1291.91,375.91 1277.74,375.91 		"/>
		<polygon style="&st7;" points="1320.26,390.08 1320.26,404.25 1334.43,404.25 1334.43,390.08 1334.43,375.91 1320.26,375.91 		"/>
		<rect x="1348.6" y="290.87" style="&st7;" width="14.17" height="14.17"/>
	</g>
	<g>
		<polygon style="&st8;" points="1405.29,305.04 1391.12,305.04 1391.12,319.21 1391.12,333.39 1405.29,333.39 1405.29,319.21 		"/>
		<polygon style="&st8;" points="1405.29,333.39 1405.29,347.56 1405.29,361.73 1419.47,361.73 1419.47,347.56 1419.47,333.39 		"/>
		<polygon style="&st8;" points="1391.12,375.91 1391.12,390.08 1391.12,404.25 1405.29,404.25 1405.29,390.08 1405.29,375.91 
			1405.29,361.73 1391.12,361.73 		"/>
		<polygon style="&st8;" points="1306.08,375.91 1291.91,375.91 1291.91,390.08 1291.91,404.25 1306.08,404.25 1320.26,404.25 
			1320.26,390.08 1306.08,390.08 		"/>
		<polygon style="&st8;" points="1348.6,375.91 1334.43,375.91 1334.43,390.08 1334.43,404.25 1348.6,404.25 1362.77,404.25 
			1362.77,390.08 1348.6,390.08 		"/>
		<rect x="1362.77" y="290.87" style="&st8;" width="14.17" height="14.17"/>
	</g>
</g>
<g>
	<rect x="1334.43" y="191.65" style="&st9;" width="70.87" height="70.87"/>
	<rect x="1378.72" y="212.91" style="&st1;" width="5.31" height="10.63"/>
	<rect x="1355.69" y="212.91" style="&st1;" width="5.31" height="10.63"/>
	<rect x="1380.05" y="217.34" style="&st9;" width="2.66" height="5.31"/>
	<rect x="1357.02" y="217.34" style="&st9;" width="2.66" height="5.31"/>
	<g>
		<polygon style="&st10;" points="1419.47,205.83 1419.47,191.65 1419.47,177.48 1405.29,177.48 1391.12,177.48 1376.95,177.48 
			1362.77,177.48 1362.77,177.48 1376.95,177.48 1376.95,163.31 1362.77,163.31 1348.6,163.31 1348.6,177.48 1334.43,177.48 
			1320.25,177.48 1320.25,191.65 1306.08,191.65 1306.08,205.83 1306.08,220 1320.25,220 1320.25,234.17 1320.25,248.35 
			1334.43,248.35 1334.43,234.17 1334.43,220 1334.43,205.83 1334.43,191.65 1348.6,191.65 1362.77,191.65 1376.95,191.65 
			1391.12,191.65 1405.29,191.65 1405.29,205.83 1405.29,220 1405.29,234.17 1405.29,248.35 1405.29,262.52 1391.12,262.52 
			1376.95,262.52 1362.77,262.52 1348.6,262.52 1348.6,276.69 1362.77,276.69 1376.95,276.69 1376.95,290.87 1376.95,305.04 
			1391.12,305.04 1405.29,305.04 1405.29,290.87 1391.12,290.87 1391.12,276.69 1405.29,276.69 1419.47,276.69 1419.47,262.52 
			1419.47,248.35 1419.47,234.17 1433.64,234.17 1433.64,220 1433.64,205.83 		"/>
		<polygon style="&st10;" points="1306.08,262.52 1306.08,276.69 1320.25,276.69 1320.25,262.52 1320.25,248.35 1306.08,248.35 		
			"/>
		<rect x="1376.95" y="163.31" style="&st10;" width="14.17" height="14.17"/>
	</g>
	<g>
		<polygon style="&st11;" points="1433.64,177.48 1419.47,177.48 1419.47,191.65 1419.47,205.83 1433.64,205.83 1433.64,191.65 		
			"/>
		<polygon style="&st11;" points="1433.64,205.83 1433.64,220 1433.64,234.17 1447.81,234.17 1447.81,220 1447.81,205.83 		"/>
		<rect x="1391.12" y="276.69" style="&st11;" width="14.17" height="14.17"/>
		<rect x="1405.29" y="290.87" style="&st11;" width="14.17" height="14.17"/>
		<polygon style="&st11;" points="1419.47,248.35 1419.47,262.52 1419.47,276.69 1433.64,276.69 1433.64,262.52 1433.64,248.35 
			1433.64,234.17 1419.47,234.17 		"/>
		<polygon style="&st11;" points="1334.43,248.35 1320.25,248.35 1320.25,262.52 1320.25,276.69 1334.43,276.69 1348.6,276.69 
			1348.6,262.52 1334.43,262.52 		"/>
		<rect x="1391.12" y="163.31" style="&st11;" width="14.17" height="14.17"/>
	</g>
</g>
<rect x="99.21" y="290.87" style="&st9;" width="70.87" height="70.87"/>
<rect x="143.5" y="312.13" style="&st1;" width="5.31" height="10.63"/>
<rect x="120.47" y="312.13" style="&st1;" width="5.31" height="10.63"/>
<rect x="144.83" y="316.55" style="&st9;" width="2.66" height="5.31"/>
<rect x="121.8" y="316.55" style="&st9;" width="2.66" height="5.31"/>
<g>
	<path style="&st10;" d="M184.25,305.04v-14.17v-14.17h-14.17h-14.17h-14.17h-14.17h-14.17H99.21H85.04v14.17H70.87v14.17v14.17
		h14.17v14.17v14.17v14.17v14.17h14.17h14.17v14.17H99.21v14.17h14.17h14.17v-14.17V375.9h14.17v14.17v14.17h14.17h14.17v-14.17
		h-14.17V375.9h14.17h14.17v-14.17v-14.17v-14.17h14.17v-14.17v-14.17H184.25z M170.08,347.56v14.17h-14.17h-14.17h-14.17h-14.17
		H99.21v-14.17v-14.17v-14.17v-14.17v-14.17h14.17h14.17h14.17h14.17h14.17v14.17v14.17v14.17V347.56z"/>
	<polygon style="&st10;" points="127.56,276.69 141.73,276.69 155.91,276.69 155.91,262.52 141.73,262.52 141.73,262.52 
		127.56,262.52 	"/>
	<rect x="113.39" y="262.52" style="&st10;" width="14.17" height="14.17"/>
</g>
<g>
	<rect x="70.87" y="276.69" style="&st11;" width="14.17" height="14.17"/>
	<polygon style="&st11;" points="127.56,375.9 127.56,390.08 127.56,404.25 141.73,404.25 141.73,390.08 141.73,375.9 	"/>
	<rect x="99.21" y="375.9" style="&st11;" width="14.17" height="14.17"/>
	<rect x="85.04" y="390.08" style="&st11;" width="14.17" height="14.17"/>
	<polygon style="&st11;" points="70.87,290.87 56.69,290.87 56.69,305.04 56.69,319.21 70.87,319.21 70.87,305.04 	"/>
	<polygon style="&st11;" points="70.87,347.56 70.87,361.73 70.87,375.9 85.04,375.9 85.04,361.73 85.04,347.56 85.04,333.39 
		85.04,319.21 70.87,319.21 70.87,333.39 	"/>
	<rect x="99.21" y="262.52" style="&st11;" width="14.17" height="14.17"/>
</g>
<g>
	<rect x="212.64" y="319.21" style="&st0;" width="70.87" height="70.87"/>
	<rect x="256.93" y="340.47" style="&st1;" width="5.31" height="10.63"/>
	<rect x="233.9" y="340.47" style="&st1;" width="5.31" height="10.63"/>
	<rect x="258.26" y="344.9" style="&st0;" width="2.66" height="5.31"/>
	<rect x="235.23" y="344.9" style="&st0;" width="2.66" height="5.31"/>
	<g>
		<polygon style="&st2;" points="297.68,333.39 297.68,319.21 297.68,305.04 283.51,305.04 269.33,305.04 269.33,290.87 
			255.16,290.87 240.99,290.87 226.81,290.87 226.81,305.04 212.64,305.04 198.47,305.04 198.47,319.21 184.29,319.21 
			184.29,333.39 184.29,347.56 198.47,347.56 198.47,361.73 198.47,375.9 198.47,390.08 198.47,404.25 212.64,404.25 226.81,404.25 
			226.81,390.08 212.64,390.08 212.64,375.9 212.64,361.73 212.64,347.56 212.64,333.39 212.64,319.21 226.81,319.21 240.99,319.21 
			255.16,319.21 269.33,319.21 283.51,319.21 283.51,333.39 283.51,347.56 283.51,361.73 283.51,375.9 297.68,375.9 297.68,361.73 
			311.85,361.73 311.85,347.56 311.85,333.39 		"/>
		<polygon style="&st2;" points="255.16,390.08 255.16,404.25 269.33,404.25 269.33,390.08 269.33,375.9 255.16,375.9 		"/>
		<polygon style="&st2;" points="297.68,404.25 311.85,404.25 311.85,390.08 311.85,375.9 297.68,375.9 297.68,390.08 		"/>
	</g>
	<g>
		<rect x="184.29" y="305.04" style="&st3;" width="14.17" height="14.17"/>
		<polygon style="&st3;" points="170.12,333.39 170.12,347.56 184.29,347.56 184.29,333.39 184.29,319.21 170.12,319.21 		"/>
		<polygon style="&st3;" points="184.29,375.9 184.29,390.08 184.29,404.25 198.47,404.25 198.47,390.08 198.47,375.9 
			198.47,361.73 198.47,347.56 184.29,347.56 184.29,361.73 		"/>
		<polygon style="&st3;" points="240.99,390.08 226.81,390.08 226.81,404.25 240.99,404.25 255.16,404.25 255.16,390.08 
			255.16,375.9 240.99,375.9 		"/>
		<polygon style="&st3;" points="283.51,375.9 283.51,390.08 269.33,390.08 269.33,404.25 283.51,404.25 297.68,404.25 
			297.68,390.08 297.68,375.9 		"/>
		<rect x="212.64" y="290.87" style="&st3;" width="14.17" height="14.17"/>
	</g>
</g>
<rect x="42.52" y="205.79" style="&st6;" width="70.87" height="70.87"/>
<rect x="86.81" y="227.05" style="&st1;" width="5.31" height="10.63"/>
<rect x="63.78" y="227.05" style="&st1;" width="5.31" height="10.63"/>
<rect x="88.14" y="231.47" style="&st6;" width="2.66" height="5.31"/>
<rect x="65.11" y="231.47" style="&st6;" width="2.66" height="5.31"/>
<g>
	<polygon style="&st7;" points="127.56,219.96 127.56,205.79 127.56,191.61 113.39,191.61 99.21,191.61 85.04,191.61 70.87,191.61 
		56.69,191.61 42.52,191.61 28.35,191.61 28.35,205.79 14.17,205.79 14.17,219.96 14.17,234.13 28.35,234.13 28.35,248.31 
		28.35,262.48 28.35,276.65 28.35,290.82 42.52,290.82 56.69,290.82 56.69,305 42.52,305 42.52,319.17 56.69,319.17 70.87,319.17 
		70.87,305 70.87,290.82 85.04,290.82 99.21,290.82 99.21,276.65 85.04,276.65 70.87,276.65 56.69,276.65 42.52,276.65 
		42.52,262.48 42.52,248.31 42.52,234.13 42.52,219.96 42.52,205.79 56.69,205.79 70.87,205.79 85.04,205.79 99.21,205.79 
		113.39,205.79 113.39,219.96 113.39,234.13 113.39,248.31 113.39,262.48 127.56,262.48 127.56,248.31 141.73,248.31 141.73,234.13 
		141.73,219.96 	"/>
	<polygon style="&st7;" points="127.56,276.69 127.56,290.87 141.73,290.87 141.73,276.69 141.73,262.52 127.56,262.52 	"/>
	<polygon style="&st7;" points="85.04,191.61 85.04,191.61 99.21,191.61 99.21,177.44 85.04,177.44 70.87,177.44 70.87,191.61 	"/>
	<rect x="56.69" y="177.44" style="&st7;" width="14.17" height="14.17"/>
</g>
<g>
	<rect x="14.17" y="191.61" style="&st8;" width="14.17" height="14.17"/>
	<rect x="42.52" y="290.82" style="&st8;" width="14.17" height="14.17"/>
	<rect x="28.35" y="305" style="&st8;" width="14.17" height="14.17"/>
	<polygon style="&st8;" points="14.17,205.79 0,205.79 0,219.96 0,234.13 14.17,234.13 14.17,219.96 	"/>
	<polygon style="&st8;" points="14.17,262.48 14.17,276.65 14.17,290.82 28.35,290.82 28.35,276.65 28.35,262.48 28.35,248.31 
		28.35,234.13 14.17,234.13 14.17,248.31 	"/>
	<polygon style="&st8;" points="113.39,262.52 113.39,276.69 99.21,276.69 99.21,290.87 113.39,290.87 127.56,290.87 127.56,276.69 
		127.56,262.52 	"/>
	<rect x="42.52" y="177.44" style="&st8;" width="14.17" height="14.17"/>
</g>
<rect x="551.33" y="319.21" style="&st12;" width="70.87" height="70.87"/>
<rect x="595.62" y="340.47" style="&st1;" width="5.31" height="10.63"/>
<rect x="572.59" y="340.47" style="&st1;" width="5.31" height="10.63"/>
<rect x="596.95" y="344.9" style="&st12;" width="2.66" height="5.31"/>
<rect x="573.92" y="344.9" style="&st12;" width="2.66" height="5.31"/>
<g>
	<polygon style="&st13;" points="636.37,333.39 636.37,319.21 636.37,305.04 622.2,305.04 608.02,305.04 593.85,305.04 
		579.68,305.04 565.5,305.04 551.33,305.04 537.16,305.04 537.16,319.21 522.98,319.21 522.98,333.39 522.98,347.56 537.16,347.56 
		537.16,361.73 537.16,375.91 537.16,390.08 537.16,404.25 551.33,404.25 565.5,404.25 565.5,390.08 551.33,390.08 551.33,375.91 
		551.33,361.73 551.33,347.56 551.33,333.39 551.33,319.21 565.5,319.21 579.68,319.21 593.85,319.21 608.02,319.21 622.2,319.21 
		622.2,333.39 622.2,347.56 622.2,361.73 622.2,375.91 622.2,390.08 636.37,390.08 636.37,404.25 650.54,404.25 650.54,390.08 
		650.54,375.91 636.37,375.91 636.37,361.73 650.54,361.73 650.54,347.56 650.54,333.39 	"/>
	<polygon style="&st13;" points="593.85,390.08 593.85,404.25 608.02,404.25 608.02,390.08 608.02,375.91 593.85,375.91 	"/>
	<polygon style="&st13;" points="579.68,305.04 593.85,305.04 593.85,305.04 608.02,305.04 608.02,290.87 593.85,290.87 
		593.85,290.87 579.68,290.87 	"/>
	<rect x="565.5" y="290.87" style="&st13;" width="14.17" height="14.17"/>
</g>
<g>
	<rect x="522.98" y="305.04" style="&st14;" width="14.17" height="14.17"/>
	<polygon style="&st14;" points="508.81,333.39 508.81,347.56 522.98,347.56 522.98,333.39 522.98,319.21 508.81,319.21 	"/>
	<polygon style="&st14;" points="522.98,375.91 522.98,390.08 522.98,404.25 537.16,404.25 537.16,390.08 537.16,375.91 
		537.16,361.73 537.16,347.56 522.98,347.56 522.98,361.73 	"/>
	<polygon style="&st14;" points="579.68,390.08 565.5,390.08 565.5,404.25 579.68,404.25 593.85,404.25 593.85,390.08 
		593.85,375.91 579.68,375.91 	"/>
	<polygon style="&st14;" points="622.2,375.91 622.2,390.08 608.02,390.08 608.02,404.25 622.2,404.25 636.37,404.25 636.37,390.08 
		636.37,375.91 	"/>
	<rect x="551.33" y="290.87" style="&st14;" width="14.17" height="14.17"/>
</g>
<rect x="1191.42" y="28.35" style="&st12;" width="70.87" height="70.87"/>
<rect x="1235.72" y="49.61" style="&st1;" width="5.31" height="10.63"/>
<rect x="1212.68" y="49.61" style="&st1;" width="5.31" height="10.63"/>
<rect x="1237.04" y="54.04" style="&st12;" width="2.66" height="5.31"/>
<rect x="1214.01" y="54.04" style="&st12;" width="2.66" height="5.31"/>
<g>
	<polygon style="&st13;" points="1276.46,42.52 1276.46,28.35 1276.46,14.17 1262.29,14.17 1248.12,14.17 1233.94,14.17 
		1219.77,14.17 1219.77,14.17 1233.94,14.17 1233.94,0 1219.77,0 1205.6,0 1205.6,14.17 1191.42,14.17 1177.25,14.17 1177.25,28.35 
		1163.08,28.35 1163.08,42.52 1163.08,56.69 1177.25,56.69 1177.25,70.87 1177.25,85.04 1191.42,85.04 1191.42,70.87 1191.42,56.69 
		1191.42,42.52 1191.42,28.35 1205.6,28.35 1219.77,28.35 1233.94,28.35 1248.12,28.35 1262.29,28.35 1262.29,42.52 1262.29,56.69 
		1262.29,70.87 1262.29,85.04 1262.29,99.21 1248.12,99.21 1233.94,99.21 1219.77,99.21 1205.6,99.21 1205.6,113.39 1219.77,113.39 
		1233.94,113.39 1233.94,127.56 1233.94,141.73 1248.12,141.73 1262.29,141.73 1262.29,127.56 1248.12,127.56 1248.12,113.39 
		1262.29,113.39 1276.46,113.39 1276.46,99.21 1276.46,85.04 1276.46,70.87 1290.64,70.87 1290.64,56.69 1290.64,42.52 	"/>
	<polygon style="&st13;" points="1163.08,99.21 1163.08,113.39 1177.25,113.39 1177.25,99.21 1177.25,85.04 1163.08,85.04 	"/>
	<rect x="1233.94" style="&st13;" width="14.17" height="14.17"/>
</g>
<g>
	<polygon style="&st14;" points="1290.64,14.17 1276.46,14.17 1276.46,28.35 1276.46,42.52 1290.64,42.52 1290.64,28.35 	"/>
	<polygon style="&st14;" points="1290.64,42.52 1290.64,56.69 1290.64,70.87 1304.81,70.87 1304.81,56.69 1304.81,42.52 	"/>
	<rect x="1248.12" y="113.39" style="&st14;" width="14.17" height="14.17"/>
	<rect x="1262.29" y="127.56" style="&st14;" width="14.17" height="14.17"/>
	<polygon style="&st14;" points="1276.46,85.04 1276.46,99.21 1276.46,113.39 1290.64,113.39 1290.64,99.21 1290.64,85.04 
		1290.64,70.87 1276.46,70.87 	"/>
	<polygon style="&st14;" points="1191.42,85.04 1177.25,85.04 1177.25,99.21 1177.25,113.39 1191.42,113.39 1205.6,113.39 
		1205.6,99.21 1191.42,99.21 	"/>
	<rect x="1248.12" style="&st14;" width="14.17" height="14.17"/>
</g>
<g>
	<g>
		<rect x="256.06" y="126.06" style="&st4;" width="70.87" height="70.87"/>
		<rect x="300.35" y="147.32" style="&st1;" width="5.31" height="10.63"/>
		<rect x="277.32" y="147.32" style="&st1;" width="5.31" height="10.63"/>
		<rect x="301.68" y="151.75" style="&st4;" width="2.66" height="5.31"/>
		<rect x="278.65" y="151.75" style="&st4;" width="2.66" height="5.31"/>
	</g>
	<g>
		<polygon style="&st5;" points="341.1,140.23 341.1,126.06 341.1,111.89 326.93,111.89 312.75,111.89 312.75,97.71 298.58,97.71 
			298.58,97.71 284.41,97.71 284.41,111.89 284.41,111.89 284.41,97.71 270.23,97.71 270.23,111.89 256.06,111.89 241.89,111.89 
			241.89,126.06 227.72,126.06 227.72,140.23 227.72,154.41 241.89,154.41 241.89,168.58 241.89,182.75 241.89,196.93 241.89,211.1 
			256.06,211.1 270.23,211.1 270.23,225.27 256.06,225.27 256.06,239.45 270.23,239.45 284.41,239.45 284.41,225.27 284.41,211.1 
			298.58,211.1 312.75,211.1 312.75,196.93 298.58,196.93 284.41,196.93 270.23,196.93 256.06,196.93 256.06,182.75 256.06,168.58 
			256.06,154.41 256.06,140.23 256.06,126.06 270.23,126.06 284.41,126.06 298.58,126.06 312.75,126.06 326.93,126.06 
			326.93,140.23 326.93,154.41 326.93,168.58 326.93,182.75 341.1,182.75 341.1,168.58 355.27,168.58 355.27,154.41 355.27,140.23 
					"/>
		<polygon style="&st5;" points="341.1,196.97 341.1,211.14 355.27,211.14 355.27,196.97 355.27,182.79 341.1,182.79 		"/>
	</g>
	<g>
		<rect x="227.72" y="111.89" style="&st1;" width="14.17" height="14.17"/>
		<rect x="256.06" y="211.1" style="&st1;" width="14.17" height="14.17"/>
		<rect x="241.89" y="225.27" style="&st1;" width="14.17" height="14.17"/>
		<polygon style="&st1;" points="227.72,126.06 213.54,126.06 213.54,140.23 213.54,154.41 227.72,154.41 227.72,140.23 		"/>
		<polygon style="&st1;" points="227.72,182.75 227.72,196.93 227.72,211.1 241.89,211.1 241.89,196.93 241.89,182.75 
			241.89,168.58 241.89,154.41 227.72,154.41 227.72,168.58 		"/>
		<polygon style="&st1;" points="326.93,182.79 326.93,196.97 312.75,196.97 312.75,211.14 326.93,211.14 341.1,211.14 
			341.1,196.97 341.1,182.79 		"/>
		<rect x="256.06" y="97.71" style="&st1;" width="14.17" height="14.17"/>
	</g>
</g>
</svg>
