<?xml version="1.0" encoding="utf-8"?>
<!-- Generator: Adobe Illustrator 29.5.1, SVG Export Plug-In . SVG Version: 9.03 Build 0)  -->
<!DOCTYPE svg PUBLIC "-//W3C//DTD SVG 1.1//EN" "http://www.w3.org/Graphics/SVG/1.1/DTD/svg11.dtd" [
	<!ENTITY st0 "fill:#E7E7E8;">
	<!ENTITY st1 "fill:#CAC8C8;">
	<!ENTITY st2 "fill:#FFDB4B;">
	<!ENTITY st3 "fill:#2B2B2B;">
	<!ENTITY st4 "fill:#FCC008;">
	<!ENTITY st5 "fill:#F6A52E;">
	<!ENTITY st6 "fill:#BCBBBB;">
	<!ENTITY st7 "fill:#5A5A58;">
	<!ENTITY st8 "fill:#FFFFFD;">
	<!ENTITY st9 "fill:#EF847D;">
	<!ENTITY st10 "fill:#EA5B3A;">
	<!ENTITY st11 "fill:#C0422D;">
	<!ENTITY st12 "fill:#63A5CC;">
	<!ENTITY st13 "fill:#387BBE;">
	<!ENTITY st14 "fill:#1E4E9D;">
]>
<svg version="1.1" id="Laag_1" xmlns="http://www.w3.org/2000/svg" xmlns:xlink="http://www.w3.org/1999/xlink" x="0px" y="0px"
	 viewBox="0 0 1488.19 85.14" style="enable-background:new 0 0 1488.19 85.14;" xml:space="preserve">
<g>
	<polygon style="&st0;" points="1474.02,85.14 1474.02,70.96 1459.85,70.96 1459.85,85.14 1459.85,85.14 	"/>
	<polygon style="&st0;" points="1417.33,85.14 1417.33,85.14 1431.5,85.14 1431.5,70.96 1431.5,56.79 1417.33,56.79 1417.33,70.96 
		1403.15,70.96 1403.15,85.14 1403.15,85.14 	"/>
	<polygon style="&st0;" points="1261.42,85.14 1261.42,85.14 1275.59,85.14 1275.59,85.14 1289.77,85.14 1289.77,85.14 
		1303.94,85.14 1303.94,85.14 1318.11,85.14 1318.11,85.14 1332.29,85.14 1332.29,85.14 1346.46,85.14 1346.46,85.14 1360.63,85.14 
		1360.63,70.96 1346.46,70.96 1346.46,56.79 1332.29,56.79 1332.29,70.96 1332.29,70.96 1318.11,70.96 1303.94,70.96 1289.77,70.96 
		1289.77,56.79 1275.59,56.79 1261.42,56.79 1261.42,70.96 1247.25,70.96 1247.25,85.14 1247.25,85.14 	"/>
	<polygon style="&st0;" points="1218.9,85.14 1218.9,70.96 1204.73,70.96 1204.73,85.14 1204.73,85.14 	"/>
	<rect x="1218.9" y="70.96" style="&st0;" width="14.17" height="14.17"/>
	<polygon style="&st0;" points="1162.21,85.14 1162.21,85.14 1176.38,85.14 1176.38,85.14 1190.55,85.14 1190.55,70.96 
		1190.55,56.79 1176.38,56.79 1176.38,70.96 1162.21,70.96 1148.03,70.96 1148.03,85.14 1148.03,85.14 	"/>
	<polygon style="&st0;" points="1119.69,85.14 1119.69,70.96 1105.52,70.96 1105.52,85.14 1105.52,85.14 	"/>
	<polygon style="&st0;" points="1105.51,85.14 1105.51,70.96 1091.34,70.96 1091.34,85.14 1091.34,85.14 	"/>
	<polygon style="&st0;" points="1048.82,85.14 1048.82,85.14 1062.99,85.14 1062.99,70.96 1062.99,56.79 1048.82,56.79 
		1048.82,70.96 1034.65,70.96 1034.65,85.14 1034.65,85.14 	"/>
	<polygon style="&st0;" points="892.92,85.14 892.92,85.14 907.09,85.14 907.09,85.14 921.26,85.14 921.26,85.14 935.44,85.14 
		935.44,85.14 949.61,85.14 949.61,85.14 963.78,85.14 963.78,85.14 977.96,85.14 977.96,85.14 992.13,85.14 992.13,70.96 
		977.96,70.96 977.96,56.79 963.78,56.79 963.78,70.96 963.78,70.96 949.61,70.96 935.44,70.96 921.26,70.96 921.26,56.79 
		907.09,56.79 892.92,56.79 892.92,70.96 878.74,70.96 878.74,85.14 878.74,85.14 	"/>
	<polygon style="&st0;" points="850.4,85.14 850.4,70.96 836.22,70.96 836.22,85.14 836.22,85.14 	"/>
	<rect x="850.4" y="70.96" style="&st0;" width="14.17" height="14.17"/>
	<polygon style="&st0;" points="807.88,85.14 822.05,85.14 822.05,70.96 822.05,56.79 807.88,56.79 807.88,70.96 793.7,70.96 
		779.53,70.96 779.53,85.14 793.7,85.14 	"/>
	<rect x="737.01" y="70.96" style="&st0;" width="14.17" height="14.17"/>
	<rect x="722.84" y="70.96" style="&st0;" width="14.17" height="14.17"/>
	<polygon style="&st0;" points="694.49,85.14 694.49,70.96 694.49,56.79 680.32,56.79 680.32,70.96 666.14,70.96 666.14,85.14 
		680.32,85.14 	"/>
	<polygon style="&st0;" points="524.41,85.14 524.41,85.14 538.58,85.14 538.59,85.14 552.76,85.14 552.76,85.14 566.93,85.14 
		566.93,85.14 581.1,85.14 581.1,85.14 595.28,85.14 595.28,85.14 609.45,85.14 609.45,85.14 623.62,85.14 623.62,70.96 
		609.45,70.96 609.45,56.79 595.28,56.79 595.28,70.96 595.28,70.96 581.1,70.96 566.93,70.96 552.76,70.96 552.76,56.79 
		538.58,56.79 524.41,56.79 524.41,70.96 510.24,70.96 510.24,85.14 510.24,85.14 	"/>
	<rect x="467.72" y="70.96" style="&st0;" width="14.17" height="14.17"/>
	<rect x="481.89" y="70.96" style="&st0;" width="14.17" height="14.17"/>
	<polygon style="&st0;" points="439.37,85.14 453.55,85.14 453.55,70.96 453.55,56.79 439.37,56.79 439.37,70.96 425.2,70.96 
		411.03,70.96 411.03,85.14 425.2,85.14 	"/>
	<rect x="368.51" y="70.96" style="&st0;" width="14.17" height="14.17"/>
	<rect x="354.33" y="70.96" style="&st0;" width="14.17" height="14.17"/>
	<polygon style="&st0;" points="325.99,85.14 325.99,70.96 325.99,56.79 311.81,56.79 311.81,70.96 297.64,70.96 297.64,85.14 
		311.81,85.14 	"/>
	<polygon style="&st0;" points="155.91,85.14 155.91,85.14 170.08,85.14 170.08,85.14 184.25,85.14 184.25,85.14 198.43,85.14 
		198.43,85.14 212.6,85.14 212.6,85.14 226.77,85.14 226.77,85.14 240.95,85.14 240.95,85.14 255.12,85.14 255.12,70.96 
		240.95,70.96 240.95,56.79 226.77,56.79 226.77,70.96 226.77,70.96 212.6,70.96 198.43,70.96 184.25,70.96 184.25,56.79 
		170.08,56.79 155.91,56.79 155.91,70.96 141.73,70.96 141.73,85.14 141.73,85.14 	"/>
	<rect x="99.21" y="70.96" style="&st0;" width="14.17" height="14.17"/>
	<rect x="113.39" y="70.96" style="&st0;" width="14.17" height="14.17"/>
	<polygon style="&st0;" points="56.69,85.14 56.69,85.14 70.87,85.14 70.87,85.14 85.04,85.14 85.04,70.96 85.04,56.79 70.87,56.79 
		70.87,70.96 56.69,70.96 42.52,70.96 42.52,85.14 42.52,85.14 	"/>
	<rect x="0" y="70.96" style="&st0;" width="14.17" height="14.17"/>
</g>
<g>
	<rect x="14.18" y="70.96" style="&st1;" width="14.17" height="14.17"/>
	<polygon style="&st1;" points="85.04,85.14 99.21,85.14 99.21,70.96 99.21,70.96 99.21,56.79 85.04,56.79 85.04,70.96 85.04,70.96 
			"/>
	<rect x="127.56" y="70.96" style="&st1;" width="14.17" height="14.17"/>
	<rect x="240.95" y="56.79" style="&st1;" width="14.17" height="14.17"/>
	<rect x="255.12" y="70.96" style="&st1;" width="14.17" height="14.17"/>
	<polygon style="&st1;" points="340.16,70.96 340.16,56.79 325.99,56.79 325.99,70.96 325.99,85.14 340.16,85.14 	"/>
	<rect x="382.68" y="70.96" style="&st1;" width="14.17" height="14.17"/>
	<polygon style="&st1;" points="467.72,70.96 467.72,56.79 453.55,56.79 453.55,70.96 453.55,85.14 467.72,85.14 	"/>
	<rect x="496.07" y="70.96" style="&st1;" width="14.17" height="14.17"/>
	<rect x="552.76" y="56.79" style="&st1;" width="14.17" height="14.17"/>
	<rect x="609.45" y="56.79" style="&st1;" width="14.17" height="14.17"/>
	<rect x="623.62" y="70.96" style="&st1;" width="14.17" height="14.17"/>
	<polygon style="&st1;" points="708.66,70.96 708.66,56.79 694.49,56.79 694.49,70.96 694.49,85.14 708.66,85.14 	"/>
	<rect x="751.18" y="70.96" style="&st1;" width="14.17" height="14.17"/>
	<polygon style="&st1;" points="836.22,70.96 836.22,56.79 822.05,56.79 822.05,70.96 822.05,85.14 836.22,85.14 	"/>
	<rect x="864.57" y="70.96" style="&st1;" width="14.17" height="14.17"/>
	<rect x="921.26" y="56.79" style="&st1;" width="14.17" height="14.17"/>
	<rect x="977.96" y="56.79" style="&st1;" width="14.17" height="14.17"/>
	<rect x="992.13" y="70.96" style="&st1;" width="14.17" height="14.17"/>
	<polygon style="&st1;" points="1077.17,70.96 1077.17,56.79 1062.99,56.79 1062.99,70.96 1062.99,85.14 1077.17,85.14 	"/>
	<rect x="1119.69" y="70.96" style="&st1;" width="14.17" height="14.17"/>
	<polygon style="&st1;" points="1190.55,85.14 1204.73,85.14 1204.73,70.96 1204.73,70.96 1204.73,56.79 1190.55,56.79 
		1190.55,70.96 1190.55,70.96 	"/>
	<rect x="1233.07" y="70.96" style="&st1;" width="14.17" height="14.17"/>
	<rect x="1289.77" y="56.79" style="&st1;" width="14.17" height="14.17"/>
	<rect x="1346.46" y="56.79" style="&st1;" width="14.17" height="14.17"/>
	<rect x="1360.63" y="70.96" style="&st1;" width="14.17" height="14.17"/>
	<polygon style="&st1;" points="1445.67,70.96 1445.67,56.79 1431.5,56.79 1431.5,70.96 1431.5,85.14 1445.67,85.14 	"/>
	<rect x="1474.02" y="70.96" style="&st1;" width="14.17" height="14.17"/>
	<rect x="184.25" y="56.79" style="&st1;" width="14.17" height="14.17"/>
</g>
<g>
	<rect x="842.75" y="25.53" style="&st2;" width="28.4" height="28.4"/>
	<rect x="860.5" y="34.05" style="&st3;" width="2.13" height="4.26"/>
	<rect x="851.27" y="34.05" style="&st3;" width="2.13" height="4.26"/>
	<rect x="861.03" y="35.82" style="&st2;" width="1.06" height="2.13"/>
	<rect x="851.8" y="35.82" style="&st2;" width="1.06" height="2.13"/>
	<path style="&st4;" d="M876.82,31.21v-5.68v-5.68h-5.68h-5.68v-5.68h-5.68h-5.68h-5.68v5.68h-5.68h-5.68v5.68h-5.68v5.68v5.68h5.68
		v5.68v5.68v5.68v5.68h5.68h5.68v5.68h-5.68v5.68h5.68h5.68v-5.68v-5.68h5.68v5.68v5.68h5.68h5.68v-5.68h-5.68v-5.68h5.68h5.68
		v-5.68v-5.68v-5.68h5.68v-5.68v-5.68H876.82z M871.14,48.25v5.68h-5.68h-5.68h-5.68h-5.68h-5.68v-5.68v-5.68v-5.68v-5.68v-5.68
		h5.68h5.68h5.68h5.68h5.68v5.68v5.68v5.68V48.25z"/>
	<g>
		<polygon style="&st5;" points="882.5,19.85 876.82,19.85 876.82,25.53 876.82,31.21 882.5,31.21 882.5,25.53 		"/>
		<polygon style="&st5;" points="882.5,31.21 882.5,36.89 882.5,42.57 888.18,42.57 888.18,36.89 888.18,31.21 		"/>
		<rect x="865.46" y="59.61" style="&st5;" width="5.68" height="5.68"/>
		<polygon style="&st5;" points="854.11,65.28 854.11,70.96 859.79,70.96 859.79,65.28 859.79,59.61 854.11,59.61 		"/>
		<rect x="871.14" y="65.28" style="&st5;" width="5.68" height="5.68"/>
		<polygon style="&st5;" points="876.82,48.25 876.82,53.93 876.82,59.61 882.5,59.61 882.5,53.93 882.5,48.25 882.5,42.57 
			876.82,42.57 		"/>
		<rect x="865.46" y="14.17" style="&st5;" width="5.68" height="5.68"/>
	</g>
</g>
<g>
	<g>
		<rect x="1266.31" y="11.33" style="&st6;" width="28.4" height="28.4"/>
		<rect x="1284.05" y="19.85" style="&st3;" width="2.13" height="4.26"/>
		<rect x="1274.83" y="19.85" style="&st3;" width="2.13" height="4.26"/>
		<rect x="1284.59" y="21.63" style="&st6;" width="1.06" height="2.13"/>
		<rect x="1275.36" y="21.63" style="&st6;" width="1.06" height="2.13"/>
	</g>
	<path style="&st7;" d="M1300.38,17.01v-5.68V5.65h-5.68h-5.68v-5.68h-5.68h-5.68h-5.68v5.68h-5.68h-5.68v5.68h-5.68v5.68v5.68h5.68
		v5.68v5.68v5.68v5.68h5.68h5.68v5.68h-5.68v5.68h5.68h5.68v-5.68v-5.68h5.68v5.68v5.68h5.68h5.68v-5.68h-5.68v-5.68h5.68h5.68
		v-5.68v-5.68v-5.68h5.68v-5.68v-5.68H1300.38z M1294.7,34.05v5.68h-5.68h-5.68h-5.68h-5.68h-5.68v-5.68v-5.68v-5.68v-5.68v-5.68
		h5.68h5.68h5.68h5.68h5.68v5.68v5.68v5.68V34.05z"/>
	<g>
		<polygon style="&st3;" points="1306.06,5.65 1300.38,5.65 1300.38,11.33 1300.38,17.01 1306.06,17.01 1306.06,11.33 		"/>
		<polygon style="&st3;" points="1306.06,17.01 1306.06,22.69 1306.06,28.37 1311.74,28.37 1311.74,22.69 1311.74,17.01 		"/>
		<rect x="1289.02" y="45.41" style="&st3;" width="5.68" height="5.68"/>
		<polygon style="&st3;" points="1277.67,51.09 1277.67,56.77 1283.34,56.77 1283.34,51.09 1283.34,45.41 1277.67,45.41 		"/>
		<rect x="1294.7" y="51.09" style="&st3;" width="5.68" height="5.68"/>
		<polygon style="&st3;" points="1300.38,34.05 1300.38,39.73 1300.38,45.41 1306.06,45.41 1306.06,39.73 1306.06,34.05 
			1306.06,28.37 1300.38,28.37 		"/>
		<rect x="1289.02" y="-0.02" style="&st3;" width="5.68" height="5.68"/>
	</g>
</g>
<g>
	<rect x="1131" y="36.89" style="&st8;" width="28.4" height="28.4"/>
	<rect x="1148.74" y="45.41" style="&st3;" width="2.13" height="4.26"/>
	<rect x="1139.52" y="45.41" style="&st3;" width="2.13" height="4.26"/>
	<rect x="1149.28" y="47.18" style="&st8;" width="1.06" height="2.13"/>
	<rect x="1140.05" y="47.18" style="&st8;" width="1.06" height="2.13"/>
	<g>
		<polygon style="&st0;" points="1165.07,42.57 1165.07,36.89 1165.07,31.21 1159.39,31.21 1153.71,31.21 1148.03,31.21 
			1142.36,31.21 1142.36,31.21 1148.03,31.21 1148.03,25.53 1142.36,25.53 1142.36,25.53 1136.68,25.53 1136.68,31.21 1131,31.21 
			1125.32,31.21 1125.32,36.89 1119.64,36.89 1119.64,42.57 1119.64,48.25 1125.32,48.25 1125.32,53.93 1125.32,59.61 1131,59.61 
			1131,53.93 1131,48.25 1131,42.57 1131,36.89 1136.68,36.89 1142.36,36.89 1148.03,36.89 1153.71,36.89 1159.39,36.89 
			1159.39,42.57 1159.39,48.25 1159.39,53.93 1159.39,59.61 1159.39,65.28 1153.71,65.28 1153.71,70.96 1159.39,70.96 
			1165.07,70.96 1165.07,65.28 1165.07,59.61 1165.07,53.93 1170.75,53.93 1170.75,48.25 1170.75,42.57 		"/>
		<polygon style="&st0;" points="1119.64,65.28 1119.64,70.96 1125.32,70.96 1125.32,65.28 1125.32,59.61 1119.64,59.61 		"/>
		<polygon style="&st0;" points="1136.68,65.28 1136.68,70.96 1142.36,70.96 1142.36,65.28 1142.36,59.61 1136.68,59.61 		"/>
		<rect x="1148.03" y="25.53" style="&st0;" width="5.68" height="5.68"/>
	</g>
	<g>
		<polygon style="&st1;" points="1170.75,31.21 1165.07,31.21 1165.07,36.89 1165.07,42.57 1170.75,42.57 1170.75,36.89 		"/>
		<polygon style="&st1;" points="1170.75,42.57 1170.75,48.25 1170.75,53.93 1176.43,53.93 1176.43,48.25 1176.43,42.57 		"/>
		<polygon style="&st1;" points="1165.07,59.61 1165.07,65.28 1165.07,70.96 1170.75,70.96 1170.75,65.28 1170.75,59.61 
			1170.75,53.93 1165.07,53.93 		"/>
		<polygon style="&st1;" points="1131,59.61 1125.32,59.61 1125.32,65.28 1125.32,70.96 1131,70.96 1136.68,70.96 1136.68,65.28 
			1131,65.28 		"/>
		<polygon style="&st1;" points="1148.03,59.61 1142.36,59.61 1142.36,65.28 1142.36,70.96 1148.03,70.96 1153.71,70.96 
			1153.71,65.28 1148.03,65.28 		"/>
		<rect x="1153.71" y="25.53" style="&st1;" width="5.68" height="5.68"/>
	</g>
</g>
<g>
	<rect x="958.05" y="11.36" style="&st9;" width="28.4" height="28.4"/>
	<rect x="975.79" y="19.88" style="&st3;" width="2.13" height="4.26"/>
	<rect x="966.57" y="19.88" style="&st3;" width="2.13" height="4.26"/>
	<rect x="976.33" y="21.65" style="&st9;" width="1.06" height="2.13"/>
	<rect x="967.1" y="21.65" style="&st9;" width="1.06" height="2.13"/>
	<g>
		<polygon style="&st10;" points="992.12,17.04 992.12,11.36 992.12,5.68 986.44,5.68 980.76,5.68 975.08,5.68 969.4,5.68 
			969.4,5.68 975.08,5.68 975.08,0 969.4,0 963.73,0 963.73,5.68 958.05,5.68 952.37,5.68 952.37,11.36 946.69,11.36 946.69,17.04 
			946.69,22.72 952.37,22.72 952.37,28.4 952.37,34.07 958.05,34.07 958.05,28.4 958.05,22.72 958.05,17.04 958.05,11.36 
			963.73,11.36 969.4,11.36 975.08,11.36 980.76,11.36 986.44,11.36 986.44,17.04 986.44,22.72 986.44,28.4 986.44,34.07 
			986.44,39.75 980.76,39.75 975.08,39.75 969.4,39.75 963.73,39.75 963.73,45.43 969.4,45.43 975.08,45.43 975.08,51.11 
			975.08,56.79 980.76,56.79 986.44,56.79 986.44,51.11 980.76,51.11 980.76,45.43 986.44,45.43 992.12,45.43 992.12,39.75 
			992.12,34.07 992.12,28.4 997.8,28.4 997.8,22.72 997.8,17.04 		"/>
		<polygon style="&st10;" points="946.69,39.75 946.69,45.43 952.37,45.43 952.37,39.75 952.37,34.07 946.69,34.07 		"/>
		<rect x="975.08" style="&st10;" width="5.68" height="5.68"/>
	</g>
	<g>
		<polygon style="&st11;" points="997.8,5.68 992.12,5.68 992.12,11.36 992.12,17.04 997.8,17.04 997.8,11.36 		"/>
		<polygon style="&st11;" points="997.8,17.04 997.8,22.72 997.8,28.4 1003.48,28.4 1003.48,22.72 1003.48,17.04 		"/>
		<rect x="980.76" y="45.43" style="&st11;" width="5.68" height="5.68"/>
		<rect x="986.44" y="51.11" style="&st11;" width="5.68" height="5.68"/>
		<polygon style="&st11;" points="992.12,34.07 992.12,39.75 992.12,45.43 997.8,45.43 997.8,39.75 997.8,34.07 997.8,28.4 
			992.12,28.4 		"/>
		<polygon style="&st11;" points="958.05,34.07 952.37,34.07 952.37,39.75 952.37,45.43 958.05,45.43 963.73,45.43 963.73,39.75 
			958.05,39.75 		"/>
		<rect x="980.76" style="&st11;" width="5.68" height="5.68"/>
	</g>
</g>
<g>
	<rect x="24.13" y="25.53" style="&st9;" width="28.4" height="28.4"/>
	<rect x="41.87" y="34.05" style="&st3;" width="2.13" height="4.26"/>
	<rect x="32.64" y="34.05" style="&st3;" width="2.13" height="4.26"/>
	<rect x="42.4" y="35.82" style="&st9;" width="1.06" height="2.13"/>
	<rect x="33.18" y="35.82" style="&st9;" width="1.06" height="2.13"/>
	<g>
		<path style="&st10;" d="M58.2,31.21v-5.68v-5.68h-5.68h-5.68h-5.68h-5.68H29.8h-5.68h-5.68v5.68h-5.68v5.68v5.68h5.68v5.68v5.68
			v5.68v5.68h5.68h5.68v5.68h-5.68v5.68h5.68h5.68v-5.68v-5.68h5.68v5.68v5.68h5.68h5.68v-5.68h-5.68v-5.68h5.68h5.68v-5.68v-5.68
			v-5.68h5.68v-5.68v-5.68H58.2z M52.52,48.25v5.68h-5.68h-5.68h-5.68H29.8h-5.68v-5.68v-5.68v-5.68v-5.68v-5.68h5.68h5.68h5.68
			h5.68h5.68v5.68v5.68v5.68V48.25z"/>
		<polygon style="&st10;" points="35.48,19.85 41.16,19.85 46.84,19.85 46.84,14.17 41.16,14.17 41.16,14.17 35.48,14.17 		"/>
		<rect x="29.8" y="14.17" style="&st10;" width="5.68" height="5.68"/>
	</g>
	<g>
		<rect x="12.77" y="19.85" style="&st11;" width="5.68" height="5.68"/>
		<polygon style="&st11;" points="35.48,59.61 35.48,65.28 35.48,70.96 41.16,70.96 41.16,65.28 41.16,59.61 		"/>
		<rect x="24.13" y="59.61" style="&st11;" width="5.68" height="5.68"/>
		<rect x="18.45" y="65.28" style="&st11;" width="5.68" height="5.68"/>
		<polygon style="&st11;" points="12.77,25.53 7.09,25.53 7.09,31.21 7.09,36.89 12.77,36.89 12.77,31.21 		"/>
		<polygon style="&st11;" points="12.77,48.25 12.77,53.93 12.77,59.61 18.45,59.61 18.45,53.93 18.45,48.25 18.45,42.57 
			18.45,36.89 12.77,36.89 12.77,42.57 		"/>
		<rect x="24.13" y="14.17" style="&st11;" width="5.68" height="5.68"/>
	</g>
</g>
<g>
	<rect x="116.2" y="36.89" style="&st2;" width="28.4" height="28.4"/>
	<rect x="133.95" y="45.41" style="&st3;" width="2.13" height="4.26"/>
	<rect x="124.72" y="45.41" style="&st3;" width="2.13" height="4.26"/>
	<rect x="134.48" y="47.18" style="&st2;" width="1.06" height="2.13"/>
	<rect x="125.25" y="47.18" style="&st2;" width="1.06" height="2.13"/>
	<g>
		<polygon style="&st4;" points="150.28,42.57 150.28,36.89 150.28,31.21 144.6,31.21 138.92,31.21 138.92,25.53 133.24,25.53 
			127.56,25.53 121.88,25.53 121.88,31.21 116.2,31.21 110.52,31.21 110.52,36.89 104.85,36.89 104.85,42.57 104.85,48.25 
			110.52,48.25 110.52,53.93 110.52,59.61 110.52,65.28 110.52,70.96 116.2,70.96 121.88,70.96 121.88,65.28 116.2,65.28 
			116.2,59.61 116.2,53.93 116.2,48.25 116.2,42.57 116.2,36.89 121.88,36.89 127.56,36.89 133.24,36.89 138.92,36.89 144.6,36.89 
			144.6,42.57 144.6,48.25 144.6,53.93 144.6,59.61 150.28,59.61 150.28,53.93 155.96,53.93 155.96,48.25 155.96,42.57 		"/>
		<polygon style="&st4;" points="133.24,65.28 133.24,70.96 138.92,70.96 138.92,65.28 138.92,59.61 133.24,59.61 		"/>
		<polygon style="&st4;" points="150.28,70.96 155.96,70.96 155.96,65.28 155.96,59.61 150.28,59.61 150.28,65.28 		"/>
	</g>
	<g>
		<rect x="104.85" y="31.21" style="&st5;" width="5.68" height="5.68"/>
		<polygon style="&st5;" points="99.17,42.57 99.17,48.25 104.85,48.25 104.85,42.57 104.85,36.89 99.17,36.89 		"/>
		<polygon style="&st5;" points="104.85,59.61 104.85,65.28 104.85,70.96 110.52,70.96 110.52,65.28 110.52,59.61 110.52,53.93 
			110.52,48.25 104.85,48.25 104.85,53.93 		"/>
		<polygon style="&st5;" points="127.56,65.28 121.88,65.28 121.88,70.96 127.56,70.96 133.24,70.96 133.24,65.28 133.24,59.61 
			127.56,59.61 		"/>
		<polygon style="&st5;" points="144.6,59.61 144.6,65.28 138.92,65.28 138.92,70.96 144.6,70.96 150.28,70.96 150.28,65.28 
			150.28,59.61 		"/>
		<rect x="116.2" y="25.53" style="&st5;" width="5.68" height="5.68"/>
	</g>
</g>
<g>
	<rect x="321.71" y="11.36" style="&st8;" width="28.4" height="28.4"/>
	<rect x="339.46" y="19.88" style="&st3;" width="2.13" height="4.26"/>
	<rect x="330.23" y="19.88" style="&st3;" width="2.13" height="4.26"/>
	<rect x="339.99" y="21.65" style="&st8;" width="1.06" height="2.13"/>
	<rect x="330.77" y="21.65" style="&st8;" width="1.06" height="2.13"/>
	<g>
		<polygon style="&st0;" points="355.79,17.04 355.79,11.36 355.79,5.68 350.11,5.68 344.43,5.68 338.75,5.68 333.07,5.68 
			327.39,5.68 321.71,5.68 316.04,5.68 316.04,11.36 310.36,11.36 310.36,17.04 310.36,22.72 316.04,22.72 316.04,28.4 
			316.04,34.07 316.04,39.75 316.04,45.43 321.71,45.43 327.39,45.43 327.39,51.11 321.71,51.11 321.71,56.79 327.39,56.79 
			333.07,56.79 333.07,51.11 333.07,45.43 338.75,45.43 344.43,45.43 344.43,39.75 338.75,39.75 333.07,39.75 327.39,39.75 
			321.71,39.75 321.71,34.07 321.71,28.4 321.71,22.72 321.71,17.04 321.71,11.36 327.39,11.36 333.07,11.36 338.75,11.36 
			344.43,11.36 350.11,11.36 350.11,17.04 350.11,22.72 350.11,28.4 350.11,34.07 355.79,34.07 355.79,28.4 361.47,28.4 
			361.47,22.72 361.47,17.04 		"/>
		<polygon style="&st0;" points="355.79,39.77 355.79,45.45 361.47,45.45 361.47,39.77 361.47,34.09 355.79,34.09 		"/>
		<polygon style="&st0;" points="338.75,5.68 338.75,5.68 344.43,5.68 344.43,0 338.75,0 333.07,0 333.07,5.68 		"/>
		<rect x="327.39" y="0" style="&st0;" width="5.68" height="5.68"/>
	</g>
	<g>
		<rect x="310.36" y="5.68" style="&st1;" width="5.68" height="5.68"/>
		<rect x="321.71" y="45.43" style="&st1;" width="5.68" height="5.68"/>
		<rect x="316.04" y="51.11" style="&st1;" width="5.68" height="5.68"/>
		<polygon style="&st1;" points="310.36,11.36 304.68,11.36 304.68,17.04 304.68,22.72 310.36,22.72 310.36,17.04 		"/>
		<polygon style="&st1;" points="310.36,34.07 310.36,39.75 310.36,45.43 316.04,45.43 316.04,39.75 316.04,34.07 316.04,28.4 
			316.04,22.72 310.36,22.72 310.36,28.4 		"/>
		<polygon style="&st1;" points="350.11,34.09 350.11,39.77 344.43,39.77 344.43,45.45 350.11,45.45 355.79,45.45 355.79,39.77 
			355.79,34.09 		"/>
		<rect x="321.71" y="0" style="&st1;" width="5.68" height="5.68"/>
	</g>
</g>
<g>
	<rect x="484.71" y="36.91" style="&st12;" width="28.4" height="28.4"/>
	<rect x="502.45" y="45.43" style="&st3;" width="2.13" height="4.26"/>
	<rect x="493.23" y="45.43" style="&st3;" width="2.13" height="4.26"/>
	<rect x="502.99" y="47.21" style="&st12;" width="1.06" height="2.13"/>
	<rect x="493.76" y="47.21" style="&st12;" width="1.06" height="2.13"/>
	<g>
		<polygon style="&st13;" points="518.78,42.59 518.78,36.91 518.78,31.23 513.1,31.23 507.42,31.23 501.74,31.23 496.07,31.23 
			490.39,31.23 484.71,31.23 479.03,31.23 479.03,36.91 473.35,36.91 473.35,42.59 473.35,48.27 479.03,48.27 479.03,53.95 
			479.03,59.63 479.03,65.31 479.03,70.99 484.71,70.99 490.39,70.99 490.39,65.31 484.71,65.31 484.71,59.63 484.71,53.95 
			484.71,48.27 484.71,42.59 484.71,36.91 490.39,36.91 496.07,36.91 501.74,36.91 507.42,36.91 513.1,36.91 513.1,42.59 
			513.1,48.27 513.1,53.95 513.1,59.63 513.1,65.31 518.78,65.31 518.78,70.99 524.46,70.99 524.46,65.31 524.46,59.63 
			518.78,59.63 518.78,53.95 524.46,53.95 524.46,48.27 524.46,42.59 		"/>
		<polygon style="&st13;" points="501.74,65.31 501.74,70.99 507.42,70.99 507.42,65.31 507.42,59.63 501.74,59.63 		"/>
		<polygon style="&st13;" points="496.07,31.23 501.74,31.23 501.74,31.23 507.42,31.23 507.42,25.56 501.74,25.56 501.74,25.56 
			496.07,25.56 		"/>
		<rect x="490.39" y="25.56" style="&st13;" width="5.68" height="5.68"/>
	</g>
	<g>
		<rect x="473.35" y="31.23" style="&st14;" width="5.68" height="5.68"/>
		<polygon style="&st14;" points="467.67,42.59 467.67,48.27 473.35,48.27 473.35,42.59 473.35,36.91 467.67,36.91 		"/>
		<polygon style="&st14;" points="473.35,59.63 473.35,65.31 473.35,70.99 479.03,70.99 479.03,65.31 479.03,59.63 479.03,53.95 
			479.03,48.27 473.35,48.27 473.35,53.95 		"/>
		<polygon style="&st14;" points="496.07,65.31 490.39,65.31 490.39,70.99 496.07,70.99 501.74,70.99 501.74,65.31 501.74,59.63 
			496.07,59.63 		"/>
		<polygon style="&st14;" points="513.1,59.63 513.1,65.31 507.42,65.31 507.42,70.99 513.1,70.99 518.78,70.99 518.78,65.31 
			518.78,59.63 		"/>
		<rect x="484.71" y="25.56" style="&st14;" width="5.68" height="5.68"/>
	</g>
</g>
<g>
	<rect x="1400.29" y="11.33" style="&st12;" width="28.4" height="28.4"/>
	<rect x="1418.04" y="19.85" style="&st3;" width="2.13" height="4.26"/>
	<rect x="1408.81" y="19.85" style="&st3;" width="2.13" height="4.26"/>
	<rect x="1418.57" y="21.63" style="&st12;" width="1.06" height="2.13"/>
	<rect x="1409.34" y="21.63" style="&st12;" width="1.06" height="2.13"/>
	<g>
		<polygon style="&st13;" points="1434.36,17.01 1434.36,11.33 1434.36,5.65 1428.68,5.65 1423,5.65 1417.33,5.65 1411.65,5.65 
			1411.65,5.65 1417.33,5.65 1417.33,-0.02 1411.65,-0.02 1405.97,-0.02 1405.97,5.65 1400.29,5.65 1394.61,5.65 1394.61,11.33 
			1388.93,11.33 1388.93,17.01 1388.93,22.69 1394.61,22.69 1394.61,28.37 1394.61,34.05 1400.29,34.05 1400.29,28.37 
			1400.29,22.69 1400.29,17.01 1400.29,11.33 1405.97,11.33 1411.65,11.33 1417.33,11.33 1423,11.33 1428.68,11.33 1428.68,17.01 
			1428.68,22.69 1428.68,28.37 1428.68,34.05 1428.68,39.73 1423,39.73 1417.33,39.73 1411.65,39.73 1405.97,39.73 1405.97,45.41 
			1411.65,45.41 1417.33,45.41 1417.33,51.09 1417.33,56.77 1423,56.77 1428.68,56.77 1428.68,51.09 1423,51.09 1423,45.41 
			1428.68,45.41 1434.36,45.41 1434.36,39.73 1434.36,34.05 1434.36,28.37 1440.04,28.37 1440.04,22.69 1440.04,17.01 		"/>
		<polygon style="&st13;" points="1388.93,39.73 1388.93,45.41 1394.61,45.41 1394.61,39.73 1394.61,34.05 1388.93,34.05 		"/>
		<rect x="1417.33" y="-0.02" style="&st13;" width="5.68" height="5.68"/>
	</g>
	<g>
		<polygon style="&st14;" points="1440.04,5.65 1434.36,5.65 1434.36,11.33 1434.36,17.01 1440.04,17.01 1440.04,11.33 		"/>
		<polygon style="&st14;" points="1440.04,17.01 1440.04,22.69 1440.04,28.37 1445.72,28.37 1445.72,22.69 1445.72,17.01 		"/>
		<rect x="1423" y="45.41" style="&st14;" width="5.68" height="5.68"/>
		<rect x="1428.68" y="51.09" style="&st14;" width="5.68" height="5.68"/>
		<polygon style="&st14;" points="1434.36,34.05 1434.36,39.73 1434.36,45.41 1440.04,45.41 1440.04,39.73 1440.04,34.05 
			1440.04,28.37 1434.36,28.37 		"/>
		<polygon style="&st14;" points="1400.29,34.05 1394.61,34.05 1394.61,39.73 1394.61,45.41 1400.29,45.41 1405.97,45.41 
			1405.97,39.73 1400.29,39.73 		"/>
		<rect x="1423" y="-0.02" style="&st14;" width="5.68" height="5.68"/>
	</g>
</g>
<g>
	<g>
		<rect x="626.44" y="25.53" style="&st6;" width="28.4" height="28.4"/>
		<rect x="644.19" y="34.05" style="&st3;" width="2.13" height="4.26"/>
		<rect x="634.96" y="34.05" style="&st3;" width="2.13" height="4.26"/>
		<rect x="644.72" y="35.82" style="&st6;" width="1.06" height="2.13"/>
		<rect x="635.49" y="35.82" style="&st6;" width="1.06" height="2.13"/>
	</g>
	<g>
		<polygon style="&st7;" points="660.51,31.21 660.51,25.53 660.51,19.85 654.83,19.85 649.16,19.85 649.16,14.17 643.48,14.17 
			643.48,14.17 637.8,14.17 637.8,19.85 637.8,19.85 637.8,14.17 632.12,14.17 632.12,19.85 626.44,19.85 620.76,19.85 
			620.76,25.53 615.08,25.53 615.08,31.21 615.08,36.89 620.76,36.89 620.76,42.57 620.76,48.25 620.76,53.93 620.76,59.61 
			626.44,59.61 632.12,59.61 632.12,65.28 626.44,65.28 626.44,70.96 632.12,70.96 637.8,70.96 637.8,65.28 637.8,59.61 
			643.48,59.61 649.16,59.61 649.16,53.93 643.48,53.93 637.8,53.93 632.12,53.93 626.44,53.93 626.44,48.25 626.44,42.57 
			626.44,36.89 626.44,31.21 626.44,25.53 632.12,25.53 637.8,25.53 643.48,25.53 649.16,25.53 654.83,25.53 654.83,31.21 
			654.83,36.89 654.83,42.57 654.83,48.25 660.51,48.25 660.51,42.57 666.19,42.57 666.19,36.89 666.19,31.21 		"/>
		<polygon style="&st7;" points="660.51,53.94 660.51,59.62 666.19,59.62 666.19,53.94 666.19,48.26 660.51,48.26 		"/>
	</g>
	<g>
		<rect x="615.08" y="19.85" style="&st3;" width="5.68" height="5.68"/>
		<rect x="626.44" y="59.61" style="&st3;" width="5.68" height="5.68"/>
		<rect x="620.76" y="65.28" style="&st3;" width="5.68" height="5.68"/>
		<polygon style="&st3;" points="615.08,25.53 609.4,25.53 609.4,31.21 609.4,36.89 615.08,36.89 615.08,31.21 		"/>
		<polygon style="&st3;" points="615.08,48.25 615.08,53.93 615.08,59.61 620.76,59.61 620.76,53.93 620.76,48.25 620.76,42.57 
			620.76,36.89 615.08,36.89 615.08,42.57 		"/>
		<polygon style="&st3;" points="654.83,48.26 654.83,53.94 649.16,53.94 649.16,59.62 654.83,59.62 660.51,59.62 660.51,53.94 
			660.51,48.26 		"/>
		<rect x="626.44" y="14.17" style="&st3;" width="5.68" height="5.68"/>
	</g>
</g>
</svg>
