<?xml version="1.0" encoding="utf-8"?>
<!-- Generator: Adobe Illustrator 29.5.1, SVG Export Plug-In . SVG Version: 9.03 Build 0)  -->
<!DOCTYPE svg PUBLIC "-//W3C//DTD SVG 1.1//EN" "http://www.w3.org/Graphics/SVG/1.1/DTD/svg11.dtd" [
	<!ENTITY st0 "fill:#EA5B3A;">
	<!ENTITY st1 "fill:#E7E7E8;">
	<!ENTITY st2 "fill:#CAC8C8;">
]>
<svg version="1.1" id="Laag_1" xmlns="http://www.w3.org/2000/svg" xmlns:xlink="http://www.w3.org/1999/xlink" x="0px" y="0px"
	 viewBox="0 0 1488.19 28.35" style="enable-background:new 0 0 1488.19 28.35;" xml:space="preserve">
<path style="&st0;" d="M1459.85,28.35"/>
<path style="&st0;" d="M1445.68,28.35"/>
<line style="&st0;" x1="1431.5" y1="28.35" x2="1445.68" y2="28.35"/>
<path style="&st0;" d="M1403.16,28.35"/>
<path style="&st0;" d="M1374.81,28.35"/>
<line style="&st0;" x1="1360.64" y1="28.35" x2="1374.81" y2="28.35"/>
<line style="&st0;" x1="1233.08" y1="28.35" x2="1247.25" y2="28.35"/>
<line style="&st0;" x1="1190.56" y1="28.35" x2="1204.73" y2="28.35"/>
<path style="&st0;" d="M1148.04,28.35"/>
<path style="&st0;" d="M1133.87,28.35"/>
<line style="&st0;" x1="1119.69" y1="28.35" x2="1133.87" y2="28.35"/>
<path style="&st0;" d="M1091.35,28.35"/>
<path style="&st0;" d="M1077.17,28.35"/>
<line style="&st0;" x1="1063" y1="28.35" x2="1077.17" y2="28.35"/>
<path style="&st0;" d="M1034.65,28.35"/>
<path style="&st0;" d="M1006.31,28.35"/>
<line style="&st0;" x1="992.13" y1="28.35" x2="1006.31" y2="28.35"/>
<line style="&st0;" x1="864.58" y1="28.35" x2="878.75" y2="28.35"/>
<line style="&st0;" x1="822.06" y1="28.35" x2="836.23" y2="28.35"/>
<line style="&st0;" x1="807.88" y1="28.35" x2="822.06" y2="28.35"/>
<line style="&st0;" x1="793.71" y1="28.35" x2="807.88" y2="28.35"/>
<line style="&st0;" x1="779.54" y1="28.35" x2="793.71" y2="28.35"/>
<path style="&st0;" d="M779.54,28.35"/>
<path style="&st0;" d="M765.36,28.35"/>
<line style="&st0;" x1="751.19" y1="28.35" x2="765.36" y2="28.35"/>
<line style="&st0;" x1="737.02" y1="28.35" x2="751.19" y2="28.35"/>
<line style="&st0;" x1="722.84" y1="28.35" x2="737.02" y2="28.35"/>
<path style="&st0;" d="M722.84,28.35"/>
<path style="&st0;" d="M708.67,28.35"/>
<line style="&st0;" x1="694.5" y1="28.35" x2="708.67" y2="28.35"/>
<line style="&st0;" x1="680.32" y1="28.35" x2="694.5" y2="28.35"/>
<line style="&st0;" x1="666.15" y1="28.35" x2="680.32" y2="28.35"/>
<path style="&st0;" d="M666.15,28.35"/>
<path style="&st0;" d="M637.8,28.35"/>
<line style="&st0;" x1="623.63" y1="28.35" x2="637.8" y2="28.35"/>
<line style="&st0;" x1="496.07" y1="28.35" x2="510.24" y2="28.35"/>
<line style="&st0;" x1="481.9" y1="28.35" x2="496.07" y2="28.35"/>
<line style="&st0;" x1="467.72" y1="28.35" x2="481.9" y2="28.35"/>
<line style="&st0;" x1="453.55" y1="28.35" x2="467.72" y2="28.35"/>
<line style="&st0;" x1="439.38" y1="28.35" x2="453.55" y2="28.35"/>
<line style="&st0;" x1="425.2" y1="28.35" x2="439.38" y2="28.35"/>
<line style="&st0;" x1="411.03" y1="28.35" x2="425.2" y2="28.35"/>
<path style="&st0;" d="M411.03,28.35"/>
<path style="&st0;" d="M396.86,28.35"/>
<line style="&st0;" x1="382.69" y1="28.35" x2="396.86" y2="28.35"/>
<line style="&st0;" x1="368.51" y1="28.35" x2="382.69" y2="28.35"/>
<line style="&st0;" x1="354.34" y1="28.35" x2="368.51" y2="28.35"/>
<path style="&st0;" d="M354.34,28.35"/>
<path style="&st0;" d="M340.16,28.35"/>
<line style="&st0;" x1="325.99" y1="28.35" x2="340.16" y2="28.35"/>
<line style="&st0;" x1="311.82" y1="28.35" x2="325.99" y2="28.35"/>
<line style="&st0;" x1="297.65" y1="28.35" x2="311.82" y2="28.35"/>
<path style="&st0;" d="M297.65,28.35"/>
<path style="&st0;" d="M269.3,28.35"/>
<line style="&st0;" x1="255.13" y1="28.35" x2="269.3" y2="28.35"/>
<line style="&st0;" x1="127.57" y1="28.35" x2="141.74" y2="28.35"/>
<line style="&st0;" x1="113.39" y1="28.35" x2="127.57" y2="28.35"/>
<line style="&st0;" x1="99.22" y1="28.35" x2="113.39" y2="28.35"/>
<line style="&st0;" x1="85.05" y1="28.35" x2="99.22" y2="28.35"/>
<path style="&st0;" d="M28.35,28.35"/>
<line style="&st0;" x1="14.18" y1="28.35" x2="28.35" y2="28.35"/>
<line style="&st0;" x1="0.01" y1="28.35" x2="14.18" y2="28.35"/>
<g>
	<polygon style="&st1;" points="1474.02,28.35 1474.02,14.17 1459.85,14.17 1459.85,28.35 1459.85,28.35 	"/>
	<polygon style="&st1;" points="1417.33,28.35 1417.33,28.35 1431.5,28.35 1431.5,14.17 1431.5,0 1417.33,0 1417.33,14.17 
		1403.15,14.17 1403.15,28.35 1403.15,28.35 	"/>
	<polygon style="&st1;" points="1261.42,28.35 1261.42,28.35 1275.6,28.35 1275.6,28.35 1289.77,28.35 1289.77,28.35 1303.94,28.35 
		1303.94,28.35 1318.12,28.35 1318.12,28.35 1332.29,28.35 1332.29,28.35 1346.46,28.35 1346.46,28.35 1360.63,28.35 1360.63,14.17 
		1346.46,14.17 1346.46,0 1332.29,0 1332.29,14.17 1332.29,14.17 1318.12,14.17 1303.94,14.17 1289.77,14.17 1289.77,0 1275.6,0 
		1261.42,0 1261.42,14.17 1247.25,14.17 1247.25,28.35 1247.25,28.35 	"/>
	<polygon style="&st1;" points="1218.9,28.35 1218.9,14.17 1204.73,14.17 1204.73,28.35 1204.73,28.35 	"/>
	<rect x="1218.9" y="14.17" style="&st1;" width="14.17" height="14.17"/>
	<polygon style="&st1;" points="1162.21,28.35 1162.21,28.35 1176.38,28.35 1176.38,28.35 1190.56,28.35 1190.56,14.17 1190.56,0 
		1176.38,0 1176.38,14.17 1162.21,14.17 1148.04,14.17 1148.04,28.35 1148.04,28.35 	"/>
	<polygon style="&st1;" points="1119.69,28.35 1119.69,14.17 1105.52,14.17 1105.52,28.35 1105.52,28.35 	"/>
	<polygon style="&st1;" points="1105.52,28.35 1105.52,14.17 1091.34,14.17 1091.34,28.35 1091.34,28.35 	"/>
	<polygon style="&st1;" points="1048.82,28.35 1048.82,28.35 1063,28.35 1063,14.17 1063,0 1048.82,0 1048.82,14.17 1034.65,14.17 
		1034.65,28.35 1034.65,28.35 	"/>
	<polygon style="&st1;" points="892.92,28.35 892.92,28.35 907.09,28.35 907.09,28.35 921.26,28.35 921.26,28.35 935.44,28.35 
		935.44,28.35 949.61,28.35 949.61,28.35 963.78,28.35 963.78,28.35 977.96,28.35 977.96,28.35 992.13,28.35 992.13,14.17 
		977.96,14.17 977.96,0 963.78,0 963.78,14.17 963.78,14.17 949.61,14.17 935.44,14.17 921.26,14.17 921.26,0 907.09,0 892.92,0 
		892.92,14.17 878.74,14.17 878.74,28.35 878.74,28.35 	"/>
	<polygon style="&st1;" points="850.4,28.35 850.4,14.17 836.22,14.17 836.22,28.35 836.23,28.35 	"/>
	<rect x="850.4" y="14.17" style="&st1;" width="14.17" height="14.17"/>
	<polygon style="&st1;" points="807.88,28.35 822.05,28.35 822.05,14.17 822.05,0 807.88,0 807.88,14.17 793.71,14.17 779.53,14.17 
		779.53,28.35 793.71,28.35 	"/>
	<rect x="737.01" y="14.17" style="&st1;" width="14.17" height="14.17"/>
	<rect x="722.84" y="14.17" style="&st1;" width="14.17" height="14.17"/>
	<polygon style="&st1;" points="694.49,28.35 694.49,14.17 694.49,0 680.32,0 680.32,14.17 666.15,14.17 666.15,28.35 680.32,28.35 
			"/>
	<polygon style="&st1;" points="524.41,28.35 524.41,28.35 538.59,28.35 538.59,28.35 552.76,28.35 552.76,28.35 566.93,28.35 
		566.93,28.35 581.11,28.35 581.11,28.35 595.28,28.35 595.28,28.35 609.45,28.35 609.45,28.35 623.63,28.35 623.63,14.17 
		609.45,14.17 609.45,0 595.28,0 595.28,14.17 595.28,14.17 581.11,14.17 566.93,14.17 552.76,14.17 552.76,0 538.59,0 524.41,0 
		524.41,14.17 510.24,14.17 510.24,28.35 510.24,28.35 	"/>
	<rect x="467.72" y="14.17" style="&st1;" width="14.17" height="14.17"/>
	<rect x="481.89" y="14.17" style="&st1;" width="14.17" height="14.17"/>
	<polygon style="&st1;" points="439.37,28.35 453.55,28.35 453.55,14.17 453.55,0 439.37,0 439.37,14.17 425.2,14.17 411.03,14.17 
		411.03,28.35 425.2,28.35 	"/>
	<rect x="368.51" y="14.17" style="&st1;" width="14.17" height="14.17"/>
	<rect x="354.33" y="14.17" style="&st1;" width="14.17" height="14.17"/>
	<polygon style="&st1;" points="325.99,28.35 325.99,14.17 325.99,0 311.81,0 311.81,14.17 297.64,14.17 297.64,28.35 311.81,28.35 
			"/>
	<polygon style="&st1;" points="155.91,28.35 155.91,28.35 170.08,28.35 170.08,28.35 184.26,28.35 184.26,28.35 198.43,28.35 
		198.43,28.35 212.6,28.35 212.6,28.35 226.78,28.35 226.78,28.35 240.95,28.35 240.95,28.35 255.12,28.35 255.12,14.17 
		240.95,14.17 240.95,0 226.78,0 226.78,14.17 226.78,14.17 212.6,14.17 198.43,14.17 184.26,14.17 184.26,0 170.08,0 155.91,0 
		155.91,14.17 141.74,14.17 141.74,28.35 141.74,28.35 	"/>
	<rect x="99.22" y="14.17" style="&st1;" width="14.17" height="14.17"/>
	<rect x="113.39" y="14.17" style="&st1;" width="14.17" height="14.17"/>
	<polygon style="&st1;" points="56.7,28.35 56.7,28.35 70.87,28.35 70.87,28.35 85.04,28.35 85.04,14.17 85.04,0 70.87,0 
		70.87,14.17 56.7,14.17 42.52,14.17 42.52,28.35 42.52,28.35 	"/>
	<rect x="0" y="14.17" style="&st1;" width="14.17" height="14.17"/>
</g>
<g>
	<rect x="14.18" y="14.17" style="&st2;" width="14.17" height="14.17"/>
	<polygon style="&st2;" points="85.04,28.35 99.22,28.35 99.22,14.17 99.22,14.17 99.22,0 85.04,0 85.04,14.17 85.04,14.17 	"/>
	<rect x="127.56" y="14.17" style="&st2;" width="14.17" height="14.17"/>
	<rect x="240.95" y="0" style="&st2;" width="14.17" height="14.17"/>
	<rect x="255.12" y="14.17" style="&st2;" width="14.17" height="14.17"/>
	<polygon style="&st2;" points="340.16,14.17 340.16,0 325.99,0 325.99,14.17 325.99,28.35 340.16,28.35 	"/>
	<rect x="382.68" y="14.17" style="&st2;" width="14.17" height="14.17"/>
	<polygon style="&st2;" points="467.72,14.17 467.72,0 453.55,0 453.55,14.17 453.55,28.35 467.72,28.35 	"/>
	<rect x="496.07" y="14.17" style="&st2;" width="14.17" height="14.17"/>
	<rect x="552.76" y="0" style="&st2;" width="14.17" height="14.17"/>
	<rect x="609.45" y="0" style="&st2;" width="14.17" height="14.17"/>
	<rect x="623.63" y="14.17" style="&st2;" width="14.17" height="14.17"/>
	<polygon style="&st2;" points="708.67,14.17 708.67,0 694.49,0 694.49,14.17 694.49,28.35 708.67,28.35 	"/>
	<rect x="751.19" y="14.17" style="&st2;" width="14.17" height="14.17"/>
	<polygon style="&st2;" points="836.23,14.17 836.23,0 822.05,0 822.05,14.17 822.05,28.35 836.23,28.35 	"/>
	<rect x="864.57" y="14.17" style="&st2;" width="14.17" height="14.17"/>
	<rect x="921.26" y="0" style="&st2;" width="14.17" height="14.17"/>
	<rect x="977.96" y="0" style="&st2;" width="14.17" height="14.17"/>
	<rect x="992.13" y="14.17" style="&st2;" width="14.17" height="14.17"/>
	<polygon style="&st2;" points="1077.17,14.17 1077.17,0 1063,0 1063,14.17 1063,28.35 1077.17,28.35 	"/>
	<rect x="1119.69" y="14.17" style="&st2;" width="14.17" height="14.17"/>
	<polygon style="&st2;" points="1190.56,28.35 1204.73,28.35 1204.73,14.17 1204.73,14.17 1204.73,0 1190.56,0 1190.56,14.17 
		1190.56,14.17 	"/>
	<rect x="1233.08" y="14.17" style="&st2;" width="14.17" height="14.17"/>
	<rect x="1289.77" y="0" style="&st2;" width="14.17" height="14.17"/>
	<rect x="1346.46" y="0" style="&st2;" width="14.17" height="14.17"/>
	<rect x="1360.64" y="14.17" style="&st2;" width="14.17" height="14.17"/>
	<polygon style="&st2;" points="1445.67,14.17 1445.67,0 1431.5,0 1431.5,14.17 1431.5,28.35 1445.67,28.35 	"/>
	<rect x="1474.02" y="14.17" style="&st2;" width="14.17" height="14.17"/>
	<rect x="184.26" y="0" style="&st2;" width="14.17" height="14.17"/>
</g>
<g>
	<g>
		<polygon style="&st1;" points="413.26,-150.02 413.26,-164.19 399.08,-164.19 384.91,-164.19 370.74,-164.19 356.56,-164.19 
			342.39,-164.19 328.22,-164.19 314.04,-164.19 299.87,-164.19 285.7,-164.19 271.52,-164.19 257.35,-164.19 243.18,-164.19 
			229,-164.19 214.83,-164.19 200.66,-164.19 186.48,-164.19 172.31,-164.19 158.14,-164.19 143.96,-164.19 129.79,-164.19 
			115.62,-164.19 101.44,-164.19 87.27,-164.19 73.1,-164.19 58.92,-164.19 44.75,-164.19 44.75,-150.02 44.75,-135.85 
			44.75,-135.85 44.75,-121.67 44.75,-121.67 44.75,-107.5 44.75,-107.5 44.75,-93.33 58.92,-93.33 58.92,-107.5 73.1,-107.5 
			87.27,-107.5 87.27,-107.5 87.27,-93.33 87.27,-79.15 101.44,-79.15 101.44,-93.33 115.62,-93.33 115.62,-107.5 129.79,-107.5 
			143.96,-107.5 158.14,-107.5 158.14,-107.5 158.14,-93.33 172.31,-93.33 172.31,-79.15 186.48,-79.15 186.48,-93.33 
			186.48,-93.33 200.66,-93.33 214.83,-93.33 229,-93.33 229,-79.15 243.18,-79.15 257.35,-79.15 257.35,-93.33 271.52,-93.33 
			271.52,-107.5 285.7,-107.5 285.7,-93.33 299.87,-93.33 299.87,-107.5 299.87,-107.5 299.87,-93.33 314.04,-93.33 314.04,-107.5 
			328.22,-107.5 328.22,-107.5 328.22,-93.33 328.22,-79.15 342.39,-79.15 342.39,-93.33 356.56,-93.33 370.74,-93.33 
			370.74,-107.5 384.91,-107.5 399.08,-107.5 399.08,-107.5 399.08,-93.33 413.26,-93.33 413.26,-107.5 413.26,-107.5 
			413.26,-121.67 413.26,-121.67 413.26,-135.85 413.26,-135.85 		"/>
		<polygon style="&st1;" points="1150.26,-150.02 1150.26,-164.19 1136.09,-164.19 1121.92,-164.19 1107.74,-164.19 
			1093.57,-164.19 1079.4,-164.19 1065.22,-164.19 1051.05,-164.19 1036.88,-164.19 1022.7,-164.19 1008.53,-164.19 994.36,-164.19 
			980.18,-164.19 966.01,-164.19 951.84,-164.19 937.67,-164.19 923.49,-164.19 909.32,-164.19 895.15,-164.19 880.97,-164.19 
			866.8,-164.19 852.63,-164.19 838.45,-164.19 824.28,-164.19 810.11,-164.19 795.93,-164.19 781.76,-164.19 781.76,-150.02 
			781.76,-135.85 781.76,-135.85 781.76,-150.02 781.76,-164.19 767.59,-164.19 753.41,-164.19 739.24,-164.19 725.07,-164.19 
			710.89,-164.19 696.72,-164.19 682.55,-164.19 668.37,-164.19 654.2,-164.19 640.03,-164.19 625.85,-164.19 611.68,-164.19 
			597.51,-164.19 583.33,-164.19 569.16,-164.19 554.99,-164.19 540.81,-164.19 526.64,-164.19 512.47,-164.19 498.29,-164.19 
			484.12,-164.19 469.95,-164.19 455.78,-164.19 441.6,-164.19 427.43,-164.19 413.26,-164.19 413.26,-150.02 413.26,-135.85 
			413.26,-135.85 413.26,-121.67 413.26,-121.67 413.26,-107.5 413.26,-107.5 413.26,-93.33 427.43,-93.33 427.43,-107.5 
			441.6,-107.5 455.78,-107.5 455.78,-107.5 455.78,-93.33 455.78,-79.15 469.95,-79.15 469.95,-93.33 484.12,-93.33 484.12,-107.5 
			498.29,-107.5 512.47,-107.5 526.64,-107.5 526.64,-107.5 526.64,-93.33 540.81,-93.33 540.81,-79.15 554.99,-79.15 
			554.99,-93.33 554.99,-93.33 569.16,-93.33 583.33,-93.33 597.51,-93.33 597.51,-79.15 611.68,-79.15 625.85,-79.15 
			625.85,-93.33 640.03,-93.33 640.03,-107.5 654.2,-107.5 654.2,-93.33 668.37,-93.33 668.37,-107.5 668.37,-107.5 668.37,-93.33 
			682.55,-93.33 682.55,-107.5 696.72,-107.5 696.72,-107.5 696.72,-93.33 696.72,-79.15 710.89,-79.15 710.89,-93.33 
			725.07,-93.33 739.24,-93.33 739.24,-107.5 753.41,-107.5 767.59,-107.5 767.59,-107.5 767.59,-93.33 781.76,-93.33 
			781.76,-107.5 781.76,-107.5 781.76,-93.33 795.93,-93.33 795.93,-107.5 810.11,-107.5 824.28,-107.5 824.28,-107.5 
			824.28,-93.33 824.28,-79.15 838.45,-79.15 838.45,-93.33 852.63,-93.33 852.63,-107.5 866.8,-107.5 880.97,-107.5 895.15,-107.5 
			895.15,-107.5 895.15,-93.33 909.32,-93.33 909.32,-79.15 923.49,-79.15 923.49,-93.33 923.49,-93.33 937.67,-93.33 
			951.84,-93.33 966.01,-93.33 966.01,-79.15 980.19,-79.15 994.36,-79.15 994.36,-93.33 1008.53,-93.33 1008.53,-107.5 
			1022.7,-107.5 1022.7,-93.33 1036.88,-93.33 1036.88,-107.5 1036.88,-107.5 1036.88,-93.33 1051.05,-93.33 1051.05,-107.5 
			1065.22,-107.5 1065.22,-107.5 1065.22,-93.33 1065.22,-79.15 1079.4,-79.15 1079.4,-93.33 1093.57,-93.33 1107.74,-93.33 
			1107.74,-107.5 1121.92,-107.5 1136.09,-107.5 1136.09,-107.5 1136.09,-93.33 1150.26,-93.33 1150.26,-107.5 1150.26,-107.5 
			1150.26,-121.67 1150.26,-121.67 1150.26,-135.85 1150.26,-135.85 		"/>
		<polygon style="&st1;" points="1504.59,-164.19 1490.42,-164.19 1476.25,-164.19 1462.08,-164.19 1447.9,-164.19 1433.73,-164.19 
			1419.56,-164.19 1405.38,-164.19 1391.21,-164.19 1377.04,-164.19 1362.86,-164.19 1348.69,-164.19 1334.52,-164.19 
			1320.34,-164.19 1306.17,-164.19 1292,-164.19 1277.82,-164.19 1263.65,-164.19 1249.48,-164.19 1235.3,-164.19 1221.13,-164.19 
			1206.96,-164.19 1192.78,-164.19 1178.61,-164.19 1164.44,-164.19 1150.26,-164.19 1150.26,-150.02 1150.26,-135.85 
			1150.26,-135.85 1150.26,-121.67 1150.26,-121.67 1150.26,-107.5 1150.26,-107.5 1150.26,-93.33 1164.44,-93.33 1164.44,-107.5 
			1178.61,-107.5 1192.78,-107.5 1192.78,-107.5 1192.78,-93.33 1192.78,-79.15 1206.96,-79.15 1206.96,-93.33 1221.13,-93.33 
			1221.13,-107.5 1235.3,-107.5 1249.48,-107.5 1263.65,-107.5 1263.65,-107.5 1263.65,-93.33 1277.82,-93.33 1277.82,-79.15 
			1292,-79.15 1292,-93.33 1306.17,-93.33 1320.34,-93.33 1334.52,-93.33 1334.52,-79.15 1348.69,-79.15 1362.86,-79.15 
			1362.86,-93.33 1377.04,-93.33 1377.04,-107.5 1391.21,-107.5 1391.21,-93.33 1405.38,-93.33 1419.56,-93.33 1419.56,-107.5 
			1433.73,-107.5 1433.73,-107.5 1433.73,-93.33 1433.73,-79.15 1447.9,-79.15 1447.9,-93.33 1462.08,-93.33 1476.25,-93.33 
			1476.25,-107.5 1490.42,-107.5 1504.59,-107.5 1504.6,-107.5 1504.6,-93.33 1518.77,-93.33 1518.77,-107.5 1518.77,-121.67 
			1518.77,-135.85 1518.77,-150.02 1518.77,-164.19 		"/>
	</g>
	<g>
		<rect x="1490.42" y="-107.5" style="&st2;" width="14.17" height="14.17"/>
		<polygon style="&st2;" points="1433.73,-107.5 1419.56,-107.5 1419.56,-93.33 1419.56,-93.33 1419.56,-79.15 1433.73,-79.15 
			1433.73,-93.33 1433.73,-93.33 		"/>
		<rect x="1377.04" y="-107.5" style="&st2;" width="14.17" height="14.17"/>
		<rect x="1263.65" y="-93.33" style="&st2;" width="14.17" height="14.17"/>
		<rect x="1249.48" y="-107.5" style="&st2;" width="14.17" height="14.17"/>
		<polygon style="&st2;" points="1178.61,-93.33 1178.61,-79.15 1192.78,-79.15 1192.78,-93.33 1192.78,-107.5 1178.61,-107.5 		"/>
		<rect x="1121.92" y="-107.5" style="&st2;" width="14.17" height="14.17"/>
		<polygon style="&st2;" points="1051.05,-93.33 1051.05,-79.15 1065.22,-79.15 1065.22,-93.33 1065.22,-107.5 1051.05,-107.5 		"/>
		<rect x="1008.53" y="-107.5" style="&st2;" width="14.17" height="14.17"/>
		<rect x="951.84" y="-93.33" style="&st2;" width="14.17" height="14.17"/>
		<rect x="895.15" y="-93.33" style="&st2;" width="14.17" height="14.17"/>
		<rect x="880.97" y="-107.5" style="&st2;" width="14.17" height="14.17"/>
		<polygon style="&st2;" points="810.11,-93.33 810.11,-79.15 824.28,-79.15 824.28,-93.33 824.28,-107.5 810.11,-107.5 		"/>
		<rect x="753.41" y="-107.5" style="&st2;" width="14.17" height="14.17"/>
		<polygon style="&st2;" points="682.55,-93.33 682.55,-79.15 696.72,-79.15 696.72,-93.33 696.72,-107.5 682.55,-107.5 		"/>
		<rect x="640.03" y="-107.5" style="&st2;" width="14.17" height="14.17"/>
		<rect x="583.33" y="-93.33" style="&st2;" width="14.17" height="14.17"/>
		<rect x="526.64" y="-93.33" style="&st2;" width="14.17" height="14.17"/>
		<rect x="512.47" y="-107.5" style="&st2;" width="14.17" height="14.17"/>
		<polygon style="&st2;" points="441.6,-93.33 441.6,-79.15 455.78,-79.15 455.78,-93.33 455.78,-107.5 441.6,-107.5 		"/>
		<rect x="384.91" y="-107.5" style="&st2;" width="14.17" height="14.17"/>
		<polygon style="&st2;" points="328.22,-107.5 314.04,-107.5 314.04,-93.33 314.04,-93.33 314.04,-79.15 328.22,-79.15 
			328.22,-93.33 328.22,-93.33 		"/>
		<rect x="271.52" y="-107.5" style="&st2;" width="14.17" height="14.17"/>
		<rect x="214.83" y="-93.33" style="&st2;" width="14.17" height="14.17"/>
		<rect x="158.14" y="-93.33" style="&st2;" width="14.17" height="14.17"/>
		<rect x="143.96" y="-107.5" style="&st2;" width="14.17" height="14.17"/>
		<polygon style="&st2;" points="73.1,-93.33 73.1,-79.15 87.27,-79.15 87.27,-93.33 87.27,-107.5 73.1,-107.5 		"/>
		<polygon style="&st2;" points="30.58,-150.02 30.58,-135.85 30.58,-121.67 30.58,-107.5 30.58,-93.33 44.75,-93.33 44.75,-107.5 
			44.75,-121.67 44.75,-135.85 44.75,-150.02 44.75,-164.19 30.58,-164.19 		"/>
		<rect x="1320.34" y="-93.33" style="&st2;" width="14.17" height="14.17"/>
	</g>
</g>
</svg>
