<?xml version="1.0" encoding="utf-8"?>
<!-- Generator: Adobe Illustrator 29.5.1, SVG Export Plug-In . SVG Version: 9.03 Build 0)  -->
<!DOCTYPE svg PUBLIC "-//W3C//DTD SVG 1.1//EN" "http://www.w3.org/Graphics/SVG/1.1/DTD/svg11.dtd" [
	<!ENTITY st0 "fill:#34383D;">
	<!ENTITY st1 "fill:#FFFFFF;">
	<!ENTITY st2 "font-family:'PressStart2P-Regular';">
	<!ENTITY st3 "font-size:31.4px;">
	<!ENTITY st4 "fill:#63A6CC;">
	<!ENTITY st5 "fill:#2B2B2B;">
	<!ENTITY st6 "fill:#387BBF;">
	<!ENTITY st7 "fill:#1F4E9E;">
	<!ENTITY st8 "fill:#F0857D;">
	<!ENTITY st9 "fill:#EB5B3A;">
	<!ENTITY st10 "fill:#C1422C;">
	<!ENTITY st11 "fill:#FFDC4B;">
	<!ENTITY st12 "fill:#FCC10A;">
	<!ENTITY st13 "fill:#F7A62E;">
	<!ENTITY st14 "fill:#232323;">
]>
<svg version="1.1" id="Laag_1" xmlns="http://www.w3.org/2000/svg" xmlns:xlink="http://www.w3.org/1999/xlink" x="0px" y="0px"
	 viewBox="0 0 484.4 154.3" style="enable-background:new 0 0 484.4 154.3;" xml:space="preserve">
<polygon style="&st0;" points="415.4,31.72 415.4,0 35.9,0 35.9,32.51 0,32.51 0,120.81 35.9,120.81 35.9,154.3 448,154.3 
	448,31.72 "/>
<text transform="matrix(1 0 0 1 148.4 97.2999)" style="&st1; &st2; &st3;">MiniBytes</text>
<g>
	<rect x="82.2" y="45" style="&st4;" width="19.4" height="19.4"/>
	<rect x="94.3" y="50.8" style="&st5;" width="1.5" height="2.9"/>
	<rect x="88" y="50.8" style="&st5;" width="1.5" height="2.9"/>
	<rect x="94.7" y="52.1" style="&st4;" width="0.7" height="1.5"/>
	<rect x="88.4" y="52.1" style="&st4;" width="0.7" height="1.5"/>
	<path style="&st6;" d="M105.5,48.9v-7.8h-7.8v-3.9H86.1v3.9h-7.8V45h-3.9v7.8h3.9v15.5h7.8v3.9h-3.9v3.9H90v-7.8h3.9v7.8h7.8v-3.9
		h-3.9v-3.9h7.8V56.6h3.9v-7.8h-3.9L105.5,48.9z M101.6,60.5v3.9H82.2V45h19.4V60.5L101.6,60.5z"/>
	<g>
		<rect x="74.5" y="41.1" style="&st7;" width="3.9" height="3.9"/>
		<polygon style="&st7;" points="90,68.3 90,72.2 90,76.1 93.9,76.1 93.9,72.2 93.9,68.3 		"/>
		<rect x="82.2" y="68.3" style="&st7;" width="3.9" height="3.9"/>
		<rect x="78.3" y="72.2" style="&st7;" width="3.9" height="3.9"/>
		<polygon style="&st7;" points="74.5,45 70.6,45 70.6,48.9 70.6,52.8 74.5,52.8 74.5,48.9 		"/>
		<polygon style="&st7;" points="74.5,60.5 74.5,64.4 74.5,68.3 78.3,68.3 78.3,64.4 78.3,60.5 78.3,56.7 78.3,52.8 74.5,52.8 
			74.5,56.7 		"/>
		<rect x="82.2" y="37.3" style="&st7;" width="3.9" height="3.9"/>
	</g>
</g>
<g>
	<rect x="55.3" y="83.8" style="&st8;" width="19.7" height="19.7"/>
	<rect x="61.2" y="89.7" style="&st5;" width="1.5" height="2.9"/>
	<rect x="67.6" y="89.7" style="&st5;" width="1.5" height="2.9"/>
	<rect x="61.6" y="90.9" style="&st8;" width="0.7" height="1.5"/>
	<rect x="68" y="90.9" style="&st8;" width="0.7" height="1.5"/>
	<g>
		<polygon style="&st9;" points="51.3,87.7 51.3,83.8 51.3,79.9 55.3,79.9 59.2,79.9 59.2,75.9 63.2,75.9 67.1,75.9 71,75.9 
			71,79.9 75,79.9 78.9,79.9 78.9,83.8 82.8,83.8 82.8,87.7 82.8,91.7 78.9,91.7 78.9,95.6 78.9,99.5 75,99.5 75,95.6 75,91.7 
			75,87.7 75,83.8 71,83.8 67.1,83.8 63.2,83.8 59.2,83.8 55.3,83.8 55.3,87.7 55.3,91.7 55.3,95.6 55.3,99.5 55.3,103.5 
			59.2,103.5 59.2,107.4 55.3,107.4 51.3,107.4 51.3,103.5 51.3,99.5 51.3,95.6 47.4,95.6 47.4,91.7 47.4,87.7 		"/>
		<polygon style="&st9;" points="82.8,103.5 82.8,107.4 78.9,107.4 78.9,103.5 78.9,99.5 82.8,99.5 		"/>
		<polygon style="&st9;" points="71,103.5 71,107.4 67.1,107.4 67.1,103.5 67.1,99.5 71,99.5 		"/>
	</g>
	<g>
		<polygon style="&st10;" points="47.4,79.9 51.3,79.9 51.3,83.8 51.3,87.7 47.4,87.7 47.4,83.8 		"/>
		<polygon style="&st10;" points="47.4,87.7 47.4,91.7 47.4,95.6 43.5,95.6 43.5,91.7 43.5,87.7 		"/>
		<polygon style="&st10;" points="51.3,99.5 51.3,103.5 51.3,107.4 47.4,107.4 47.4,103.5 47.4,99.5 47.4,95.6 51.3,95.6 		"/>
		<polygon style="&st10;" points="75,99.5 78.9,99.5 78.9,103.5 78.9,107.4 75,107.4 71,107.4 71,103.5 75,103.5 		"/>
		<polygon style="&st10;" points="63.2,99.5 67.1,99.5 67.1,103.5 67.1,107.4 63.2,107.4 59.2,107.4 59.2,103.5 63.2,103.5 		"/>
		<rect x="55.3" y="75.9" style="&st10;" width="3.9" height="3.9"/>
	</g>
</g>
<g>
	<rect x="109.3" y="75.9" style="&st11;" width="19.4" height="19.4"/>
	<rect x="115.1" y="81.7" style="&st5;" width="1.5" height="2.9"/>
	<rect x="121.4" y="81.7" style="&st5;" width="1.5" height="2.9"/>
	<rect x="115.5" y="82.9" style="&st11;" width="0.7" height="1.5"/>
	<rect x="121.8" y="82.9" style="&st11;" width="0.7" height="1.5"/>
	<g>
		<polygon style="&st12;" points="105.4,79.8 105.4,75.9 105.4,72 109.3,72 113.2,72 113.2,68.1 117.1,68.1 117.1,68.1 120.9,68.1 
			120.9,72 120.9,72 120.9,68.1 124.8,68.1 124.8,72 128.7,72 132.6,72 132.6,75.9 136.5,75.9 136.5,79.8 136.5,83.7 132.6,83.7 
			132.6,87.5 132.6,91.4 132.6,95.3 132.6,99.2 128.7,99.2 124.8,99.2 124.8,103.1 128.7,103.1 128.7,107 124.8,107 120.9,107 
			120.9,103.1 120.9,99.2 117.1,99.2 113.2,99.2 113.2,95.3 117.1,95.3 120.9,95.3 124.8,95.3 128.7,95.3 128.7,91.4 128.7,87.5 
			128.7,83.7 128.7,79.8 128.7,75.9 124.8,75.9 120.9,75.9 117.1,75.9 113.2,75.9 109.3,75.9 109.3,79.8 109.3,83.7 109.3,87.5 
			109.3,91.4 105.4,91.4 105.4,87.5 101.5,87.5 101.5,83.7 101.5,79.8 		"/>
		<polygon style="&st12;" points="105.4,95.3 105.4,99.2 101.5,99.2 101.5,95.3 101.5,91.4 105.4,91.4 		"/>
	</g>
	<g>
		<rect x="132.6" y="72" style="&st13;" width="3.9" height="3.9"/>
		<rect x="124.8" y="99.2" style="&st13;" width="3.9" height="3.9"/>
		<rect x="128.7" y="103.1" style="&st13;" width="3.9" height="3.9"/>
		<polygon style="&st13;" points="136.5,75.9 140.4,75.9 140.4,79.8 140.4,83.7 136.5,83.7 136.5,79.8 		"/>
		<polygon style="&st13;" points="136.5,91.4 136.5,95.3 136.5,99.2 132.6,99.2 132.6,95.3 132.6,91.4 132.6,87.5 132.6,83.7 
			136.5,83.7 136.5,87.5 		"/>
		<polygon style="&st13;" points="109.3,91.4 109.3,95.3 113.2,95.3 113.2,99.2 109.3,99.2 105.4,99.2 105.4,95.3 105.4,91.4 		"/>
		<rect x="124.8" y="68.1" style="&st13;" width="3.9" height="3.9"/>
	</g>
</g>
<rect x="448" y="32.3" style="&st14;" width="36.4" height="89.7"/>
<rect x="415" style="&st14;" width="33" height="32.3"/>
<rect x="415" y="122" style="&st14;" width="33" height="32.3"/>
</svg>
