<?xml version="1.0" encoding="utf-8"?>
<!-- Generator: Adobe Illustrator 29.5.1, SVG Export Plug-In . SVG Version: 9.03 Build 0)  -->
<!DOCTYPE svg PUBLIC "-//W3C//DTD SVG 1.1//EN" "http://www.w3.org/Graphics/SVG/1.1/DTD/svg11.dtd" [
	<!ENTITY st0 "fill:#34383D;">
	<!ENTITY st1 "fill:#63A6CC;">
	<!ENTITY st2 "fill:#2B2B2B;">
	<!ENTITY st3 "fill:#387BBF;">
	<!ENTITY st4 "fill:#1F4E9E;">
	<!ENTITY st5 "fill:#F0857D;">
	<!ENTITY st6 "fill:#EB5B3A;">
	<!ENTITY st7 "fill:#C1422C;">
	<!ENTITY st8 "fill:#FFDC4B;">
	<!ENTITY st9 "fill:#FCC10A;">
	<!ENTITY st10 "fill:#F7A62E;">
	<!ENTITY st11 "font-family:'PressStart2P-Regular';">
	<!ENTITY st12 "font-size:36.2317px;">
]>
<svg version="1.1" id="Laag_1" xmlns="http://www.w3.org/2000/svg" xmlns:xlink="http://www.w3.org/1999/xlink" x="0px" y="0px"
	 viewBox="0 0 500 195.99" style="enable-background:new 0 0 500 195.99;" xml:space="preserve">
<rect y="239.2" style="&st0;" width="500" height="195.99"/>
<text transform="matrix(1 0 0 1 151.0279 357.5206)" style="&st11; &st12; fill:#FFFFFF;">MiniBytes</text>
<g>
	<rect x="70.06" y="297.19" style="&st1;" width="22.38" height="22.38"/>
	<rect x="84.05" y="303.9" style="&st2;" width="1.68" height="3.36"/>
	<rect x="76.77" y="303.9" style="&st2;" width="1.68" height="3.36"/>
	<rect x="84.47" y="305.3" style="&st1;" width="0.84" height="1.68"/>
	<rect x="77.19" y="305.3" style="&st1;" width="0.84" height="1.68"/>
	<path style="&st3;" d="M96.92,301.66v-4.48v-4.48h-4.48h-4.48v-4.48h-4.48h-4.48h-4.48v4.48h-4.48h-4.48v4.48h-4.48v4.48v4.48h4.48
		v4.48v4.48v4.48v4.48h4.48h4.48v4.48h-4.48V333h4.48h4.48v-4.48v-4.48h4.48v4.48V333h4.48h4.48v-4.48h-4.48v-4.48h4.48h4.48v-4.48
		v-4.48v-4.48h4.48v-4.48v-4.48H96.92z M92.44,315.09v4.48h-4.48h-4.48h-4.48h-4.48h-4.48v-4.48v-4.48v-4.48v-4.48v-4.48h4.48h4.48
		h4.48h4.48h4.48v4.48v4.48v4.48V315.09z"/>
	<g>
		<rect x="61.11" y="292.71" style="&st4;" width="4.48" height="4.48"/>
		<polygon style="&st4;" points="79.01,324.05 79.01,328.52 79.01,333 83.49,333 83.49,328.52 83.49,324.05 		"/>
		<rect x="70.06" y="324.05" style="&st4;" width="4.48" height="4.48"/>
		<rect x="65.58" y="328.52" style="&st4;" width="4.48" height="4.48"/>
		<polygon style="&st4;" points="61.11,297.19 56.63,297.19 56.63,301.66 56.63,306.14 61.11,306.14 61.11,301.66 		"/>
		<polygon style="&st4;" points="61.11,315.09 61.11,319.57 61.11,324.05 65.58,324.05 65.58,319.57 65.58,315.09 65.58,310.62 
			65.58,306.14 61.11,306.14 61.11,310.62 		"/>
		<rect x="70.06" y="288.24" style="&st4;" width="4.48" height="4.48"/>
	</g>
</g>
<g>
	
		<rect x="39" y="341.91" transform="matrix(-1 -4.488555e-11 4.488555e-11 -1 100.6923 706.5102)" style="&st5;" width="22.69" height="22.69"/>
	
		<rect x="45.81" y="348.72" transform="matrix(-1 -4.381663e-11 4.381663e-11 -1 93.3167 700.8367)" style="&st2;" width="1.7" height="3.4"/>
	
		<rect x="53.18" y="348.72" transform="matrix(-1 -4.381663e-11 4.381663e-11 -1 108.0679 700.8367)" style="&st2;" width="1.7" height="3.4"/>
	
		<rect x="46.23" y="350.13" transform="matrix(-1 -4.488555e-11 4.488555e-11 -1 93.3167 701.9714)" style="&st5;" width="0.85" height="1.7"/>
	
		<rect x="53.61" y="350.13" transform="matrix(-1 -3.633594e-11 3.633594e-11 -1 108.0679 701.9714)" style="&st5;" width="0.85" height="1.7"/>
	<g>
		<polygon style="&st6;" points="34.46,346.45 34.46,341.91 34.46,337.37 39,337.37 43.54,337.37 43.54,332.83 48.08,332.83 
			52.62,332.83 57.15,332.83 57.15,337.37 61.69,337.37 66.23,337.37 66.23,341.91 70.77,341.91 70.77,346.45 70.77,350.99 
			66.23,350.99 66.23,355.52 66.23,360.06 61.69,360.06 61.69,355.52 61.69,350.99 61.69,346.45 61.69,341.91 57.15,341.91 
			52.62,341.91 48.08,341.91 43.54,341.91 39,341.91 39,346.45 39,350.99 39,355.52 39,360.06 39,364.6 43.54,364.6 43.54,369.14 
			39,369.14 34.46,369.14 34.46,364.6 34.46,360.06 34.46,355.52 29.92,355.52 29.92,350.99 29.92,346.45 		"/>
		<polygon style="&st6;" points="70.77,364.6 70.77,369.14 66.23,369.14 66.23,364.6 66.23,360.06 70.77,360.06 		"/>
		<polygon style="&st6;" points="57.15,364.6 57.15,369.14 52.62,369.14 52.62,364.6 52.62,360.06 57.15,360.06 		"/>
	</g>
	<g>
		<polygon style="&st7;" points="29.92,337.37 34.46,337.37 34.46,341.91 34.46,346.45 29.92,346.45 29.92,341.91 		"/>
		<polygon style="&st7;" points="29.92,346.45 29.92,350.99 29.92,355.52 25.38,355.52 25.38,350.99 25.38,346.45 		"/>
		<polygon style="&st7;" points="34.46,360.06 34.46,364.6 34.46,369.14 29.92,369.14 29.92,364.6 29.92,360.06 29.92,355.52 
			34.46,355.52 		"/>
		<polygon style="&st7;" points="61.69,360.06 66.23,360.06 66.23,364.6 66.23,369.14 61.69,369.14 57.15,369.14 57.15,364.6 
			61.69,364.6 		"/>
		<polygon style="&st7;" points="48.08,360.06 52.62,360.06 52.62,364.6 52.62,369.14 48.08,369.14 43.54,369.14 43.54,364.6 
			48.08,364.6 		"/>
		<rect x="39" y="332.83" style="&st7;" width="4.54" height="4.54"/>
	</g>
</g>
<g>
	
		<rect x="101.3" y="332.8" transform="matrix(-1 -4.478163e-11 4.478163e-11 -1 224.9818 687.9777)" style="&st8;" width="22.38" height="22.38"/>
	
		<rect x="108.01" y="339.51" transform="matrix(-1 -4.876423e-11 4.876423e-11 -1 217.708 682.3824)" style="&st2;" width="1.68" height="3.36"/>
	
		<rect x="115.29" y="339.51" transform="matrix(-1 -4.442947e-11 4.442947e-11 -1 232.2557 682.3824)" style="&st2;" width="1.68" height="3.36"/>
	
		<rect x="108.43" y="340.91" transform="matrix(-1 -4.551349e-11 4.551349e-11 -1 217.708 683.5015)" style="&st8;" width="0.84" height="1.68"/>
	
		<rect x="115.71" y="340.91" transform="matrix(-1 -4.334589e-11 4.334589e-11 -1 232.2557 683.5015)" style="&st8;" width="0.84" height="1.68"/>
	<g>
		<polygon style="&st9;" points="96.82,337.27 96.82,332.8 96.82,328.32 101.3,328.32 105.78,328.32 105.78,323.85 110.25,323.85 
			110.25,323.85 114.73,323.85 114.73,328.32 114.73,328.32 114.73,323.85 119.21,323.85 119.21,328.32 123.68,328.32 
			128.16,328.32 128.16,332.8 132.63,332.8 132.63,337.27 132.63,341.75 128.16,341.75 128.16,346.23 128.16,350.7 128.16,355.18 
			128.16,359.66 123.68,359.66 119.21,359.66 119.21,364.13 123.68,364.13 123.68,368.61 119.21,368.61 114.73,368.61 
			114.73,364.13 114.73,359.66 110.25,359.66 105.78,359.66 105.78,355.18 110.25,355.18 114.73,355.18 119.21,355.18 
			123.68,355.18 123.68,350.7 123.68,346.23 123.68,341.75 123.68,337.27 123.68,332.8 119.21,332.8 114.73,332.8 110.25,332.8 
			105.78,332.8 101.3,332.8 101.3,337.27 101.3,341.75 101.3,346.23 101.3,350.7 96.82,350.7 96.82,346.23 92.35,346.23 
			92.35,341.75 92.35,337.27 		"/>
		<polygon style="&st9;" points="96.82,355.19 96.82,359.67 92.35,359.67 92.35,355.19 92.35,350.72 96.82,350.72 		"/>
	</g>
	<g>
		<rect x="128.16" y="328.32" style="&st10;" width="4.48" height="4.48"/>
		<rect x="119.21" y="359.66" style="&st10;" width="4.48" height="4.48"/>
		<rect x="123.68" y="364.13" style="&st10;" width="4.48" height="4.48"/>
		<polygon style="&st10;" points="132.63,332.8 137.11,332.8 137.11,337.27 137.11,341.75 132.63,341.75 132.63,337.27 		"/>
		<polygon style="&st10;" points="132.63,350.7 132.63,355.18 132.63,359.66 128.16,359.66 128.16,355.18 128.16,350.7 
			128.16,346.23 128.16,341.75 132.63,341.75 132.63,346.23 		"/>
		<polygon style="&st10;" points="101.3,350.72 101.3,355.19 105.78,355.19 105.78,359.67 101.3,359.67 96.82,359.67 96.82,355.19 
			96.82,350.72 		"/>
		<rect x="119.21" y="323.85" style="&st10;" width="4.48" height="4.48"/>
	</g>
</g>
<text transform="matrix(1 0 0 1 152.6904 122.8483)" style="&st0; &st11; &st12;">MiniBytes</text>
<g>
	<rect x="71.72" y="62.52" style="&st1;" width="22.38" height="22.38"/>
	<rect x="85.71" y="69.23" style="&st2;" width="1.68" height="3.36"/>
	<rect x="78.44" y="69.23" style="&st2;" width="1.68" height="3.36"/>
	<rect x="86.13" y="70.63" style="&st1;" width="0.84" height="1.68"/>
	<rect x="78.85" y="70.63" style="&st1;" width="0.84" height="1.68"/>
	<path style="&st3;" d="M98.58,66.99v-4.48v-4.48H94.1h-4.48v-4.48h-4.48h-4.48H76.2v4.48h-4.48h-4.48v4.48h-4.48v4.48v4.48h4.48
		v4.48v4.48v4.48v4.48h4.48h4.48v4.48h-4.48v4.48h4.48h4.48v-4.48v-4.48h4.48v4.48v4.48h4.48h4.48v-4.48h-4.48v-4.48h4.48h4.48V84.9
		v-4.48v-4.48h4.48v-4.48v-4.48H98.58z M94.1,80.42v4.48h-4.48h-4.48h-4.48H76.2h-4.48v-4.48v-4.48v-4.48v-4.48v-4.48h4.48h4.48
		h4.48h4.48h4.48v4.48v4.48v4.48V80.42z"/>
	<g>
		<rect x="62.77" y="58.04" style="&st4;" width="4.48" height="4.48"/>
		<polygon style="&st4;" points="80.67,89.37 80.67,93.85 80.67,98.33 85.15,98.33 85.15,93.85 85.15,89.37 		"/>
		<rect x="71.72" y="89.37" style="&st4;" width="4.48" height="4.48"/>
		<rect x="67.24" y="93.85" style="&st4;" width="4.48" height="4.48"/>
		<polygon style="&st4;" points="62.77,62.52 58.29,62.52 58.29,66.99 58.29,71.47 62.77,71.47 62.77,66.99 		"/>
		<polygon style="&st4;" points="62.77,80.42 62.77,84.9 62.77,89.37 67.24,89.37 67.24,84.9 67.24,80.42 67.24,75.94 67.24,71.47 
			62.77,71.47 62.77,75.94 		"/>
		<rect x="71.72" y="53.56" style="&st4;" width="4.48" height="4.48"/>
	</g>
</g>
<g>
	
		<rect x="40.66" y="107.24" transform="matrix(-1 -4.488555e-11 4.488555e-11 -1 104.0174 237.1656)" style="&st5;" width="22.69" height="22.69"/>
	
		<rect x="47.47" y="114.04" transform="matrix(-1 -4.381663e-11 4.381663e-11 -1 96.6418 231.4921)" style="&st2;" width="1.7" height="3.4"/>
	
		<rect x="54.85" y="114.04" transform="matrix(-1 -4.381663e-11 4.381663e-11 -1 111.393 231.4921)" style="&st2;" width="1.7" height="3.4"/>
	
		<rect x="47.9" y="115.46" transform="matrix(-1 -4.488555e-11 4.488555e-11 -1 96.6418 232.6268)" style="&st5;" width="0.85" height="1.7"/>
	
		<rect x="55.27" y="115.46" transform="matrix(-1 -3.633594e-11 3.633594e-11 -1 111.393 232.6268)" style="&st5;" width="0.85" height="1.7"/>
	<g>
		<polygon style="&st6;" points="36.12,111.77 36.12,107.24 36.12,102.7 40.66,102.7 45.2,102.7 45.2,98.16 49.74,98.16 
			54.28,98.16 58.82,98.16 58.82,102.7 63.36,102.7 67.89,102.7 67.89,107.24 72.43,107.24 72.43,111.77 72.43,116.31 67.89,116.31 
			67.89,120.85 67.89,125.39 63.36,125.39 63.36,120.85 63.36,116.31 63.36,111.77 63.36,107.24 58.82,107.24 54.28,107.24 
			49.74,107.24 45.2,107.24 40.66,107.24 40.66,111.77 40.66,116.31 40.66,120.85 40.66,125.39 40.66,129.93 45.2,129.93 
			45.2,134.47 40.66,134.47 36.12,134.47 36.12,129.93 36.12,125.39 36.12,120.85 31.58,120.85 31.58,116.31 31.58,111.77 		"/>
		<polygon style="&st6;" points="72.43,129.93 72.43,134.47 67.89,134.47 67.89,129.93 67.89,125.39 72.43,125.39 		"/>
		<polygon style="&st6;" points="58.82,129.93 58.82,134.47 54.28,134.47 54.28,129.93 54.28,125.39 58.82,125.39 		"/>
	</g>
	<g>
		<polygon style="&st7;" points="31.58,102.7 36.12,102.7 36.12,107.24 36.12,111.77 31.58,111.77 31.58,107.24 		"/>
		<polygon style="&st7;" points="31.58,111.77 31.58,116.31 31.58,120.85 27.05,120.85 27.05,116.31 27.05,111.77 		"/>
		<polygon style="&st7;" points="36.12,125.39 36.12,129.93 36.12,134.47 31.58,134.47 31.58,129.93 31.58,125.39 31.58,120.85 
			36.12,120.85 		"/>
		<polygon style="&st7;" points="63.36,125.39 67.89,125.39 67.89,129.93 67.89,134.47 63.36,134.47 58.82,134.47 58.82,129.93 
			63.36,129.93 		"/>
		<polygon style="&st7;" points="49.74,125.39 54.28,125.39 54.28,129.93 54.28,134.47 49.74,134.47 45.2,134.47 45.2,129.93 
			49.74,129.93 		"/>
		<rect x="40.66" y="98.16" style="&st7;" width="4.54" height="4.54"/>
	</g>
</g>
<g>
	
		<rect x="102.96" y="98.13" transform="matrix(-1 -4.478163e-11 4.478163e-11 -1 228.3069 218.6331)" style="&st8;" width="22.38" height="22.38"/>
	
		<rect x="109.68" y="104.84" transform="matrix(-1 -4.876423e-11 4.876423e-11 -1 221.033 213.0379)" style="&st2;" width="1.68" height="3.36"/>
	
		<rect x="116.95" y="104.84" transform="matrix(-1 -4.442947e-11 4.442947e-11 -1 235.5807 213.0379)" style="&st2;" width="1.68" height="3.36"/>
	
		<rect x="110.1" y="106.24" transform="matrix(-1 -4.551349e-11 4.551349e-11 -1 221.033 214.1569)" style="&st8;" width="0.84" height="1.68"/>
	
		<rect x="117.37" y="106.24" transform="matrix(-1 -4.334589e-11 4.334589e-11 -1 235.5807 214.1569)" style="&st8;" width="0.84" height="1.68"/>
	<g>
		<polygon style="&st9;" points="98.49,102.6 98.49,98.13 98.49,93.65 102.96,93.65 107.44,93.65 107.44,89.17 111.92,89.17 
			111.92,89.17 116.39,89.17 116.39,93.65 116.39,93.65 116.39,89.17 120.87,89.17 120.87,93.65 125.34,93.65 129.82,93.65 
			129.82,98.13 134.3,98.13 134.3,102.6 134.3,107.08 129.82,107.08 129.82,111.55 129.82,116.03 129.82,120.51 129.82,124.98 
			125.34,124.98 120.87,124.98 120.87,129.46 125.34,129.46 125.34,133.94 120.87,133.94 116.39,133.94 116.39,129.46 
			116.39,124.98 111.92,124.98 107.44,124.98 107.44,120.51 111.92,120.51 116.39,120.51 120.87,120.51 125.34,120.51 
			125.34,116.03 125.34,111.55 125.34,107.08 125.34,102.6 125.34,98.13 120.87,98.13 116.39,98.13 111.92,98.13 107.44,98.13 
			102.96,98.13 102.96,102.6 102.96,107.08 102.96,111.55 102.96,116.03 98.49,116.03 98.49,111.55 94.01,111.55 94.01,107.08 
			94.01,102.6 		"/>
		<polygon style="&st9;" points="98.49,120.52 98.49,125 94.01,125 94.01,120.52 94.01,116.04 98.49,116.04 		"/>
	</g>
	<g>
		<rect x="129.82" y="93.65" style="&st10;" width="4.48" height="4.48"/>
		<rect x="120.87" y="124.98" style="&st10;" width="4.48" height="4.48"/>
		<rect x="125.34" y="129.46" style="&st10;" width="4.48" height="4.48"/>
		<polygon style="&st10;" points="134.3,98.13 138.77,98.13 138.77,102.6 138.77,107.08 134.3,107.08 134.3,102.6 		"/>
		<polygon style="&st10;" points="134.3,116.03 134.3,120.51 134.3,124.98 129.82,124.98 129.82,120.51 129.82,116.03 
			129.82,111.55 129.82,107.08 134.3,107.08 134.3,111.55 		"/>
		<polygon style="&st10;" points="102.96,116.04 102.96,120.52 107.44,120.52 107.44,125 102.96,125 98.49,125 98.49,120.52 
			98.49,116.04 		"/>
		<rect x="120.87" y="89.17" style="&st10;" width="4.48" height="4.48"/>
	</g>
</g>
</svg>
