<?xml version="1.0" encoding="utf-8"?>
<!-- Generator: Adobe Illustrator 29.5.1, SVG Export Plug-In . SVG Version: 9.03 Build 0)  -->
<!DOCTYPE svg PUBLIC "-//W3C//DTD SVG 1.1//EN" "http://www.w3.org/Graphics/SVG/1.1/DTD/svg11.dtd" [
	<!ENTITY st0 "fill:#FFDB4B;">
	<!ENTITY st1 "fill:#2B2B2B;">
	<!ENTITY st2 "fill:#FCC008;">
	<!ENTITY st3 "fill:#F6A52E;">
	<!ENTITY st4 "fill:#EF847D;">
	<!ENTITY st5 "fill:#EA5B3A;">
	<!ENTITY st6 "fill:#C0422D;">
	<!ENTITY st7 "fill:#FFFFFD;">
	<!ENTITY st8 "fill:#E7E7E8;">
	<!ENTITY st9 "fill:#CAC8C8;">
	<!ENTITY st10 "fill:#63A5CC;">
	<!ENTITY st11 "fill:#387BBE;">
	<!ENTITY st12 "fill:#1E4E9D;">
]>
<svg version="1.1" id="Laag_1" xmlns="http://www.w3.org/2000/svg" xmlns:xlink="http://www.w3.org/1999/xlink" x="0px" y="0px"
	 viewBox="0 0 1488.19 196.55" style="enable-background:new 0 0 1488.19 196.55;" xml:space="preserve">
<g>
	<rect x="708.66" y="83.16" style="&st0;" width="70.87" height="70.87"/>
	<rect x="752.96" y="104.42" style="&st1;" width="5.31" height="10.63"/>
	<rect x="729.92" y="104.42" style="&st1;" width="5.31" height="10.63"/>
	<rect x="754.28" y="108.85" style="&st0;" width="2.66" height="5.31"/>
	<rect x="731.25" y="108.85" style="&st0;" width="2.66" height="5.31"/>
	<path style="&st2;" d="M793.7,97.33V83.16V68.99h-14.17h-14.17V54.82h-14.17h-14.17h-14.17v14.17h-14.17h-14.17v14.17h-14.17v14.17
		v14.17h14.17v14.17v14.17v14.17v14.17h14.17h14.17v14.17h-14.17v14.17h14.17h14.17v-14.17V168.2h14.17v14.17v14.17h14.17h14.17
		v-14.17h-14.17V168.2h14.17h14.17v-14.17v-14.17v-14.17h14.17v-14.17V97.33H793.7z M779.53,139.85v14.17h-14.17h-14.17h-14.17
		h-14.17h-14.17v-14.17v-14.17v-14.17V97.33V83.16h14.17h14.17h14.17h14.17h14.17v14.17v14.17v14.17V139.85z"/>
	<g>
		<polygon style="&st3;" points="807.88,68.99 793.7,68.99 793.7,83.16 793.7,97.33 807.88,97.33 807.88,83.16 		"/>
		<polygon style="&st3;" points="807.88,97.33 807.88,111.51 807.88,125.68 822.05,125.68 822.05,111.51 822.05,97.33 		"/>
		<rect x="765.36" y="168.2" style="&st3;" width="14.17" height="14.17"/>
		<polygon style="&st3;" points="737.01,182.37 737.01,196.55 751.18,196.55 751.18,182.37 751.18,168.2 737.01,168.2 		"/>
		<rect x="779.53" y="182.37" style="&st3;" width="14.17" height="14.17"/>
		<polygon style="&st3;" points="793.7,139.85 793.7,154.03 793.7,168.2 807.88,168.2 807.88,154.03 807.88,139.85 807.88,125.68 
			793.7,125.68 		"/>
		<rect x="765.36" y="54.82" style="&st3;" width="14.17" height="14.17"/>
	</g>
</g>
<g>
	<rect x="1375.14" y="83.16" style="&st4;" width="70.87" height="70.87"/>
	<rect x="1419.43" y="104.42" style="&st1;" width="5.31" height="10.63"/>
	<rect x="1396.4" y="104.42" style="&st1;" width="5.31" height="10.63"/>
	<rect x="1420.76" y="108.85" style="&st4;" width="2.66" height="5.31"/>
	<rect x="1397.73" y="108.85" style="&st4;" width="2.66" height="5.31"/>
	<g>
		<polygon style="&st5;" points="1460.18,97.33 1460.18,83.16 1460.18,68.99 1446,68.99 1431.83,68.99 1417.66,68.99 1403.48,68.99 
			1403.48,68.99 1417.66,68.99 1417.66,54.81 1403.48,54.82 1389.31,54.82 1389.31,68.99 1375.14,68.99 1360.96,68.99 
			1360.96,83.16 1346.79,83.16 1346.79,97.33 1346.79,111.51 1360.96,111.51 1360.96,125.68 1360.96,139.85 1375.14,139.85 
			1375.14,125.68 1375.14,111.51 1375.14,97.33 1375.14,83.16 1389.31,83.16 1403.48,83.16 1417.66,83.16 1431.83,83.16 1446,83.16 
			1446,97.33 1446,111.51 1446,125.68 1446,139.85 1446,154.03 1431.83,154.03 1417.66,154.03 1403.48,154.03 1389.31,154.03 
			1389.31,168.2 1403.48,168.2 1417.66,168.2 1417.66,182.37 1417.66,196.55 1431.83,196.55 1446,196.55 1446,182.37 
			1431.83,182.37 1431.83,168.2 1446,168.2 1460.18,168.2 1460.18,154.03 1460.18,139.85 1460.18,125.68 1474.35,125.68 
			1474.35,111.51 1474.35,97.33 		"/>
		<polygon style="&st5;" points="1346.79,154.03 1346.79,168.2 1360.96,168.2 1360.96,154.03 1360.96,139.85 1346.79,139.85 		"/>
		<rect x="1417.66" y="54.81" style="&st5;" width="14.17" height="14.17"/>
	</g>
	<g>
		<polygon style="&st6;" points="1474.35,68.99 1460.18,68.99 1460.18,83.16 1460.18,97.33 1474.35,97.33 1474.35,83.16 		"/>
		<polygon style="&st6;" points="1474.35,97.33 1474.35,111.51 1474.35,125.68 1488.52,125.68 1488.52,111.51 1488.52,97.33 		"/>
		<rect x="1431.83" y="168.2" style="&st6;" width="14.17" height="14.17"/>
		<rect x="1446" y="182.37" style="&st6;" width="14.17" height="14.17"/>
		<polygon style="&st6;" points="1460.18,139.85 1460.18,154.03 1460.18,168.2 1474.35,168.2 1474.35,154.03 1474.35,139.85 
			1474.35,125.68 1460.18,125.68 		"/>
		<polygon style="&st6;" points="1375.14,139.85 1360.96,139.85 1360.96,154.03 1360.96,168.2 1375.14,168.2 1389.31,168.2 
			1389.31,154.03 1375.14,154.03 		"/>
		<rect x="1431.83" y="54.81" style="&st6;" width="14.17" height="14.17"/>
	</g>
</g>
<g>
	<rect x="1261.75" y="111.51" style="&st7;" width="70.87" height="70.87"/>
	<rect x="1306.04" y="132.77" style="&st1;" width="5.31" height="10.63"/>
	<rect x="1283.01" y="132.77" style="&st1;" width="5.31" height="10.63"/>
	<rect x="1307.37" y="137.2" style="&st7;" width="2.66" height="5.31"/>
	<rect x="1284.34" y="137.2" style="&st7;" width="2.66" height="5.31"/>
	<g>
		<polygon style="&st8;" points="1346.79,125.68 1346.79,111.51 1346.79,97.33 1332.62,97.33 1318.44,97.33 1304.27,97.33 
			1290.1,97.33 1290.1,97.33 1304.27,97.33 1304.27,83.16 1290.1,83.16 1290.1,83.16 1275.92,83.16 1275.92,97.33 1261.75,97.33 
			1247.58,97.33 1247.58,111.51 1233.4,111.51 1233.4,125.68 1233.4,139.85 1247.58,139.85 1247.58,154.03 1247.58,168.2 
			1261.75,168.2 1261.75,154.03 1261.75,139.85 1261.75,125.68 1261.75,111.51 1275.92,111.51 1290.1,111.51 1304.27,111.51 
			1318.44,111.51 1332.62,111.51 1332.62,125.68 1332.62,139.85 1332.62,154.03 1332.62,168.2 1332.62,182.37 1318.44,182.37 
			1318.44,196.55 1332.62,196.55 1346.79,196.55 1346.79,182.37 1346.79,168.2 1346.79,154.03 1360.96,154.03 1360.96,139.85 
			1360.96,125.68 		"/>
		<polygon style="&st8;" points="1233.4,182.37 1233.4,196.55 1247.58,196.55 1247.58,182.37 1247.58,168.2 1233.4,168.2 		"/>
		<polygon style="&st8;" points="1275.92,182.37 1275.92,196.55 1290.1,196.55 1290.1,182.37 1290.1,168.2 1275.92,168.2 		"/>
		<rect x="1304.27" y="83.16" style="&st8;" width="14.17" height="14.17"/>
	</g>
	<g>
		<polygon style="&st9;" points="1360.96,97.33 1346.79,97.33 1346.79,111.51 1346.79,125.68 1360.96,125.68 1360.96,111.51 		"/>
		<polygon style="&st9;" points="1360.96,125.68 1360.96,139.85 1360.96,154.03 1375.14,154.03 1375.14,139.85 1375.14,125.68 		"/>
		<polygon style="&st9;" points="1346.79,168.2 1346.79,182.37 1346.79,196.55 1360.96,196.55 1360.96,182.37 1360.96,168.2 
			1360.96,154.03 1346.79,154.03 		"/>
		<polygon style="&st9;" points="1261.75,168.2 1247.58,168.2 1247.58,182.37 1247.58,196.55 1261.75,196.55 1275.92,196.55 
			1275.92,182.37 1261.75,182.37 		"/>
		<polygon style="&st9;" points="1304.27,168.2 1290.1,168.2 1290.1,182.37 1290.1,196.55 1304.27,196.55 1318.44,196.55 
			1318.44,182.37 1304.27,182.37 		"/>
		<rect x="1318.44" y="83.16" style="&st9;" width="14.17" height="14.17"/>
	</g>
</g>
<g>
	<rect x="42.52" y="83.16" style="&st4;" width="70.87" height="70.87"/>
	<rect x="86.81" y="104.42" style="&st1;" width="5.31" height="10.63"/>
	<rect x="63.78" y="104.42" style="&st1;" width="5.31" height="10.63"/>
	<rect x="88.14" y="108.85" style="&st4;" width="2.66" height="5.31"/>
	<rect x="65.11" y="108.85" style="&st4;" width="2.66" height="5.31"/>
	<g>
		<path style="&st5;" d="M127.56,97.33V83.16V68.99h-14.17H99.21H85.04H70.87H56.69H42.52H28.35v14.17H14.17v14.17v14.17h14.17
			v14.17v14.17v14.17v14.17h14.17h14.17v14.17H42.52v14.17h14.17h14.17v-14.17V168.2h14.17v14.17v14.17h14.17h14.17v-14.17H99.21
			V168.2h14.17h14.17v-14.17v-14.17v-14.17h14.17v-14.17V97.33H127.56z M113.39,139.85v14.17H99.21H85.04H70.87H56.69H42.52v-14.17
			v-14.17v-14.17V97.33V83.16h14.17h14.17h14.17h14.17h14.17v14.17v14.17v14.17V139.85z"/>
		<polygon style="&st5;" points="70.87,68.99 85.04,68.99 99.21,68.99 99.21,54.81 85.04,54.81 85.04,54.81 70.87,54.81 		"/>
		<rect x="56.69" y="54.81" style="&st5;" width="14.17" height="14.17"/>
	</g>
	<g>
		<rect x="14.17" y="68.99" style="&st6;" width="14.17" height="14.17"/>
		<polygon style="&st6;" points="70.87,168.2 70.87,182.37 70.87,196.55 85.04,196.55 85.04,182.37 85.04,168.2 		"/>
		<rect x="42.52" y="168.2" style="&st6;" width="14.17" height="14.17"/>
		<rect x="28.35" y="182.37" style="&st6;" width="14.17" height="14.17"/>
		<polygon style="&st6;" points="14.17,83.16 0,83.16 0,97.33 0,111.51 14.17,111.51 14.17,97.33 		"/>
		<polygon style="&st6;" points="14.17,139.85 14.17,154.03 14.17,168.2 28.35,168.2 28.35,154.03 28.35,139.85 28.35,125.68 
			28.35,111.51 14.17,111.51 14.17,125.68 		"/>
		<rect x="42.52" y="54.81" style="&st6;" width="14.17" height="14.17"/>
	</g>
</g>
<g>
	<rect x="155.91" y="111.51" style="&st0;" width="70.87" height="70.87"/>
	<rect x="200.2" y="132.77" style="&st1;" width="5.31" height="10.63"/>
	<rect x="177.17" y="132.77" style="&st1;" width="5.31" height="10.63"/>
	<rect x="201.53" y="137.2" style="&st0;" width="2.66" height="5.31"/>
	<rect x="178.5" y="137.2" style="&st0;" width="2.66" height="5.31"/>
	<g>
		<polygon style="&st2;" points="240.95,125.68 240.95,111.51 240.95,97.33 226.78,97.33 212.6,97.33 212.6,83.16 198.43,83.16 
			184.26,83.16 170.08,83.16 170.08,97.33 155.91,97.33 141.74,97.33 141.74,111.51 127.56,111.51 127.56,125.68 127.56,139.85 
			141.74,139.85 141.74,154.03 141.74,168.2 141.74,182.37 141.74,196.55 155.91,196.55 170.08,196.55 170.08,182.37 155.91,182.37 
			155.91,168.2 155.91,154.03 155.91,139.85 155.91,125.68 155.91,111.51 170.08,111.51 184.26,111.51 198.43,111.51 212.6,111.51 
			226.78,111.51 226.78,125.68 226.78,139.85 226.78,154.03 226.78,168.2 240.95,168.2 240.95,154.03 255.12,154.03 255.12,139.85 
			255.12,125.68 		"/>
		<polygon style="&st2;" points="198.43,182.37 198.43,196.55 212.6,196.55 212.6,182.37 212.6,168.2 198.43,168.2 		"/>
		<polygon style="&st2;" points="240.95,196.55 255.12,196.55 255.12,182.37 255.12,168.2 240.95,168.2 240.95,182.37 		"/>
	</g>
	<g>
		<rect x="127.56" y="97.33" style="&st3;" width="14.17" height="14.17"/>
		<polygon style="&st3;" points="113.39,125.68 113.39,139.85 127.56,139.85 127.56,125.68 127.56,111.51 113.39,111.51 		"/>
		<polygon style="&st3;" points="127.56,168.2 127.56,182.37 127.56,196.55 141.74,196.55 141.74,182.37 141.74,168.2 
			141.74,154.03 141.74,139.85 127.56,139.85 127.56,154.03 		"/>
		<polygon style="&st3;" points="184.26,182.37 170.08,182.37 170.08,196.55 184.26,196.55 198.43,196.55 198.43,182.37 
			198.43,168.2 184.26,168.2 		"/>
		<polygon style="&st3;" points="226.78,168.2 226.78,182.37 212.6,182.37 212.6,196.55 226.78,196.55 240.95,196.55 240.95,182.37 
			240.95,168.2 		"/>
		<rect x="155.91" y="83.16" style="&st3;" width="14.17" height="14.17"/>
	</g>
</g>
<g>
	<rect x="400.7" y="83.16" style="&st7;" width="70.87" height="70.87"/>
	<rect x="444.99" y="104.42" style="&st1;" width="5.31" height="10.63"/>
	<rect x="421.96" y="104.42" style="&st1;" width="5.31" height="10.63"/>
	<rect x="446.32" y="108.85" style="&st7;" width="2.66" height="5.31"/>
	<rect x="423.29" y="108.85" style="&st7;" width="2.66" height="5.31"/>
	<g>
		<polygon style="&st8;" points="485.74,97.33 485.74,83.16 485.74,68.99 471.57,68.99 457.39,68.99 443.22,68.99 429.05,68.99 
			414.87,68.99 400.7,68.99 386.53,68.99 386.53,83.16 372.35,83.16 372.35,97.33 372.35,111.51 386.53,111.51 386.53,125.68 
			386.53,139.85 386.53,154.03 386.53,168.2 400.7,168.2 414.87,168.2 414.87,182.37 400.7,182.37 400.7,196.55 414.87,196.55 
			429.05,196.55 429.05,182.37 429.05,168.2 443.22,168.2 457.39,168.2 457.39,154.03 443.22,154.03 429.05,154.03 414.87,154.03 
			400.7,154.03 400.7,139.85 400.7,125.68 400.7,111.51 400.7,97.33 400.7,83.16 414.87,83.16 429.05,83.16 443.22,83.16 
			457.39,83.16 471.57,83.16 471.57,97.33 471.57,111.51 471.57,125.68 471.57,139.85 485.74,139.85 485.74,125.68 499.91,125.68 
			499.91,111.51 499.91,97.33 		"/>
		<polygon style="&st8;" points="485.74,154.07 485.74,168.24 499.91,168.24 499.91,154.07 499.91,139.9 485.74,139.9 		"/>
		<polygon style="&st8;" points="443.22,68.99 443.22,68.99 457.39,68.99 457.39,54.81 443.22,54.81 429.05,54.81 429.05,68.99 		
			"/>
		<rect x="414.87" y="54.81" style="&st8;" width="14.17" height="14.17"/>
	</g>
	<g>
		<rect x="372.35" y="68.99" style="&st9;" width="14.17" height="14.17"/>
		<rect x="400.7" y="168.2" style="&st9;" width="14.17" height="14.17"/>
		<rect x="386.53" y="182.37" style="&st9;" width="14.17" height="14.17"/>
		<polygon style="&st9;" points="372.35,83.16 358.18,83.16 358.18,97.33 358.18,111.51 372.35,111.51 372.35,97.33 		"/>
		<polygon style="&st9;" points="372.35,139.85 372.35,154.03 372.35,168.2 386.53,168.2 386.53,154.03 386.53,139.85 
			386.53,125.68 386.53,111.51 372.35,111.51 372.35,125.68 		"/>
		<polygon style="&st9;" points="471.57,139.9 471.57,154.07 457.39,154.07 457.39,168.24 471.57,168.24 485.74,168.24 
			485.74,154.07 485.74,139.9 		"/>
		<rect x="400.7" y="54.82" style="&st9;" width="14.17" height="14.17"/>
	</g>
</g>
<g>
	<rect x="983.84" y="83.16" style="&st10;" width="70.87" height="70.87"/>
	<rect x="1028.13" y="104.42" style="&st1;" width="5.31" height="10.63"/>
	<rect x="1005.1" y="104.42" style="&st1;" width="5.31" height="10.63"/>
	<rect x="1029.46" y="108.85" style="&st10;" width="2.66" height="5.31"/>
	<rect x="1006.43" y="108.85" style="&st10;" width="2.66" height="5.31"/>
	<g>
		<polygon style="&st11;" points="1068.88,97.33 1068.88,83.16 1068.88,68.99 1054.71,68.99 1040.53,68.99 1026.36,68.99 
			1012.19,68.99 1012.19,68.99 1026.36,68.99 1026.36,54.81 1012.19,54.82 998.02,54.82 998.02,68.99 983.84,68.99 969.67,68.99 
			969.67,83.16 955.5,83.16 955.5,97.33 955.5,111.51 969.67,111.51 969.67,125.68 969.67,139.85 983.84,139.85 983.84,125.68 
			983.84,111.51 983.84,97.33 983.84,83.16 998.02,83.16 1012.19,83.16 1026.36,83.16 1040.53,83.16 1054.71,83.16 1054.71,97.33 
			1054.71,111.51 1054.71,125.68 1054.71,139.85 1054.71,154.03 1040.53,154.03 1026.36,154.03 1012.19,154.03 998.02,154.03 
			998.02,168.2 1012.19,168.2 1026.36,168.2 1026.36,182.37 1026.36,196.55 1040.53,196.55 1054.71,196.55 1054.71,182.37 
			1040.53,182.37 1040.53,168.2 1054.71,168.2 1068.88,168.2 1068.88,154.03 1068.88,139.85 1068.88,125.68 1083.05,125.68 
			1083.05,111.51 1083.05,97.33 		"/>
		<polygon style="&st11;" points="955.5,154.03 955.5,168.2 969.67,168.2 969.67,154.03 969.67,139.85 955.5,139.85 		"/>
		<rect x="1026.36" y="54.81" style="&st11;" width="14.17" height="14.17"/>
	</g>
	<g>
		<polygon style="&st12;" points="1083.05,68.99 1068.88,68.99 1068.88,83.16 1068.88,97.33 1083.05,97.33 1083.05,83.16 		"/>
		<polygon style="&st12;" points="1083.05,97.33 1083.05,111.51 1083.05,125.68 1097.23,125.68 1097.23,111.51 1097.23,97.33 		"/>
		<rect x="1040.53" y="168.2" style="&st12;" width="14.17" height="14.17"/>
		<rect x="1054.71" y="182.37" style="&st12;" width="14.17" height="14.17"/>
		<polygon style="&st12;" points="1068.88,139.85 1068.88,154.03 1068.88,168.2 1083.05,168.2 1083.05,154.03 1083.05,139.85 
			1083.05,125.68 1068.88,125.68 		"/>
		<polygon style="&st12;" points="983.84,139.85 969.67,139.85 969.67,154.03 969.67,168.2 983.84,168.2 998.02,168.2 
			998.02,154.03 983.84,154.03 		"/>
		<rect x="1040.53" y="54.81" style="&st12;" width="14.17" height="14.17"/>
	</g>
</g>
</svg>
