<?xml version="1.0" encoding="UTF-8"?>
<svg id="Laag_2" data-name="Laag 2" xmlns="http://www.w3.org/2000/svg" xmlns:xlink="http://www.w3.org/1999/xlink" viewBox="0 0 212.61 322.79">
  <defs>
    <style>
      .cls-1 {
        fill: #c0422d;
      }

      .cls-2 {
        fill: #fff;
      }

      .cls-3 {
        mask: url(#mask);
      }

      .cls-4 {
        font-size: 13px;
      }

      .cls-4, .cls-5 {
        font-family: PressStart2P-Regular, 'Press Start 2P';
      }

      .cls-4, .cls-6, .cls-7 {
        fill: #1d1d1b;
      }

      .cls-8 {
        fill: #cac9c9;
      }

      .cls-9 {
        fill: #eb5b3a;
      }

      .cls-6, .cls-7 {
        font-size: 10px;
      }

      .cls-10 {
        fill: #e8e8e8;
      }

      .cls-11, .cls-7 {
        font-family: CascadiaCode-Regular, 'Cascadia Code';
        font-variation-settings: 'wght' 400;
      }
    </style>
    <mask id="mask" x="35.44" y="62.64" width="159.2" height="99.21" maskUnits="userSpaceOnUse">
      <g>
        <rect class="cls-2" x="60.68" y="76.81" width="14.81" height="14.17"/>
        <rect class="cls-2" x="75.49" y="76.81" width="14.81" height="14.17"/>
        <rect class="cls-2" x="90.29" y="76.81" width="14.81" height="14.17"/>
        <rect class="cls-2" x="105.1" y="76.81" width="14.81" height="14.17"/>
        <rect class="cls-2" x="119.91" y="76.81" width="14.81" height="14.17"/>
        <rect class="cls-2" x="134.72" y="76.81" width="14.81" height="14.17"/>
        <rect class="cls-2" x="75.49" y="62.64" width="14.81" height="14.17"/>
        <rect class="cls-2" x="90.29" y="62.64" width="14.81" height="14.17"/>
        <rect class="cls-2" x="105.1" y="62.64" width="14.81" height="14.17"/>
        <rect class="cls-2" x="119.91" y="147.68" width="14.81" height="14.17"/>
        <rect class="cls-2" x="134.72" y="147.68" width="14.81" height="14.17"/>
        <rect class="cls-2" x="149.53" y="147.68" width="14.81" height="14.17"/>
        <rect class="cls-2" x="149.53" y="76.81" width="14.81" height="14.17"/>
        <rect class="cls-2" x="149.84" y="90.66" width="14.17" height="14.81" transform="translate(255 -58.86) rotate(90)"/>
        <rect class="cls-2" x="149.84" y="104.84" width="14.17" height="14.81" transform="translate(269.17 -44.69) rotate(90)"/>
        <rect class="cls-2" x="149.84" y="119.01" width="14.17" height="14.81" transform="translate(283.35 -30.51) rotate(90)"/>
        <rect class="cls-2" x="149.84" y="133.18" width="14.17" height="14.81" transform="translate(297.52 -16.34) rotate(90)"/>
        <rect class="cls-2" x="61" y="133.18" width="14.17" height="14.81" transform="translate(-72.51 208.67) rotate(-90)"/>
        <rect class="cls-2" x="61" y="119.01" width="14.17" height="14.81" transform="translate(-58.33 194.5) rotate(-90)"/>
        <rect class="cls-2" x="61" y="104.84" width="14.17" height="14.81" transform="translate(-44.16 180.32) rotate(-90)"/>
        <rect class="cls-2" x="61" y="90.66" width="14.17" height="14.81" transform="translate(-29.99 166.15) rotate(-90)"/>
        <rect class="cls-2" x="45.87" y="90.98" width="14.81" height="14.17"/>
        <rect class="cls-2" x="46.19" y="104.84" width="14.17" height="14.81" transform="translate(-58.97 165.52) rotate(-90)"/>
        <rect class="cls-2" x="75.8" y="133.18" width="14.17" height="14.81" transform="translate(-57.7 223.48) rotate(-90)"/>
        <rect class="cls-2" x="75.8" y="119.01" width="14.17" height="14.81" transform="translate(-43.52 209.31) rotate(-90)"/>
        <rect class="cls-2" x="75.8" y="104.84" width="14.17" height="14.81" transform="translate(-29.35 195.13) rotate(-90)"/>
        <rect class="cls-2" x="75.8" y="90.66" width="14.17" height="14.81" transform="translate(-15.18 180.96) rotate(-90)"/>
        <rect class="cls-2" x="90.61" y="133.18" width="14.17" height="14.81" transform="translate(-42.89 238.29) rotate(-90)"/>
        <rect class="cls-2" x="90.61" y="119.01" width="14.17" height="14.81" transform="translate(-28.72 224.11) rotate(-90)"/>
        <rect class="cls-2" x="90.61" y="104.84" width="14.17" height="14.81" transform="translate(-14.54 209.94) rotate(-90)"/>
        <rect class="cls-2" x="90.61" y="90.66" width="14.17" height="14.81" transform="translate(-.37 195.77) rotate(-90)"/>
        <rect class="cls-2" x="105.42" y="133.18" width="14.17" height="14.81" transform="translate(-28.08 253.09) rotate(-90)"/>
        <rect class="cls-2" x="105.42" y="119.01" width="14.17" height="14.81" transform="translate(-13.91 238.92) rotate(-90)"/>
        <rect class="cls-2" x="105.42" y="104.84" width="14.17" height="14.81" transform="translate(.26 224.75) rotate(-90)"/>
        <rect class="cls-2" x="105.42" y="90.66" width="14.17" height="14.81" transform="translate(14.44 210.58) rotate(-90)"/>
        <rect class="cls-2" x="120.23" y="133.18" width="14.17" height="14.81" transform="translate(-13.27 267.9) rotate(-90)"/>
        <rect class="cls-2" x="120.23" y="119.01" width="14.17" height="14.81" transform="translate(.9 253.73) rotate(-90)"/>
        <rect class="cls-2" x="120.23" y="104.84" width="14.17" height="14.81" transform="translate(15.07 239.56) rotate(-90)"/>
        <rect class="cls-2" x="120.23" y="90.66" width="14.17" height="14.81" transform="translate(29.25 225.38) rotate(-90)"/>
        <rect class="cls-2" x="135.04" y="133.18" width="14.17" height="14.81" transform="translate(1.53 282.71) rotate(-90)"/>
        <rect class="cls-2" x="135.04" y="119.01" width="14.17" height="14.81" transform="translate(15.71 268.54) rotate(-90)"/>
        <rect class="cls-2" x="135.04" y="104.84" width="14.17" height="14.81" transform="translate(29.88 254.36) rotate(-90)"/>
        <rect class="cls-2" x="135.04" y="90.66" width="14.17" height="14.81" transform="translate(44.05 240.19) rotate(-90)"/>
        <rect class="cls-2" x="164.33" y="76.81" width="14.81" height="14.17"/>
        <rect class="cls-2" x="164.65" y="90.66" width="14.17" height="14.81" transform="translate(269.81 -73.67) rotate(90)"/>
        <rect class="cls-2" x="164.65" y="104.84" width="14.17" height="14.81" transform="translate(283.98 -59.5) rotate(90)"/>
        <rect class="cls-2" x="164.65" y="119.01" width="14.17" height="14.81" transform="translate(298.15 -45.32) rotate(90)"/>
        <rect class="cls-2" x="164.65" y="133.18" width="14.17" height="14.81" transform="translate(312.33 -31.15) rotate(90)"/>
        <rect class="cls-2" x="179.46" y="104.84" width="14.17" height="14.81" transform="translate(298.79 -74.3) rotate(90)"/>
        <rect class="cls-2" x="179.46" y="119.01" width="14.17" height="14.81" transform="translate(312.96 -60.13) rotate(90)"/>
        <rect class="cls-2" x="179.46" y="133.18" width="14.17" height="14.81" transform="translate(327.13 -45.96) rotate(90)"/>
      </g>
    </mask>
  </defs>
  <g id="Laag_1-2" data-name="Laag 1">
    <g>
      <polygon class="cls-1" points="14.17 0 14.17 14.17 14.17 28.35 28.35 28.35 28.35 14.17 28.35 0 14.17 0"/>
      <polygon class="cls-1" points="0 42.52 0 56.69 0 70.87 0 85.04 14.17 85.04 14.17 70.87 14.17 56.69 14.17 42.52 14.17 28.35 0 28.35 0 42.52"/>
      <polygon class="cls-1" points="14.17 113.39 14.17 127.56 28.35 127.56 28.35 113.39 28.35 99.21 28.35 85.04 14.17 85.04 14.17 99.21 14.17 113.39"/>
      <polygon class="cls-1" points="0 141.73 0 155.91 0 170.08 0 184.25 0 198.43 0 212.6 0 226.77 0 240.94 0 255.12 0 269.29 14.17 269.29 14.17 255.12 14.17 240.94 14.17 226.77 14.17 212.6 14.17 198.43 14.17 184.25 14.17 170.08 14.17 155.91 14.17 141.73 14.17 127.56 0 127.56 0 141.73"/>
      <polygon class="cls-9" points="198.43 14.17 184.25 14.17 184.25 0 170.08 0 155.91 0 141.73 0 127.56 0 113.39 0 113.39 14.17 99.21 14.17 85.04 14.17 85.04 0 70.87 0 56.69 0 42.52 0 28.35 0 28.35 14.17 28.35 28.35 14.17 28.35 14.17 42.52 14.17 56.69 14.17 70.87 14.17 85.04 28.35 85.04 28.35 99.21 28.35 113.39 28.35 127.56 14.17 127.56 14.17 141.73 14.17 155.91 14.17 170.08 14.17 184.25 14.17 198.43 14.17 212.6 14.17 226.77 14.17 240.94 14.17 255.12 14.17 269.29 28.35 269.29 42.52 269.29 56.69 269.29 70.87 269.29 85.04 269.29 99.21 269.29 113.39 269.29 127.56 269.29 141.73 269.29 155.91 269.29 170.08 269.29 184.25 269.29 198.43 269.29 212.6 269.29 212.6 255.12 212.6 240.94 212.6 226.77 212.6 212.6 212.6 198.43 212.6 184.25 212.6 170.08 212.6 155.91 212.6 141.73 212.6 127.56 212.6 113.39 212.6 99.21 212.6 85.04 212.6 70.87 212.6 56.69 212.6 42.52 212.6 28.35 212.6 14.17 198.43 14.17"/>
      <text class="cls-4" transform="translate(41.89 45.34)"><tspan x="0" y="0">Lego Robots</tspan></text>
      <g class="cls-3">
        <image width="278" height="181" transform="translate(35.44 62.64) scale(.57 .55)" xlink:href="../../../../../Users/sophi/Downloads/stock3.jpg"/>
      </g>
      <text class="cls-6" transform="translate(31.57 189.14)"><tspan class="cls-5"><tspan x="0" y="0">14-17 jaar</tspan></tspan><tspan class="cls-11"><tspan x="0" y="20">Maak met behulp van je </tspan></tspan><tspan class="cls-11"><tspan x="0" y="34">laptop een eigen </tspan></tspan><tspan class="cls-11"><tspan x="0" y="48">Lego-robot, die je zelf </tspan></tspan><tspan class="cls-11"><tspan x="0" y="62">kunt aansturen en obstakels </tspan></tspan><tspan class="cls-11"><tspan x="0" y="76">kan laten overbruggen.</tspan></tspan></text>
      <polygon class="cls-9" points="42.53 297.64 56.7 297.64 70.87 297.64 85.05 297.64 99.22 297.64 113.39 297.64 127.56 297.64 141.74 297.64 155.91 297.64 170.08 297.64 184.26 297.64 198.43 297.64 212.6 297.64 212.6 283.46 212.6 269.29 198.43 269.29 184.26 269.29 170.08 269.29 155.91 269.29 141.74 269.29 127.56 269.29 113.39 269.29 99.22 269.29 85.05 269.29 70.87 269.29 56.7 269.29 42.53 269.29 28.35 269.29 14.18 269.29 14.18 283.46 14.18 297.64 28.35 297.64 42.53 297.64"/>
      <polygon class="cls-9" points="198.43 297.64 184.26 297.64 170.09 297.64 155.91 297.64 141.74 297.64 127.57 297.64 113.39 297.64 99.22 297.64 85.05 297.64 70.87 297.64 56.7 297.64 42.53 297.64 28.35 297.64 14.18 297.64 14.18 322.19 28.35 322.19 42.53 322.19 56.7 322.19 70.87 322.19 85.05 322.19 99.22 322.19 113.39 322.19 127.57 322.19 141.74 322.19 155.91 322.19 170.09 322.19 184.26 322.19 198.43 322.19 212.61 322.19 212.61 297.64 198.43 297.64"/>
      <polygon class="cls-1" points="0 269.29 0 283.46 0 297.64 0 297.64 0 322.79 14.18 322.79 14.18 297.64 14.18 297.64 14.18 283.46 14.18 269.29 0 269.29"/>
      <rect class="cls-10" x="74.11" y="282.08" width="93.02" height="21.9"/>
      <rect class="cls-8" x="59.65" y="282.08" width="14.46" height="21.9"/>
      <text class="cls-7" transform="translate(97.39 297.18)"><tspan x="0" y="0">Bekijken</tspan></text>
    </g>
  </g>
</svg>