<svg xmlns="http://www.w3.org/2000/svg" xmlns:xlink="http://www.w3.org/1999/xlink" viewBox="0,0,256,256" width="50px" height="50px" fill-rule="nonzero"><g fill="#000000" fill-rule="nonzero" stroke="none" stroke-width="1" stroke-linecap="butt" stroke-linejoin="miter" stroke-miterlimit="10" stroke-dasharray="" stroke-dashoffset="0" font-family="none" font-weight="none" font-size="none" text-anchor="none" style="mix-blend-mode: normal"><g transform="scale(8,8)"><rect x="3" y="2" width="8" height="2"></rect><rect x="21" y="28" width="8" height="2"></rect><rect x="5" y="4" width="2" height="3"></rect><rect x="7" y="7" width="2" height="3"></rect><rect x="11" y="4" width="2" height="3"></rect><rect x="9" y="10" width="2" height="3"></rect><rect x="13" y="7" width="2" height="3"></rect><rect x="11" y="13" width="2" height="3"></rect><rect x="15" y="10" width="2" height="3"></rect><rect x="13" y="16" width="2" height="3"></rect><rect x="17" y="13" width="2" height="3"></rect><rect x="19" y="10" width="2" height="3"></rect><rect x="11" y="19" width="2" height="3"></rect><rect x="9" y="22" width="2" height="3"></rect><rect x="7" y="25" width="2" height="3"></rect><rect x="5" y="28" width="2" height="2"></rect><rect x="21" y="7" width="2" height="3"></rect><rect x="23" y="4" width="2" height="3"></rect><rect x="25" y="2" width="2" height="2"></rect><rect x="15" y="19" width="2" height="3"></rect><rect x="19" y="16" width="2" height="3"></rect><rect x="17" y="22" width="2" height="3"></rect><rect x="21" y="19" width="2" height="3"></rect><rect x="19" y="25" width="2" height="3"></rect><rect x="23" y="22" width="2" height="3"></rect><rect x="25" y="25" width="2" height="3"></rect></g></g></svg>