<?xml version="1.0" encoding="utf-8"?>
<!-- Generator: Adobe Illustrator 29.5.1, SVG Export Plug-In . SVG Version: 9.03 Build 0)  -->
<!DOCTYPE svg PUBLIC "-//W3C//DTD SVG 1.1//EN" "http://www.w3.org/Graphics/SVG/1.1/DTD/svg11.dtd" [
	<!ENTITY st0 "fill:#BCBCBB;">
	<!ENTITY st1 "fill:#2B2B2B;">
	<!ENTITY st2 "fill:#5A5A58;">
]>
<svg version="1.1" id="Laag_1" xmlns="http://www.w3.org/2000/svg" xmlns:xlink="http://www.w3.org/1999/xlink" x="0px" y="0px"
	 viewBox="0 0 500 500" style="enable-background:new 0 0 500 500;" xml:space="preserve">
<g>
	<rect x="150" y="99.44" style="&st0;" width="250" height="250"/>
	<rect x="306.25" y="174.44" style="&st1;" width="18.75" height="37.5"/>
	<rect x="225" y="174.44" style="&st1;" width="18.75" height="37.5"/>
	<rect x="310.94" y="190.07" style="&st0;" width="9.37" height="18.75"/>
	<rect x="229.69" y="190.07" style="&st0;" width="9.37" height="18.75"/>
</g>
<path style="&st2;" d="M450,149.44v-50v-50h-50h-50V0h-50h-50h-50v49.44h-50h-50v50H50v50v50h50v50v50v50v50h50h50v50h-50v50h50h50
	v-50v-50h50v50v50h50h50v-50h-50v-50h50h50v-50v-50v-50h50v-50v-50H450z M400,299.44v50h-50h-50h-50h-50h-50v-50v-50v-50v-50v-50h50
	h50h50h50h50v50v50v50V299.44z"/>
<g>
	<rect x="50" y="49.44" style="&st1;" width="50" height="50"/>
	<polygon style="&st1;" points="250,399.44 250,449.44 250,499.44 300,499.44 300,449.44 300,399.44 	"/>
	<rect x="150" y="399.44" style="&st1;" width="50" height="50"/>
	<rect x="100" y="449.44" style="&st1;" width="50" height="50"/>
	<polygon style="&st1;" points="50,99.44 0,99.44 0,149.44 0,199.44 50,199.44 50,149.44 	"/>
	<polygon style="&st1;" points="50,299.44 50,349.44 50,399.44 100,399.44 100,349.44 100,299.44 100,249.44 100,199.44 50,199.44 
		50,249.44 	"/>
	<rect x="150" style="&st1;" width="50" height="50"/>
</g>
</svg>
