<?xml version="1.0" encoding="UTF-8"?>
<svg xmlns="http://www.w3.org/2000/svg" version="1.1" viewBox="0 0 1440 276.8">
  <defs>
    <style>
      .cls-1 {
        fill: #ffdc4b;
      }

      .cls-2 {
        fill: #34383d;
      }

      .cls-3 {
        fill: #f0857d;
      }

      .cls-4 {
        fill: #c1422c;
      }

      .cls-5 {
        fill: #1f4e9e;
      }

      .cls-6 {
        fill: #2b2b2b;
      }

      .cls-7 {
        fill: #387bbf;
      }

      .cls-8 {
        fill: #f7a62e;
      }

      .cls-9 {
        fill: #eb5b3a;
      }

      .cls-10 {
        fill: #f5a52d;
      }

      .cls-11 {
        fill: #f9c014;
      }

      .cls-12 {
        fill: #fff;
        font-family: PressStart2P-Regular, 'Press Start 2P';
        font-size: 13px;
        isolation: isolate;
      }

      .cls-13 {
        fill: #232323;
      }

      .cls-14 {
        fill: #63a6cc;
      }

      .cls-15 {
        fill: #fcc10a;
      }
    </style>
  </defs>
  <!-- Generator: Adobe Illustrator 28.7.7, SVG Export Plug-In . SVG Version: 1.2.0 Build 194)  -->
  <g>
    <g id="Layer_1">
      <rect class="cls-10" x="54.9" y=".8" width="13.7" height="14.2"/>
      <rect class="cls-10" x="137.1" y=".8" width="13.7" height="14.2"/>
      <rect class="cls-10" x="205.7" y=".8" width="13.7" height="14.2"/>
      <rect class="cls-10" x="13.7" y="14.9" width="13.7" height="14.2"/>
      <rect class="cls-10" x="68.6" y="14.9" width="13.7" height="14.2"/>
      <rect class="cls-10" x="260.6" y="14.9" width="13.7" height="14.2"/>
      <rect class="cls-10" x="288" y=".8" width="13.7" height="14.2"/>
      <rect class="cls-10" x="315.4" y="14.9" width="13.7" height="14.2"/>
      <rect class="cls-10" x="411.4" y=".8" width="13.7" height="14.2"/>
      <rect class="cls-10" x="493.7" y=".8" width="13.7" height="14.2"/>
      <rect class="cls-10" x="562.3" y=".8" width="13.7" height="14.2"/>
      <rect class="cls-10" x="370.3" y="14.9" width="13.7" height="14.2"/>
      <rect class="cls-10" x="425.1" y="14.9" width="13.7" height="14.2"/>
      <rect class="cls-10" x="617.1" y="14.9" width="13.7" height="14.2"/>
      <rect class="cls-10" x="644.6" y=".8" width="13.7" height="14.2"/>
      <rect class="cls-10" x="672" y="14.9" width="13.7" height="14.2"/>
      <rect class="cls-10" x="768" y=".8" width="13.7" height="14.2"/>
      <rect class="cls-10" x="850.3" y=".8" width="13.7" height="14.2"/>
      <rect class="cls-10" x="918.9" y=".8" width="13.7" height="14.2"/>
      <rect class="cls-10" x="726.9" y="14.9" width="13.7" height="14.2"/>
      <rect class="cls-10" x="781.7" y="14.9" width="13.7" height="14.2"/>
      <rect class="cls-10" x="973.7" y="14.9" width="13.7" height="14.2"/>
      <rect class="cls-10" x="1001.1" y=".8" width="13.7" height="14.2"/>
      <rect class="cls-10" x="1028.6" y="14.9" width="13.7" height="14.2"/>
      <rect class="cls-10" x="1206.9" y=".8" width="13.7" height="14.2"/>
      <rect class="cls-10" x="1275.4" y=".8" width="13.7" height="14.2"/>
      <rect class="cls-10" x="1083.4" y="14.9" width="13.7" height="14.2"/>
      <rect class="cls-10" x="1124.6" y=".8" width="13.7" height="14.2"/>
      <rect class="cls-10" x="1138.3" y="14.9" width="13.7" height="14.2"/>
      <rect class="cls-10" x="1330.3" y="14.9" width="13.7" height="14.2"/>
      <rect class="cls-10" x="1357.7" y=".8" width="13.7" height="14.2"/>
      <rect class="cls-10" x="1385.1" y="14.9" width="13.7" height="14.2"/>
      <polygon class="cls-11" points="1412.6 14.9 1412.6 29.1 1398.9 29.1 1398.8 29.1 1385.1 29.1 1385.1 14.9 1385.1 14.9 1371.4 14.9 1371.4 14.9 1357.7 14.9 1357.7 .8 1344 .8 1344 14.9 1344 14.9 1344 29.1 1330.3 29.1 1330.3 14.9 1330.3 14.9 1316.6 14.9 1302.9 14.9 1302.9 29.1 1289.1 29.1 1289.1 14.9 1275.4 14.9 1275.4 .8 1261.7 .8 1248 .8 1248 14.9 1234.3 14.9 1220.6 14.9 1206.9 14.9 1206.9 .8 1193.1 .8 1193.1 14.9 1179.4 14.9 1179.4 29.1 1165.7 29.1 1152 29.1 1138.3 29.1 1138.3 14.9 1138.3 14.9 1138.3 14.9 1124.6 14.9 1124.6 .8 1110.9 .8 1110.9 14.9 1110.9 29.1 1097.1 29.1 1083.4 29.1 1083.4 14.9 1083.4 14.9 1069.7 14.9 1056 14.9 1056 29.1 1042.3 29.1 1042.3 29.1 1028.6 29.1 1028.6 14.9 1028.6 14.9 1014.9 14.9 1014.8 14.9 1001.1 14.9 1001.1 .8 987.4 .8 987.4 14.9 987.4 29.1 987.4 29.1 973.7 29.1 973.7 14.9 973.7 14.9 960 14.9 946.3 14.9 946.3 29.1 932.6 29.1 932.6 14.9 918.9 14.9 918.9 .8 905.1 .8 891.4 .8 891.4 14.9 877.7 14.9 864 14.9 850.3 14.9 850.3 .8 836.6 .8 836.6 14.9 822.9 14.9 822.9 29.1 809.1 29.1 795.4 29.1 795.4 29.1 781.7 29.1 781.7 14.9 781.7 14.9 768 14.9 768 .8 754.3 .8 754.3 14.9 754.3 29.1 740.6 29.1 726.9 29.1 726.9 14.9 726.9 14.9 713.1 14.9 699.4 14.9 699.4 29.1 685.7 29.1 672 29.1 672 14.9 672 14.9 658.3 14.9 658.3 14.9 644.6 14.9 644.6 .8 630.9 .8 630.9 14.9 630.9 29.1 630.8 29.1 617.1 29.1 617.1 14.9 617.1 14.9 603.4 14.9 589.7 14.9 589.7 29.1 576 29.1 576 14.9 562.3 14.9 562.3 .8 548.6 .8 534.9 .8 534.9 14.9 521.1 14.9 507.4 14.9 507.4 14.9 493.7 14.9 493.7 .8 480 .8 480 14.9 466.3 14.9 466.3 29.1 452.6 29.1 438.9 29.1 438.8 29.1 425.1 29.1 425.1 14.9 425.1 14.9 411.4 14.9 411.4 .8 397.7 .8 397.7 14.9 397.7 29.1 384 29.1 370.3 29.1 370.3 14.9 370.3 14.9 356.6 14.9 342.9 14.9 342.9 29.1 329.1 29.1 315.4 29.1 315.4 14.9 315.4 14.9 301.7 14.9 288 14.9 288 .8 274.3 .8 274.3 14.9 274.3 29.1 274.3 29.1 260.6 29.1 260.6 14.9 260.6 14.9 246.9 14.9 233.1 14.9 233.1 29.1 219.4 29.1 219.4 14.9 219.4 14.9 205.7 14.9 205.7 .8 192 .8 178.3 .8 178.3 14.9 164.6 14.9 150.9 14.9 150.8 14.9 137.1 14.9 137.1 .8 123.4 .8 123.4 14.9 109.7 14.9 109.7 29.1 96 29.1 82.3 29.1 82.3 29.1 68.6 29.1 68.6 14.9 68.6 14.9 54.9 14.9 54.9 .8 41.1 .8 41.1 14.9 41.1 29.1 27.4 29.1 27.4 29.1 13.7 29.1 13.7 14.9 13.7 14.9 0 14.9 0 29.1 0 43.3 0 57.4 0 71.6 0 85.8 0 602.7 1426.3 602.7 1426.3 85.8 1426.3 71.6 1426.3 57.4 1426.3 43.3 1426.3 29.1 1426.3 14.9 1412.6 14.9"/>
      <polygon class="cls-10" points="1426.3 14.9 1426.3 29.1 1426.3 43.3 1426.3 57.4 1426.3 71.6 1426.3 85.8 1426.3 602.7 1440 602.7 1440 85.8 1440 71.6 1440 57.4 1440 43.3 1440 29.1 1440 14.9 1426.3 14.9"/>
      <polygon class="cls-2" points="376.7 91.3 376.7 77.9 219.6 77.9 219.6 91.6 204.7 91.6 204.7 128.8 219.6 128.8 219.6 143 390.2 143 390.2 91.3 376.7 91.3"/>
      <text class="cls-12" transform="translate(266.2 118.2)"><tspan x="0" y="0">MiniBytes</tspan></text>
      <g>
        <rect class="cls-14" x="238.7" y="96.6" width="8" height="8"/>
        <rect class="cls-6" x="243.8" y="99" width=".6" height="1.2"/>
        <rect class="cls-6" x="241.1" y="99" width=".6" height="1.2"/>
        <rect class="cls-14" x="243.9" y="99.5" width=".3" height=".6"/>
        <rect class="cls-14" x="241.3" y="99.5" width=".3" height=".6"/>
        <path class="cls-7" d="M248.4,98.2v-3.2h-3.2v-1.6h-4.8v1.6h-3.2v1.6h-1.6v3.2h1.6v6.4h3.2v1.6h-1.6v1.6h3.2v-3.2h1.6v3.2h3.2v-1.6h-1.6v-1.6h3.2v-4.8h1.6v-3.2h-1.6ZM246.8,103v1.6h-8v-8h8v6.4h0Z"/>
        <g>
          <rect class="cls-5" x="235.5" y="94.9" width="1.6" height="1.6"/>
          <polygon class="cls-5" points="241.9 106.2 241.9 107.8 241.9 109.4 243.6 109.4 243.6 107.8 243.6 106.2 241.9 106.2"/>
          <rect class="cls-5" x="238.7" y="106.2" width="1.6" height="1.6"/>
          <rect class="cls-5" x="237.1" y="107.8" width="1.6" height="1.6"/>
          <polygon class="cls-5" points="235.5 96.6 233.9 96.6 233.9 98.2 233.9 99.8 235.5 99.8 235.5 98.2 235.5 96.6"/>
          <polygon class="cls-5" points="235.5 103 235.5 104.6 235.5 106.2 237.1 106.2 237.1 104.6 237.1 103 237.1 101.4 237.1 99.8 235.5 99.8 235.5 101.4 235.5 103"/>
          <rect class="cls-5" x="238.7" y="93.3" width="1.6" height="1.6"/>
        </g>
      </g>
      <g>
        <rect class="cls-3" x="227.6" y="112.6" width="8.1" height="8.1"/>
        <rect class="cls-6" x="230" y="115.1" width=".6" height="1.2"/>
        <rect class="cls-6" x="232.7" y="115.1" width=".6" height="1.2"/>
        <rect class="cls-3" x="230.2" y="115.6" width=".3" height=".6"/>
        <rect class="cls-3" x="232.8" y="115.6" width=".3" height=".6"/>
        <g>
          <polygon class="cls-9" points="226 114.2 226 112.6 226 111 227.6 111 229.2 111 229.2 109.4 230.8 109.4 232.5 109.4 234.1 109.4 234.1 111 235.7 111 237.4 111 237.4 112.6 239 112.6 239 114.2 239 115.9 237.4 115.9 237.4 117.5 237.4 119.1 235.7 119.1 235.7 117.5 235.7 115.9 235.7 114.2 235.7 112.6 234.1 112.6 232.5 112.6 230.8 112.6 229.2 112.6 227.6 112.6 227.6 114.2 227.6 115.9 227.6 117.5 227.6 119.1 227.6 120.8 229.2 120.8 229.2 122.4 227.6 122.4 226 122.4 226 120.8 226 119.1 226 117.5 224.3 117.5 224.3 115.9 224.3 114.2 226 114.2"/>
          <polygon class="cls-9" points="239 120.8 239 122.4 237.4 122.4 237.4 120.8 237.4 119.1 239 119.1 239 120.8"/>
          <polygon class="cls-9" points="234.1 120.8 234.1 122.4 232.5 122.4 232.5 120.8 232.5 119.1 234.1 119.1 234.1 120.8"/>
        </g>
        <g>
          <polygon class="cls-4" points="224.3 111 226 111 226 112.6 226 114.2 224.3 114.2 224.3 112.6 224.3 111"/>
          <polygon class="cls-4" points="224.3 114.2 224.3 115.9 224.3 117.5 222.7 117.5 222.7 115.9 222.7 114.2 224.3 114.2"/>
          <polygon class="cls-4" points="226 119.1 226 120.8 226 122.4 224.3 122.4 224.3 120.8 224.3 119.1 224.3 117.5 226 117.5 226 119.1"/>
          <polygon class="cls-4" points="235.7 119.1 237.4 119.1 237.4 120.8 237.4 122.4 235.7 122.4 234.1 122.4 234.1 120.8 235.7 120.8 235.7 119.1"/>
          <polygon class="cls-4" points="230.8 119.1 232.5 119.1 232.5 120.8 232.5 122.4 230.8 122.4 229.2 122.4 229.2 120.8 230.8 120.8 230.8 119.1"/>
          <rect class="cls-4" x="227.6" y="109.4" width="1.6" height="1.6"/>
        </g>
      </g>
      <g>
        <rect class="cls-1" x="250" y="109.3" width="8" height="8"/>
        <rect class="cls-6" x="252.4" y="111.7" width=".6" height="1.2"/>
        <rect class="cls-6" x="255" y="111.7" width=".6" height="1.2"/>
        <rect class="cls-1" x="252.5" y="112.3" width=".3" height=".6"/>
        <rect class="cls-1" x="255.1" y="112.3" width=".3" height=".6"/>
        <g>
          <polygon class="cls-15" points="248.3 110.9 248.3 109.3 248.3 107.7 250 107.7 251.6 107.7 251.6 106.1 253.2 106.1 253.2 106.1 254.8 106.1 254.8 107.7 254.8 107.7 254.8 106.1 256.4 106.1 256.4 107.7 258 107.7 259.6 107.7 259.6 109.3 261.2 109.3 261.2 110.9 261.2 112.6 259.6 112.6 259.6 114.2 259.6 115.8 259.6 117.4 259.6 119 258 119 256.4 119 256.4 120.6 258 120.6 258 122.2 256.4 122.2 254.8 122.2 254.8 120.6 254.8 119 253.2 119 251.6 119 251.6 117.4 253.2 117.4 254.8 117.4 256.4 117.4 258 117.4 258 115.8 258 114.2 258 112.6 258 110.9 258 109.3 256.4 109.3 254.8 109.3 253.2 109.3 251.6 109.3 250 109.3 250 110.9 250 112.6 250 114.2 250 115.8 248.3 115.8 248.3 114.2 246.7 114.2 246.7 112.6 246.7 110.9 248.3 110.9"/>
          <polygon class="cls-15" points="248.3 117.4 248.3 119 246.7 119 246.7 117.4 246.7 115.8 248.3 115.8 248.3 117.4"/>
        </g>
        <g>
          <rect class="cls-8" x="259.6" y="107.7" width="1.6" height="1.6"/>
          <rect class="cls-8" x="256.4" y="119" width="1.6" height="1.6"/>
          <rect class="cls-8" x="258" y="120.6" width="1.6" height="1.6"/>
          <polygon class="cls-8" points="261.2 109.3 262.8 109.3 262.8 110.9 262.8 112.6 261.2 112.6 261.2 110.9 261.2 109.3"/>
          <polygon class="cls-8" points="261.2 115.8 261.2 117.4 261.2 119 259.6 119 259.6 117.4 259.6 115.8 259.6 114.2 259.6 112.6 261.2 112.6 261.2 114.2 261.2 115.8"/>
          <polygon class="cls-8" points="250 115.8 250 117.4 251.6 117.4 251.6 119 250 119 248.3 119 248.3 117.4 248.3 115.8 250 115.8"/>
          <rect class="cls-8" x="256.4" y="106.1" width="1.6" height="1.6"/>
        </g>
      </g>
      <g>
        <rect class="cls-13" x="389.8" y="91.7" width="15.1" height="37.1"/>
        <rect class="cls-13" x="375" y="128.8" width="15.1" height="13.8"/>
        <rect class="cls-13" x="374.9" y="77.9" width="15.3" height="13.8"/>
      </g>
    </g>
  </g>
</svg>