<?xml version="1.0" encoding="UTF-8"?>
<svg xmlns="http://www.w3.org/2000/svg" version="1.1" viewBox="0 0 1440 85">
  <defs>
    <style>
      .cls-1 {
        fill: #f6a52e;
      }

      .cls-2 {
        fill: #fcc008;
      }
    </style>
  </defs>
  <!-- Generator: Adobe Illustrator 28.7.7, SVG Export Plug-In . SVG Version: 1.2.0 Build 194)  -->
  <g>
    <g id="Laag_1">
      <g>
        <rect class="cls-1" x="54.9" y="70.9" width="13.7" height="14.2"/>
        <rect class="cls-1" x="137.1" y="70.9" width="13.7" height="14.2"/>
        <rect class="cls-1" x="205.7" y="70.9" width="13.7" height="14.2"/>
        <rect class="cls-1" x="13.7" y="56.7" width="13.7" height="14.2"/>
        <rect class="cls-1" x="68.6" y="56.7" width="13.7" height="14.2"/>
        <rect class="cls-1" x="260.6" y="56.7" width="13.7" height="14.2"/>
        <rect class="cls-1" x="288" y="70.9" width="13.7" height="14.2"/>
        <rect class="cls-1" x="315.4" y="56.7" width="13.7" height="14.2"/>
        <rect class="cls-1" x="411.4" y="70.9" width="13.7" height="14.2"/>
        <rect class="cls-1" x="493.7" y="70.9" width="13.7" height="14.2"/>
        <rect class="cls-1" x="562.3" y="70.9" width="13.7" height="14.2"/>
        <rect class="cls-1" x="370.3" y="56.7" width="13.7" height="14.2"/>
        <rect class="cls-1" x="425.1" y="56.7" width="13.7" height="14.2"/>
        <rect class="cls-1" x="617.1" y="56.7" width="13.7" height="14.2"/>
        <rect class="cls-1" x="644.6" y="70.9" width="13.7" height="14.2"/>
        <rect class="cls-1" x="672" y="56.7" width="13.7" height="14.2"/>
        <rect class="cls-1" x="768" y="70.9" width="13.7" height="14.2"/>
        <rect class="cls-1" x="850.3" y="70.9" width="13.7" height="14.2"/>
        <rect class="cls-1" x="918.9" y="70.9" width="13.7" height="14.2"/>
        <rect class="cls-1" x="726.9" y="56.7" width="13.7" height="14.2"/>
        <rect class="cls-1" x="781.7" y="56.7" width="13.7" height="14.2"/>
        <rect class="cls-1" x="973.7" y="56.7" width="13.7" height="14.2"/>
        <rect class="cls-1" x="1001.1" y="70.9" width="13.7" height="14.2"/>
        <rect class="cls-1" x="1028.6" y="56.7" width="13.7" height="14.2"/>
        <polygon class="cls-1" points="1426.3 0 1426.3 14.2 1426.3 28.3 1426.3 42.5 1426.3 56.7 1426.3 70.9 1440 70.9 1440 56.7 1440 42.5 1440 28.3 1440 14.2 1440 0 1426.3 0"/>
        <rect class="cls-1" x="1206.9" y="70.9" width="13.7" height="14.2"/>
        <rect class="cls-1" x="1275.4" y="70.9" width="13.7" height="14.2"/>
        <rect class="cls-1" x="1083.4" y="56.7" width="13.7" height="14.2"/>
        <rect class="cls-1" x="1124.6" y="70.9" width="13.7" height="14.2"/>
        <rect class="cls-1" x="1138.3" y="56.7" width="13.7" height="14.2"/>
        <rect class="cls-1" x="1330.3" y="56.7" width="13.7" height="14.2"/>
        <rect class="cls-1" x="1357.7" y="70.9" width="13.7" height="14.2"/>
        <rect class="cls-1" x="1385.1" y="56.7" width="13.7" height="14.2"/>
        <polygon class="cls-2" points="1426.3 42.5 1426.3 28.3 1426.3 14.2 1426.3 0 1412.6 0 1398.9 0 1385.1 0 1371.4 0 1357.7 0 1344 0 1330.3 0 1316.6 0 1302.9 0 1289.1 0 1275.4 0 1261.7 0 1248 0 1234.3 0 1220.6 0 1206.9 0 1193.1 0 1179.4 0 1165.7 0 1152 0 1138.3 0 1124.6 0 1110.9 0 1097.1 0 1083.4 0 1069.7 0 1056 0 1042.3 0 1028.6 0 1014.9 0 1001.1 0 987.4 0 973.7 0 960 0 946.3 0 932.6 0 918.9 0 905.1 0 891.4 0 877.7 0 864 0 850.3 0 836.6 0 822.9 0 809.1 0 795.4 0 781.7 0 768 0 754.3 0 740.6 0 726.9 0 713.1 0 699.4 0 685.7 0 672 0 658.3 0 644.6 0 630.9 0 617.1 0 603.4 0 589.7 0 576 0 562.3 0 548.6 0 534.9 0 521.1 0 507.4 0 493.7 0 480 0 466.3 0 452.6 0 438.9 0 425.1 0 411.4 0 397.7 0 384 0 370.3 0 356.6 0 342.9 0 329.1 0 315.4 0 301.7 0 288 0 274.3 0 260.6 0 246.9 0 233.1 0 219.4 0 205.7 0 192 0 178.3 0 164.6 0 150.9 0 137.1 0 123.4 0 109.7 0 96 0 82.3 0 68.6 0 54.9 0 41.1 0 27.4 0 13.7 0 0 0 0 14.2 0 28.3 0 42.5 0 56.7 0 70.9 13.7 70.9 13.7 70.9 13.7 56.7 27.4 56.7 27.4 56.7 41.1 56.7 41.1 70.9 41.1 85 54.9 85 54.9 70.9 68.6 70.9 68.6 70.9 68.6 56.7 82.3 56.7 82.3 56.7 96 56.7 109.7 56.7 109.7 70.9 123.4 70.9 123.4 85 137.1 85 137.1 70.9 150.9 70.9 150.9 70.9 164.6 70.9 178.3 70.9 178.3 85 192 85 205.7 85 205.7 70.9 219.4 70.9 219.4 70.9 219.4 56.7 233.1 56.7 233.1 70.9 246.9 70.9 260.6 70.9 260.6 70.9 260.6 56.7 274.3 56.7 274.3 56.7 274.3 70.9 274.3 85 288 85 288 70.9 301.7 70.9 315.4 70.9 315.4 70.9 315.4 56.7 329.1 56.7 342.9 56.7 342.9 70.9 356.6 70.9 370.3 70.9 370.3 70.9 370.3 56.7 384 56.7 397.7 56.7 397.7 70.9 397.7 85 411.4 85 411.4 70.9 425.1 70.9 425.1 70.9 425.1 56.7 438.9 56.7 438.9 56.7 452.6 56.7 466.3 56.7 466.3 70.9 480 70.9 480 85 493.7 85 493.7 70.9 507.4 70.9 507.4 70.9 521.1 70.9 534.9 70.9 534.9 85 548.6 85 562.3 85 562.3 70.9 576 70.9 576 56.7 589.7 56.7 589.7 70.9 603.4 70.9 617.1 70.9 617.1 70.9 617.1 56.7 630.9 56.7 630.9 56.7 630.9 70.9 630.9 85 644.6 85 644.6 70.9 658.3 70.9 658.3 70.9 672 70.9 672 70.9 672 56.7 685.7 56.7 699.4 56.7 699.4 70.9 713.1 70.9 726.9 70.9 726.9 70.9 726.9 56.7 740.6 56.7 754.3 56.7 754.3 70.9 754.3 85 768 85 768 70.9 781.7 70.9 781.7 70.9 781.7 56.7 795.4 56.7 795.4 56.7 809.1 56.7 822.9 56.7 822.9 70.9 836.6 70.9 836.6 85 850.3 85 850.3 70.9 864 70.9 877.7 70.9 891.4 70.9 891.4 85 905.1 85 918.9 85 918.9 70.9 932.6 70.9 932.6 56.7 946.3 56.7 946.3 70.9 960 70.9 973.7 70.9 973.7 70.9 973.7 56.7 987.4 56.7 987.4 56.7 987.4 70.9 987.4 85 1001.1 85 1001.1 70.9 1014.9 70.9 1014.9 70.9 1028.6 70.9 1028.6 70.9 1028.6 56.7 1042.3 56.7 1042.3 56.7 1056 56.7 1056 70.9 1069.7 70.9 1083.4 70.9 1083.4 70.9 1083.4 56.7 1097.1 56.7 1110.9 56.7 1110.9 70.9 1110.9 85 1124.6 85 1124.6 70.9 1138.3 70.9 1138.3 70.9 1138.3 70.9 1138.3 56.7 1152 56.7 1165.7 56.7 1179.4 56.7 1179.4 70.9 1193.1 70.9 1193.1 85 1206.9 85 1206.9 70.9 1220.6 70.9 1234.3 70.9 1248 70.9 1248 85 1261.7 85 1275.4 85 1275.4 70.9 1289.1 70.9 1289.1 56.7 1302.9 56.7 1302.9 70.9 1316.6 70.9 1330.3 70.9 1330.3 70.9 1330.3 56.7 1344 56.7 1344 70.9 1344 70.9 1344 85 1357.7 85 1357.7 70.9 1371.4 70.9 1371.4 70.9 1385.1 70.9 1385.1 70.9 1385.1 56.7 1398.8 56.7 1398.9 56.7 1412.6 56.7 1412.6 70.9 1426.3 70.9 1426.3 56.7 1426.3 42.5"/>
      </g>
    </g>
  </g>
</svg>