<?xml version="1.0" encoding="utf-8"?>
<!-- Generator: Adobe Illustrator 29.5.1, SVG Export Plug-In . SVG Version: 9.03 Build 0)  -->
<!DOCTYPE svg PUBLIC "-//W3C//DTD SVG 1.1//EN" "http://www.w3.org/Graphics/SVG/1.1/DTD/svg11.dtd" [
	<!ENTITY st0 "fill:none;">
	<!ENTITY st1 "fill:#FFFFFF;">
	<!ENTITY st2 "fill:#E8E8E8;">
	<!ENTITY st3 "fill:#CAC9C9;">
]>
<svg version="1.1" id="Laag_1" xmlns="http://www.w3.org/2000/svg" xmlns:xlink="http://www.w3.org/1999/xlink" x="0px" y="0px"
	 viewBox="0 0 516 84" style="enable-background:new 0 0 516 84;" xml:space="preserve">
<polygon style="&st0;" points="300,61.47 300,61.47 300,60.98 300,60.98 300,60.97 300,60.97 300,60.97 "/>
<polygon style="&st1;" points="228,72 228,72 228,72.01 240,72.01 240,60.01 228,60.01 "/>
<polygon style="&st1;" points="216,72 216,72 216,72.01 228,72.01 228,48.01 216,48.01 "/>
<polygon style="&st2;" points="264,60.01 264,60.01 264,60.01 252,60.01 252,72.01 264,72.01 "/>
<polygon style="&st2;" points="312,72 312,72 312,72 300,72 300,84 312,84 "/>
<polygon style="&st2;" points="383.99,72 383.99,72 383.99,72 371.99,72 371.99,84 383.99,84 "/>
<polygon style="&st2;" points="468,72 468,72 468,72 456,72 456,84 468,84 "/>
<polygon style="&st2;" points="516,0.02 516,0.02 516,0 492,0 492,72 516,72 "/>
<polygon style="&st2;" points="468,60.01 468,60.01 468,60.01 432,60.01 432,72.01 468,72.01 "/>
<polygon style="&st2;" points="395.99,48.02 396,48.02 396,48.01 300,48.01 300,72.01 395.99,72.01 "/>
<polygon style="&st1;" points="323.99,72 323.99,72 323.99,72 311.99,72 311.99,84 323.99,84 "/>
<polygon style="&st1;" points="408,60.01 408,60.01 408,60.01 396,60.01 396,72.01 408,72.01 "/>
<polygon style="&st1;" points="395.99,72 395.99,72 395.99,72 383.99,72 383.99,84 395.99,84 "/>
<polygon style="&st1;" points="480,60.02 480,60.02 480,60.01 468,60.01 468,84.01 480,84.01 "/>
<polygon style="&st1;" points="276,48.02 276,48.02 276,48.01 264,48.01 264,72.01 276,72.01 "/>
<polygon style="&st2;" points="264,48.01 264,48.01 264,48.01 252,48.01 252,60.01 264,60.01 "/>
<polygon style="&st2;" points="252,48.01 252,48.01 252,48.01 240,48.01 240,60.01 252,60.01 "/>
<polygon style="&st3;" points="228,60 228,60 228,60.01 240,60.01 240,48.01 228,48.01 "/>
<polygon style="&st3;" points="240,72 240,72 240,72.01 252,72.01 252,60.01 240,60.01 "/>
<polygon style="&st3;" points="359.99,83.99 359.99,83.99 359.99,84 371.99,84 371.99,72 359.99,72 "/>
<polygon style="&st3;" points="420,72 420,72 420,72.01 432,72.01 432,60.01 420,60.01 "/>
<polygon style="&st3;" points="444,83.99 444,83.99 444,84 456,84 456,72 444,72 "/>
<polygon style="&st3;" points="288,84 288,84 288,84.01 300,84.01 300,48.01 288,48.01 "/>
<polygon style="&st3;" points="180,72.01 180,72.01 180,72.01 192,72.01 192,60.01 180,60.01 "/>
<polygon style="&st3;" points="4.03,0.01 0.03,0.01 0.03,0.01 0,0.01 0,72.01 12,72.01 12,0.01 "/>
<polygon style="&st2;" points="72.52,61.13 72.52,60.01 60.52,60.01 60.52,61.1 60.52,72.01 60.52,72.01 60.52,72.01 60.52,84.01 
	72.52,84.01 72.52,72.01 "/>
<polygon style="&st2;" points="193.11,60.01 192,60.01 192,72.01 193.09,72.01 203.99,72.01 204,72.01 204,72.01 216,72.01 
	216,60.01 204,60.01 "/>
<rect x="144" y="72.01" style="&st2;" width="12" height="12"/>
<rect x="132" y="72.01" style="&st3;" width="12" height="12"/>
<rect x="84" y="60.01" style="&st3;" width="12" height="12"/>
<polygon style="&st1;" points="156,60.01 156,60.01 156,84.01 156,84.01 168,84.01 168,60.01 "/>
<polygon style="&st1;" points="72.52,84.01 72.52,84 84,84 84,60.01 72.52,60.01 72.52,60.01 72.52,62.24 "/>
<polygon style="&st2;" points="300,61.47 300,72.44 300,72.45 300,72.45 300,72.45 300,72.44 "/>
<polygon style="&st2;" points="300,60.97 300,60.97 300,60.97 "/>
<polygon style="&st2;" points="379.35,56.86 379.35,56.86 379.35,56.86 "/>
<polygon style="&st2;" points="12,57.35 12,57.35 12,45.89 "/>
<rect x="96" y="60.01" style="&st2;" width="60" height="12"/>
<polygon style="&st2;" points="24,72.01 24,72.01 24,0.01 12,0.01 12,72.01 "/>
<polygon style="&st3;" points="48.52,60.01 48.52,84.01 48.52,84.01 48.52,84.01 60.52,84.01 60.52,60.01 "/>
<polygon style="&st2;" points="215.99,48.01 215.99,48.01 24,48.01 24,60.01 216,60.01 216,48.01 "/>
<polygon style="&st2;" points="491.99,48.01 492,48.01 492,48.01 396,48.01 396,60.01 491.99,60.01 "/>
<polygon style="&st2;" points="492.03,0.01 492.05,0.01 492.05,0 24,0 24.01,48 492.04,48 "/>
</svg>
