<?xml version="1.0" encoding="UTF-8"?>
<svg xmlns="http://www.w3.org/2000/svg" version="1.1" viewBox="0 0 500 196">
  <defs>
    <style>
      .cls-1 {
        fill: #ffdc4b;
      }

      .cls-2 {
        font-size: 31.4px;
      }

      .cls-2, .cls-3 {
        fill: #fff;
        font-family: PressStart2P-Regular, 'Press Start 2P';
        isolation: isolate;
      }

      .cls-4 {
        fill: #34383d;
      }

      .cls-5 {
        fill: #f0857d;
      }

      .cls-6 {
        fill: #c1422c;
      }

      .cls-7 {
        fill: #1f4e9e;
      }

      .cls-3 {
        font-size: 36.2px;
      }

      .cls-8 {
        fill: #2b2b2b;
      }

      .cls-9 {
        fill: #387bbf;
      }

      .cls-10 {
        fill: #f7a62e;
      }

      .cls-11 {
        fill: #eb5b3a;
      }

      .cls-12 {
        fill: #232323;
      }

      .cls-13 {
        fill: #63a6cc;
      }

      .cls-14 {
        fill: #fcc10a;
      }
    </style>
  </defs>
  <!-- Generator: Adobe Illustrator 28.7.7, SVG Export Plug-In . SVG Version: 1.2.0 Build 194)  -->
  <g>
    <g id="Laag_1">
      <polygon class="cls-4" points="431 38.6 431 6.3 51.5 6.3 51.5 39.4 15.6 39.4 15.6 129.3 51.5 129.3 51.5 163.4 463.6 163.4 463.6 38.6 431 38.6"/>
      <text class="cls-3" transform="translate(151 357.5)"><tspan x="0" y="0">MiniBytes</tspan></text>
      <g>
        <rect class="cls-13" x="70.1" y="297.2" width="22.4" height="22.4"/>
        <rect class="cls-8" x="84.1" y="303.9" width="1.7" height="3.4"/>
        <rect class="cls-8" x="76.8" y="303.9" width="1.7" height="3.4"/>
        <rect class="cls-13" x="84.5" y="305.3" width=".8" height="1.7"/>
        <rect class="cls-13" x="77.2" y="305.3" width=".8" height="1.7"/>
        <path class="cls-9" d="M96.9,301.7v-9h-9v-4.5h-13.4v4.5h-9v4.5h-4.5v9h4.5v17.9h9v4.5h-4.5v4.5h9v-9h4.5v9h9v-4.5h-4.5v-4.5h9v-13.4h4.5v-9h-4.5ZM92.4,315.1v4.5h-22.4v-22.4h22.4v17.9Z"/>
        <g>
          <rect class="cls-7" x="61.1" y="292.7" width="4.5" height="4.5"/>
          <polygon class="cls-7" points="79 324 79 328.5 79 333 83.5 333 83.5 328.5 83.5 324 79 324"/>
          <rect class="cls-7" x="70.1" y="324" width="4.5" height="4.5"/>
          <rect class="cls-7" x="65.6" y="328.5" width="4.5" height="4.5"/>
          <polygon class="cls-7" points="61.1 297.2 56.6 297.2 56.6 301.7 56.6 306.1 61.1 306.1 61.1 301.7 61.1 297.2"/>
          <polygon class="cls-7" points="61.1 315.1 61.1 319.6 61.1 324 65.6 324 65.6 319.6 65.6 315.1 65.6 310.6 65.6 306.1 61.1 306.1 61.1 310.6 61.1 315.1"/>
          <rect class="cls-7" x="70.1" y="288.2" width="4.5" height="4.5"/>
        </g>
      </g>
      <g>
        <rect class="cls-5" x="39" y="341.9" width="22.7" height="22.7"/>
        <rect class="cls-8" x="45.8" y="348.7" width="1.7" height="3.4"/>
        <rect class="cls-8" x="53.2" y="348.7" width="1.7" height="3.4"/>
        <rect class="cls-5" x="46.2" y="350.1" width=".8" height="1.7"/>
        <rect class="cls-5" x="53.6" y="350.1" width=".8" height="1.7"/>
        <g>
          <polygon class="cls-11" points="34.5 346.5 34.5 341.9 34.5 337.4 39 337.4 43.5 337.4 43.5 332.8 48.1 332.8 52.6 332.8 57.2 332.8 57.2 337.4 61.7 337.4 66.2 337.4 66.2 341.9 70.8 341.9 70.8 346.5 70.8 351 66.2 351 66.2 355.5 66.2 360.1 61.7 360.1 61.7 355.5 61.7 351 61.7 346.5 61.7 341.9 57.2 341.9 52.6 341.9 48.1 341.9 43.5 341.9 39 341.9 39 346.5 39 351 39 355.5 39 360.1 39 364.6 43.5 364.6 43.5 369.1 39 369.1 34.5 369.1 34.5 364.6 34.5 360.1 34.5 355.5 29.9 355.5 29.9 351 29.9 346.5 34.5 346.5"/>
          <polygon class="cls-11" points="70.8 364.6 70.8 369.1 66.2 369.1 66.2 364.6 66.2 360.1 70.8 360.1 70.8 364.6"/>
          <polygon class="cls-11" points="57.2 364.6 57.2 369.1 52.6 369.1 52.6 364.6 52.6 360.1 57.2 360.1 57.2 364.6"/>
        </g>
        <g>
          <polygon class="cls-6" points="29.9 337.4 34.5 337.4 34.5 341.9 34.5 346.5 29.9 346.5 29.9 341.9 29.9 337.4"/>
          <polygon class="cls-6" points="29.9 346.5 29.9 351 29.9 355.5 25.4 355.5 25.4 351 25.4 346.5 29.9 346.5"/>
          <polygon class="cls-6" points="34.5 360.1 34.5 364.6 34.5 369.1 29.9 369.1 29.9 364.6 29.9 360.1 29.9 355.5 34.5 355.5 34.5 360.1"/>
          <polygon class="cls-6" points="61.7 360.1 66.2 360.1 66.2 364.6 66.2 369.1 61.7 369.1 57.2 369.1 57.2 364.6 61.7 364.6 61.7 360.1"/>
          <polygon class="cls-6" points="48.1 360.1 52.6 360.1 52.6 364.6 52.6 369.1 48.1 369.1 43.5 369.1 43.5 364.6 48.1 364.6 48.1 360.1"/>
          <rect class="cls-6" x="39" y="332.8" width="4.5" height="4.5"/>
        </g>
      </g>
      <g>
        <rect class="cls-1" x="101.3" y="332.8" width="22.4" height="22.4"/>
        <rect class="cls-8" x="108" y="339.5" width="1.7" height="3.4"/>
        <rect class="cls-8" x="115.3" y="339.5" width="1.7" height="3.4"/>
        <rect class="cls-1" x="108.4" y="340.9" width=".8" height="1.7"/>
        <rect class="cls-1" x="115.7" y="340.9" width=".8" height="1.7"/>
        <g>
          <polygon class="cls-14" points="96.8 337.3 96.8 332.8 96.8 328.3 101.3 328.3 105.8 328.3 105.8 323.9 110.2 323.9 110.2 323.9 114.7 323.9 114.7 328.3 114.7 328.3 114.7 323.9 119.2 323.9 119.2 328.3 123.7 328.3 128.2 328.3 128.2 332.8 132.6 332.8 132.6 337.3 132.6 341.8 128.2 341.8 128.2 346.2 128.2 350.7 128.2 355.2 128.2 359.7 123.7 359.7 119.2 359.7 119.2 364.1 123.7 364.1 123.7 368.6 119.2 368.6 114.7 368.6 114.7 364.1 114.7 359.7 110.2 359.7 105.8 359.7 105.8 355.2 110.2 355.2 114.7 355.2 119.2 355.2 123.7 355.2 123.7 350.7 123.7 346.2 123.7 341.8 123.7 337.3 123.7 332.8 119.2 332.8 114.7 332.8 110.2 332.8 105.8 332.8 101.3 332.8 101.3 337.3 101.3 341.8 101.3 346.2 101.3 350.7 96.8 350.7 96.8 346.2 92.3 346.2 92.3 341.8 92.3 337.3 96.8 337.3"/>
          <polygon class="cls-14" points="96.8 355.2 96.8 359.7 92.3 359.7 92.3 355.2 92.3 350.7 96.8 350.7 96.8 355.2"/>
        </g>
        <g>
          <rect class="cls-10" x="128.2" y="328.3" width="4.5" height="4.5"/>
          <rect class="cls-10" x="119.2" y="359.7" width="4.5" height="4.5"/>
          <rect class="cls-10" x="123.7" y="364.1" width="4.5" height="4.5"/>
          <polygon class="cls-10" points="132.6 332.8 137.1 332.8 137.1 337.3 137.1 341.8 132.6 341.8 132.6 337.3 132.6 332.8"/>
          <polygon class="cls-10" points="132.6 350.7 132.6 355.2 132.6 359.7 128.2 359.7 128.2 355.2 128.2 350.7 128.2 346.2 128.2 341.8 132.6 341.8 132.6 346.2 132.6 350.7"/>
          <polygon class="cls-10" points="101.3 350.7 101.3 355.2 105.8 355.2 105.8 359.7 101.3 359.7 96.8 359.7 96.8 355.2 96.8 350.7 101.3 350.7"/>
          <rect class="cls-10" x="119.2" y="323.9" width="4.5" height="4.5"/>
        </g>
      </g>
      <text class="cls-2" transform="translate(164 103.6)"><tspan x="0" y="0">MiniBytes</tspan></text>
      <g>
        <rect class="cls-13" x="97.8" y="51.3" width="19.4" height="19.4"/>
        <rect class="cls-8" x="109.9" y="57.1" width="1.5" height="2.9"/>
        <rect class="cls-8" x="103.6" y="57.1" width="1.5" height="2.9"/>
        <rect class="cls-13" x="110.3" y="58.4" width=".7" height="1.5"/>
        <rect class="cls-13" x="104" y="58.4" width=".7" height="1.5"/>
        <path class="cls-9" d="M121.1,55.2v-7.8h-7.8v-3.9h-11.6v3.9h-7.8v3.9h-3.9v7.8h3.9v15.5h7.8v3.9h-3.9v3.9h7.8v-7.8h3.9v7.8h7.8v-3.9h-3.9v-3.9h7.8v-11.7h3.9v-7.8h-3.9ZM117.2,66.8v3.9h-19.4v-19.4h19.4v15.5h0Z"/>
        <g>
          <rect class="cls-7" x="90.1" y="47.4" width="3.9" height="3.9"/>
          <polygon class="cls-7" points="105.6 74.6 105.6 78.5 105.6 82.4 109.5 82.4 109.5 78.5 109.5 74.6 105.6 74.6"/>
          <rect class="cls-7" x="97.8" y="74.6" width="3.9" height="3.9"/>
          <rect class="cls-7" x="93.9" y="78.5" width="3.9" height="3.9"/>
          <polygon class="cls-7" points="90.1 51.3 86.2 51.3 86.2 55.2 86.2 59.1 90.1 59.1 90.1 55.2 90.1 51.3"/>
          <polygon class="cls-7" points="90.1 66.8 90.1 70.7 90.1 74.6 93.9 74.6 93.9 70.7 93.9 66.8 93.9 63 93.9 59.1 90.1 59.1 90.1 63 90.1 66.8"/>
          <rect class="cls-7" x="97.8" y="43.6" width="3.9" height="3.9"/>
        </g>
      </g>
      <g>
        <rect class="cls-5" x="70.9" y="90.1" width="19.7" height="19.7"/>
        <rect class="cls-8" x="76.8" y="96" width="1.5" height="2.9"/>
        <rect class="cls-8" x="83.2" y="96" width="1.5" height="2.9"/>
        <rect class="cls-5" x="77.2" y="97.2" width=".7" height="1.5"/>
        <rect class="cls-5" x="83.6" y="97.2" width=".7" height="1.5"/>
        <g>
          <polygon class="cls-11" points="66.9 94 66.9 90.1 66.9 86.2 70.9 86.2 74.8 86.2 74.8 82.2 78.8 82.2 82.7 82.2 86.6 82.2 86.6 86.2 90.6 86.2 94.5 86.2 94.5 90.1 98.4 90.1 98.4 94 98.4 98 94.5 98 94.5 101.9 94.5 105.8 90.6 105.8 90.6 101.9 90.6 98 90.6 94 90.6 90.1 86.6 90.1 82.7 90.1 78.8 90.1 74.8 90.1 70.9 90.1 70.9 94 70.9 98 70.9 101.9 70.9 105.8 70.9 109.8 74.8 109.8 74.8 113.7 70.9 113.7 66.9 113.7 66.9 109.8 66.9 105.8 66.9 101.9 63 101.9 63 98 63 94 66.9 94"/>
          <polygon class="cls-11" points="98.4 109.8 98.4 113.7 94.5 113.7 94.5 109.8 94.5 105.8 98.4 105.8 98.4 109.8"/>
          <polygon class="cls-11" points="86.6 109.8 86.6 113.7 82.7 113.7 82.7 109.8 82.7 105.8 86.6 105.8 86.6 109.8"/>
        </g>
        <g>
          <polygon class="cls-6" points="63 86.2 66.9 86.2 66.9 90.1 66.9 94 63 94 63 90.1 63 86.2"/>
          <polygon class="cls-6" points="63 94 63 98 63 101.9 59.1 101.9 59.1 98 59.1 94 63 94"/>
          <polygon class="cls-6" points="66.9 105.8 66.9 109.8 66.9 113.7 63 113.7 63 109.8 63 105.8 63 101.9 66.9 101.9 66.9 105.8"/>
          <polygon class="cls-6" points="90.6 105.8 94.5 105.8 94.5 109.8 94.5 113.7 90.6 113.7 86.6 113.7 86.6 109.8 90.6 109.8 90.6 105.8"/>
          <polygon class="cls-6" points="78.8 105.8 82.7 105.8 82.7 109.8 82.7 113.7 78.8 113.7 74.8 113.7 74.8 109.8 78.8 109.8 78.8 105.8"/>
          <rect class="cls-6" x="70.9" y="82.2" width="3.9" height="3.9"/>
        </g>
      </g>
      <g>
        <rect class="cls-1" x="124.9" y="82.2" width="19.4" height="19.4"/>
        <rect class="cls-8" x="130.7" y="88" width="1.5" height="2.9"/>
        <rect class="cls-8" x="137" y="88" width="1.5" height="2.9"/>
        <rect class="cls-1" x="131.1" y="89.2" width=".7" height="1.5"/>
        <rect class="cls-1" x="137.4" y="89.2" width=".7" height="1.5"/>
        <g>
          <polygon class="cls-14" points="121 86.1 121 82.2 121 78.3 124.9 78.3 128.8 78.3 128.8 74.4 132.7 74.4 132.7 74.4 136.5 74.4 136.5 78.3 136.5 78.3 136.5 74.4 140.4 74.4 140.4 78.3 144.3 78.3 148.2 78.3 148.2 82.2 152.1 82.2 152.1 86.1 152.1 90 148.2 90 148.2 93.8 148.2 97.7 148.2 101.6 148.2 105.5 144.3 105.5 140.4 105.5 140.4 109.4 144.3 109.4 144.3 113.3 140.4 113.3 136.5 113.3 136.5 109.4 136.5 105.5 132.7 105.5 128.8 105.5 128.8 101.6 132.7 101.6 136.5 101.6 140.4 101.6 144.3 101.6 144.3 97.7 144.3 93.8 144.3 90 144.3 86.1 144.3 82.2 140.4 82.2 136.5 82.2 132.7 82.2 128.8 82.2 124.9 82.2 124.9 86.1 124.9 90 124.9 93.8 124.9 97.7 121 97.7 121 93.8 117.1 93.8 117.1 90 117.1 86.1 121 86.1"/>
          <polygon class="cls-14" points="121 101.6 121 105.5 117.1 105.5 117.1 101.6 117.1 97.7 121 97.7 121 101.6"/>
        </g>
        <g>
          <rect class="cls-10" x="148.2" y="78.3" width="3.9" height="3.9"/>
          <rect class="cls-10" x="140.4" y="105.5" width="3.9" height="3.9"/>
          <rect class="cls-10" x="144.3" y="109.4" width="3.9" height="3.9"/>
          <polygon class="cls-10" points="152.1 82.2 156 82.2 156 86.1 156 90 152.1 90 152.1 86.1 152.1 82.2"/>
          <polygon class="cls-10" points="152.1 97.7 152.1 101.6 152.1 105.5 148.2 105.5 148.2 101.6 148.2 97.7 148.2 93.8 148.2 90 152.1 90 152.1 93.8 152.1 97.7"/>
          <polygon class="cls-10" points="124.9 97.7 124.9 101.6 128.8 101.6 128.8 105.5 124.9 105.5 121 105.5 121 101.6 121 97.7 124.9 97.7"/>
          <rect class="cls-10" x="140.4" y="74.4" width="3.9" height="3.9"/>
        </g>
      </g>
      <g>
        <rect class="cls-12" x="462.6" y="39.6" width="36.4" height="89.7"/>
        <rect class="cls-12" x="426.9" y="129.3" width="36.4" height="33.3"/>
        <rect class="cls-12" x="426.6" y="6.3" width="37" height="33.3"/>
      </g>
    </g>
  </g>
</svg>