<?xml version="1.0" encoding="utf-8"?>
<!-- Generator: Adobe Illustrator 29.5.1, SVG Export Plug-In . SVG Version: 9.03 Build 0)  -->
<!DOCTYPE svg PUBLIC "-//W3C//DTD SVG 1.1//EN" "http://www.w3.org/Graphics/SVG/1.1/DTD/svg11.dtd" [
	<!ENTITY st0 "fill:#FFDC4B;">
	<!ENTITY st1 "fill:#2B2B2B;">
	<!ENTITY st2 "fill:#FCC10A;">
	<!ENTITY st3 "fill:#F7A62E;">
]>
<svg version="1.1" id="Laag_1" xmlns="http://www.w3.org/2000/svg" xmlns:xlink="http://www.w3.org/1999/xlink" x="0px" y="0px"
	 viewBox="0 0 500 500" style="enable-background:new 0 0 500 500;" xml:space="preserve">
<rect x="100.08" y="100.2" style="&st0;" width="249.87" height="249.87"/>
<rect x="256.25" y="175.16" style="&st1;" width="18.74" height="37.48"/>
<rect x="175.04" y="175.16" style="&st1;" width="18.74" height="37.48"/>
<rect x="260.93" y="190.78" style="&st0;" width="9.37" height="18.74"/>
<rect x="179.72" y="190.78" style="&st0;" width="9.37" height="18.74"/>
<g>
	<polygon style="&st2;" points="399.92,150.18 399.92,100.2 399.92,50.23 349.95,50.23 299.97,50.23 250,50.23 200.03,50.23 
		150.05,50.23 150.05,50.23 100.08,50.23 50.1,50.23 50.1,100.2 0.13,100.2 0.13,150.18 0.13,200.15 50.1,200.15 50.1,250.13 
		50.1,300.1 100.08,300.1 100.08,250.13 100.08,200.15 100.08,150.18 100.08,100.2 150.05,100.2 200.03,100.2 250,100.2 
		299.97,100.2 349.95,100.2 349.95,150.18 349.95,200.15 349.95,250.13 349.95,300.1 349.95,350.08 299.97,350.08 250,350.08 
		200.03,350.08 150.05,350.08 150.05,400.05 200.03,400.05 250,400.05 250,450.02 250,500 299.97,500 349.95,500 349.95,450.02 
		299.97,450.02 299.97,400.05 349.95,400.05 399.92,400.05 399.92,350.08 399.92,300.1 399.92,250.13 449.9,250.13 449.9,200.15 
		449.9,150.18 	"/>
	<polygon style="&st2;" points="0.13,350.08 0.13,400.05 50.1,400.05 50.1,350.08 50.1,300.1 0.13,300.1 	"/>
	<polygon style="&st2;" points="250,50.23 299.97,50.23 299.97,0.25 250,0.25 200.03,0.25 150.05,0.25 150.05,50.23 200.03,50.23 	
		"/>
</g>
<g>
	<polygon style="&st3;" points="449.9,50.23 399.92,50.23 399.92,100.2 399.92,150.18 449.9,150.18 449.9,100.2 	"/>
	<polygon style="&st3;" points="449.9,150.18 449.9,200.15 449.9,250.13 499.87,250.13 499.87,200.15 499.87,150.18 	"/>
	<rect x="299.97" y="400.05" style="&st3;" width="49.97" height="49.97"/>
	<rect x="349.95" y="450.02" style="&st3;" width="49.97" height="49.98"/>
	<polygon style="&st3;" points="399.92,300.1 399.92,350.08 399.92,400.05 449.9,400.05 449.9,350.08 449.9,300.1 449.9,250.13 
		399.92,250.13 	"/>
	<polygon style="&st3;" points="100.08,300.1 50.1,300.1 50.1,350.08 50.1,400.05 100.08,400.05 150.05,400.05 150.05,350.08 
		100.08,350.08 	"/>
	<rect x="299.97" y="0.25" style="&st3;" width="49.97" height="49.98"/>
</g>
</svg>
