<?xml version="1.0" encoding="utf-8"?>
<!-- Generator: Adobe Illustrator 29.5.1, SVG Export Plug-In . SVG Version: 9.03 Build 0)  -->
<!DOCTYPE svg PUBLIC "-//W3C//DTD SVG 1.1//EN" "http://www.w3.org/Graphics/SVG/1.1/DTD/svg11.dtd" [
	<!ENTITY st0 "fill:#E7E7E8;">
	<!ENTITY st1 "fill:#CAC8C8;">
]>
<svg version="1.1" id="Laag_1" xmlns="http://www.w3.org/2000/svg" xmlns:xlink="http://www.w3.org/1999/xlink" x="0px" y="0px"
	 viewBox="0 0 1488.19 85.04" style="enable-background:new 0 0 1488.19 85.04;" xml:space="preserve">
<g>
	<polygon style="&st0;" points="382.68,14.18 382.68,0 368.5,0 354.33,0 340.16,0 325.98,0 311.81,0 297.64,0 283.46,0 269.29,0 
		255.12,0 240.94,0 226.77,0 212.6,0 198.42,0 184.25,0 170.08,0 155.9,0 141.73,0 127.56,0 113.38,0 99.21,0 85.04,0 70.86,0 
		56.69,0 42.52,0 28.35,0 14.17,0 14.17,14.18 14.17,28.35 14.17,28.35 14.17,42.52 14.17,42.52 14.17,56.7 14.17,56.7 14.17,70.87 
		28.35,70.87 28.35,56.7 42.52,56.7 56.69,56.7 56.69,56.7 56.69,70.87 56.69,85.04 70.87,85.04 70.87,70.87 85.04,70.87 
		85.04,56.7 99.21,56.7 113.38,56.7 127.56,56.7 127.56,56.7 127.56,70.87 141.73,70.87 141.73,85.04 155.9,85.04 155.9,70.87 
		155.9,70.87 170.08,70.87 184.25,70.87 198.42,70.87 198.42,85.04 212.6,85.04 226.77,85.04 226.77,70.87 240.94,70.87 
		240.94,56.7 255.12,56.7 255.12,70.87 269.29,70.87 269.29,56.7 269.29,56.7 269.29,70.87 283.46,70.87 283.46,56.7 297.64,56.7 
		297.64,56.7 297.64,70.87 297.64,85.04 311.81,85.04 311.81,70.87 325.98,70.87 340.16,70.87 340.16,56.7 354.33,56.7 368.5,56.7 
		368.5,56.7 368.5,70.87 382.68,70.87 382.68,56.7 382.68,56.7 382.68,42.52 382.68,42.52 382.68,28.35 382.68,28.35 	"/>
	<polygon style="&st0;" points="751.18,42.52 751.18,42.52 751.18,28.35 751.18,28.35 751.18,14.18 751.18,0 737.01,0 722.83,0 
		708.66,0 694.49,0 680.31,0 666.14,0 651.97,0 637.79,0 623.62,0 609.45,0 595.27,0 581.1,0 566.93,0 552.76,0 538.58,0 524.41,0 
		510.24,0 496.06,0 481.89,0 467.72,0 453.54,0 439.37,0 425.2,0 411.02,0 396.85,0 382.68,0 382.68,14.18 382.68,28.35 
		382.68,28.35 382.68,42.52 382.68,42.52 382.68,56.7 382.68,56.7 382.68,70.87 396.85,70.87 396.85,56.7 411.02,56.7 425.2,56.7 
		425.2,56.7 425.2,70.87 425.2,85.04 439.37,85.04 439.37,70.87 453.54,70.87 453.54,56.7 467.72,56.7 481.89,56.7 496.06,56.7 
		496.06,56.7 496.06,70.87 510.24,70.87 510.24,85.04 524.41,85.04 524.41,70.87 524.41,70.87 538.58,70.87 552.76,70.87 
		566.93,70.87 566.93,85.04 581.1,85.04 595.28,85.04 595.28,70.87 609.45,70.87 609.45,56.7 623.62,56.7 623.62,70.87 
		637.79,70.87 637.79,56.7 637.79,56.7 637.79,70.87 651.97,70.87 651.97,56.7 666.14,56.7 666.14,56.7 666.14,70.87 666.14,85.04 
		680.31,85.04 680.31,70.87 694.49,70.87 708.66,70.87 708.66,56.7 722.83,56.7 737.01,56.7 737.01,56.7 737.01,70.87 751.18,70.87 
		751.18,56.7 751.18,56.7 	"/>
	<polygon style="&st0;" points="1119.68,14.18 1119.68,0 1105.51,0 1091.34,0 1077.17,0 1062.99,0 1048.82,0 1034.65,0 1020.47,0 
		1006.3,0 992.13,0 977.95,0 963.78,0 949.61,0 935.43,0 921.26,0 907.09,0 892.91,0 878.74,0 864.57,0 850.39,0 836.22,0 822.05,0 
		807.87,0 793.7,0 779.53,0 765.35,0 751.18,0 751.18,14.18 751.18,28.35 751.18,28.35 751.18,42.52 751.18,42.52 751.18,56.7 
		751.18,56.7 751.18,70.87 765.35,70.87 765.35,56.7 779.53,56.7 793.7,56.7 793.7,56.7 793.7,70.87 793.7,85.04 807.87,85.04 
		807.87,70.87 822.05,70.87 822.05,56.7 836.22,56.7 850.39,56.7 864.57,56.7 864.57,56.7 864.57,70.87 878.74,70.87 878.74,85.04 
		892.91,85.04 892.91,70.87 892.91,70.87 907.09,70.87 921.26,70.87 935.43,70.87 935.43,85.04 949.61,85.04 963.78,85.04 
		963.78,70.87 977.95,70.87 977.95,56.7 992.13,56.7 992.13,70.87 1006.3,70.87 1006.3,56.7 1006.3,56.7 1006.3,70.87 
		1020.47,70.87 1020.47,56.7 1034.65,56.7 1034.65,56.7 1034.65,70.87 1034.65,85.04 1048.82,85.04 1048.82,70.87 1062.99,70.87 
		1077.17,70.87 1077.17,56.7 1091.34,56.7 1105.51,56.7 1105.51,56.7 1105.51,70.87 1119.69,70.87 1119.69,56.7 1119.68,56.7 
		1119.68,42.52 1119.69,42.52 1119.69,28.35 1119.68,28.35 	"/>
	<polygon style="&st0;" points="1488.19,42.52 1488.19,28.35 1488.19,28.35 1488.19,14.18 1488.19,0 1474.02,0 1459.84,0 1445.67,0 
		1431.5,0 1417.32,0 1403.15,0 1388.98,0 1374.8,0 1360.63,0 1346.46,0 1332.28,0 1318.11,0 1303.94,0 1289.76,0 1275.59,0 
		1261.42,0 1247.24,0 1233.07,0 1218.9,0 1204.72,0 1190.55,0 1176.38,0 1162.2,0 1148.03,0 1133.86,0 1119.69,0 1119.69,14.18 
		1119.69,28.35 1119.69,28.35 1119.69,42.52 1119.69,42.52 1119.69,56.7 1119.69,56.7 1119.69,70.87 1133.86,70.87 1133.86,56.7 
		1148.03,56.7 1162.2,56.7 1162.21,56.7 1162.21,70.87 1162.21,85.04 1176.38,85.04 1176.38,70.87 1190.55,70.87 1190.55,56.7 
		1204.72,56.7 1218.9,56.7 1233.07,56.7 1233.07,56.7 1233.07,70.87 1247.24,70.87 1247.24,85.04 1261.42,85.04 1261.42,70.87 
		1261.42,70.87 1275.59,70.87 1289.76,70.87 1303.94,70.87 1303.94,85.04 1318.11,85.04 1332.28,85.04 1332.28,70.87 1346.46,70.87 
		1346.46,56.7 1360.63,56.7 1360.63,70.87 1374.8,70.87 1374.8,56.7 1374.8,56.7 1374.8,70.87 1388.98,70.87 1388.98,56.7 
		1403.15,56.7 1403.15,56.7 1403.15,70.87 1403.15,85.04 1417.32,85.04 1417.32,70.87 1431.5,70.87 1445.67,70.87 1445.67,56.7 
		1459.84,56.7 1474.02,56.7 1474.02,56.7 1474.02,70.87 1488.19,70.87 1488.19,56.7 1488.19,56.7 	"/>
</g>
<g>
	<rect x="1459.84" y="56.7" style="&st1;" width="14.17" height="14.17"/>
	<polygon style="&st1;" points="1403.15,56.7 1388.98,56.7 1388.98,70.87 1388.98,70.87 1388.98,85.04 1403.15,85.04 1403.15,70.87 
		1403.15,70.87 	"/>
	<rect x="1346.46" y="56.7" style="&st1;" width="14.17" height="14.17"/>
	<rect x="1233.07" y="70.87" style="&st1;" width="14.17" height="14.17"/>
	<rect x="1218.9" y="56.7" style="&st1;" width="14.17" height="14.17"/>
	<polygon style="&st1;" points="1148.03,70.87 1148.03,85.04 1162.2,85.04 1162.2,70.87 1162.2,56.7 1148.03,56.7 	"/>
	<rect x="1091.34" y="56.7" style="&st1;" width="14.17" height="14.17"/>
	<polygon style="&st1;" points="1020.47,70.87 1020.47,85.04 1034.65,85.04 1034.65,70.87 1034.65,56.7 1020.47,56.7 	"/>
	<rect x="977.95" y="56.7" style="&st1;" width="14.17" height="14.17"/>
	<rect x="921.26" y="70.87" style="&st1;" width="14.17" height="14.17"/>
	<rect x="864.57" y="70.87" style="&st1;" width="14.17" height="14.17"/>
	<rect x="850.39" y="56.7" style="&st1;" width="14.17" height="14.17"/>
	<polygon style="&st1;" points="779.53,70.87 779.53,85.04 793.7,85.04 793.7,70.87 793.7,56.7 779.53,56.7 	"/>
	<rect x="722.83" y="56.7" style="&st1;" width="14.17" height="14.17"/>
	<polygon style="&st1;" points="651.97,70.87 651.97,85.04 666.14,85.04 666.14,70.87 666.14,56.7 651.97,56.7 	"/>
	<rect x="609.45" y="56.7" style="&st1;" width="14.17" height="14.17"/>
	<rect x="552.76" y="70.87" style="&st1;" width="14.17" height="14.17"/>
	<rect x="496.06" y="70.87" style="&st1;" width="14.17" height="14.17"/>
	<rect x="481.89" y="56.7" style="&st1;" width="14.17" height="14.17"/>
	<polygon style="&st1;" points="411.02,70.87 411.02,85.04 425.2,85.04 425.2,70.87 425.2,56.7 411.02,56.7 	"/>
	<rect x="354.33" y="56.7" style="&st1;" width="14.17" height="14.17"/>
	<polygon style="&st1;" points="297.64,56.7 283.46,56.7 283.46,70.87 283.46,70.87 283.46,85.04 297.64,85.04 297.64,70.87 
		297.64,70.87 	"/>
	<rect x="240.94" y="56.7" style="&st1;" width="14.17" height="14.17"/>
	<rect x="184.25" y="70.87" style="&st1;" width="14.17" height="14.17"/>
	<rect x="127.56" y="70.87" style="&st1;" width="14.17" height="14.17"/>
	<rect x="113.38" y="56.7" style="&st1;" width="14.17" height="14.17"/>
	<polygon style="&st1;" points="42.52,70.87 42.52,85.04 56.69,85.04 56.69,70.87 56.69,56.7 42.52,56.7 	"/>
	<polygon style="&st1;" points="0,14.18 0,28.35 0,42.52 0,56.7 0,70.87 14.17,70.87 14.17,56.7 14.17,42.52 14.17,28.35 
		14.17,14.18 14.17,0 0,0 	"/>
	<rect x="1289.76" y="70.87" style="&st1;" width="14.17" height="14.17"/>
</g>
</svg>
