<?xml version="1.0" encoding="utf-8"?>
<!-- Generator: Adobe Illustrator 29.5.1, SVG Export Plug-In . SVG Version: 9.03 Build 0)  -->
<!DOCTYPE svg PUBLIC "-//W3C//DTD SVG 1.1//EN" "http://www.w3.org/Graphics/SVG/1.1/DTD/svg11.dtd" [
	<!ENTITY st0 "fill:#EA5B3A;">
	<!ENTITY st1 "fill:#C0422D;">
]>
<svg version="1.1" id="Laag_1" xmlns="http://www.w3.org/2000/svg" xmlns:xlink="http://www.w3.org/1999/xlink" x="0px" y="0px"
	 viewBox="0 0 1488.19 28.35" style="enable-background:new 0 0 1488.19 28.35;" xml:space="preserve">
<path style="&st0;" d="M28.35,0"/>
<path style="&st0;" d="M42.52,0"/>
<line style="&st0;" x1="56.69" y1="0" x2="42.52" y2="0"/>
<path style="&st0;" d="M85.04,0"/>
<path style="&st0;" d="M113.39,0"/>
<line style="&st0;" x1="127.56" y1="0" x2="113.39" y2="0"/>
<line style="&st0;" x1="255.12" y1="0" x2="240.94" y2="0"/>
<line style="&st0;" x1="297.64" y1="0" x2="283.46" y2="0"/>
<path style="&st0;" d="M340.16,0"/>
<path style="&st0;" d="M354.33,0"/>
<line style="&st0;" x1="368.5" y1="0" x2="354.33" y2="0"/>
<path style="&st0;" d="M396.85,0"/>
<path style="&st0;" d="M411.02,0"/>
<line style="&st0;" x1="425.2" y1="0" x2="411.02" y2="0"/>
<path style="&st0;" d="M453.54,0"/>
<path style="&st0;" d="M481.89,0"/>
<line style="&st0;" x1="496.06" y1="0" x2="481.89" y2="0"/>
<line style="&st0;" x1="623.62" y1="0" x2="609.45" y2="0"/>
<line style="&st0;" x1="666.14" y1="0" x2="651.97" y2="0"/>
<line style="&st0;" x1="680.32" y1="0" x2="666.14" y2="0"/>
<line style="&st0;" x1="694.49" y1="0" x2="680.32" y2="0"/>
<line style="&st0;" x1="708.66" y1="0" x2="694.49" y2="0"/>
<path style="&st0;" d="M708.66,0"/>
<path style="&st0;" d="M722.84,0"/>
<line style="&st0;" x1="737.01" y1="0" x2="722.84" y2="0"/>
<line style="&st0;" x1="751.18" y1="0" x2="737.01" y2="0"/>
<line style="&st0;" x1="765.36" y1="0" x2="751.18" y2="0"/>
<path style="&st0;" d="M765.36,0"/>
<path style="&st0;" d="M779.53,0"/>
<line style="&st0;" x1="793.7" y1="0" x2="779.53" y2="0"/>
<line style="&st0;" x1="807.87" y1="0" x2="793.7" y2="0"/>
<line style="&st0;" x1="822.05" y1="0" x2="807.87" y2="0"/>
<path style="&st0;" d="M822.05,0"/>
<path style="&st0;" d="M850.39,0"/>
<line style="&st0;" x1="864.57" y1="0" x2="850.39" y2="0"/>
<line style="&st0;" x1="992.13" y1="0" x2="977.95" y2="0"/>
<line style="&st0;" x1="1006.3" y1="0" x2="992.13" y2="0"/>
<line style="&st0;" x1="1020.47" y1="0" x2="1006.3" y2="0"/>
<line style="&st0;" x1="1034.65" y1="0" x2="1020.47" y2="0"/>
<line style="&st0;" x1="1048.82" y1="0" x2="1034.65" y2="0"/>
<line style="&st0;" x1="1062.99" y1="0" x2="1048.82" y2="0"/>
<line style="&st0;" x1="1077.17" y1="0" x2="1062.99" y2="0"/>
<path style="&st0;" d="M1077.17,0"/>
<path style="&st0;" d="M1091.34,0"/>
<line style="&st0;" x1="1105.51" y1="0" x2="1091.34" y2="0"/>
<line style="&st0;" x1="1119.69" y1="0" x2="1105.51" y2="0"/>
<line style="&st0;" x1="1133.86" y1="0" x2="1119.69" y2="0"/>
<path style="&st0;" d="M1133.86,0"/>
<path style="&st0;" d="M1148.03,0"/>
<line style="&st0;" x1="1162.21" y1="0" x2="1148.03" y2="0"/>
<line style="&st0;" x1="1176.38" y1="0" x2="1162.21" y2="0"/>
<line style="&st0;" x1="1190.55" y1="0" x2="1176.38" y2="0"/>
<path style="&st0;" d="M1190.55,0"/>
<path style="&st0;" d="M1218.9,0"/>
<line style="&st0;" x1="1233.07" y1="0" x2="1218.9" y2="0"/>
<line style="&st0;" x1="1360.63" y1="0" x2="1346.46" y2="0"/>
<line style="&st0;" x1="1374.8" y1="0" x2="1360.63" y2="0"/>
<line style="&st0;" x1="1388.98" y1="0" x2="1374.8" y2="0"/>
<line style="&st0;" x1="1403.15" y1="0" x2="1388.98" y2="0"/>
<path style="&st0;" d="M1459.84,0"/>
<line style="&st0;" x1="1474.02" y1="0" x2="1459.84" y2="0"/>
<line style="&st0;" x1="1488.19" y1="0" x2="1474.02" y2="0"/>
<g>
	<polygon style="&st0;" points="14.18,0 14.18,14.17 28.35,14.17 28.35,0 28.35,0 	"/>
	<polygon style="&st0;" points="70.87,0 70.87,0 56.7,0 56.7,14.17 56.7,28.35 70.87,28.35 70.87,14.17 85.04,14.17 85.04,0 
		85.04,0 	"/>
	<polygon style="&st0;" points="226.78,0 226.78,0 212.6,0 212.6,0 198.43,0 198.43,0 184.26,0 184.26,0 170.08,0 170.08,0 
		155.91,0 155.91,0 141.74,0 141.74,0 127.56,0 127.56,14.17 141.74,14.17 141.74,28.35 155.91,28.35 155.91,14.17 155.91,14.17 
		170.08,14.17 184.26,14.17 198.43,14.17 198.43,28.35 212.6,28.35 226.78,28.35 226.78,14.17 240.95,14.17 240.95,0 240.95,0 	"/>
	<polygon style="&st0;" points="269.3,0 269.3,14.17 283.47,14.17 283.47,0 283.47,0 	"/>
	<rect x="255.12" y="0" style="&st0;" width="14.17" height="14.17"/>
	<polygon style="&st0;" points="325.99,0 325.99,0 311.81,0 311.81,0 297.64,0 297.64,14.17 297.64,28.35 311.81,28.35 
		311.81,14.17 325.99,14.17 340.16,14.17 340.16,0 340.16,0 	"/>
	<polygon style="&st0;" points="368.51,0 368.51,14.17 382.68,14.17 382.68,0 382.68,0 	"/>
	<polygon style="&st0;" points="382.68,0 382.68,14.17 396.85,14.17 396.85,0 396.85,0 	"/>
	<polygon style="&st0;" points="439.37,0 439.37,0 425.2,0 425.2,14.17 425.2,28.35 439.37,28.35 439.37,14.17 453.55,14.17 
		453.55,0 453.55,0 	"/>
	<polygon style="&st0;" points="595.28,0 595.28,0 581.11,0 581.11,0 566.93,0 566.93,0 552.76,0 552.76,0 538.59,0 538.59,0 
		524.41,0 524.41,0 510.24,0 510.24,0 496.07,0 496.07,14.17 510.24,14.17 510.24,28.35 524.41,28.35 524.41,14.17 524.41,14.17 
		538.59,14.17 552.76,14.17 566.93,14.17 566.93,28.35 581.11,28.35 595.28,28.35 595.28,14.17 609.45,14.17 609.45,0 609.45,0 	"/>
	<polygon style="&st0;" points="637.8,0 637.8,14.17 651.97,14.17 651.97,0 651.97,0 	"/>
	<rect x="623.63" y="0" style="&st0;" width="14.17" height="14.17"/>
	<polygon style="&st0;" points="680.32,0 666.15,0 666.15,14.17 666.15,28.35 680.32,28.35 680.32,14.17 694.49,14.17 708.67,14.17 
		708.67,0 694.49,0 	"/>
	<rect x="737.01" y="0" style="&st0;" width="14.17" height="14.17"/>
	<rect x="751.19" y="0" style="&st0;" width="14.17" height="14.17"/>
	<polygon style="&st0;" points="793.71,0 793.71,14.17 793.71,28.35 807.88,28.35 807.88,14.17 822.05,14.17 822.05,0 807.88,0 	"/>
	<polygon style="&st0;" points="963.78,0 963.78,0 949.61,0 949.61,0 935.44,0 935.44,0 921.26,0 921.26,0 907.09,0 907.09,0 
		892.92,0 892.92,0 878.74,0 878.74,0 864.57,0 864.57,14.17 878.74,14.17 878.74,28.35 892.92,28.35 892.92,14.17 892.92,14.17 
		907.09,14.17 921.26,14.17 935.44,14.17 935.44,28.35 949.61,28.35 963.78,28.35 963.78,14.17 977.96,14.17 977.96,0 977.96,0 	"/>
	<rect x="1006.3" y="0" style="&st0;" width="14.17" height="14.17"/>
	<rect x="992.13" y="0" style="&st0;" width="14.17" height="14.17"/>
	<polygon style="&st0;" points="1048.82,0 1034.65,0 1034.65,14.17 1034.65,28.35 1048.82,28.35 1048.82,14.17 1063,14.17 
		1077.17,14.17 1077.17,0 1063,0 	"/>
	<rect x="1105.52" y="0" style="&st0;" width="14.17" height="14.17"/>
	<rect x="1119.69" y="0" style="&st0;" width="14.17" height="14.17"/>
	<polygon style="&st0;" points="1162.21,0 1162.21,14.17 1162.21,28.35 1176.38,28.35 1176.38,14.17 1190.56,14.17 1190.56,0 
		1176.38,0 	"/>
	<polygon style="&st0;" points="1332.29,0 1332.29,0 1318.12,0 1318.12,0 1303.94,0 1303.94,0 1289.77,0 1289.77,0 1275.6,0 
		1275.6,0 1261.42,0 1261.42,0 1247.25,0 1247.25,0 1233.08,0 1233.08,14.17 1247.25,14.17 1247.25,28.35 1261.42,28.35 
		1261.42,14.17 1261.42,14.17 1275.6,14.17 1289.77,14.17 1303.94,14.17 1303.94,28.35 1318.12,28.35 1332.29,28.35 1332.29,14.17 
		1346.46,14.17 1346.46,0 1346.46,0 	"/>
	<rect x="1374.81" y="0" style="&st0;" width="14.17" height="14.17"/>
	<rect x="1360.63" y="0" style="&st0;" width="14.17" height="14.17"/>
	<polygon style="&st0;" points="1431.5,0 1431.5,0 1417.33,0 1417.33,0 1403.15,0 1403.15,14.17 1403.15,28.35 1417.33,28.35 
		1417.33,14.17 1431.5,14.17 1445.67,14.17 1445.67,0 1445.67,0 	"/>
	<rect x="1474.02" y="0" style="&st0;" width="14.17" height="14.17"/>
</g>
<g>
	<rect x="1459.85" y="0" style="&st1;" width="14.17" height="14.17"/>
	<polygon style="&st1;" points="1403.15,0 1388.98,0 1388.98,14.17 1388.98,14.17 1388.98,28.35 1403.15,28.35 1403.15,14.17 
		1403.15,14.17 	"/>
	<rect x="1346.46" y="0" style="&st1;" width="14.17" height="14.17"/>
	<rect x="1233.08" y="14.17" style="&st1;" width="14.17" height="14.17"/>
	<rect x="1218.9" y="0" style="&st1;" width="14.17" height="14.17"/>
	<polygon style="&st1;" points="1148.04,14.17 1148.04,28.35 1162.21,28.35 1162.21,14.17 1162.21,0 1148.04,0 	"/>
	<rect x="1091.34" y="0" style="&st1;" width="14.17" height="14.17"/>
	<polygon style="&st1;" points="1020.48,14.17 1020.48,28.35 1034.65,28.35 1034.65,14.17 1034.65,0 1020.48,0 	"/>
	<rect x="977.96" y="0" style="&st1;" width="14.17" height="14.17"/>
	<rect x="921.26" y="14.17" style="&st1;" width="14.17" height="14.17"/>
	<rect x="864.57" y="14.17" style="&st1;" width="14.17" height="14.17"/>
	<rect x="850.4" y="0" style="&st1;" width="14.17" height="14.17"/>
	<polygon style="&st1;" points="779.53,14.17 779.53,28.35 793.71,28.35 793.71,14.17 793.71,0 779.53,0 	"/>
	<rect x="722.84" y="0" style="&st1;" width="14.17" height="14.17"/>
	<polygon style="&st1;" points="651.97,14.17 651.97,28.35 666.15,28.35 666.15,14.17 666.15,0 651.97,0 	"/>
	<rect x="609.45" y="0" style="&st1;" width="14.17" height="14.17"/>
	<rect x="552.76" y="14.17" style="&st1;" width="14.17" height="14.17"/>
	<rect x="496.07" y="14.17" style="&st1;" width="14.17" height="14.17"/>
	<rect x="481.89" y="0" style="&st1;" width="14.17" height="14.17"/>
	<polygon style="&st1;" points="411.03,14.17 411.03,28.35 425.2,28.35 425.2,14.17 425.2,0 411.03,0 	"/>
	<rect x="354.33" y="0" style="&st1;" width="14.17" height="14.17"/>
	<polygon style="&st1;" points="297.64,0 283.47,0 283.47,14.17 283.47,14.17 283.47,28.35 297.64,28.35 297.64,14.17 297.64,14.17 
			"/>
	<rect x="240.95" y="0" style="&st1;" width="14.17" height="14.17"/>
	<rect x="184.26" y="14.17" style="&st1;" width="14.17" height="14.17"/>
	<rect x="127.56" y="14.17" style="&st1;" width="14.17" height="14.17"/>
	<rect x="113.39" y="0" style="&st1;" width="14.17" height="14.17"/>
	<polygon style="&st1;" points="42.52,14.17 42.52,28.35 56.7,28.35 56.7,14.17 56.7,0 42.52,0 	"/>
	<rect x="0" y="0" style="&st1;" width="14.17" height="14.17"/>
	<rect x="1289.77" y="14.17" style="&st1;" width="14.17" height="14.17"/>
</g>
</svg>
