<?xml version="1.0" encoding="utf-8"?>
<!-- Generator: Adobe Illustrator 29.5.1, SVG Export Plug-In . SVG Version: 9.03 Build 0)  -->
<!DOCTYPE svg PUBLIC "-//W3C//DTD SVG 1.1//EN" "http://www.w3.org/Graphics/SVG/1.1/DTD/svg11.dtd" [
	<!ENTITY st0 "fill:#F0857D;">
	<!ENTITY st1 "fill:#2B2B2B;">
	<!ENTITY st2 "fill:#5A5A58;">
	<!ENTITY st3 "fill:#EB5B3A;">
	<!ENTITY st4 "fill:#C0422D;">
]>
<svg version="1.1" id="Laag_1" xmlns="http://www.w3.org/2000/svg" xmlns:xlink="http://www.w3.org/1999/xlink" x="0px" y="0px"
	 viewBox="0 0 500 500" style="enable-background:new 0 0 500 500;" xml:space="preserve">
<g>
	<rect x="150" y="150" style="&st0;" width="250" height="250"/>
	<rect x="306.25" y="225" style="&st1;" width="18.75" height="37.5"/>
	<rect x="225" y="225" style="&st1;" width="18.75" height="37.5"/>
	<rect x="310.94" y="240.63" style="&st0;" width="9.38" height="18.75"/>
	<rect x="229.69" y="240.63" style="&st0;" width="9.38" height="18.75"/>
	<rect x="400" y="350" transform="matrix(-1.836970e-16 1 -1 -1.836970e-16 800.0001 -50)" style="&st2;" width="50" height="50"/>
	<g>
		<rect x="100" y="100" style="&st3;" width="50" height="50"/>
		<rect x="150" y="100" style="&st3;" width="50" height="50"/>
		<rect x="200" y="100" style="&st3;" width="50" height="50"/>
		<rect x="250" y="100" style="&st3;" width="50" height="50"/>
		<rect x="300" y="100" style="&st3;" width="50" height="50"/>
		<rect x="350" y="100" style="&st3;" width="50" height="50"/>
		<rect x="400" y="100" style="&st3;" width="50" height="50"/>
		
			<rect x="400" y="150" transform="matrix(-1.836970e-16 1 -1 -1.836970e-16 600.0001 -250)" style="&st3;" width="50" height="50"/>
		
			<rect x="400" y="200" transform="matrix(-1.836970e-16 1 -1 -1.836970e-16 650.0001 -200)" style="&st3;" width="50" height="50"/>
		
			<rect x="400" y="250" transform="matrix(-1.836970e-16 1 -1 -1.836970e-16 700.0001 -150)" style="&st3;" width="50" height="50"/>
		
			<rect x="450" y="200" transform="matrix(-1.836970e-16 1 -1 -1.836970e-16 700.0001 -250)" style="&st3;" width="50" height="50"/>
		
			<rect x="450" y="250" transform="matrix(-1.836970e-16 1 -1 -1.836970e-16 750.0001 -200)" style="&st3;" width="50" height="50"/>
		<rect x="50" y="150" transform="matrix(-1.836970e-16 1 -1 -1.836970e-16 250 100)" style="&st3;" width="50" height="50"/>
		<rect x="50" y="200" transform="matrix(-1.836970e-16 1 -1 -1.836970e-16 300 150)" style="&st3;" width="50" height="50"/>
		
			<rect x="400" y="300" transform="matrix(-1.836970e-16 1 -1 -1.836970e-16 750.0001 -100)" style="&st3;" width="50" height="50"/>
		<rect x="100" y="300" transform="matrix(6.123234e-17 -1 1 6.123234e-17 -200 450)" style="&st3;" width="50" height="50"/>
		<rect x="100" y="250" transform="matrix(6.123234e-17 -1 1 6.123234e-17 -150 400)" style="&st3;" width="50" height="50"/>
		<rect x="100" y="200" transform="matrix(6.123234e-17 -1 1 6.123234e-17 -100 350)" style="&st3;" width="50" height="50"/>
		<rect x="100" y="150" transform="matrix(6.123234e-17 -1 1 6.123234e-17 -50 300)" style="&st3;" width="50" height="50"/>
		<rect x="300" y="400" transform="matrix(-1.836970e-16 1 -1 -1.836970e-16 750.0001 100)" style="&st3;" width="50" height="50"/>
		
			<rect x="450" y="350" transform="matrix(-1.836970e-16 1 -1 -1.836970e-16 850.0001 -100)" style="&st3;" width="50" height="50"/>
		<rect x="300" y="350" transform="matrix(-1.836970e-16 1 -1 -1.836970e-16 700 50)" style="&st3;" width="50" height="50"/>
		<rect x="450" y="400" transform="matrix(-1.836970e-16 1 -1 -1.836970e-16 900.0001 -50)" style="&st3;" width="50" height="50"/>
		
			<rect x="100" y="350" transform="matrix(-1 -3.267950e-07 3.267950e-07 -1 249.9999 750.0001)" style="&st3;" width="50" height="50"/>
		
			<rect x="150" y="400" transform="matrix(-1 -3.267950e-07 3.267950e-07 -1 349.9998 850.0001)" style="&st3;" width="50" height="50"/>
		
			<rect x="100" y="400" transform="matrix(-1 -3.267950e-07 3.267950e-07 -1 249.9999 850.0001)" style="&st3;" width="50" height="50"/>
	</g>
	<g>
		<rect x="350" y="400" transform="matrix(-1 -1.224647e-16 1.224647e-16 -1 750 850.0001)" style="&st4;" width="50" height="50"/>
		
			<rect x="400" y="400" transform="matrix(-1.836970e-16 1 -1 -1.836970e-16 850.0001 3.104649e-05)" style="&st4;" width="50" height="50"/>
		<rect x="250" y="400" transform="matrix(-1 -1.224647e-16 1.224647e-16 -1 550 850.0001)" style="&st4;" width="50" height="50"/>
		<rect x="50" y="100" style="&st4;" width="50" height="50"/>
		<rect x="0" y="150" transform="matrix(-1.836970e-16 1 -1 -1.836970e-16 200 150)" style="&st4;" width="50" height="50"/>
		<rect x="0" y="200" transform="matrix(-1.836970e-16 1 -1 -1.836970e-16 250 200)" style="&st4;" width="50" height="50"/>
		<rect x="50" y="300" transform="matrix(6.123234e-17 -1 1 6.123234e-17 -250 400)" style="&st4;" width="50" height="50"/>
		<rect x="50" y="250" transform="matrix(6.123234e-17 -1 1 6.123234e-17 -200 350)" style="&st4;" width="50" height="50"/>
		
			<rect x="50" y="350" transform="matrix(-1 -3.267950e-07 3.267950e-07 -1 149.9999 750.0001)" style="&st4;" width="50" height="50"/>
		
			<rect x="50" y="400" transform="matrix(-1 -3.267950e-07 3.267950e-07 -1 149.9998 850.0001)" style="&st4;" width="50" height="50"/>
		<rect x="200" y="400" transform="matrix(-1.836970e-16 1 -1 -1.836970e-16 650.0001 200)" style="&st4;" width="50" height="50"/>
		<rect x="250" y="350" transform="matrix(-1.836970e-16 1 -1 -1.836970e-16 650 100)" style="&st4;" width="50" height="50"/>
		<rect x="400" y="350" transform="matrix(-1.836970e-16 1 -1 -1.836970e-16 800.0001 -50)" style="&st4;" width="50" height="50"/>
		
			<rect x="400" y="400" transform="matrix(-1.836970e-16 1 -1 -1.836970e-16 850.0001 3.104649e-05)" style="&st4;" width="50" height="50"/>
		<rect x="350" y="400" transform="matrix(-1 -1.224647e-16 1.224647e-16 -1 750 850.0001)" style="&st4;" width="50" height="50"/>
	</g>
	<rect x="250" y="50" style="&st3;" width="50" height="50"/>
	<rect x="300" y="50" style="&st3;" width="50" height="50"/>
	<rect x="200" y="50" style="&st3;" width="50" height="50"/>
	<rect x="150" y="50" style="&st4;" width="50" height="50"/>
</g>
</svg>
