<?xml version="1.0" encoding="utf-8"?>
<!-- Generator: Adobe Illustrator 29.5.1, SVG Export Plug-In . SVG Version: 9.03 Build 0)  -->
<!DOCTYPE svg PUBLIC "-//W3C//DTD SVG 1.1//EN" "http://www.w3.org/Graphics/SVG/1.1/DTD/svg11.dtd" [
	<!ENTITY st0 "fill:#F5A52D;">
	<!ENTITY st1 "fill:#F9C014;">
]>
<svg version="1.1" id="Laag_1" xmlns="http://www.w3.org/2000/svg" xmlns:xlink="http://www.w3.org/1999/xlink" x="0px" y="0px"
	 viewBox="0 0 1440 601.99" style="enable-background:new 0 0 1440 601.99;" xml:space="preserve">
<rect x="1371.4" y="-141.44" style="&st0;" width="13.7" height="14.2"/>
<rect x="1289.2" y="-141.44" style="&st0;" width="13.7" height="14.2"/>
<rect x="1220.6" y="-141.44" style="&st0;" width="13.7" height="14.2"/>
<rect x="1412.6" y="-155.54" style="&st0;" width="13.7" height="14.2"/>
<rect x="1357.7" y="-155.54" style="&st0;" width="13.7" height="14.2"/>
<rect x="1165.7" y="-155.54" style="&st0;" width="13.7" height="14.2"/>
<rect x="1138.3" y="-141.44" style="&st0;" width="13.7" height="14.2"/>
<rect x="1110.9" y="-155.54" style="&st0;" width="13.7" height="14.2"/>
<rect x="1014.9" y="-141.44" style="&st0;" width="13.7" height="14.2"/>
<rect x="932.6" y="-141.44" style="&st0;" width="13.7" height="14.2"/>
<rect x="864" y="-141.44" style="&st0;" width="13.7" height="14.2"/>
<rect x="1056" y="-155.54" style="&st0;" width="13.7" height="14.2"/>
<rect x="1001.2" y="-155.54" style="&st0;" width="13.7" height="14.2"/>
<rect x="809.2" y="-155.54" style="&st0;" width="13.7" height="14.2"/>
<rect x="781.7" y="-141.44" style="&st0;" width="13.7" height="14.2"/>
<rect x="754.3" y="-155.54" style="&st0;" width="13.7" height="14.2"/>
<rect x="658.3" y="-141.44" style="&st0;" width="13.7" height="14.2"/>
<rect x="576" y="-141.44" style="&st0;" width="13.7" height="14.2"/>
<rect x="507.4" y="-141.44" style="&st0;" width="13.7" height="14.2"/>
<rect x="699.4" y="-155.54" style="&st0;" width="13.7" height="14.2"/>
<rect x="644.6" y="-155.54" style="&st0;" width="13.7" height="14.2"/>
<rect x="452.6" y="-155.54" style="&st0;" width="13.7" height="14.2"/>
<rect x="425.2" y="-141.44" style="&st0;" width="13.7" height="14.2"/>
<rect x="397.7" y="-155.54" style="&st0;" width="13.7" height="14.2"/>
<rect x="219.4" y="-141.44" style="&st0;" width="13.7" height="14.2"/>
<rect x="150.9" y="-141.44" style="&st0;" width="13.7" height="14.2"/>
<rect x="342.9" y="-155.54" style="&st0;" width="13.7" height="14.2"/>
<rect x="301.7" y="-141.44" style="&st0;" width="13.7" height="14.2"/>
<rect x="288" y="-155.54" style="&st0;" width="13.7" height="14.2"/>
<rect x="96" y="-155.54" style="&st0;" width="13.7" height="14.2"/>
<rect x="68.6" y="-141.44" style="&st0;" width="13.7" height="14.2"/>
<rect x="41.2" y="-155.54" style="&st0;" width="13.7" height="14.2"/>
<polygon style="&st1;" points="1440,-253.18 13.7,-253.18 13.7,-198.05 13.7,-183.85 13.7,-141.35 27.4,-141.35 27.4,-155.55 
	54.9,-155.55 54.9,-141.35 82.3,-141.35 82.3,-127.25 96,-127.25 96,-155.55 109.7,-155.55 109.7,-141.35 137.1,-141.35 
	137.1,-155.55 150.9,-155.55 150.9,-141.35 164.6,-141.35 164.6,-127.25 192,-127.25 192,-141.35 233.1,-141.35 233.1,-127.25 
	246.9,-127.25 246.9,-141.35 260.6,-141.35 260.6,-155.55 301.7,-155.55 301.7,-141.35 315.4,-141.35 315.4,-127.25 329.1,-127.25 
	329.1,-155.55 356.6,-155.55 356.6,-141.35 384,-141.35 384,-155.55 411.4,-155.55 411.4,-141.35 438.9,-141.35 438.9,-127.25 
	452.6,-127.25 452.6,-155.55 466.3,-155.55 466.3,-141.35 493.7,-141.35 493.7,-155.55 507.4,-155.55 507.4,-141.35 521.1,-141.35 
	521.1,-127.25 548.6,-127.25 548.6,-141.35 589.7,-141.35 589.7,-127.25 603.4,-127.25 603.4,-141.35 617.1,-141.35 617.1,-155.55 
	658.3,-155.55 658.3,-141.35 672,-141.35 672,-127.25 685.7,-127.25 685.7,-155.55 713.1,-155.55 713.1,-141.35 726.9,-141.35 
	740.6,-141.35 740.6,-155.55 754.3,-155.55 768,-155.55 768,-141.35 795.4,-141.35 795.4,-127.25 809.1,-127.25 809.1,-155.55 
	822.9,-155.55 822.9,-141.35 850.3,-141.35 850.3,-155.55 864,-155.55 864,-141.35 877.7,-141.35 877.7,-127.25 905.1,-127.25 
	905.1,-141.35 918.9,-141.35 946.3,-141.35 946.3,-127.25 960,-127.25 960,-141.35 973.7,-141.35 973.7,-155.55 1014.9,-155.55 
	1014.9,-141.35 1028.6,-141.35 1028.6,-127.25 1042.3,-127.25 1042.3,-155.55 1069.7,-155.55 1069.7,-141.35 1083.4,-141.35 
	1097.1,-141.35 1097.1,-155.55 1124.6,-155.55 1124.6,-141.35 1152,-141.35 1152,-127.25 1165.7,-127.25 1165.7,-155.55 
	1179.4,-155.55 1179.4,-141.35 1206.9,-141.35 1206.9,-155.55 1220.6,-155.55 1220.6,-141.35 1234.3,-141.35 1234.3,-127.25 
	1261.7,-127.25 1261.7,-141.35 1275.4,-141.35 1289.1,-141.35 1302.9,-141.35 1302.9,-127.25 1316.6,-127.25 1316.6,-141.35 
	1330.3,-141.35 1330.3,-155.55 1371.4,-155.55 1371.4,-141.35 1385.1,-141.35 1385.1,-127.25 1398.9,-127.25 1398.9,-155.55 
	1426.3,-155.55 1426.3,-141.35 1440,-141.35 1440,-183.85 1440,-198.05 "/>
<polygon style="&st0;" points="13.7,-253.18 0,-253.18 0,-198.05 0,-183.85 0,-141.35 13.7,-141.35 13.7,-183.85 13.7,-198.05 "/>
<rect x="1371.4" y="-141.34" transform="matrix(-1 -6.732499e-07 6.732499e-07 -1 2756.5005 -268.4767)" style="&st0;" width="13.7" height="14.2"/>
<rect x="507.4" y="-141.34" transform="matrix(-1 -6.732500e-07 6.732500e-07 -1 1028.5005 -268.4784)" style="&st0;" width="13.7" height="14.2"/>
<rect x="425.2" y="-141.34" transform="matrix(-1 -6.732500e-07 6.732500e-07 -1 864.1005 -268.4786)" style="&st0;" width="13.7" height="14.2"/>
<rect x="219.4" y="-141.34" transform="matrix(-1 -6.732502e-07 6.732502e-07 -1 452.5005 -268.479)" style="&st0;" width="13.7" height="14.2"/>
<rect x="150.9" y="-141.34" transform="matrix(-1 -6.732501e-07 6.732501e-07 -1 315.5005 -268.4792)" style="&st0;" width="13.7" height="14.2"/>
<polygon style="&st0;" points="0,14.19 0,28.39 0,42.59 0,56.69 0,70.89 0,85.09 0,601.99 13.7,601.99 13.7,85.09 13.7,70.89 
	13.7,56.69 13.7,42.59 13.7,28.39 13.7,14.19 "/>
<path style="&st1;" d="M1426.75,14.19L1426.75,14.19l-0.45-0.01V0.06h-27.9v0.03h-13.3v14.1h-13.7V0.01h-41.28v14.18h-13.52V0.09
	h-13.7v14.1h-13.7h-0.1l-13.7,0h-13.7V0.09H1248h-13.7l0,14.1h-13.7v14.2h-13.7v-0.01h13.7V0h-13.7v14.19h-13.8l-13.7,0V0h-13.7
	v0.09H1152v14.1h-13.7h-13.7v14.2h0V0.01h-28.3v14.18h-12.9h-13.07V0.01l-28.3,0v0.08h-13.43v14.1h-13.7v14.2h-0.1l0-28.33h-41.28
	v14.13H960V0.09h-13.7v14.1h-13.7h-13.7l-13.8,0V0.09h-13.7h-13.7v14.1h-13.45V0.01l-14.2,0l0,14.18H836.6l-13.45,0V0.01l-14.2,0
	v0.08H795.4v14.1h-13.7H768v14.2h0V0.01h-28.3v14.18l-12.8,0h-13.35V0.01l-28.3,0v0.08H672v14.1h-13.7v14.2h0V0.01h-41.28v14.18
	H603.4V0.09h-13.7v14.1H576h-13.7l-13.7,0V0.09h-13.7h-13.8v14.1h-13.7V0.01l-13.7,0v14.17h0v0.01H480h-13.7V0h-13.7v0.09h-13.7
	v14.1h-13.7h-0.1h-13.25V0.01h-28.3v14.18l-13.25,0h-13.6V0.01l-28.3,0v0.08h-13v14.1h-13.7V0.01h-41.28v14.18H246.9V0.09h-13.8
	V0.01l-41.28,0v0.08H178.3h-13.7v14.1h-13.7V0.09h-13.8v14.1h-13.7h-13.7V0.09H96v0H82.3v14.1H68.6H54.9v14.2H41.2h-0.1H27.4v0
	l27.5,0V0.09l-27.5,0v14.1H13.7v14.2v14.2v14.1v14.2l0,14.2l0,516.9l1426.3,0l0-516.9l0-14.2v-14.2v-14.1v-14.2v-14.2H1426.75z
	 M109.7,28.39H96v0L109.7,28.39L109.7,28.39z M150.9,28.39h-13.8v0L150.9,28.39L150.9,28.39z M342.9,28.39h-13.8v0h27.5v0H342.9z
	 M397.7,28.39l-13.7,0v0h27.4v0H397.7z M466.3,28.39h-13.7v-0.01L466.3,28.39L466.3,28.39z M507.4,28.39h-13.7v-0.01L507.4,28.39
	L507.4,28.39z M809.2,28.39h-0.1v-0.01h13.8v0.01H809.2z M850.3,28.39V14.21h0L850.3,28.39l13.7-0.01v0.01H850.3z"/>
</svg>
