<?xml version="1.0" encoding="utf-8"?>
<!-- Generator: Adobe Illustrator 29.5.1, SVG Export Plug-In . SVG Version: 9.03 Build 0)  -->
<!DOCTYPE svg PUBLIC "-//W3C//DTD SVG 1.1//EN" "http://www.w3.org/Graphics/SVG/1.1/DTD/svg11.dtd" [
	<!ENTITY st0 "fill:#FFFFFE;">
	<!ENTITY st1 "fill:#2B2B2B;">
	<!ENTITY st2 "fill:#5A5A58;">
	<!ENTITY st3 "fill:#E8E8E8;">
	<!ENTITY st4 "fill:#CAC9C9;">
]>
<svg version="1.1" id="Laag_1" xmlns="http://www.w3.org/2000/svg" xmlns:xlink="http://www.w3.org/1999/xlink" x="0px" y="0px"
	 viewBox="0 0 500 500" style="enable-background:new 0 0 500 500;" xml:space="preserve">
<rect x="149.93" y="141.28" style="&st0;" width="250.18" height="250.18"/>
<rect x="306.29" y="216.33" style="&st1;" width="18.76" height="37.53"/>
<rect x="224.98" y="216.33" style="&st1;" width="18.76" height="37.53"/>
<rect x="310.98" y="231.97" style="&st0;" width="9.38" height="18.76"/>
<rect x="229.67" y="231.97" style="&st0;" width="9.38" height="18.76"/>
<rect x="400.11" y="341.42" transform="matrix(-1.836970e-16 1 -1 -1.836970e-16 791.5668 -58.6855)" style="&st2;" width="50.04" height="50.04"/>
<g>
	<polygon style="&st3;" points="450.14,191.31 450.14,141.28 450.14,91.24 400.11,91.24 350.07,91.24 350.07,41.21 300.04,41.21 
		250,41.21 250,41.21 199.96,41.21 199.96,91.24 199.96,91.24 149.93,91.24 99.89,91.24 99.89,141.28 49.86,141.28 49.86,191.31 
		49.86,241.35 99.89,241.35 99.89,291.39 99.89,341.42 99.89,391.46 99.89,441.49 149.93,441.49 199.96,441.49 199.96,391.46 
		149.93,391.46 149.93,341.42 149.93,291.39 149.93,241.35 149.93,191.31 149.93,141.28 199.96,141.28 250,141.28 300.04,141.28 
		350.07,141.28 400.11,141.28 400.11,191.31 400.11,241.35 400.11,291.39 400.11,341.42 450.14,341.42 450.14,291.39 500.18,291.39 
		500.18,241.35 500.18,191.31 	"/>
	<polygon style="&st3;" points="300.04,391.46 300.04,441.49 350.07,441.49 350.07,391.46 350.07,341.42 300.04,341.42 	"/>
	<polygon style="&st3;" points="450.14,441.49 500.18,441.49 500.18,391.46 500.18,341.42 450.14,341.42 450.14,391.46 	"/>
</g>
<g>
	<rect x="49.86" y="91.24" style="&st4;" width="50.04" height="50.04"/>
	<polygon style="&st4;" points="-0.18,191.31 -0.18,241.35 49.86,241.35 49.86,191.31 49.86,141.28 -0.18,141.28 	"/>
	<polygon style="&st4;" points="49.86,341.42 49.86,341.42 49.86,391.46 49.86,441.49 99.89,441.49 99.89,391.46 99.89,341.42 
		99.89,291.39 99.89,241.35 49.86,241.35 49.86,291.39 	"/>
	<polygon style="&st4;" points="250,391.46 199.96,391.46 199.96,441.49 250,441.49 300.04,441.49 300.04,391.46 300.04,341.42 
		250,341.42 	"/>
	<polygon style="&st4;" points="400.11,341.42 400.11,391.46 350.07,391.46 350.07,441.49 400.11,441.49 450.14,441.49 
		450.14,391.46 450.14,341.42 	"/>
	<rect x="149.93" y="41.21" style="&st4;" width="50.04" height="50.04"/>
</g>
</svg>
